<svg width="606" height="423" viewBox="0 0 606 423" fill="none" xmlns="http://www.w3.org/2000/svg">
<path opacity="0.1" d="M52.2687 419.949H581.72C625.604 383.341 603.021 273.185 566.366 250.855C526.909 226.817 589.563 143.686 528.782 116.704C489.098 99.0862 425.981 118.288 434.471 71.1529C446.243 5.79059 308.639 -10.9559 207.263 6.66283C97.6632 25.711 197.75 119.364 77.2222 138.233C15.2459 147.935 27.222 230.947 33.0008 248.101C38.0341 263.042 71.333 286.74 25.0549 319.375C-42.8056 367.23 50.6691 419.068 52.2687 419.949Z" fill="#9BC1F9"/>
<path d="M522.56 140.357C522.56 140.357 513.892 159.226 508.06 167.196C502.227 175.167 496.672 182.789 492.017 204.911C487.363 227.033 488.162 229.257 486.888 234.971C485.615 240.685 477.325 263.834 477.277 268.08C477.23 272.325 460.525 296.49 456.246 307.801C451.968 319.111 444.388 335.268 444.814 343.494L446.718 343.011C446.718 343.011 448.27 323.83 461.475 304.447C474.68 285.063 472.791 281.404 487.787 271.446C502.783 261.488 512.468 233.981 512.468 233.981C512.468 233.981 527.722 204.104 527.012 188.572C526.303 173.04 530.352 159.032 522.56 140.357Z" fill="#633C8D"/>
<path d="M502.263 111.336C502.263 111.336 501.759 123.731 497.76 131.094C493.762 138.457 490.318 142.929 489.592 150.896C488.866 158.862 486.355 179.4 475.207 189.427C464.058 199.453 462.634 229.497 454.148 238.585C445.662 247.674 444.554 254.206 446.12 269.793C447.686 285.381 453.011 306.983 440.7 335.179L437.918 328.166C437.918 328.166 446.725 304.969 444.593 291.387C442.461 277.804 435.042 257.281 437.757 247.437C440.473 237.594 430.375 235.672 436.456 220.784C442.536 205.897 440.039 200.724 448.316 187.852C448.316 187.852 449.165 187.249 451.341 176.359C453.518 165.468 471.062 145.507 479.147 138.695C487.231 131.883 498.883 120.967 502.263 111.336Z" fill="#633C8D"/>
<path d="M469.33 172.705C469.33 172.705 459.648 189.281 459.511 199.951C459.373 210.62 460.529 219.298 455.63 233.908C450.732 248.518 460.455 257.754 457.652 265.821C454.85 273.887 454.634 283.438 454.719 290.68C454.804 297.923 443.629 321.892 441.928 334.028C440.227 346.164 442.4 346.204 442.4 346.204C442.4 346.204 444.253 330.181 446.824 324.883C449.396 319.585 457.214 301.318 459.041 294.251C460.867 287.184 465.818 282.648 470.089 270.679C474.36 258.71 480.431 248.629 479.967 231.646C479.504 214.663 486.339 196.737 469.33 172.705Z" fill="#39548F"/>
<path d="M448.831 335.082C448.831 335.082 453.347 314.045 472.385 311.945C491.424 309.844 502.607 313.608 516.057 298.239C529.506 282.869 537.319 258.479 541.615 254.28C541.615 254.28 534.858 250.804 523.622 261.307C512.387 271.811 504.496 279.778 497.992 285.894C491.488 292.009 486.206 288.022 479.339 292.053C473.584 295.432 466.142 305.197 462.865 310.312C461.8 311.974 460.538 313.498 459.088 314.837C457.768 316.054 456.197 317.546 455.19 318.644C453.174 320.841 447.359 335.158 447.359 335.158L448.831 335.082Z" fill="#39548F"/>
<path d="M442.123 331.371C442.123 331.371 448.833 305.644 444.339 293.054C439.844 280.464 425.775 271.148 426.34 263.239C426.906 255.33 435.938 233.955 428.573 218.041C428.573 218.041 425.775 232.236 423.015 235.394C420.254 238.551 401.308 251.286 404.667 268.103C408.026 284.921 426.444 288.853 430.98 293.804C435.516 298.755 441.64 298.749 441.679 302.041C441.718 305.333 442.912 317.303 440.878 329.114L442.123 331.371Z" fill="#39548F"/>
<path d="M449.459 314.154L458.885 287.001C458.885 287.001 464.422 265.162 467.632 246.95C470.842 228.738 469.33 172.705 469.33 172.705C469.33 172.705 459.648 189.281 459.51 199.951C459.372 210.62 460.528 219.298 455.63 233.908C450.732 248.518 460.455 257.754 457.652 265.821C454.85 273.887 454.633 283.438 454.718 290.68C454.804 297.923 443.628 321.892 441.927 334.028C440.996 340.676 441.227 343.69 441.626 345.061C440.114 334.446 449.459 314.154 449.459 314.154Z" fill="#633C8D"/>
<path d="M495.892 297.979C487.483 299.658 479.964 299.085 469.982 306.515C460 313.945 454.129 321.88 454.129 321.88C454.129 321.88 449.642 329.899 447.787 334.126C447.52 334.772 447.363 335.158 447.363 335.158L448.835 335.083C448.835 335.083 453.35 314.046 472.389 311.945C491.427 309.844 502.611 313.608 516.06 298.239C529.51 282.87 537.322 258.479 541.619 254.28C541.619 254.28 527.313 265.409 518.473 275.259C509.634 285.108 504.301 296.299 495.892 297.979Z" fill="#633C8D"/>
<path d="M423.015 235.394C420.255 238.551 401.308 251.286 404.667 268.103C408.026 284.921 426.444 288.853 430.98 293.804C435.516 298.755 441.64 298.749 441.679 302.041C441.718 305.333 442.912 317.303 440.878 329.114L441.422 330.1C442.416 325.49 443.795 318.471 444.246 313.14C444.978 304.483 443.575 300.9 440.793 293.887C438.01 286.874 420.721 272.591 416.389 265.081C412.057 257.572 424.743 245.019 427.558 238.958C430.374 232.898 428.574 218.041 428.574 218.041C428.574 218.041 425.776 232.236 423.015 235.394Z" fill="#633C8D"/>
<path d="M467.959 318.941L470.918 311.789C473.215 306.528 479.091 304.016 484.043 306.178C496.522 311.626 501.948 326.788 496.161 340.045L491.93 349.737C490.077 353.983 490.722 358.654 493.222 361.947C495.491 364.938 495.862 369.097 494.288 372.703L492.058 377.813C489.643 383.345 484.945 387.441 479.372 389.131C476.113 390.119 473.235 392.565 471.713 396.052L468.554 403.287C465.063 411.285 456.128 415.105 448.599 411.818L444.303 409.943C436.774 406.656 433.5 397.508 436.992 389.509C442.638 379.946 442.188 372.807 440.187 367.966C437.245 360.848 437.279 352.657 440.462 345.367L440.908 344.344C444.267 336.649 450.753 330.904 458.478 328.444C461.888 327.358 465.442 324.706 467.959 318.941Z" fill="#BACFFF"/>
<path d="M414.672 419.949C420.728 412.097 453.937 370.031 475.59 363.021C499.492 355.284 476.965 386.016 476.965 386.016C476.965 386.016 519.366 339.652 534.926 343.831C549.189 347.663 534.926 376.402 534.926 376.402C534.926 376.402 550.99 360.488 570.471 360.488C589.431 360.488 557.225 416.928 555.488 419.949H414.672Z" fill="#BACFFF"/>
<path d="M542.455 328.95C525.131 356.007 512.487 386.063 505.258 417.993L504.07 417.675C511.269 386.413 523.828 356.409 541.123 329.382C545.143 323.101 549.483 315.65 557.009 313.2C557.155 313.152 557.209 313.373 557.071 313.425C550.197 316.015 546.215 323.077 542.455 328.95Z" fill="#39548F"/>
<path d="M509.434 419.113C528.792 392.788 552.328 368.456 580.313 347.297C580.592 347.085 580.969 347.572 580.688 347.788C554.146 368.191 530.664 392.283 510.905 419.508L509.434 419.113Z" fill="#39548F"/>
<path d="M544.036 312.171C544.482 312.827 546.189 314.538 546.691 316.785C547.364 318.917 546.832 321.585 546.775 321.492C546.647 321.545 548.751 319.766 549.408 316.937C550.259 314.223 549.663 310.459 548.605 309.212C546.777 306.393 543.583 306.107 542.963 307.474C542.304 308.831 543.139 310.679 544.036 312.171Z" fill="#39548F"/>
<path d="M548.182 336.322C547.535 335.863 545.858 334.123 543.621 333.577C541.503 332.861 538.824 333.34 538.916 333.399C538.861 333.527 540.681 331.458 543.523 330.857C546.253 330.06 550.004 330.729 551.23 331.812C554.013 333.695 554.236 336.894 552.857 337.487C551.486 338.119 549.656 337.248 548.182 336.322Z" fill="#39548F"/>
<path d="M541.927 346.907C541.281 346.448 539.604 344.708 537.367 344.162C535.249 343.446 532.57 343.925 532.662 343.984C532.607 344.112 534.427 342.043 537.268 341.442C539.998 340.644 543.75 341.314 544.976 342.397C547.759 344.28 547.982 347.479 546.603 348.072C545.232 348.704 543.401 347.833 541.927 346.907Z" fill="#39548F"/>
<path d="M564.236 371.458C563.589 370.999 561.913 369.259 559.676 368.713C557.557 367.998 554.879 368.477 554.971 368.536C554.916 368.663 556.736 366.595 559.577 365.993C562.307 365.196 566.059 365.866 567.285 366.948C570.068 368.832 570.29 372.03 568.911 372.624C567.54 373.255 565.71 372.384 564.236 371.458Z" fill="#39548F"/>
<path d="M575.635 361.417C574.988 360.958 573.311 359.218 571.074 358.672C568.956 357.956 566.277 358.435 566.37 358.495C566.314 358.622 568.134 356.554 570.976 355.952C573.705 355.155 577.457 355.825 578.683 356.907C581.466 358.791 581.689 361.989 580.31 362.583C578.939 363.214 577.109 362.343 575.635 361.417Z" fill="#39548F"/>
<path d="M535.288 324.148C535.832 324.725 537.787 326.145 538.637 328.286C539.638 330.285 539.533 333.004 539.462 332.921C539.344 332.994 541.141 330.905 541.344 328.007C541.756 325.194 540.575 321.57 539.333 320.505C537.083 318.01 533.884 318.231 533.487 319.679C533.051 321.123 534.167 322.816 535.288 324.148Z" fill="#39548F"/>
<path d="M526.088 336.152C526.862 336.563 529.566 337.307 530.926 339.331C532.466 341.131 532.661 344.211 532.559 344.149C532.414 344.281 534.486 341.178 534.396 337.856C534.588 334.539 532.618 331.003 530.881 330.348C527.665 328.53 523.552 330.151 523.214 331.938C522.825 333.737 524.475 335.147 526.088 336.152Z" fill="#39548F"/>
<path d="M516.408 354.333C517.24 354.608 520.031 354.887 521.712 356.653C523.532 358.169 524.243 361.172 524.131 361.128C524.011 361.282 525.531 357.875 524.885 354.616C524.515 351.313 521.979 348.159 520.156 347.806C516.681 346.554 512.898 348.845 512.866 350.663C512.786 352.502 514.649 353.614 516.408 354.333Z" fill="#39548F"/>
<path d="M545.055 366.998C545.661 367.376 547.818 368.136 548.81 369.859C549.959 371.411 549.943 373.928 549.863 373.871C549.738 373.971 551.6 371.564 551.716 368.858C552.061 366.17 550.66 363.181 549.284 362.55C546.772 360.888 543.333 361.973 542.957 363.407C542.538 364.848 543.8 366.089 545.055 366.998Z" fill="#39548F"/>
<path d="M559.967 316.428C559.605 316.128 558.689 315.025 557.39 314.605C556.168 314.088 554.562 314.255 554.615 314.294C554.576 314.367 555.743 313.223 557.451 312.991C559.101 312.639 561.29 313.199 561.969 313.894C563.532 315.129 563.524 317.032 562.682 317.322C561.844 317.636 560.799 317.04 559.967 316.428Z" fill="#39548F"/>
<path d="M556.495 308.702C556.511 309.172 556.825 310.57 556.365 311.856C556.028 313.139 554.916 314.309 554.917 314.244C554.836 314.23 556.454 314.004 557.68 312.793C558.966 311.701 559.859 309.625 559.723 308.664C559.699 306.671 558.188 305.516 557.444 306.006C556.684 306.478 556.517 307.669 556.495 308.702Z" fill="#39548F"/>
<path d="M583.842 351.189C583.48 350.889 582.564 349.786 581.265 349.365C580.043 348.849 578.437 349.015 578.49 349.054C578.451 349.127 579.618 347.984 581.326 347.752C582.976 347.4 585.166 347.96 585.844 348.654C587.407 349.89 587.399 351.792 586.557 352.083C585.719 352.397 584.674 351.801 583.842 351.189Z" fill="#39548F"/>
<path d="M579.653 343.396C579.707 343.864 580.135 345.232 579.782 346.551C579.551 347.857 578.539 349.114 578.534 349.049C578.452 349.042 580.047 348.684 581.169 347.377C582.362 346.183 583.082 344.04 582.868 343.094C582.68 341.11 581.079 340.083 580.378 340.631C579.659 341.165 579.59 342.365 579.653 343.396Z" fill="#39548F"/>
<path d="M576.736 393.752C559.046 395.692 542.57 403.5 526.71 411.115C516.015 416.249 516.555 417.712 514.376 418.477C514.023 418.6 513.67 418.217 513.842 417.877C514.68 416.217 516.877 415.094 518.406 414.139C520.186 413.028 522.045 412.046 523.932 411.13C527.969 409.17 532.111 407.406 536.226 405.618C544.597 401.981 553.104 398.56 561.948 396.244C566.797 394.974 571.73 394.059 576.724 393.609C576.817 393.6 576.828 393.742 576.736 393.752Z" fill="#39548F"/>
<path d="M560.793 388.268C560.908 388.994 561.664 391.101 561.197 393.183C560.921 395.236 559.422 397.263 559.411 397.162C559.282 397.155 561.748 396.494 563.415 394.382C565.199 392.443 566.184 389.053 565.789 387.59C565.37 384.506 562.805 383.007 561.746 383.908C560.659 384.786 560.63 386.664 560.793 388.268Z" fill="#39548F"/>
<path d="M545.207 393.848C545.322 394.574 546.078 396.681 545.612 398.763C545.335 400.816 543.836 402.843 543.825 402.742C543.696 402.735 546.162 402.074 547.829 399.962C549.613 398.023 550.599 394.633 550.204 393.17C549.784 390.086 547.219 388.587 546.16 389.488C545.073 390.366 545.044 392.244 545.207 393.848Z" fill="#39548F"/>
<path d="M529.375 400.907C529.49 401.632 530.246 403.739 529.779 405.821C529.503 407.874 528.004 409.901 527.993 409.8C527.864 409.794 530.33 409.133 531.997 407.02C533.781 405.082 534.767 401.692 534.372 400.228C533.952 397.144 531.387 395.645 530.328 396.546C529.241 397.424 529.212 399.302 529.375 400.907Z" fill="#39548F"/>
<path d="M565.445 402.828C565.125 402.23 564.506 400.255 563.001 398.981C561.651 397.623 559.416 396.965 559.464 397.046C559.372 397.122 561.558 396.234 563.965 396.859C566.362 397.292 568.98 399.241 569.506 400.539C570.917 403.046 569.865 405.582 568.581 405.509C567.29 405.469 566.221 404.102 565.445 402.828Z" fill="#39548F"/>
<path d="M549.234 408.566C548.914 407.967 548.295 405.992 546.79 404.719C545.44 403.36 543.204 402.703 543.253 402.784C543.161 402.86 545.347 401.971 547.754 402.597C550.151 403.03 552.769 404.978 553.295 406.277C554.707 408.784 553.654 411.32 552.37 411.247C551.079 411.207 550.009 409.839 549.234 408.566Z" fill="#39548F"/>
<path d="M577.791 396.922C577.51 396.588 576.861 395.43 575.747 394.829C574.72 394.154 573.23 394.037 573.271 394.081C573.224 394.141 574.479 393.295 576.073 393.369C577.635 393.325 579.537 394.202 580.038 394.948C581.256 396.336 580.93 398.067 580.114 398.191C579.298 398.337 578.446 397.619 577.791 396.922Z" fill="#39548F"/>
<path d="M575.919 389.301C575.855 389.732 575.907 391.059 575.273 392.154C574.751 393.266 573.542 394.146 573.553 394.087C573.481 394.061 574.994 394.126 576.314 393.228C577.668 392.448 578.83 390.706 578.867 389.808C579.178 387.988 577.995 386.683 577.235 387.004C576.463 387.307 576.112 388.364 575.919 389.301Z" fill="#39548F"/>
<path d="M120.321 285.598C99.5351 267.063 88.8472 240.446 83.5414 221.38C77.7814 200.682 76.9424 184.163 76.9345 183.998L75.8047 183.929C75.8126 184.094 76.6553 200.735 82.4502 221.571C87.8052 240.826 98.6057 267.716 119.649 286.48L120.321 285.598Z" fill="#39548F"/>
<path d="M79.3014 179.206C80.3259 183.972 79.4683 188.474 77.284 191.725C73.859 189.203 71.1655 185.163 70.141 180.398C69.1167 175.632 69.9741 171.13 72.1587 167.879C75.5837 170.401 78.2771 174.441 79.3014 179.206Z" fill="#39548F"/>
<path d="M72.9279 192.777C76.5091 196.11 78.6025 200.486 79.0082 204.7C75.0766 204.879 70.7514 203.284 67.1702 199.952C63.5889 196.62 61.4955 192.243 61.0898 188.029C65.0212 187.85 69.3466 189.445 72.9279 192.777Z" fill="#39548F"/>
<path d="M71.2458 207.035C75.6965 208.432 79.3463 211.531 81.5065 215.296C78.2765 217.37 73.9497 217.967 69.499 216.571C65.0483 215.174 61.3984 212.075 59.2383 208.31C62.4683 206.236 66.7951 205.639 71.2458 207.035Z" fill="#39548F"/>
<path d="M78.1007 224.188C81.6261 225.3 84.4447 228.144 86.0413 231.736C83.3685 233.981 79.8686 234.832 76.3432 233.72C72.8177 232.609 69.999 229.765 68.4023 226.173C71.0751 223.928 74.5752 223.076 78.1007 224.188Z" fill="#39548F"/>
<path d="M84.1216 199.708C86.8962 196.914 90.5707 195.724 94.1278 196.106C94.3247 199.87 93.0265 203.686 90.2522 206.479C87.4778 209.272 83.8031 210.462 80.2461 210.08C80.0489 206.316 81.3471 202.5 84.1216 199.708Z" fill="#39548F"/>
<path d="M87.3364 212C90.111 209.207 93.7855 208.016 97.3426 208.398C97.5395 212.163 96.2413 215.978 93.467 218.771C90.6927 221.564 87.0179 222.755 83.4609 222.373C83.264 218.608 84.5621 214.793 87.3364 212Z" fill="#39548F"/>
<path d="M107.793 310.734C88.5978 307.936 72.171 296.564 61.7706 287.517C50.4801 277.695 43.6537 268.415 43.586 268.322L42.9023 268.715C42.9705 268.808 49.8456 278.158 61.2099 288.047C71.7112 297.185 88.3079 308.672 107.741 311.504L107.793 310.734Z" fill="#BACFFF"/>
<path d="M43.1241 264.628C45.5483 267.006 46.7772 269.951 46.7548 272.679C43.7964 272.528 40.6805 271.213 38.2561 268.836C35.8321 266.458 34.603 263.513 34.6253 260.785C37.584 260.936 40.6998 262.251 43.1241 264.628Z" fill="#BACFFF"/>
<path d="M44.6255 274.963C47.9859 275.526 50.882 277.267 52.7351 279.561C50.5184 281.173 47.3919 281.906 44.0315 281.343C40.6711 280.78 37.7749 279.039 35.9219 276.745C38.1385 275.133 41.2651 274.401 44.6255 274.963Z" fill="#BACFFF"/>
<path d="M49.1198 283.897C52.2429 283.001 55.5537 283.402 58.2542 284.761C57.1725 287.207 54.8861 289.214 51.7633 290.11C48.6404 291.006 45.3293 290.605 42.6289 289.245C43.7106 286.8 45.9968 284.793 49.1198 283.897Z" fill="#BACFFF"/>
<path d="M59.6847 291.237C62.1608 290.531 64.8905 291.103 67.1969 292.578C66.5046 294.908 64.7968 296.746 62.3207 297.453C59.8449 298.159 57.115 297.588 54.8086 296.112C55.5009 293.781 57.2086 291.944 59.6847 291.237Z" fill="#BACFFF"/>
<path d="M53.7932 274.696C54.3342 272.008 56.0133 269.906 58.2276 268.763C59.7868 270.876 60.4961 273.592 59.9552 276.28C59.4142 278.968 57.735 281.071 55.5207 282.213C53.9615 280.101 53.252 277.385 53.7932 274.696Z" fill="#BACFFF"/>
<path d="M60.379 280.608C60.9202 277.92 62.5992 275.818 64.8135 274.675C66.3724 276.788 67.0819 279.504 66.541 282.192C66 284.88 64.3206 286.982 62.1065 288.125C60.5476 286.012 59.8381 283.297 60.379 280.608Z" fill="#BACFFF"/>
<path d="M119.352 368.184C97.2102 376.589 72.8368 372.15 56.2886 366.945C38.3242 361.295 25.4433 353.547 25.315 353.47L24.8242 354.408C24.953 354.486 37.9281 362.292 56.0113 367.983C72.7215 373.242 97.346 377.725 119.762 369.215L119.352 368.184Z" fill="#BACFFF"/>
<path d="M22.5921 348.973C26.6116 350.534 29.7011 353.581 31.3254 357.13C28.082 358.788 23.9677 359.037 19.9482 357.476C15.9289 355.915 12.8391 352.868 11.2148 349.319C14.4581 347.661 18.5726 347.412 22.5921 348.973Z" fill="#BACFFF"/>
<path d="M30.4385 361.425C34.3587 360.048 38.4965 360.488 41.8569 362.3C40.4695 365.779 37.5808 368.687 33.6606 370.064C29.7404 371.441 25.6026 371.001 22.2422 369.189C23.6296 365.71 26.5183 362.802 30.4385 361.425Z" fill="#BACFFF"/>
<path d="M40.6217 370.183C43.4074 367.065 47.1776 365.51 50.8765 365.579C51.2013 369.425 49.9785 373.459 47.1925 376.578C44.4068 379.697 40.6365 381.252 36.9379 381.182C36.6129 377.336 37.8359 373.302 40.6217 370.183Z" fill="#BACFFF"/>
<path d="M54.8758 374.706C57.6615 371.587 61.4318 370.032 65.1307 370.101C65.4554 373.948 64.2326 377.981 61.4467 381.1C58.6607 384.219 54.8907 385.774 51.1918 385.705C50.8668 381.858 52.0898 377.825 54.8758 374.706Z" fill="#BACFFF"/>
<path d="M41.4664 360.094C39.0149 356.902 37.9221 353.056 38.182 349.566C41.4108 349.942 44.7117 351.818 47.1634 355.01C49.615 358.202 50.7077 362.049 50.448 365.538C47.2189 365.162 43.9178 363.287 41.4664 360.094Z" fill="#BACFFF"/>
<path d="M56.2705 364.729C53.773 361.574 52.6206 357.739 52.8236 354.238C56.0512 354.558 59.3756 356.379 61.8731 359.534C64.3708 362.689 65.5229 366.523 65.32 370.024C62.0923 369.704 58.7682 367.884 56.2705 364.729Z" fill="#BACFFF"/>
<path d="M73.6051 375.944C74.26 374.282 75.5607 373.127 77.085 372.65C77.8163 374.187 77.9435 376.012 77.2886 377.674C76.6338 379.337 75.3328 380.491 73.8085 380.968C73.0774 379.432 72.9502 377.606 73.6051 375.944Z" fill="#BACFFF"/>
<path d="M166.873 418.326C166.873 418.326 195.084 306.754 185.729 295.543C172.801 280.05 162.136 331.447 161.09 327.082C151.207 285.854 148.575 233.104 116.695 227.521C98.5728 224.347 120.881 266.747 119.539 278.215C118.197 289.682 85.5386 251.609 65.6931 231.662C45.8475 211.715 35.5982 224.344 48.1373 249.426C60.2625 273.68 99.488 300.184 91.4026 303.328C83.3171 306.473 34.2298 275.152 28.2185 288.541C20.8482 304.957 94.4814 327.3 87.5477 330.987C80.6139 334.675 45.4216 322.529 46.3831 335.083C47.3444 347.637 94.6528 347.17 93.8442 352.691C92.5352 361.633 61.2454 341.395 59.8701 353.766C58.4634 366.421 101.034 364.112 100.297 373.981C99.8732 379.653 90.7386 371.098 89.3928 378.954C86.3239 396.868 142.443 418.69 142.443 418.69L166.873 418.326Z" fill="#39548F"/>
<path d="M188.387 419.008C188.387 419.008 161.539 377.844 148.62 370.071C134.854 361.79 145.334 386.584 145.334 386.584C145.334 386.584 117.203 353.11 109.383 359.911C101.563 366.712 108.661 374.588 108.661 374.588C108.661 374.588 83.4062 367.105 78.8669 376.375C71.8918 390.619 113.471 402.431 113.471 402.431C113.471 402.431 95.6218 402.242 98.9057 411.859C103.858 426.362 188.387 419.008 188.387 419.008Z" fill="#BACFFF"/>
<path d="M78.8672 376.374C83.4065 367.104 108.661 374.588 108.661 374.588C108.661 374.588 101.564 366.712 109.384 359.911C117.203 353.109 139.707 373.468 139.707 373.468C139.707 373.468 137.348 356.679 154.293 371.468C166.397 382.032 188.387 419.008 188.387 419.008L78.8672 376.374Z" fill="#BACFFF"/>
<path d="M155.796 315.652L157.001 314.829C135.142 281.724 128.469 242.42 126.721 215.277C124.824 185.822 128.154 163.929 128.188 163.712L126.695 163.278C126.661 163.497 123.305 185.536 125.209 215.167C126.969 242.54 133.704 282.193 155.796 315.652Z" fill="#BACFFF"/>
<path d="M132.492 158.554C132.54 165.205 130.232 170.703 126.549 174.001C122.808 169.246 120.416 162.824 120.368 156.174C120.32 149.524 122.628 144.025 126.311 140.727C130.052 145.483 132.444 151.904 132.492 158.554Z" fill="#BACFFF"/>
<path d="M120.651 173.503C124.377 179.382 125.907 185.984 125.304 191.65C120.19 190.196 115.041 186.26 111.316 180.38C107.59 174.5 106.06 167.899 106.663 162.232C111.777 163.687 116.926 167.623 120.651 173.503Z" fill="#BACFFF"/>
<path d="M114.679 191.362C120.042 195.092 123.918 200.698 125.697 206.532C120.98 207.848 115.245 206.768 109.881 203.038C104.518 199.307 100.642 193.701 98.8633 187.867C103.579 186.552 109.316 187.631 114.679 191.362Z" fill="#BACFFF"/>
<path d="M121.674 222.541C124.013 223.936 125.79 226.174 126.702 228.58C124.782 229.295 122.367 229.031 120.028 227.636C117.689 226.24 115.912 224.002 115 221.597C116.92 220.882 119.335 221.145 121.674 222.541Z" fill="#BACFFF"/>
<path d="M123.573 234.091C125.911 235.487 127.688 237.725 128.601 240.13C126.68 240.845 124.266 240.582 121.927 239.186C119.588 237.79 117.811 235.552 116.898 233.147C118.819 232.433 121.234 232.696 123.573 234.091Z" fill="#BACFFF"/>
<path d="M133.225 187.339C137.547 184.891 142.601 184.917 147.083 186.941C146.331 191.932 143.64 196.347 139.318 198.795C134.997 201.244 129.943 201.218 125.461 199.193C126.212 194.203 128.904 189.788 133.225 187.339Z" fill="#BACFFF"/>
<path d="M134.089 204.739C138.41 202.29 143.464 202.316 147.946 204.341C147.195 209.331 144.503 213.746 140.182 216.195C135.86 218.643 130.807 218.617 126.324 216.593C127.076 211.602 129.767 207.187 134.089 204.739Z" fill="#BACFFF"/>
<path d="M133.233 229.642C136.046 228.048 139.335 228.065 142.253 229.383C141.764 232.631 140.012 235.504 137.199 237.098C134.386 238.692 131.097 238.675 128.18 237.357C128.669 234.109 130.421 231.235 133.233 229.642Z" fill="#BACFFF"/>
<path d="M441.681 327.814C444.221 328.226 444.071 328.641 444.398 328.684C444.784 328.736 449.369 326.434 449.369 326.434C449.369 326.434 462.928 319.741 463.647 319.353L473.434 307.04L480.976 310.519C480.976 310.519 469.969 323.61 469.273 324.187C468.577 324.763 449.135 331.581 447.444 332.238C447.444 332.238 445.74 333.796 444.637 334.738C443.534 335.679 442.059 336.052 441.707 336.266C441.655 336.298 440.438 336.94 438.719 337.314C437.237 337.636 438.472 336.63 438.472 336.63C438.472 336.63 441.093 335.523 440.964 335.323C440.865 335.169 439.471 335.861 437.836 336.235C437.416 336.332 437.001 336.425 436.619 336.508C435.615 336.725 435.174 336.151 436.182 335.751C436.539 335.609 437.136 335.39 437.586 335.296C438.072 335.194 438.481 334.939 438.874 334.789C439.655 334.492 440.229 334.286 440.198 334.259C440.158 334.224 440.268 334.051 439.818 334.139C439.277 334.245 438.186 334.731 437.377 334.823C436.918 334.875 435.967 335.043 435.967 335.043C435.967 335.043 434.286 335.204 434.274 334.968C434.249 334.453 435.284 334.165 435.92 334.179C436.322 333.974 437.327 333.826 437.327 333.826C437.327 333.826 439.279 333.056 439.165 332.767C439.12 332.652 437.939 332.829 436.685 332.915C435.36 333.006 434.401 333.005 434.33 332.749C434.218 332.342 435.272 332.188 435.272 332.188C435.272 332.188 436.202 332.052 436.507 331.983C436.864 331.901 437.911 331.573 437.911 331.573C437.911 331.573 441.5 330.255 441.37 329.99C441.241 329.725 440.648 329.171 440.395 329.172C440.142 329.174 439.69 329.426 439.436 329.427C439.184 329.429 438.639 329.38 438.601 329.062C438.563 328.744 439.968 328.084 439.968 328.084C439.968 328.084 440.948 327.695 441.681 327.814Z" fill="#F8A492"/>
<path d="M466.621 314.666C466.621 314.666 469.063 316.884 470.078 317.615C470.923 318.222 475.037 320.203 475.037 320.203C475.037 320.203 479.13 313.935 480.92 310.793C483.091 306.979 484.595 301.309 484.081 301.155C482.641 300.724 480.659 300.46 478.829 301.3C472.496 304.206 466.621 314.666 466.621 314.666Z" fill="#355389"/>
<path d="M444.051 331.089C442.964 331.261 441.853 331.055 441.372 330.06C441.263 331.239 443.051 331.825 444.051 331.089Z" fill="#7C4EAF"/>
<path d="M140.575 287.123C140.726 283.473 140.19 279.868 138.564 276.47C137.165 273.546 133.703 271.887 130.546 271.883C120.522 271.87 119.247 285.172 112.866 290.302C110.916 291.87 108.737 293.147 106.892 294.838C100.079 301.081 103.148 312.637 109.404 318.11C113.745 321.909 120.568 324.067 125.918 321.098C128.711 319.548 130.831 316.971 132.341 314.149C134.485 310.142 135.867 305.52 137.392 301.251C139.014 296.706 140.374 291.975 140.575 287.123Z" fill="#243354"/>
<path d="M142.214 304.798C139.083 295.3 134.949 295.448 134.949 295.448L138.289 315.673C140.223 315.145 142.74 313.968 144.672 313.422C144.032 310.42 142.985 307.137 142.214 304.798Z" fill="#7C4EAF"/>
<path d="M158.034 337.193L146.587 328.461C146.587 328.461 145.436 320.314 143.894 313.084C141.962 313.63 140.219 315.145 138.285 315.674L141.196 331.863L156.199 339.603L160.437 345.05L161.401 339.459L158.034 337.193Z" fill="#F48C7F"/>
<path d="M262.382 323.554C265.937 323.554 269.272 324.49 272.156 326.129C272.52 326.336 272.916 326.525 273.337 326.698C282.133 330.311 291.759 323.62 291.759 314.111V267.343H244.991C235.482 267.343 228.791 257.718 232.403 248.921C232.576 248.5 232.766 248.104 232.973 247.74C234.612 244.856 235.548 241.521 235.548 237.967C235.548 226.703 226.157 217.633 214.777 218.16C204.479 218.636 196.186 227.095 195.898 237.4C195.796 241.066 196.69 244.513 198.328 247.494C198.532 247.866 198.719 248.268 198.891 248.696C202.474 257.636 195.677 267.343 186.045 267.343H139.68V373.907C139.68 399.044 160.058 419.422 185.195 419.422H291.759V372.81C291.759 363.254 282.103 356.522 273.251 360.122C272.828 360.294 272.431 360.482 272.065 360.688C268.911 362.458 265.225 363.391 261.306 363.183C251.209 362.649 243.053 354.444 242.576 344.343C242.038 332.955 251.112 323.554 262.382 323.554Z" fill="#58357F"/>
<path d="M363.744 297.612C363.911 294.061 365.001 290.773 366.773 287.969C366.997 287.615 367.205 287.228 367.397 286.816C371.417 278.198 365.183 268.271 355.684 267.827L308.967 265.643L306.783 312.359C306.339 321.858 296.412 328.092 287.794 324.073C287.381 323.88 286.995 323.673 286.64 323.449C283.836 321.677 280.549 320.586 276.998 320.42C265.746 319.894 256.247 328.852 256.242 340.244C256.238 350.553 264.3 359.232 274.581 360C278.237 360.274 281.723 359.541 284.777 358.044C285.157 357.858 285.568 357.69 286.003 357.538C295.101 354.376 304.48 361.62 304.03 371.241L301.865 417.555L408.313 422.531C433.423 423.705 454.73 404.301 455.904 379.191L460.88 272.744L414.319 270.567C404.773 270.121 397.597 279.452 400.781 288.462C400.933 288.893 401.102 289.299 401.29 289.674C402.911 292.906 403.67 296.632 403.281 300.537C402.276 310.598 393.698 318.362 383.587 318.367C372.186 318.372 363.218 308.869 363.744 297.612Z" fill="#AE7AE8"/>
<path d="M233.569 224.055C233.748 227.605 232.98 230.982 231.488 233.945C231.299 234.319 231.13 234.724 230.979 235.153C227.812 244.12 234.978 253.397 244.475 252.919L291.184 250.571L288.835 203.862C288.358 194.365 297.635 187.199 306.602 190.365C307.031 190.517 307.436 190.686 307.81 190.875C310.772 192.367 314.15 193.134 317.701 192.956C328.95 192.39 337.537 182.555 336.439 171.216C335.446 160.955 326.581 153.097 316.275 153.327C312.609 153.409 309.211 154.475 306.316 156.261C305.955 156.483 305.563 156.69 305.144 156.883C296.395 160.911 286.359 154.61 285.875 144.99L283.547 98.6836L177.117 104.035C152.012 105.298 132.683 126.673 133.945 151.779L139.297 258.208L185.85 255.867C195.394 255.388 201.633 245.406 197.592 236.746C197.399 236.332 197.191 235.945 196.968 235.589C195.042 232.529 193.925 228.895 193.935 224.97C193.961 214.858 201.747 206.3 211.81 205.317C223.157 204.208 233.003 212.799 233.569 224.055Z" fill="#6F93E1"/>
<path d="M329.169 198.276C325.615 198.276 322.279 197.34 319.396 195.701C319.031 195.494 318.636 195.304 318.215 195.131C309.418 191.519 299.793 198.209 299.793 207.719V254.487H346.561C356.07 254.487 362.761 264.112 359.148 272.908C358.975 273.33 358.786 273.725 358.579 274.089C356.94 276.973 356.003 280.308 356.003 283.863C356.003 295.127 365.395 304.197 376.775 303.67C387.073 303.193 395.366 294.734 395.654 284.429C395.756 280.764 394.862 277.316 393.224 274.335C393.02 273.964 392.833 273.562 392.661 273.134C389.078 264.194 395.875 254.486 405.507 254.486H451.872V147.923C451.872 122.786 431.494 102.408 406.356 102.408H299.793V149.02C299.793 158.576 309.449 165.308 318.301 161.707C318.724 161.535 319.121 161.347 319.487 161.142C322.64 159.372 326.326 158.439 330.246 158.646C340.343 159.18 348.499 167.386 348.976 177.486C349.513 188.874 340.439 198.276 329.169 198.276Z" fill="#243354"/>
<path d="M109.238 404.635C109.238 404.635 108.532 409.545 107.316 411.13C106.909 411.661 106.164 412.334 105.675 413.295C104.914 414.791 105.334 417.018 105.896 418.245C106.184 418.875 105.876 418.873 106.532 419.076C108.475 419.677 110.543 418.665 111.37 416.799C111.832 415.757 112.238 414.367 112.319 412.615C112.527 408.157 113.91 405.891 113.91 405.891L109.238 404.635Z" fill="#F7A491"/>
<path d="M130.496 406.881C130.496 406.881 130.932 412.417 130.578 414.217C130.389 415.18 129.333 417.163 129.817 418.07C130.301 418.976 130.855 419.203 130.855 419.203L143.402 419.406C144.086 419.417 143.634 418.976 143.083 418.57C142.181 417.905 141.453 417.466 138.572 416.069C138.384 415.978 137.7 415.541 137.453 415.39C136.827 415.008 136.199 414.405 135.658 413.801C134.757 412.796 134.678 407.92 134.678 407.92L130.496 406.881Z" fill="#F7A491"/>
<path d="M140.302 333.289C140.302 333.289 141.882 342.278 140.844 348.171C139.807 354.065 134.827 408.689 134.827 408.689L129.294 409.002C129.294 409.002 128.134 386.184 128.341 383.011C128.549 379.838 130.191 374.527 130.191 374.527L129.64 356.104L136.623 331.902L140.302 333.289Z" fill="#355389"/>
<path d="M124.041 331.398C124.041 331.398 119.684 337.971 118.646 343.411C117.609 348.851 119.408 365.569 117.412 372.698C116.332 376.556 112.237 382.515 111.615 387.502C110.992 392.489 108.551 405.551 108.551 405.551L114.082 406.649L126.936 374.028L137.019 344.544L139.602 329.359L124.041 331.398Z" fill="#466EB6"/>
<path d="M127.568 294C127.568 294 121.799 293.631 119.517 296.125C117.235 298.618 124.58 318.341 124.995 321.514C125.41 324.687 122.879 333.125 122.879 333.125C122.879 333.125 136.431 335.858 140.304 333.289C140.304 333.289 140.719 310.471 140.304 308.204C139.889 305.937 136.431 296.72 135.601 295.813C134.771 294.906 127.568 294 127.568 294Z" fill="#7C4EAF"/>
<path d="M129.487 286.273C129.487 286.273 129.457 286.443 129.404 286.733C129.146 288.123 128.156 292.735 127.487 294.003C126.678 295.535 130.255 300.421 133.698 299.825C134.723 299.647 132.832 295.335 132.923 294.878C133.097 294.004 133.333 292.811 133.574 291.588C133.71 290.898 133.848 290.198 133.978 289.541C134.346 287.673 134.646 286.145 134.646 286.145L129.487 286.273Z" fill="#F7A491"/>
<path d="M129.403 286.734C129.456 286.444 129.486 286.274 129.486 286.274L134.645 286.145C134.645 286.145 134.345 287.673 133.977 289.541C133.848 290.195 133.711 290.89 133.575 291.577C132.779 291.459 131.947 291.071 131.112 290.339C130.202 289.541 129.606 288.582 129.246 287.558C129.31 287.231 129.363 286.949 129.403 286.734Z" fill="#F47458"/>
<path d="M132.96 274.52C132.96 274.52 130.529 274.238 129.004 276.214C127.48 278.19 125.837 284.301 129.624 287.623C133.41 290.945 137.151 287.184 137.706 283.197C138.261 279.21 138.476 274.376 132.96 274.52Z" fill="#F7A491"/>
<path d="M138.825 283.138C138.373 284.019 137.615 284.507 137.131 284.228C136.647 283.949 136.621 283.008 137.073 282.128C137.525 281.247 138.283 280.76 138.767 281.039C139.251 281.318 139.277 282.258 138.825 283.138Z" fill="#F7A491"/>
<path d="M133.229 273.867C133.229 273.867 129.98 279.677 127.657 279.946C125.333 280.214 125.027 283.302 125.027 283.302C125.027 283.302 125.858 276.187 128.159 274.815C130.46 273.444 133.229 273.867 133.229 273.867Z" fill="#243354"/>
<path d="M111.748 415.818C108.733 416.369 106.727 414.602 105.684 413.278C104.917 414.777 104.544 417.013 105.107 418.245C105.604 419.329 107.054 419.298 108.196 419.341C109.404 419.386 110.338 418.713 110.938 417.66C111.217 417.167 111.506 416.554 111.748 415.818Z" fill="#F47458"/>
<path d="M137.452 415.39C134.133 416.243 131.68 415.663 130.308 415.108C129.954 416.113 129.485 417.375 129.734 418.102C130.038 418.992 130.472 419.193 130.855 419.203C133.886 419.283 141.958 419.392 144.269 419.422C144.592 419.426 144.77 419.048 144.563 418.8C143.989 418.114 137.699 415.541 137.452 415.39Z" fill="#F47458"/>
<path d="M128.267 281.406C128.456 282.438 128.076 283.384 127.418 283.52C126.76 283.655 126.073 282.928 125.884 281.897C125.695 280.865 126.076 279.918 126.733 279.783C127.391 279.647 128.078 280.374 128.267 281.406Z" fill="#F7A491"/>
<path d="M132.063 284.979L134.996 285.112C134.996 285.112 134.878 286.223 133.586 286.202C132.011 286.176 132.063 284.979 132.063 284.979Z" fill="white"/>
<path d="M382.196 51.0816C382.561 51.0967 383.562 51.4317 385.026 54.1979C386.895 57.7303 389.627 68.4018 389.627 68.4018L381.472 71.4386L380.425 69.2112L378.699 52.0635C378.699 52.0635 382.095 51.0774 382.196 51.0816Z" fill="#633C8D"/>
<path d="M371.416 49.5435C373.747 49.5465 379.517 50.227 382.195 51.0825C382.195 51.0825 384.162 67.991 380.424 80.8393C379.587 83.7155 381.116 92.7617 381.116 92.7617L356.953 92.443C356.953 92.443 359.816 70.5731 358.737 67.0404C357.659 63.5079 357.633 51.1964 357.633 51.1964C357.633 51.1964 357.799 51.1706 363.062 50.2609C365.517 49.8362 368.926 49.5402 371.416 49.5435Z" fill="#8E5DC4"/>
<path d="M368.598 124.145C368.598 124.145 369.133 130.314 370.116 132.023C371.098 133.731 370.064 136.636 370.012 137.035C369.96 137.433 367.943 138.003 364.736 137.661C361.529 137.319 361.58 136.579 361.839 135.383C362.098 134.187 363.805 132.649 363.908 131.51C364.011 130.371 362.925 126.271 362.925 126.271L368.598 124.145Z" fill="#F7A491"/>
<path d="M378.388 87.6691C378.388 87.6691 395.068 86.7429 398.793 88.9986C402.517 91.2545 396.146 102.325 396.146 102.325C396.146 102.325 384.54 101.79 361.806 103.103C356.423 103.413 355.959 89.0658 356.966 87.8786C357.972 86.6913 378.388 87.6691 378.388 87.6691Z" fill="#324878"/>
<path d="M364.337 138.14C361.034 137.788 361.443 136.166 361.709 134.934C361.876 134.163 362.823 133.254 363.388 132.394C363.683 132.629 364.164 133.044 365.598 133.468C367.087 133.908 369.129 133.037 370.429 132.492C370.893 134.218 370.914 136.418 370.871 136.752C370.818 137.163 367.64 138.492 364.337 138.14Z" fill="#DD513A"/>
<path d="M366.16 99.6021C366.826 104.645 370.126 129.749 370.126 129.749L362.47 130.698C362.47 130.698 353.055 97.9316 353.537 92.9199C354.02 87.908 357.544 87.4865 357.544 87.4865C357.544 87.4865 364.396 86.2533 366.16 99.6021Z" fill="#4263AA"/>
<path d="M357.37 53.0755C359.629 52.2281 360.734 72.5842 361.038 80.9625C365.039 81.3475 372.013 80.9656 373.749 80.8352C374.566 80.7738 376.449 80.0843 377.261 79.9778C378.093 79.8688 378.847 79.812 379.256 79.8832C379.407 79.9092 383.577 81.6146 383.934 81.9887C384.376 82.4525 385.572 83.6223 385.37 84.1284C385.169 84.6342 383.07 82.7187 383.07 82.7187L382.044 82.1433C383.321 83.3905 385.756 85.0329 385.405 85.6311C385.063 86.2144 382.867 84.5475 381.301 83.4114C382.644 84.6242 384.312 86.7946 383.928 87.1329C383.583 87.4369 381.685 84.9244 379.657 84.2007C378.906 83.9326 378.156 84.6749 377.565 84.7649C377.131 84.8309 376.46 84.9711 376.034 84.8502L373.838 84.2274C373.09 84.2953 373.071 84.7377 372.316 84.8983C371.439 85.085 370.001 85.2814 368.884 85.5544C362.453 87.1254 360.308 87.8552 358.34 87.854C352.376 87.8507 352.03 55.0785 357.37 53.0755Z" fill="#F7A491"/>
<path d="M353.082 72.1865C352.658 63.6043 352.72 53.026 357.531 51.2213C359.429 50.5093 362.776 54.791 362.174 72.3609C359.606 72.5729 355.835 72.7435 353.082 72.1865Z" fill="#633C8D"/>
<path d="M390.985 129.422C390.985 129.422 390.317 131.564 391.513 132.98C392.709 134.397 397.679 135.786 398.332 136.553C398.984 137.321 398.935 137.974 398.935 137.974L384.984 137.59L385.136 133.377L385.779 130.349L390.985 129.422Z" fill="#F7A491"/>
<path d="M392.384 133.686C392.384 133.686 388.799 135.136 387.068 134.278C385.336 133.419 385.388 133.181 384.887 133.502C384.387 133.822 384.207 137.771 384.207 137.771L399.894 138.232C400.986 138.207 401.537 137.403 400.651 136.715C400.043 136.243 399.34 135.927 398.941 135.698C397.713 134.994 392.384 133.686 392.384 133.686Z" fill="#DD513A"/>
<path d="M390.456 91.623C391.534 89.3538 393.987 86.3995 398.301 88.1789C402.416 89.876 403.521 94.0468 402.223 98.3175C400.924 102.589 392.376 127.695 392.079 131.147L385.254 131.192C385.254 131.192 386.494 111.312 386.798 106.507C387.091 101.884 388.59 95.5502 390.456 91.623Z" fill="#4263AA"/>
<path d="M401.538 68.499H378.725C378.121 68.499 377.577 68.8649 377.348 69.4254L370.324 86.6164H357.746C357.394 86.6164 357.109 86.9021 357.109 87.2548C357.109 87.6074 357.395 87.8934 357.746 87.8934H393.542C394.526 87.8934 395.419 87.3138 395.822 86.413L402.895 70.6031C403.337 69.6151 402.617 68.499 401.538 68.499Z" fill="black"/>
<path d="M389.253 78.5091C389.1 79.2814 388.428 79.7977 387.754 79.6624C387.081 79.5271 386.659 78.7915 386.813 78.0195C386.967 77.2475 387.638 76.7311 388.312 76.8662C388.986 77.0013 389.408 77.7368 389.253 78.5091Z" fill="white"/>
<path d="M376.835 28.892C376.147 28.6604 375.47 28.3991 374.817 28.0839C374.078 27.7275 373.12 27.3102 372.515 27.2168C371.242 27.0203 369.055 27.1512 367.847 28.4617C366.342 30.0941 363.668 28.7565 364.207 37.3061C364.817 46.9836 370.198 45.9214 370.328 45.7575C370.459 45.5936 375.127 39.5665 375.127 39.5665C375.127 39.5665 376.76 43.137 376.76 43.0059C376.76 42.8795 385.094 31.6735 376.835 28.892Z" fill="#0E2E35"/>
<path d="M372.749 46.472L373.214 49.9299C373.214 49.9299 374.254 54.9118 372.915 55.8721C371.577 56.8325 367.223 49.7878 367.223 49.7878L367.683 41.0259L372.749 46.472Z" fill="#F7A491"/>
<path d="M367.535 43.8655C368.641 46.854 371.275 48.691 373.144 49.4038L372.75 46.472L367.684 41.0259L367.535 43.8655Z" fill="#F47458"/>
<path d="M372.475 31.4909C375.312 31.0329 377.856 33.3144 377.786 36.1541C377.755 37.3885 377.654 38.9296 377.397 40.5892C376.78 44.5808 374.057 48.0958 372.256 47.782C370.455 47.4681 365.925 44.0247 366.722 38.3444C367.215 34.8374 369.499 31.9716 372.475 31.4909Z" fill="#F7A491"/>
<path d="M367.971 39.0225C367.819 39.9003 367.116 40.5108 366.401 40.3862C365.686 40.2616 365.229 39.4488 365.381 38.571C365.533 37.6934 366.236 37.0829 366.951 37.2075C367.667 37.3319 368.123 38.1446 367.971 39.0225Z" fill="#F7A491"/>
<path d="M366.953 37.2074C366.953 37.2074 369.13 37.7484 369.938 36.348C370.746 34.9475 373.636 31.9259 377.308 33.1787C380.981 34.4317 374.076 30.1323 373.782 30.1323C373.488 30.1323 369.963 30.1079 369.963 30.1079C369.963 30.1079 367.245 32.3436 367.147 32.5893C367.049 32.8351 366.266 35.5129 366.266 35.5129L366.953 37.2074Z" fill="#0E2E35"/>
<path d="M370.937 43.0498L374.898 43.8072C374.898 43.8072 374.52 45.2995 372.769 45.017C370.633 44.6725 370.937 43.0498 370.937 43.0498Z" fill="white"/>
<path d="M303.922 318.875C304.073 319.397 304.161 319.57 304.353 319.921C305.595 322.182 308.478 325.408 308.478 325.408L310.708 320.385C310.708 320.385 310.344 318.807 309.714 316.553C307.56 317.115 305.509 317.44 303.922 318.875Z" fill="#F8A492"/>
<path d="M316.707 314.517C316.707 314.517 304.27 319.873 303.868 319.77C303.609 319.705 298.767 311.6 298.715 303.977C298.691 300.457 302.347 296.223 306.426 297.06C308.479 297.481 308.448 298.053 311.486 302.468C314.524 306.883 316.707 314.517 316.707 314.517Z" fill="#243354"/>
<path d="M327.321 410.536C327.321 410.536 327.025 415.42 327.024 415.43C326.915 416.05 326.488 417.582 326.488 418.146C326.488 420.264 336.545 416.348 334.291 415.41C334.087 415.325 333.018 414.682 332.951 413.962C332.848 412.851 332.585 410.604 332.585 410.604L327.321 410.536Z" fill="#F7A491"/>
<path d="M334.267 415.39C334.267 415.39 331.906 416.038 330.696 416.2C329.487 416.361 327.893 414.998 327.038 415.366C326.096 415.772 326.133 419.421 326.133 419.421C326.133 419.421 338.794 420.46 342.354 419.385C343.765 418.96 339.093 416.899 334.267 415.39Z" fill="#DD513A"/>
<path d="M306.75 410.536C306.75 410.536 306.455 415.42 306.454 415.43C306.345 416.05 305.918 417.582 305.918 418.146C305.918 420.264 315.974 416.348 313.72 415.41C313.516 415.325 312.131 414.203 312.064 413.482C311.96 412.371 312.015 410.604 312.015 410.604L306.75 410.536Z" fill="#F7A491"/>
<path d="M313.696 415.39C313.696 415.39 311.335 416.038 310.126 416.2C308.917 416.361 307.323 414.998 306.467 415.366C305.526 415.772 305.488 419.421 305.488 419.421C305.488 419.421 318.207 420.632 321.784 419.385C323.173 418.901 318.523 416.899 313.696 415.39Z" fill="#DD513A"/>
<path d="M309.824 321.581L318.681 309.174C318.718 309.065 318.799 308.843 318.922 308.503C319.368 307.272 320.296 304.71 321.105 302.162L321.114 302.134C321.368 301.244 321.906 299.69 322.427 298.186C323.006 296.515 323.724 294.442 323.749 294.088C323.727 294.028 323.685 293.919 323.63 293.775C323.305 292.932 322.866 290.924 322.711 290.051C322.612 289.496 322.513 288.144 323.174 288.144C324.213 288.144 323.718 289.494 324.197 290.337C324.373 289.773 324.729 288.656 324.917 287.525L325.09 284.887C325.124 284.688 324.912 283.233 325.641 283.233L325.675 283.234C326.33 283.282 326.315 284.829 326.587 287.446C326.673 287.145 326.76 286.782 326.825 286.448C326.817 286.269 326.948 285.482 327.046 285.067C326.915 284.338 326.991 283.188 327.768 283.296C328.157 283.351 328.125 284.956 328.125 284.956C328.121 285.176 328.098 286.873 328.11 287.208C328.19 286.639 328.501 284.21 329.11 284.21C329.615 284.21 329.656 284.864 329.645 285.381C329.639 285.687 329.322 288.318 329.304 288.624C329.542 288.225 329.824 285.906 330.06 285.906C331.045 285.906 330.689 289.203 330.327 290.062C330.293 290.15 330.257 290.322 330.215 290.522C330.092 291.109 329.886 292.092 329.37 292.975C328.752 294.033 327.898 295.715 327.768 295.973C327.673 296.499 327.376 298.388 327.004 300.766C326.844 301.783 326.669 302.898 326.487 304.054L326.477 304.052C326.444 304.302 326.259 305.098 325.559 308.08C324.6 312.162 324.5 312.338 324.458 312.414C324.042 313.151 314.492 326.119 314.086 326.671L313.846 326.996L309.824 321.581Z" fill="#F7A491"/>
<path d="M326.3 292.644C326.3 292.644 325.581 290.805 324.301 290.802C324.301 290.802 325.016 290.544 325.629 291.029C326.242 291.515 326.3 292.644 326.3 292.644Z" fill="#F47458"/>
<path d="M307.683 289.091L306.543 296.302C306.543 296.302 310.887 299.79 313.42 299.055C315.545 298.437 314.088 295.659 314.088 295.659C314.088 295.659 312.956 291.81 313.303 289.792C313.65 287.774 307.683 289.091 307.683 289.091Z" fill="#F7A491"/>
<path d="M308.503 291.271C309.592 291.785 311.744 292.487 313.419 292.657C313.259 291.647 313.168 290.58 313.304 289.792C313.464 288.861 312.279 288.64 310.957 288.672C309.227 288.821 307.684 289.091 307.684 289.091L307.465 290.477C307.794 290.824 308.14 291.1 308.503 291.271Z" fill="#7C4EAF"/>
<path d="M302.199 280.774C302.02 280.775 303.916 288.829 306.852 290.215C309.787 291.601 314.164 290.879 314.985 288.709C315.894 286.309 312.58 278.091 308.452 277.047C304.324 276.003 302.199 280.774 302.199 280.774Z" fill="#F7A491"/>
<path d="M305.597 273.373C303.253 274.725 302.177 276.73 301.815 277.552C300.714 278.074 299.383 279.203 298.744 282.247C297.958 285.988 300.752 288.873 303.714 289.74C306.676 290.608 307.134 292.568 307.134 292.568L307.47 290.458C307.47 290.458 306.811 288.622 305.82 287.703C304.829 286.784 306.289 285.444 306.417 284.351C306.516 283.51 305.897 281.876 306.031 280.496C306.031 280.496 307.677 278.001 309.3 277.385C312.065 276.334 308.605 271.637 305.597 273.373Z" fill="#243354"/>
<path d="M306.847 285.754C307.23 286.684 307.073 287.608 306.496 287.817C305.919 288.026 305.14 287.441 304.757 286.511C304.373 285.58 304.53 284.656 305.107 284.448C305.684 284.238 306.463 284.823 306.847 285.754Z" fill="#F7A491"/>
<path d="M317.777 321.781L334.862 318.995C334.862 318.995 332.918 314.102 332.223 314.102C331.529 314.102 319.305 319.438 319.305 319.438L318.333 321.39L317.777 321.781Z" fill="#F8A492"/>
<path d="M309.028 333.494C309.028 333.494 307.324 341.733 308.018 347.981C308.713 354.228 308.768 376.421 308.768 376.421L306.117 411.929L312.406 412.066C312.406 412.066 319.863 376.575 319.724 377.486C319.585 378.397 322.224 352.497 322.224 352.497L313.334 332.713L309.028 333.494Z" fill="#184655"/>
<path d="M310.694 333.104C310.694 333.104 309.583 340.523 310.972 343.777C312.361 347.03 322.886 378.956 323.025 381.559C323.164 384.162 326.664 412.934 326.664 412.934L333.976 412.728L335.558 380.74L332.246 340.536L329.03 330.371L310.694 333.104Z" fill="#243354"/>
<path d="M306.543 296.302C306.543 296.302 308.346 297.485 310.028 297.348C311.71 297.211 314.088 295.659 314.088 295.659L313.757 294.539C313.757 294.539 309.406 293.905 309.296 293.973C309.187 294.042 306.543 296.302 306.543 296.302Z" fill="#F7A491"/>
<path d="M325.762 313.86C325.762 313.86 332.224 319.958 335.141 318.917C338.058 317.876 339.265 314.317 332.148 309.109C325.778 304.449 325.762 313.86 325.762 313.86Z" fill="#F8A492"/>
<path d="M330.14 321.39C329.181 316.168 322.223 299.915 321.667 296.922C321.397 295.466 317.644 295.434 314.07 295.624C310.294 295.824 306.543 296.302 306.543 296.302C306.543 296.302 303.201 296.851 301.73 298.229C300.259 299.607 299.869 303.418 301.983 310.652C303.652 316.363 305.72 319.498 306.744 323.658C306.952 325.053 307.129 326.43 307.365 328.038C307.741 334.258 307.36 342.475 307.36 342.475C307.36 342.475 325.557 346.249 332.363 340.523C332.363 340.523 331.124 326.741 330.14 321.39Z" fill="#355389"/>
<path d="M334.781 310.16C334.781 310.16 327.641 316.054 327.224 316.054C326.956 316.054 317.035 308.756 314.745 302.76C313.479 299.446 316.135 295.738 319.168 295.75C321.27 295.759 322.205 296.3 326.372 299.814C330.539 303.328 334.781 310.16 334.781 310.16Z" fill="#466EB6"/>
<path d="M209.176 47.0783C210.346 44.2626 211.536 41.4411 214.572 40.0151C217.029 38.8611 219.596 39.2956 221.779 40.937C227.964 45.5884 222.575 50.713 229.615 59.5331C231.803 62.2737 234.451 64.4866 235.762 67.6983C237.597 72.1936 235.412 74.3526 231.909 76.5053C215.15 86.8067 206.365 65.656 206.68 60.8175C206.915 57.2179 208.423 48.8909 209.176 47.0783Z" fill="#243354"/>
<path d="M191.786 101.9C192.493 101.788 194.209 100.559 194.814 100.447C195.284 100.36 196.299 100.206 196.732 100.142C197.262 98.1623 199.954 87.3718 200.255 84.2088C200.582 80.7821 203.005 65.9575 203.005 65.9575L209.28 67.098C209.28 67.098 206.674 78.5023 205.953 84.0321C205.334 88.7818 200.123 99.4609 199.461 100.588C199.46 100.615 199.459 100.641 199.458 100.67C199.357 102.346 198.549 101.788 198.549 101.788L197.237 102.123C197.237 102.123 192.593 102.57 192.291 102.682C191.988 102.793 191.08 102.011 191.786 101.9Z" fill="#F7A491"/>
<path d="M208.477 57.2915C204.042 58.7954 201.52 70.8545 201.52 70.8545C201.52 70.8545 208.479 72.7973 210.262 71.7783C210.262 71.7783 212.286 62.8074 213.011 63.1208L208.477 57.2915Z" fill="#6A97CE"/>
<path d="M174.165 122.734C172.807 126.314 172.103 129.761 172.039 130.178C172.009 130.379 172.292 131.352 172.266 131.56C169.542 135.277 165.626 136.089 162.27 136.326C163.98 134.657 166.492 133.074 166.613 132.545C166.805 131.703 167.838 127.955 168.346 122.759C170.434 123.725 171.85 122.96 174.165 122.734Z" fill="#F7A491"/>
<path d="M212.769 82.6885L218.763 99.5719C218.763 99.5719 209.13 101.385 205.529 102.046C201.927 102.706 181.805 103.585 181.296 103.942C180.917 104.208 176.76 117.651 174.904 125.064C172.797 125.528 169.192 124.971 167.273 124.31C168.31 113.703 172.053 96.8996 173.251 95.0703C175.204 92.0906 212.769 82.6885 212.769 82.6885Z" fill="#7C4EAF"/>
<path d="M189.348 130.135C188.686 133.905 188.64 137.424 188.656 137.846C188.663 138.048 189.124 138.951 189.137 139.161C187.157 143.322 183.463 144.854 180.211 145.716C181.578 143.755 183.749 141.73 183.769 141.188C183.8 140.325 184.112 136.449 183.638 131.251C185.869 131.808 187.118 130.79 189.348 130.135Z" fill="#F7A491"/>
<path d="M219.767 83.5645L222.092 87.5358C225.633 93.582 222.919 101.361 216.387 103.895C216.352 103.909 216.317 103.922 216.283 103.935C212.869 105.259 193.269 109.893 192.834 110.34C192.513 110.671 190.949 124.656 190.514 132.285C188.532 133.135 184.886 133.264 182.877 132.974C181.908 122.361 182.436 105.153 183.27 103.132C184.63 99.8392 219.767 83.5645 219.767 83.5645Z" fill="#633C8D"/>
<path d="M188.357 137.963C188.879 137.387 190.795 140.559 191.273 141.236C191.812 141.997 191.659 142.571 191.594 142.69C191.424 143.004 181.321 148.948 178.857 149.371C178.624 149.411 178.221 149.264 178.12 149.174C177.156 148.322 181.589 142.028 183.579 141.201C184.866 140.666 186.009 140.556 188.357 137.963Z" fill="#243354"/>
<path d="M171.717 130.293C172.338 129.824 173.625 133.299 173.969 134.054C174.355 134.903 174.097 135.438 174.012 135.542C173.786 135.819 162.747 139.765 160.248 139.719C160.012 139.714 159.643 139.494 159.56 139.387C158.774 138.369 164.307 133.017 166.418 132.578C167.781 132.293 168.925 132.4 171.717 130.293Z" fill="#243354"/>
<path d="M212.681 57.2567C212.566 57.2574 212.402 57.2172 212.233 57.1644C211.409 57.017 209.608 56.8013 208.207 57.3927C206.503 58.1117 203.861 64.8309 204.018 71.7277C204.082 72.782 204.146 73.726 204.2 74.3842C204.63 79.5939 206.125 89.3697 206.206 89.4217C208.239 90.7303 220.506 85.6568 221.35 84.5423C222.193 83.4279 222.69 69.8865 223.1 69.2114L223.906 57.4348C222.483 57.01 214.862 57.2411 212.681 57.2567Z" fill="#9BC1F9"/>
<path d="M217.653 52.9199C217.653 52.9199 216.863 57.0054 217.021 58.6169C217.179 60.2284 216.418 65.4221 213.007 65.4393C209.596 65.4565 212.36 58.8359 212.681 57.2567C213.002 55.6775 213.078 50.7891 213.078 50.7891L217.653 52.9199Z" fill="#F7A491"/>
<path d="M213.008 53.2417C213.061 51.9045 213.078 50.7891 213.078 50.7891L217.652 52.9199C217.652 52.9199 217.491 53.7552 217.329 54.8197C215.327 55.2221 213.875 54.4807 213.008 53.2417Z" fill="#F47458"/>
<path d="M219.325 41.6448C219.325 41.6448 221.088 42.6226 221.732 44.742C222.376 46.8615 221.643 52.3304 217.089 53.6499C212.536 54.9695 210.564 50.6389 211.501 47.2534C212.439 43.8677 214.479 39.5802 219.325 41.6448Z" fill="#F7A491"/>
<path d="M210.932 45.941C211.021 46.8505 211.523 47.5453 212.052 47.4935C212.582 47.4414 212.939 46.6622 212.85 45.753C212.761 44.8435 212.259 44.1484 211.729 44.2005C211.2 44.2523 210.843 45.0316 210.932 45.941Z" fill="#F7A491"/>
<path d="M218.793 41.3682C218.793 41.3682 219.619 47.469 221.591 48.57C223.563 49.6707 222.738 52.3772 222.738 52.3772C222.738 52.3772 224.527 46.093 222.967 44.0746C221.408 42.0563 218.793 41.3682 218.793 41.3682Z" fill="#243354"/>
<path d="M220.423 49.4459C219.888 50.2407 219.89 51.1783 220.428 51.5398C220.965 51.9013 221.834 51.55 222.369 50.7552C222.904 49.9603 222.902 49.0228 222.364 48.6613C221.827 48.2998 220.958 48.6511 220.423 49.4459Z" fill="#F7A491"/>
<path d="M213.787 49.7852L216.996 50.5928C216.996 50.5928 216.611 51.8116 215.189 51.4978C213.455 51.1151 213.787 49.7852 213.787 49.7852Z" fill="white"/>
<path d="M229.719 101.39C229.873 101.383 243.553 100.695 243.553 100.695C243.553 100.695 237.876 104.774 237.76 104.774C237.645 104.774 233.24 103.036 233.047 103.036C232.853 103.036 229.719 101.39 229.719 101.39Z" fill="#BACFFF"/>
<path d="M506.701 410.735C506.701 410.735 506.971 415.534 506.973 415.544C507.072 416.153 507.464 417.659 507.464 418.213C507.464 420.293 498.233 416.446 500.302 415.524C500.49 415.441 501.47 414.81 501.532 414.102C501.627 413.011 501.867 410.803 501.867 410.803L506.701 410.735Z" fill="#F7A491"/>
<path d="M500.213 415.545C500.213 415.545 502.381 416.181 503.491 416.34C504.601 416.5 506.064 415.16 506.849 415.522C507.713 415.92 507.68 419.506 507.68 419.506C507.68 419.506 496.057 420.526 492.789 419.471C491.495 419.052 495.783 417.027 500.213 415.545Z" fill="#F7CC7F"/>
<path d="M522.071 410.487C522.071 410.487 522.342 415.286 522.344 415.296C522.443 415.905 522.836 417.41 522.836 417.964C522.836 420.044 513.604 416.198 515.673 415.276C515.86 415.192 517.132 414.09 517.194 413.382C517.289 412.291 517.239 410.554 517.239 410.554L522.071 410.487Z" fill="#F7A491"/>
<path d="M515.697 415.255C515.697 415.255 517.864 415.892 518.974 416.051C520.084 416.21 521.547 414.87 522.332 415.232C523.197 415.631 523.231 419.216 523.231 419.216C523.231 419.216 511.692 419.69 508.272 419.181C506.927 418.981 511.266 416.738 515.697 415.255Z" fill="#F7CC7F"/>
<path d="M519.336 334.269C519.336 334.269 520.9 342.364 520.263 348.502C519.625 354.64 519.575 376.443 519.575 376.443L522.516 411.317L516.235 411.464C516.235 411.464 509.39 376.595 509.518 377.49C509.645 378.385 507.223 352.938 507.223 352.938L515.383 333.502L519.336 334.269Z" fill="#355389"/>
<path d="M517.145 329.041C517.145 329.041 524.232 336.506 521.596 344.66C520.537 347.935 510.659 379.223 510.532 381.78C510.404 384.338 507.192 412.605 507.192 412.605L500.479 412.403L499.027 380.976L500.946 338.631L505.02 331.489L517.145 329.041Z" fill="#466EB6"/>
<path d="M474.119 304.744C476.439 302.155 481.491 298.47 481.491 298.47C481.491 298.47 484.5 295.9 485.727 295.477C487.532 294.855 490.625 293.194 495.098 299.973C498.299 304.824 518.497 329.944 521.813 330.789L500.161 341.148C499.568 336.2 488.866 326.854 487.326 325.11C483.884 321.211 471.922 307.196 474.119 304.744Z" fill="#8E5DC4"/>
<path d="M475.127 294.22L481.872 298.168C481.872 298.168 482.062 303.926 479.857 305.421C478.007 306.676 476.599 303.664 476.599 303.664C476.599 303.664 474.091 300.189 472.186 299.106C470.281 298.023 475.127 294.22 475.127 294.22Z" fill="#F7A491"/>
<path d="M476.259 296.754C476.005 297.955 475.418 299.692 474.508 301.122C473.765 300.318 472.93 299.529 472.186 299.106C471.306 298.607 471.866 297.528 472.723 296.51C473.933 295.25 475.127 294.22 475.127 294.22L476.423 294.979C476.507 295.471 476.343 296.354 476.259 296.754Z" fill="#F47458"/>
<path d="M471.615 284.324C471.728 284.184 477.273 291.085 476.589 294.323C475.905 297.56 472.554 300.514 470.224 299.702C467.647 298.804 462.856 290.679 464.574 286.734C466.293 282.788 471.615 284.324 471.615 284.324Z" fill="#F7A491"/>
<path d="M465.544 282.147C467.961 280.803 471.904 280.417 474.85 281.959C478.472 283.855 479.297 288.627 478.163 291.537C477.029 294.447 478.327 296.093 478.327 296.093L476.406 294.971C476.406 294.971 475.284 293.219 475.137 291.823C474.99 290.427 472.954 290.674 471.959 290.041C471.194 289.553 470.217 287.969 468.978 287.147C468.978 287.147 465.859 286.764 464.325 287.625C461.711 289.092 462.083 284.073 465.544 282.147Z" fill="#243354"/>
<path d="M473.516 291.204C473.498 292.239 473.988 293.087 474.609 293.097C475.231 293.107 475.749 292.276 475.767 291.241C475.785 290.206 475.295 289.358 474.674 289.348C474.052 289.338 473.534 290.168 473.516 291.204Z" fill="#F7A491"/>
<path d="M467.84 296.7L470.775 294.505C470.775 294.505 471.551 295.691 470.288 296.694C468.749 297.917 467.84 296.7 467.84 296.7Z" fill="white"/>
<path d="M460.464 340.361C461.2 339.287 461.52 337.736 462.537 336.554C462.878 336.157 463.422 335.709 464.041 335.263C468.931 332.402 481.671 325.026 482.167 324.453C482.754 323.775 491.45 309.328 491.45 309.328L483.64 307.559L476.008 321.035C475.371 321.541 463.256 330.494 463.256 330.494C463.256 330.494 460.848 332.377 459.531 333.258C458.866 333.646 458.221 333.897 457.656 334.094C456.945 334.341 455.591 335.016 455.317 335.256C454.999 335.537 454.362 336.135 453.984 336.501C453.605 336.866 453.146 337.279 452.969 337.496C452.861 337.629 452.526 337.811 452.28 337.934C451.914 338.116 451.962 338.658 452.355 338.77C452.726 338.875 453.227 338.642 453.538 338.496C454.415 338.084 455.486 336.971 455.543 337.107C455.6 337.243 454.512 339.627 454.405 339.908C454.298 340.189 453.049 342.966 452.985 343.586C452.921 344.205 453.294 344.348 453.571 344.122C453.81 343.927 455.819 340.218 455.819 340.218C455.819 340.218 456.077 339.745 456.177 340.015C456.277 340.286 454.459 343.657 454.282 344.211C454.104 344.764 454.246 345.218 454.757 345.024C455.379 344.788 457.098 341.069 457.098 341.069C457.098 341.069 457.321 340.607 457.474 340.768C457.627 340.929 456.033 343.772 456.015 344.099C455.997 344.427 456.293 344.75 456.723 344.476C457.23 344.154 458.735 340.821 458.735 340.821C458.735 340.821 458.921 340.6 458.98 340.755C459.038 340.91 457.852 343.431 457.94 343.799C458.015 344.109 458.293 344.047 458.293 344.047C458.914 344.045 459.729 341.435 460.464 340.361Z" fill="#F8A492"/>
<path d="M489.314 316.96C489.314 316.96 486.771 316.151 485.139 315.404C484.047 314.904 479.281 312.532 479.281 312.532C479.281 312.532 481.336 303.865 482.725 300.749C487.822 289.313 493.615 297.2 494.401 299.038C496.158 303.151 489.314 316.96 489.314 316.96Z" fill="#355389"/>
<path d="M311.676 287.013L314.096 285.203C314.096 285.203 314.736 286.181 313.695 287.008C312.425 288.017 311.676 287.013 311.676 287.013Z" fill="white"/>
<path d="M595.793 419.249H33.5111C32.8081 419.249 32.2383 419.976 32.2383 420.873C32.2383 421.77 32.8081 422.498 33.5111 422.498H595.793C596.496 422.498 597.066 421.77 597.066 420.873C597.065 419.976 596.496 419.249 595.793 419.249Z" fill="#184655"/>
<path d="M243.866 100.681C243.809 100.535 243.681 100.532 243.55 100.529C242.28 100.49 241.012 100.433 239.753 100.244C239.543 100.213 239.336 100.166 239.142 100.089C238.792 99.9487 238.446 99.9522 238.093 100.05C237.901 100.103 237.707 100.113 237.509 100.112C236.871 100.109 235.049 99.4896 234.114 99.3262C233.9 99.2887 233.73 99.1272 233.677 98.9168C232.757 95.2762 230.782 87.1083 230.526 84.4223C230.199 80.9875 227.827 65.5015 227.827 65.5015L221.48 67.2713C221.48 67.2713 224.093 78.7023 224.815 84.2454C225.372 88.5254 229.65 97.6077 230.991 100.219C231.646 102.163 233.116 102.217 233.457 102.259C233.652 102.283 233.832 102.379 233.96 102.528C234.192 102.798 234.457 103.033 234.76 103.225C234.985 103.367 235.159 103.552 235.307 103.768C235.577 104.162 235.818 104.573 236.056 104.986C236.215 105.259 236.38 105.346 236.615 105.281C236.867 105.212 236.987 105.026 236.982 104.719C236.975 104.266 236.83 103.856 236.603 103.469C236.389 103.107 236.405 102.896 236.653 102.563C236.796 102.372 236.943 102.186 237.13 102.034C237.321 101.878 237.521 101.761 237.779 101.797C238.235 101.911 238.695 102.003 239.163 102.055L239.547 102.133C239.561 102.135 239.757 102.178 239.757 102.178C239.789 102.186 240.464 102.26 240.695 102.26C240.881 102.26 241.182 102.273 241.438 102.285C241.669 102.296 242.159 102.175 242.176 102.175C242.401 102.17 242.601 102.088 242.769 101.937C242.838 101.875 242.904 101.806 242.869 101.701C242.837 101.605 242.761 101.564 242.663 101.546C242.51 101.518 241.722 101.423 241.731 101.389C241.965 101.389 242.698 101.372 242.932 101.366C243.247 101.357 243.521 101.244 243.738 101.011C243.824 100.919 243.923 100.828 243.866 100.681Z" fill="#F7A491"/>
<path d="M223.986 57.41C227.118 56.8404 229.702 70.8546 229.702 70.8546C229.702 70.8546 222.743 72.7974 220.96 71.7785C220.96 71.7785 218.936 62.8075 218.211 63.1209L223.986 57.41Z" fill="#9BC1F9"/>
<path d="M148.247 309.307C148.454 308.713 145.565 308.234 145.412 307.633C145.258 307.032 149.059 306.985 149.195 306.457C149.446 305.485 145.029 306.252 145.116 305.798C145.203 305.343 149.718 304.327 149.23 303.547C148.742 302.766 144.658 305.089 144.534 304.559C144.41 304.03 148.527 302.741 148.453 301.58C148.414 300.96 141.697 304.674 140.918 304.337C140.139 304 141.756 301.084 141.136 300.651C140.515 300.218 138.735 306.578 138.307 306.79C137.881 307.001 128.806 312.181 125.577 313.004C125.185 311.922 124.337 310.464 123.991 309.441C122.18 310.731 120.835 311.378 118.965 312.553C120.319 315.948 122.247 319.665 123.191 320.091C126.064 321.389 137.178 312.172 139.396 310.595C141.616 309.016 142.887 309.528 144.388 309.029C145.889 308.531 148.039 309.901 148.247 309.307Z" fill="#F7A491"/>
<path d="M118.579 314.183C118.579 314.183 116.091 303.197 116.523 300.011C116.954 296.824 120.742 293.854 123.366 294.956C125.991 296.058 127.18 311.393 127.18 311.393L118.579 314.183Z" fill="#7C4EAF"/>
</svg>
