<svg width="580" height="364" viewBox="0 0 580 364" fill="none" xmlns="http://www.w3.org/2000/svg">
<path d="M555.771 291.319C555.771 291.488 555.768 291.656 555.766 291.824C555.759 292.18 555.749 292.531 555.737 292.884C555.581 297.226 554.867 301.492 553.425 305.703C553.361 305.888 553.297 306.073 553.231 306.256C550.556 313.723 545.558 321.012 537.28 328.24C535.605 329.703 533.794 331.161 531.845 332.617C531.389 332.959 530.925 333.298 530.453 333.639L516.417 333.634L228.833 333.545L208.144 333.537L45.352 333.485C45.352 333.485 45.2382 333.189 45.0246 332.617C43.8106 329.343 39.4001 317.019 35.1982 299.854C30.8659 282.157 26.9935 254.008 26.8726 224.568C26.8703 223.549 26.8703 222.527 26.875 221.505C27.0457 186.628 32.611 150.393 48.9964 127.904C49.1885 127.639 49.383 127.375 49.5798 127.114C49.8644 126.737 50.149 126.36 50.4335 125.988C50.5617 125.82 50.6896 125.656 50.8201 125.49C96.0757 66.9603 168.368 67.0527 203.356 70.7709C206.785 71.1361 209.854 71.5343 212.502 71.9162C214.098 72.1462 215.542 72.3691 216.82 72.5754C266.816 80.6376 289.381 55.5022 289.381 55.5022C324.625 23.0349 357.96 15.1077 404.084 19.3358C409.872 19.8621 415.622 20.6518 421.299 21.688C443.75 25.7785 465.105 33.7459 483.435 45.0878C485.422 46.3161 487.372 47.5823 489.283 48.8913C489.971 49.3607 490.654 49.8374 491.334 50.3186C493.764 52.0403 496.129 53.8258 498.426 55.6753C511.459 66.1657 522.243 78.6908 529.817 92.9941C535.705 104.113 539.651 116.304 541.202 129.452C541.517 132.108 541.733 134.802 541.847 137.534V137.536C541.996 141.114 541.975 144.759 541.768 148.467C541.358 155.899 540.213 163.584 538.268 171.504C538.266 171.507 538.266 171.507 538.266 171.509C538.114 172.128 537.969 172.747 537.832 173.361C535.458 183.844 534.932 193.759 535.562 203.189C537.896 237.852 555.925 265.923 555.771 291.319Z" fill="#EBF3FA"/>
<path d="M489.604 152.147H478.07V126.629C477.891 126.527 477.713 126.426 477.536 126.324H474.097V126.312H454.092V126.324H454.075V130.15H454.092V132.78H454.075V136.604H454.092V139.244H454.075V143.07H454.092V143.083L451.972 143.07V123.06H429.524V125.595H429.513V129.419H429.524V132.78H429.513V136.604H429.524V139.244H429.513V143.07H429.524V145.512H429.513V149.338H429.524V151.78H429.513V155.606H429.524V157.906H429.513V160.335H429.524V160.599H404.221V182.491H394.768V188.005H384.576V178.508H366.241V152.708H363.374V150.138H362.963V152.708H360.585V152.704H348.693V150.138H348.283V152.704H345.184V165.679L329.783 165.607V173.616H316.725V124.111H278.039V177.145H266.225V148.467H227.539V334L491.893 333L489.604 152.147Z" fill="#DFEBFA"/>
<path d="M227.574 182.25V199.639V225.508V332.734H208.145V225.508V199.639V182.25H227.574Z" fill="#DFEBFA"/>
<path d="M409.646 150.389H408.934V160.787H409.646V150.389Z" fill="#DFEBFA"/>
<path d="M422.05 141.46H420.941V161.596H422.05V141.46Z" fill="#DFEBFA"/>
<path d="M281.067 120.403H280.605V124.111H281.067V120.403Z" fill="#DFEBFA"/>
<path d="M290.86 120.403H290.398V124.111H290.86V120.403Z" fill="#DFEBFA"/>
<path d="M313.31 120.403H312.848V124.111H313.31V120.403Z" fill="#DFEBFA"/>
<path d="M432.107 120.199H431.75V123.06H432.107V120.199Z" fill="#DFEBFA"/>
<path d="M448.962 120.199H448.605V123.06H448.962V120.199Z" fill="#DFEBFA"/>
<path d="M304.536 120.403H304.074V124.111H304.536V120.403Z" fill="#DFEBFA"/>
<path d="M237.721 156.926H233.164V164.647H237.721V156.926Z" fill="#EEF6FF"/>
<path d="M361.733 158.807H357.176V166.528H361.733V158.807Z" fill="#EEF6FF"/>
<path d="M288.904 130.31H284.348V138.031H288.904V130.31Z" fill="#EEF6FF"/>
<path d="M297.947 130.31H293.391V138.031H297.947V130.31Z" fill="#EEF6FF"/>
<path d="M471.463 190.123H466.906V197.844H471.463V190.123Z" fill="#EEF6FF"/>
<path d="M239.998 194.289H235.441V202.01H239.998V194.289Z" fill="#EEF6FF"/>
<path d="M535.564 203.189C534.932 193.758 535.46 183.844 537.832 173.361C537.971 172.747 538.115 172.128 538.268 171.509C538.268 171.507 538.268 171.507 538.27 171.504C540.214 163.584 541.358 155.899 541.77 148.467H516.418V333.634L530.454 333.639C530.925 333.298 531.39 332.958 531.846 332.617C533.795 331.161 535.606 329.703 537.281 328.24C545.559 321.012 550.556 313.723 553.231 306.256C553.297 306.073 553.361 305.888 553.425 305.703C554.868 301.492 555.582 297.226 555.737 292.884C555.751 292.531 555.759 292.18 555.766 291.824C555.768 291.656 555.77 291.488 555.77 291.319C555.925 265.923 537.896 237.852 535.564 203.189Z" fill="#DFEBFA"/>
<path d="M516.452 182.25V199.639V225.508V332.734H498.473V225.508V199.639V182.25H516.452Z" fill="#DFEBFA"/>
<path d="M525.842 156.926H521.625V164.647H525.842V156.926Z" fill="#EEF6FF"/>
<path d="M538.27 171.504C538.268 171.506 538.268 171.506 538.268 171.509C538.115 172.128 537.971 172.747 537.832 173.361V171.504L538.27 171.504Z" fill="#EEF6FF"/>
<path d="M527.951 194.289H523.734V202.01H527.951V194.289Z" fill="#EEF6FF"/>
<path d="M206.256 155.939H196.564V130.424C196.418 130.32 196.268 130.22 196.121 130.118H193.233V130.106H176.43V130.118H176.413V133.945H176.43V136.575H176.413V140.4H176.43V143.039H176.413V146.864H176.43V146.876L174.649 146.864V126.855H155.796V129.388H155.786V133.213H155.796V136.575H155.786V140.4H155.796V143.039H155.786V146.864H155.796V149.304H155.786V153.134H155.796V155.574H155.786V159.399H155.796V161.701H155.786V164.129H155.796V164.395H134.544V186.286H126.605V191.8H118.048V182.303H102.646V156.501H100.237V153.93H99.8932V156.501H97.8942V156.499H87.9064V153.93H87.5626V156.499H84.9613V169.472L72.026 169.403V177.408H61.0589V127.904H48.9964C32.611 150.393 27.0457 186.628 26.875 221.504C26.8703 222.526 26.8703 223.548 26.8726 224.568C26.9935 254.007 30.8658 282.156 35.1982 299.853C39.4001 317.019 43.8106 329.342 45.0246 332.617C45.2382 333.188 45.352 333.485 45.352 333.485L208.144 333.544V333.537L206.256 155.939Z" fill="#DFEBFA"/>
<path d="M139.098 154.183H138.5V164.581H139.098V154.183Z" fill="#DFEBFA"/>
<path d="M149.521 145.254H148.59V165.39H149.521V145.254Z" fill="#DFEBFA"/>
<path d="M58.1927 124.197H57.8047V127.905H58.1927V124.197Z" fill="#DFEBFA"/>
<path d="M157.967 123.993H157.668V126.854H157.967V123.993Z" fill="#DFEBFA"/>
<path d="M172.12 123.993H171.82V126.854H172.12V123.993Z" fill="#DFEBFA"/>
<path d="M50.8202 125.49V127.906H50.4336V125.988C50.5617 125.819 50.6899 125.656 50.8202 125.49Z" fill="#DFEBFA"/>
<path d="M54.2605 132.58H50.4336V140.301H54.2605V132.58Z" fill="#EEF6FF"/>
<path d="M66.4753 195.313H62.6484V203.034H66.4753V195.313Z" fill="#EEF6FF"/>
<path d="M87.7957 217.917H83.9688V225.639H87.7957V217.917Z" fill="#EEF6FF"/>
<path d="M41.249 180.528H37.4219V188.249H41.249V180.528Z" fill="#EEF6FF"/>
<path d="M163.432 130.649H159.605V138.37H163.432V130.649Z" fill="#EEF6FF"/>
<path d="M148.038 195.313H144.211V203.034H148.038V195.313Z" fill="#EEF6FF"/>
<path d="M179.276 210.197H175.449V217.918H179.276V210.197Z" fill="#EEF6FF"/>
<path d="M212.501 71.9158V333.281H203.355V70.7705C206.782 71.1357 209.851 71.5341 212.501 71.9158Z" fill="#D1E3FB"/>
<path d="M498.424 55.6753V333.281H489.281V48.8911C489.969 49.3606 490.653 49.8372 491.332 50.3185C493.763 52.0402 496.128 53.8256 498.424 55.6753Z" fill="#D1E3FB"/>
<path d="M268.496 328.828H262.822L261.23 256.628H269.898L268.496 328.828Z" fill="#2B478B"/>
<path d="M293.153 328.828H237.973V323.844L266.097 321.307L293.153 323.844V328.828Z" fill="#2B478B"/>
<path d="M232.613 328.045C232.613 325.539 234.645 323.506 237.152 323.506C239.659 323.506 241.691 325.539 241.691 328.045C241.691 330.552 239.659 332.584 237.152 332.584C234.645 332.584 232.613 330.552 232.613 328.045Z" fill="#2B478B"/>
<path d="M287.793 328.045C287.793 325.539 289.825 323.506 292.332 323.506C294.839 323.506 296.871 325.539 296.871 328.045C296.871 330.552 294.839 332.584 292.332 332.584C289.825 332.584 287.793 330.552 287.793 328.045Z" fill="#2B478B"/>
<path d="M291.177 261.365H239.952C237.335 261.365 235.215 259.244 235.215 256.628H295.914C295.913 259.244 293.793 261.365 291.177 261.365Z" fill="#2B478B"/>
<path d="M227.221 256.628C222.87 256.628 219.344 253.101 219.344 248.751V185.825C219.344 173.367 227.489 163.267 237.537 163.267H278.677C288.725 163.267 296.87 173.367 296.87 185.825V256.628H227.221Z" fill="#F99746"/>
<path d="M228.034 256.628C225.649 256.628 223.715 254.694 223.715 252.309V185.825C223.715 173.367 231.86 163.267 241.908 163.267H283.048C293.096 163.267 301.241 173.367 301.241 185.825V256.628H228.034Z" fill="#ED7D2B"/>
<path d="M323.378 256.628H224.163C221.406 256.628 219.172 254.393 219.172 251.636C219.172 248.88 221.406 246.645 224.163 246.645H323.378C326.135 246.645 328.37 248.88 328.37 251.636C328.37 254.393 326.135 256.628 323.378 256.628Z" fill="#F99746"/>
<path d="M323.746 56.3413C323.746 56.3413 328.033 49.1349 338.283 49.9357C338.283 49.9357 353.165 37.9246 369.035 48.3344C369.035 48.3344 385.905 45.7552 398.398 50.5675C406.727 53.7762 409.478 57.142 409.478 57.142L323.746 56.3413Z" fill="#F8FCFF"/>
<path d="M387.512 76.1145C387.512 76.1145 390.001 71.7205 395.955 72.2088C395.955 72.2088 404.599 64.8852 413.816 71.2324C413.816 71.2324 423.614 69.6597 430.87 72.5941C435.708 74.5505 437.306 76.6028 437.306 76.6028L387.512 76.1145Z" fill="#F8FCFF"/>
<path d="M228.621 107.959C228.621 107.959 231.984 102.023 240.026 102.683C240.026 102.683 251.702 92.7904 264.152 101.364C264.152 101.364 277.387 99.2394 287.188 103.203C293.723 105.846 295.882 108.618 295.882 108.618L228.621 107.959Z" fill="#F8FCFF"/>
<path d="M430.461 332.648C430.461 332.648 430.461 328.758 431.015 327.465C431.57 326.171 433.603 320.904 433.603 320.904H441.549C441.549 320.904 443.027 325.709 443.12 327.28C443.212 328.851 443.12 332.648 443.12 332.648H430.461Z" fill="#233862"/>
<path d="M480.915 332.648C480.915 332.648 480.915 328.758 480.36 327.465C479.806 326.171 477.773 320.904 477.773 320.904H469.827C469.827 320.904 468.348 325.709 468.256 327.28C468.163 328.851 468.256 332.648 468.256 332.648H480.915Z" fill="#233862"/>
<path d="M449.078 114.301C449.078 114.301 448.798 122.963 447.689 126.844L438.914 132.965L471.947 137.908L464.069 127.024C464.069 127.024 461.69 115.409 462.938 111.113C464.185 106.816 449.078 114.301 449.078 114.301Z" fill="#FFB27D"/>
<path d="M449.031 115.497C449.031 115.494 451.643 121.785 456.563 121.646C461.484 121.508 462.604 115.944 462.604 115.944L449.031 115.497Z" fill="#ED985F"/>
<path d="M446.093 110.406C446.093 110.406 444.504 102.474 443.395 100.071C442.286 97.669 441.362 86.9506 453.651 86.3962C453.651 86.3962 458.363 86.9506 460.951 85.3799C460.951 85.3799 460.951 86.9508 460.304 87.505C460.304 87.505 464.554 86.4886 467.881 90.1846C471.207 93.8807 465.664 106.817 465.941 109.866L446.093 110.406Z" fill="#2C3A64"/>
<path d="M455.998 119.216C452.433 119.153 445.871 114.406 445.871 108.528V99.3542C445.871 97.2075 447.368 95.4512 449.197 95.4512H462.799C464.628 95.4512 466.125 97.2075 466.125 99.3542V108.009C466.125 114.173 460.087 119.288 455.998 119.216Z" fill="#FFB27D"/>
<path d="M445.872 104.252C445.872 104.252 445.89 98.7404 450.256 97.8929C454.622 97.0452 464.393 100.58 465.779 96.5602C467.165 92.5408 446.892 92.6102 445.872 95.1742C444.851 97.7381 445.872 104.252 445.872 104.252Z" fill="#2C3A64"/>
<path d="M431.456 197.925C431.456 197.925 432.847 240.379 430.768 264.603C428.689 288.826 430.783 322.537 430.783 322.537C430.783 322.537 437.432 326.203 444.638 322.537C444.638 322.537 452.542 275.74 452.492 264.603C452.439 252.742 461.095 199.776 461.095 199.776L431.456 197.925Z" fill="#2B478B"/>
<path d="M480.628 322.536C480.628 322.536 473.981 326.203 466.774 322.536C466.774 322.536 458.871 275.739 458.921 264.602C458.943 259.593 457.413 247.249 455.636 234.665C453.205 217.448 450.316 199.777 450.316 199.777L481.105 197.853C481.105 197.853 478.566 240.38 480.644 264.602C482.724 288.826 480.628 322.536 480.628 322.536Z" fill="#2B478B"/>
<path d="M480.736 204.988C480.736 204.988 467.611 207.53 455.636 207.53C450.414 207.53 444.739 206.956 440.221 206.352C435.226 205.689 431.645 204.988 431.645 204.988C431.645 204.988 428.984 205.221 430.555 192.101C431.75 182.117 431.376 173.102 431.11 163.827C431.079 162.796 431.101 161.576 431.165 160.218C431.675 149.405 434.946 129.937 437.438 128.892C437.438 128.892 441.144 127.515 447.692 126.844C447.692 126.971 451.492 132.526 456.002 133.15C458.804 132.041 461.005 131.096 464.071 127.024C467.955 127.476 472.19 128.246 476.72 129.463C476.72 129.463 477.191 131.525 478.97 167.306C479.677 181.479 484.514 205.035 480.736 204.988Z" fill="#9FC1F4"/>
<path d="M458.918 264.602C458.94 259.593 457.41 247.249 455.633 234.665C457.476 227.147 461.967 219.912 461.967 219.912C467.649 235.851 458.918 264.602 458.918 264.602Z" fill="#233862"/>
<path d="M418.978 171.483C418.664 171.744 419.757 174.449 421.364 177.975C424.674 185.218 430.171 195.915 430.171 195.915C429.375 198.934 428.502 200.799 428.502 200.799C419.255 193.534 413.293 187.353 409.486 182.613C404.137 175.946 403.039 172.124 403.039 172.124C423.629 130.211 438.12 128.667 438.12 128.667L436.408 156.365C436.408 156.365 419.931 170.69 418.978 171.483Z" fill="#9FC1F4"/>
<path d="M429.075 196.443C429.075 196.443 434.065 191.823 436.098 194.41C438.13 196.998 438.5 201.063 436.929 200.786C435.358 200.509 432.124 199.03 431.662 199.77C431.2 200.509 429.13 201.922 428.502 200.8C427.874 199.677 429.075 196.443 429.075 196.443Z" fill="#FFB27D"/>
<path d="M430.173 195.915C429.377 198.934 428.504 200.799 428.504 200.799C419.257 193.534 413.294 187.353 409.488 182.613C412.357 182.399 416.546 181.374 421.366 177.975C424.676 185.218 430.173 195.915 430.173 195.915Z" fill="#FFB27D"/>
<path d="M509.694 172.124C509.694 172.124 508.596 175.946 503.247 182.613C499.441 187.353 493.478 193.534 484.231 200.8C484.231 200.8 483.358 198.934 482.562 195.916C482.562 195.916 488.059 185.219 491.369 177.976C492.976 174.45 494.069 171.744 493.755 171.484C493.015 170.868 482.95 162.123 478.46 158.223C477.157 157.089 476.325 156.365 476.325 156.365L475.297 129.078C475.297 129.078 489.104 130.212 509.694 172.124Z" fill="#9FC1F4"/>
<path d="M483.659 196.443C483.659 196.443 478.67 191.823 476.637 194.41C474.604 196.998 474.234 201.063 475.805 200.786C477.376 200.509 480.61 199.03 481.072 199.77C481.534 200.509 483.604 201.922 484.232 200.8C484.86 199.677 483.659 196.443 483.659 196.443Z" fill="#FFB27D"/>
<path d="M482.562 195.915C483.358 198.934 484.231 200.799 484.231 200.799C493.479 193.534 499.441 187.353 503.247 182.613C500.378 182.399 496.189 181.374 491.369 177.975C488.059 185.218 482.562 195.915 482.562 195.915Z" fill="#FFB27D"/>
<path d="M448.148 124.731C448.148 124.731 446.681 125.343 446.266 127.006C446.266 127.006 452.149 133.058 455.998 133.15L448.148 124.731Z" fill="#ED7D2B"/>
<path d="M456 133.15L463.594 124.426C463.594 124.426 465.161 125.457 465.139 127.155C465.139 127.155 459.265 133.381 456 133.15Z" fill="#ED7D2B"/>
<path d="M454.63 132.508C454.63 132.508 448.834 182.543 450.853 188.641C451.892 191.781 453.283 194.497 454.388 196.393C455.183 197.757 457.155 197.753 457.943 196.385C459.483 193.713 461.494 189.846 461.494 187.883C461.494 184.705 457.096 132.465 457.096 132.465L454.63 132.508Z" fill="#F99746"/>
<path d="M453.116 130.055C453.116 130.055 456.619 129.704 458.751 129.921C459.174 129.964 459.41 130.426 459.204 130.798C458.606 131.874 457.386 133.739 456.111 133.739C454.319 133.739 451.527 130.179 453.116 130.055Z" fill="#ED7D2B"/>
<path d="M453.16 113.308C453.16 113.308 454.271 114.81 456.21 114.756C458.149 114.703 459.061 113.308 459.061 113.308C459.061 113.308 455.789 112.771 453.16 113.308Z" fill="white"/>
<path d="M382.555 212.867L316.598 212.978L326.31 169.46L392.268 169.349L382.555 212.867Z" fill="#416299"/>
<path d="M384.641 212.919L318.684 213.03L328.393 169.457L394.351 169.345L384.641 212.919Z" fill="#233862"/>
<path d="M355.408 223.769L341.707 223.894L351.192 194.981L364.893 194.856L355.408 223.769Z" fill="#112544"/>
<path d="M363.169 222.516H333.246V223.894H363.169V222.516Z" fill="#112544"/>
<path d="M313.352 223.752H256.533L254.762 210.72H311.581L313.352 223.752Z" fill="white"/>
<path d="M249.527 223.703L254.761 210.72L256.532 223.752L249.527 223.703Z" fill="#9FC1F4"/>
<path d="M192.299 220.98H193.534V199.717L180.901 167.483L203.457 150.004L202.701 149.028L179.414 167.073L192.299 199.95V220.98Z" fill="#233862"/>
<path d="M206.007 152.231C206.575 151.828 206.709 151.042 206.306 150.475L204.428 147.825C204.025 147.258 203.239 147.124 202.672 147.526C202.104 147.929 201.97 148.715 202.373 149.282L204.252 151.932C204.654 152.499 205.44 152.633 206.007 152.231Z" fill="#233862"/>
<path d="M182.075 167.112C182.075 166.209 181.343 165.477 180.44 165.477C179.537 165.477 178.805 166.209 178.805 167.112C178.805 168.015 179.537 168.746 180.44 168.746C181.343 168.746 182.075 168.015 182.075 167.112Z" fill="#233862"/>
<path d="M186.922 223.904H199.347V222.649C199.347 221.389 198.325 220.367 197.065 220.367H189.296C187.985 220.367 186.922 221.43 186.922 222.741V223.904Z" fill="#233862"/>
<path d="M191.617 220.979H194.227V201.223H191.617V220.979Z" fill="#233862"/>
<path d="M203.21 170.569C203.269 170.634 203.328 170.7 203.389 170.762L203.401 170.776C203.459 170.84 203.517 170.902 203.576 170.962C205.263 172.425 210.855 169.802 216.265 164.964C221.673 160.127 224.904 154.861 223.637 153.021C223.585 152.956 223.53 152.891 223.472 152.827L223.46 152.813C223.405 152.746 223.347 152.68 223.288 152.614C218.329 147.069 209.815 146.595 204.272 151.553C198.727 156.511 198.252 165.024 203.21 170.569Z" fill="#F99746"/>
<path d="M203.388 170.763L203.4 170.775C203.418 170.8 203.437 170.821 203.455 170.843C203.492 170.886 203.533 170.923 203.576 170.96C205.261 172.424 210.855 169.803 216.263 164.962C221.672 160.128 224.904 154.862 223.638 153.022C223.604 152.976 223.57 152.929 223.533 152.889C223.514 152.868 223.496 152.846 223.471 152.827L223.459 152.812C222.311 151.725 219.193 152.695 215.55 155.053C214 156.056 212.355 157.313 210.725 158.77C209.447 159.915 208.289 161.082 207.283 162.221C204.002 165.947 202.347 169.386 203.388 170.763Z" fill="#F9DDBF"/>
<path d="M207.285 162.221C208.239 163.008 209.465 163.478 210.801 163.478C213.867 163.478 216.352 160.993 216.352 157.927C216.352 156.875 216.058 155.89 215.552 155.053C214.002 156.056 212.357 157.313 210.727 158.77C209.449 159.915 208.291 161.082 207.285 162.221Z" fill="#FFEFE1"/>
<g opacity="0.7">
<path d="M367.694 294.272C367.694 294.272 360.867 286.308 367.273 281.249C367.273 281.249 371.952 278.416 375.767 278.646C375.767 278.646 370.361 287.711 372.11 288.613C373.859 289.515 377.405 278.077 377.405 278.077C377.405 278.077 388.053 277.045 391.478 278.692C391.478 278.692 382.376 286.141 384.293 286.584C386.21 287.027 396.042 279.716 396.042 279.716C396.042 279.716 405.952 281.403 405.423 287.448C404.895 293.493 401.48 295.36 399.98 295.199C398.479 295.039 389.7 291.687 389.509 292.917C389.317 294.147 394.602 298.165 398.302 298.353C398.302 298.353 391.316 306.059 386.672 303.835C382.029 301.611 381.633 298.086 378.738 296.764C375.844 295.442 373.373 295.445 374.568 296.794C375.763 298.142 381.001 299.452 382.657 302.38C384.312 305.308 385.797 307.283 380.993 306.56C376.189 305.837 368.38 302.322 368.037 298.297C367.694 294.272 367.694 294.272 367.694 294.272Z" fill="#77A4E5"/>
<path d="M400.554 287.611C400.554 287.611 373.638 286.574 367.693 294.272C367.693 294.272 366.379 298.209 362.334 301.794L361.703 303.512C361.703 303.512 366.367 298.594 368.036 298.297C368.036 298.297 365.426 288.76 400.554 287.611Z" fill="#77A4E5"/>
<path d="M362.335 301.794C362.335 301.794 356.558 306.067 356.156 313.701L357.205 313.795C357.205 313.795 359.05 305.901 362.385 302.814C365.72 299.727 362.335 301.794 362.335 301.794Z" fill="#77A4E5"/>
<path d="M346.644 287.755C346.644 287.755 356.217 282.395 351.75 275.119C351.75 275.119 348.176 270.652 344.347 269.503C344.347 269.503 346.389 280.352 344.347 280.608C342.305 280.863 342.943 268.355 342.943 268.355C342.943 268.355 332.859 263.504 328.903 263.887C328.903 263.887 335.157 274.481 333.115 274.226C331.073 273.971 324.053 263.249 324.053 263.249C324.053 263.249 313.714 261.334 312.055 267.461C310.396 273.588 313.076 276.651 314.607 277.034C316.139 277.417 325.967 277.289 325.712 278.565C325.457 279.842 318.819 281.884 315.118 280.735C315.118 280.735 319.202 290.819 324.563 290.308C329.924 289.797 331.583 286.479 334.902 286.224C338.22 285.968 340.645 286.862 338.986 287.755C337.327 288.649 331.711 288.048 329.03 290.327C326.35 292.605 324.18 294.01 329.158 295.031C334.136 296.052 343.07 295.413 344.857 291.584C346.644 287.755 346.644 287.755 346.644 287.755Z" fill="#77A4E5"/>
<path d="M316.777 269.375C316.777 269.375 343.581 278.055 346.644 287.755C346.644 287.755 346.517 292.095 349.197 297.073V298.987C349.197 298.987 346.389 292.478 344.858 291.584C344.858 291.584 350.857 283.16 316.777 269.375Z" fill="#77A4E5"/>
<path d="M349.199 297.073C349.199 297.073 353.332 303.35 350.976 310.991L349.912 310.705C349.912 310.705 350.945 302.289 348.782 298.057C346.619 293.824 349.199 297.073 349.199 297.073Z" fill="#77A4E5"/>
<path d="M361.102 275.869C361.102 275.869 346.787 267.853 353.468 256.974C353.468 256.974 358.812 250.294 364.538 248.576C364.538 248.576 361.484 264.799 364.538 265.181C367.591 265.563 366.637 246.858 366.637 246.858C366.637 246.858 381.715 239.605 387.632 240.178C387.632 240.178 378.279 256.02 381.333 255.638C384.387 255.256 394.884 239.224 394.884 239.224C394.884 239.224 410.344 236.361 412.825 245.522C415.306 254.684 411.298 259.264 409.008 259.837C406.718 260.409 392.021 260.218 392.403 262.127C392.785 264.036 402.71 267.09 408.245 265.372C408.245 265.372 402.137 280.45 394.121 279.686C386.105 278.923 383.624 273.961 378.661 273.579C373.699 273.197 370.072 274.533 372.554 275.869C375.035 277.205 383.433 276.307 387.441 279.715C391.449 283.122 394.694 285.221 387.25 286.748C379.806 288.275 366.446 287.321 363.774 281.595C361.102 275.869 361.102 275.869 361.102 275.869Z" fill="#9FC1F4"/>
<path d="M405.764 248.385C405.764 248.385 365.683 261.364 361.102 275.869C361.102 275.869 361.293 282.359 357.285 289.802V292.665C357.285 292.665 361.484 282.931 363.774 281.595C363.774 281.595 354.804 268.998 405.764 248.385Z" fill="#9FC1F4"/>
<path d="M357.286 289.802C357.286 289.802 351.105 299.188 354.629 310.614L356.219 310.187C356.219 310.187 354.675 297.602 357.909 291.272C361.143 284.943 357.286 289.802 357.286 289.802Z" fill="#9FC1F4"/>
<path d="M361.448 332.833C375.1 332.833 386.166 321.766 386.166 308.115H336.73C336.73 321.766 347.797 332.833 361.448 332.833Z" fill="#9FC1F4"/>
<path d="M367.53 332.644C366.525 332.769 365.499 332.833 364.459 332.833C350.808 332.833 339.742 321.766 339.742 308.115H345.883C345.883 320.726 355.328 331.131 367.53 332.644Z" fill="#AFCDFB"/>
<path d="M386.729 308.115H335.918V308.873H386.729V308.115Z" fill="#77A4E5"/>
<path d="M350.891 332.833H374.034C374.034 331.738 373.146 330.851 372.052 330.851H352.873C351.778 330.851 350.891 331.738 350.891 332.833Z" fill="#77A4E5"/>
</g>
<path d="M174.407 334.046H174.312C173.753 334.046 173.304 333.314 173.317 332.424L174.826 228.231L179.272 227.405L175.48 332.431C175.448 333.338 174.977 334.046 174.407 334.046Z" fill="#2B478B"/>
<path d="M397.978 334.046H398.073C398.632 334.046 399.081 333.314 399.068 332.424L397.559 228.231L393.113 227.405L396.904 332.431C396.937 333.338 397.408 334.046 397.978 334.046Z" fill="#2B478B"/>
<path d="M407.558 230.148H166.095C164.578 230.148 163.348 228.918 163.348 227.401V226.609C163.348 225.092 164.578 223.862 166.095 223.862H407.558C409.075 223.862 410.305 225.092 410.305 226.609V227.401C410.306 228.918 409.076 230.148 407.558 230.148Z" fill="#2B478B"/>
<path d="M97.4677 152.162C96.6207 150.529 115.946 144.647 116.252 160.768C116.252 160.768 152.454 159.878 135.168 139.7C129.184 132.715 129.8 126.939 129.979 121.563C130.161 116.186 126.252 100.559 112.852 102.132C112.852 102.132 109.343 100.704 104.964 102.976C95.0043 108.143 72.6943 158.108 97.4677 152.162Z" fill="#163560"/>
<path d="M156.652 170.186C156.652 170.186 159.009 166.598 160.908 166.528C162.807 166.458 166.324 165.473 166.043 166.176C165.761 166.88 163.581 166.95 163.37 167.372C163.159 167.794 166.606 168.427 167.59 168.498C168.575 168.568 170.896 168.498 170.826 168.99C170.756 169.482 166.642 171.522 163.74 171.241C160.838 170.959 157.25 172.085 157.25 172.085L156.652 170.186Z" fill="#FFB27D"/>
<path d="M157.705 174.3C157.705 174.3 152.754 181.022 146.171 183.944C146.171 183.944 146.169 183.944 146.162 183.946C143.836 184.98 141.303 185.537 138.714 185.156C136.833 184.878 135.083 184.21 133.485 183.304C130.478 181.608 128.003 179.088 126.175 176.797C125.622 176.107 125.131 175.436 124.7 174.817C123.315 172.823 122.57 171.346 122.57 171.346L124.244 142.701C124.244 142.701 130.237 144.09 131.996 146.763C133.756 149.438 141.14 170.712 142.406 171.346C143.672 171.979 156.968 168.989 156.968 168.989C156.968 168.989 158.867 171.134 157.705 174.3Z" fill="#9FC1F4"/>
<path d="M72.9729 314.85C72.9729 314.85 68.9164 318.552 69.7079 321.182C70.4994 323.813 74.1603 325.566 74.6549 328.781C75.1495 331.996 77.1284 333.75 78.9094 333.75C80.6904 333.75 87.4001 333.75 87.4001 333.75C87.4001 333.75 88.711 331.487 85.545 330.805C82.3789 330.123 81.1852 326.346 81.3831 322.838C81.581 319.331 81.0862 314.655 81.0862 314.655L74.3582 313.096L72.9729 314.85Z" fill="#233862"/>
<path d="M107.309 316.421C107.309 316.421 105.85 332.104 107.631 332.981L130.422 332.934C130.422 332.934 130.422 330.304 126.761 329.72C123.101 329.135 116.669 326.992 115.581 322.218C114.493 317.444 107.309 316.421 107.309 316.421Z" fill="#233862"/>
<path d="M133.485 183.304C130.478 181.608 128.003 179.088 126.174 176.797C125.622 176.107 125.131 175.436 124.699 174.817C125.956 168.879 127.799 160.715 127.4 165.884C126.883 172.595 132.121 181.193 133.485 183.304Z" fill="#80A3D8"/>
<path d="M91.064 203.908C95.754 193.39 98.6241 190.37 98.0762 187.106C97.6684 184.676 99.3177 141.802 99.3177 141.802C99.8742 141.63 100.99 141.475 101.6 141.34C103.523 140.913 105.116 139.562 105.779 137.706C106.577 135.47 107.212 132.169 107.197 128.032L107.797 128.151L117.899 130.151C117.899 130.151 117.669 133.33 117.663 136.325C117.663 136.35 117.663 136.375 117.662 136.399C117.65 139.001 119.357 141.296 121.855 142.018C123.131 142.386 124.242 142.701 124.242 142.701C124.242 142.701 127.951 153.291 128.66 164.171C129.368 175.05 121.914 179.777 128.716 201.518C135.66 223.722 88.4732 209.72 91.064 203.908Z" fill="#FFB27D"/>
<path d="M117.903 130.151C117.903 130.151 117.673 133.33 117.666 136.325C112.013 136.166 109.025 131.009 107.801 128.151L117.903 130.151Z" fill="#E8945B"/>
<path d="M119.788 132.987C119.788 132.987 106.413 133.207 106.404 124.876C106.395 116.545 104.663 110.962 113.202 110.469C121.74 109.976 123.403 113.154 124.083 115.934C124.762 118.714 123.267 132.715 119.788 132.987Z" fill="#FFB27D"/>
<path d="M119.293 110.266C119.293 110.266 115.631 120.04 110.011 121.485C104.391 122.93 101.953 121.424 101.953 121.424C101.953 121.424 106.264 118 107.158 112.022C107.158 112.022 116.531 105.614 119.293 110.266Z" fill="#163560"/>
<path d="M118.387 111.059C118.387 111.059 121.102 112.074 122.22 114.055C123.313 115.991 124.244 118.556 124.028 121.703C124.028 121.703 126.787 115.06 123.686 111.301C120.398 107.317 118.387 111.059 118.387 111.059Z" fill="#163560"/>
<path d="M116.879 127.819C116.879 127.819 117.802 129.033 119.648 128.945C121.135 128.875 121.709 127.585 121.709 127.585C121.709 127.585 118.977 126.928 116.879 127.819Z" fill="#EBF3FA"/>
<path d="M89.776 160.768C89.776 160.768 89.4363 165.557 89.776 171.303C90.0018 175.112 93.8546 180.213 94.4013 181.475C95.7728 184.64 97.3198 185.155 97.3198 185.155L109.287 188.089L113.494 189.119L126.763 185.155C126.763 185.155 132.807 168.287 130.38 158.791C127.953 149.295 124.246 142.701 124.246 142.701C124.246 142.701 113.418 153.302 99.3202 141.802L89.776 160.768Z" fill="#9FC1F4"/>
<path d="M93.2773 172.857C93.5032 176.666 93.8534 180.213 94.4 181.475C95.7715 184.64 97.3185 185.155 97.3185 185.155L109.285 188.089L114.483 186.561C114.483 186.561 97.1327 183.931 99.0552 169.004L93.2773 172.857Z" fill="#F2CCAA"/>
<path d="M125.918 187.716C125.918 187.716 132.489 208.169 132.911 215.133C133.333 222.096 120.35 314.057 119.828 317.266C119.335 320.29 115.58 322.218 115.58 322.218C115.58 322.218 113.852 323.237 111.387 322.541C107.966 321.575 106.885 320.419 106.885 320.419C106.885 320.419 101.771 254.833 104.936 231.405C108.101 207.976 108.138 187.716 108.138 187.716H125.918Z" fill="#233862"/>
<path d="M98.0792 187.106C98.0792 187.106 88.0557 200.555 87.1214 209.646C86.187 218.737 85.6554 250.671 83.6646 259.534C81.6739 268.397 74.3594 285.453 74.3594 313.096C74.3594 313.096 75.1195 314.68 77.4671 315.524C78.2178 315.794 79.2236 316.056 80.2002 316.28C82.1361 316.724 84.1224 315.778 85.006 313.999C89.951 304.042 105.703 271.93 106.511 265.265C107.082 260.547 112.056 229.327 122.905 211.007C125.509 206.608 121.306 189.118 121.306 189.118L98.0792 187.106Z" fill="#2B478B"/>
<path d="M117.176 128.041C117.176 128.041 117.407 129.023 119.849 128.872C119.849 128.872 121.9 128.745 121.837 127.666C121.837 127.666 119.849 126.898 117.176 128.041Z" fill="white"/>
<path d="M126.967 184.558C126.967 184.558 124.329 186.645 119.088 186.75C112.829 186.876 97.3181 185.155 97.3181 185.155C97.3181 185.155 96.629 187.08 96.6571 189.113C96.6571 189.113 115.601 193.892 126.577 189.811C126.577 189.811 127.992 187.147 126.967 184.558Z" fill="#233862"/>
<path d="M117.734 188.912C117.734 187.129 119.015 185.679 120.591 185.679C122.166 185.679 123.447 187.129 123.447 188.912C123.447 190.695 122.165 192.145 120.591 192.145C119.016 192.145 117.734 190.695 117.734 188.912ZM118.681 188.912C118.681 190.173 119.538 191.198 120.591 191.198C121.644 191.198 122.5 190.173 122.5 188.912C122.5 187.651 121.643 186.626 120.591 186.626C119.538 186.626 118.681 187.651 118.681 188.912Z" fill="white"/>
<path d="M76.9229 188.251L96.332 205.151L119.466 178.583L100.056 161.683L76.9229 188.251Z" fill="#ED7D2B"/>
<path d="M101.696 188.32C101.696 188.32 108.808 189.152 108.785 190.84C108.763 192.528 107.013 195.996 106.135 196.15C105.257 196.304 100.348 191.46 100.348 191.46L101.696 188.32Z" fill="#FFB27D"/>
<path d="M99.3182 141.801C99.3182 141.801 89.8242 142.467 86.1848 151.314C82.5455 160.161 75.6406 175.015 75.6406 177.513C75.6406 180.012 79.4976 187.716 100.213 192.144C100.213 192.144 102.355 189.891 102.225 188.108C102.225 188.108 89.2944 177.002 89.3292 175.704C89.395 173.248 91.4491 170.007 102.802 158.65C105.888 155.563 99.3182 141.801 99.3182 141.801Z" fill="#9FC1F4"/>
<path d="M562.629 334.272H20.0861C19.723 334.272 19.4258 333.975 19.4258 333.612V333.277C19.4258 332.913 19.7229 332.616 20.0861 332.616H562.629C562.992 332.616 563.289 332.913 563.289 333.277V333.612C563.289 333.975 562.992 334.272 562.629 334.272Z" fill="#2E3552"/>
</svg>
