<svg width="445" height="265" viewBox="0 0 445 265" fill="none" xmlns="http://www.w3.org/2000/svg">
<path d="M99 12.1899C99 5.56252 104.373 0.189941 111 0.189941H445V51.1899H111C104.373 51.1899 99 45.8174 99 39.1899V12.1899Z" fill="#BACFFF"/>
<path d="M99 12.1899C99 5.56252 104.373 0.189941 111 0.189941H172V51.1899H111C104.373 51.1899 99 45.8174 99 39.1899V12.1899Z" fill="#2B3D63"/>
<rect x="111" y="12.1899" width="49" height="27" rx="8" fill="white"/>
<path d="M122.719 23.7553C122.673 23.3519 122.486 23.0394 122.156 22.8178C121.827 22.5934 121.412 22.4811 120.912 22.4811C120.554 22.4811 120.244 22.538 119.983 22.6516C119.722 22.7624 119.518 22.9158 119.374 23.1118C119.232 23.305 119.161 23.5252 119.161 23.7723C119.161 23.9797 119.209 24.1587 119.305 24.3093C119.405 24.4598 119.534 24.5862 119.693 24.6885C119.855 24.788 120.028 24.8718 120.213 24.9399C120.398 25.0053 120.575 25.0593 120.746 25.1019L121.598 25.3235C121.876 25.3916 122.162 25.484 122.455 25.6005C122.747 25.7169 123.018 25.8703 123.268 26.0607C123.518 26.251 123.72 26.4868 123.874 26.7681C124.03 27.0493 124.108 27.386 124.108 27.778C124.108 28.2723 123.98 28.7112 123.724 29.0948C123.472 29.4783 123.104 29.7809 122.621 30.0024C122.141 30.224 121.56 30.3348 120.878 30.3348C120.224 30.3348 119.659 30.2311 119.182 30.0237C118.705 29.8164 118.331 29.5223 118.061 29.1416C117.791 28.7581 117.642 28.3036 117.614 27.778H118.935C118.96 28.0934 119.063 28.3561 119.241 28.5664C119.423 28.7737 119.655 28.9286 119.936 29.0309C120.22 29.1303 120.531 29.18 120.869 29.18C121.241 29.18 121.572 29.1218 121.862 29.0053C122.155 28.886 122.385 28.7212 122.553 28.511C122.72 28.2979 122.804 28.0493 122.804 27.7652C122.804 27.5067 122.73 27.2951 122.582 27.1303C122.438 26.9655 122.24 26.8291 121.99 26.7212C121.743 26.6132 121.463 26.5181 121.151 26.4357L120.119 26.1544C119.42 25.9641 118.866 25.6843 118.457 25.3149C118.051 24.9456 117.848 24.457 117.848 23.849C117.848 23.3462 117.984 22.9073 118.257 22.5323C118.53 22.1573 118.899 21.8661 119.365 21.6587C119.831 21.4485 120.357 21.3434 120.942 21.3434C121.533 21.3434 122.054 21.447 122.506 21.6544C122.96 21.8618 123.318 22.1473 123.58 22.511C123.841 22.8718 123.977 23.2865 123.989 23.7553H122.719ZM128.4 30.322C127.755 30.322 127.2 30.1843 126.734 29.9087C126.271 29.6303 125.913 29.2397 125.66 28.7368C125.41 28.2311 125.285 27.6388 125.285 26.9598C125.285 26.2894 125.41 25.6985 125.66 25.1871C125.913 24.6757 126.265 24.2766 126.717 23.9897C127.172 23.7027 127.703 23.5593 128.311 23.5593C128.68 23.5593 129.038 23.6203 129.385 23.7425C129.731 23.8647 130.042 24.0564 130.318 24.3178C130.593 24.5791 130.811 24.9186 130.97 25.3362C131.129 25.751 131.208 26.2553 131.208 26.849V27.3007H126.005V26.3462H129.96C129.96 26.011 129.892 25.7141 129.755 25.4556C129.619 25.1942 129.427 24.9882 129.18 24.8377C128.936 24.6871 128.649 24.6118 128.319 24.6118C127.961 24.6118 127.649 24.6999 127.382 24.876C127.118 25.0493 126.913 25.2766 126.768 25.5578C126.626 25.8362 126.555 26.1388 126.555 26.4655V27.2112C126.555 27.6487 126.632 28.0209 126.785 28.3277C126.941 28.6345 127.159 28.8689 127.437 29.0309C127.716 29.1899 128.041 29.2695 128.413 29.2695C128.654 29.2695 128.875 29.2354 129.074 29.1672C129.272 29.0962 129.444 28.9911 129.589 28.8519C129.734 28.7127 129.845 28.5408 129.922 28.3362L131.127 28.5536C131.031 28.9087 130.858 29.2198 130.608 29.4868C130.36 29.751 130.049 29.957 129.674 30.1047C129.302 30.2496 128.877 30.322 128.4 30.322ZM133.896 21.4627V30.1899H132.622V21.4627H133.896ZM138.431 30.322C137.787 30.322 137.231 30.1843 136.765 29.9087C136.302 29.6303 135.944 29.2397 135.691 28.7368C135.441 28.2311 135.316 27.6388 135.316 26.9598C135.316 26.2894 135.441 25.6985 135.691 25.1871C135.944 24.6757 136.297 24.2766 136.748 23.9897C137.203 23.7027 137.734 23.5593 138.342 23.5593C138.711 23.5593 139.069 23.6203 139.416 23.7425C139.762 23.8647 140.074 24.0564 140.349 24.3178C140.625 24.5791 140.842 24.9186 141.001 25.3362C141.16 25.751 141.24 26.2553 141.24 26.849V27.3007H136.037V26.3462H139.991C139.991 26.011 139.923 25.7141 139.787 25.4556C139.65 25.1942 139.458 24.9882 139.211 24.8377C138.967 24.6871 138.68 24.6118 138.35 24.6118C137.993 24.6118 137.68 24.6999 137.413 24.876C137.149 25.0493 136.944 25.2766 136.799 25.5578C136.657 25.8362 136.586 26.1388 136.586 26.4655V27.2112C136.586 27.6487 136.663 28.0209 136.816 28.3277C136.973 28.6345 137.19 28.8689 137.468 29.0309C137.747 29.1899 138.072 29.2695 138.444 29.2695C138.686 29.2695 138.906 29.2354 139.105 29.1672C139.304 29.0962 139.475 28.9911 139.62 28.8519C139.765 28.7127 139.876 28.5408 139.953 28.3362L141.159 28.5536C141.062 28.9087 140.889 29.2198 140.639 29.4868C140.392 29.751 140.081 29.957 139.706 30.1047C139.333 30.2496 138.909 30.322 138.431 30.322ZM145.411 30.322C144.777 30.322 144.232 30.1786 143.774 29.8916C143.32 29.6019 142.97 29.2027 142.726 28.6942C142.482 28.1857 142.359 27.6033 142.359 26.947C142.359 26.2823 142.484 25.6956 142.734 25.1871C142.984 24.6757 143.337 24.2766 143.791 23.9897C144.246 23.7027 144.781 23.5593 145.398 23.5593C145.895 23.5593 146.338 23.6516 146.727 23.8362C147.116 24.0181 147.43 24.2737 147.669 24.6033C147.911 24.9328 148.054 25.3178 148.099 25.7581H146.859C146.791 25.4513 146.635 25.1871 146.391 24.9655C146.149 24.7439 145.825 24.6331 145.419 24.6331C145.064 24.6331 144.753 24.7269 144.486 24.9144C144.222 25.099 144.016 25.3632 143.868 25.707C143.72 26.0479 143.646 26.4513 143.646 26.9172C143.646 27.3945 143.719 27.8064 143.864 28.153C144.009 28.4996 144.213 28.7681 144.477 28.9584C144.744 29.1487 145.058 29.2439 145.419 29.2439C145.661 29.2439 145.879 29.1999 146.075 29.1118C146.274 29.0209 146.44 28.8916 146.574 28.724C146.71 28.5564 146.805 28.3547 146.859 28.1189H148.099C148.054 28.5422 147.916 28.9201 147.686 29.2524C147.456 29.5848 147.148 29.8462 146.761 30.0365C146.378 30.2269 145.928 30.322 145.411 30.322ZM152.517 23.6445V24.6672H148.942V23.6445H152.517ZM149.901 22.0763H151.175V28.2681C151.175 28.5152 151.212 28.7013 151.286 28.8263C151.36 28.9485 151.455 29.0323 151.571 29.0777C151.691 29.1203 151.82 29.1416 151.959 29.1416C152.061 29.1416 152.151 29.1345 152.228 29.1203C152.304 29.1061 152.364 29.0948 152.407 29.0862L152.637 30.1388C152.563 30.1672 152.458 30.1956 152.321 30.224C152.185 30.2553 152.015 30.2723 151.81 30.2752C151.475 30.2809 151.162 30.2212 150.873 30.0962C150.583 29.9712 150.348 29.778 150.169 29.5166C149.99 29.2553 149.901 28.9272 149.901 28.5323V22.0763Z" fill="#324878"/>
<path d="M353.278 31.1899V19.5536H360.494V21.0649H355.034V24.6104H359.977V26.1161H355.034V31.1899H353.278ZM365.026 31.3831C364.473 31.3831 363.973 31.2809 363.526 31.0763C363.079 30.868 362.724 30.5668 362.463 30.1729C362.205 29.779 362.077 29.296 362.077 28.724C362.077 28.2316 362.171 27.8263 362.361 27.5081C362.55 27.1899 362.806 26.938 363.128 26.7524C363.45 26.5668 363.81 26.4267 364.207 26.332C364.605 26.2373 365.01 26.1653 365.423 26.1161C365.946 26.0555 366.37 26.0062 366.696 25.9684C367.022 25.9267 367.259 25.8604 367.406 25.7695C367.554 25.6786 367.628 25.5309 367.628 25.3263V25.2865C367.628 24.7903 367.488 24.4059 367.207 24.1331C366.931 23.8604 366.518 23.724 365.969 23.724C365.397 23.724 364.946 23.8509 364.616 24.1047C364.291 24.3547 364.065 24.6331 363.94 24.9399L362.344 24.5763C362.533 24.046 362.81 23.618 363.173 23.2922C363.541 22.9627 363.963 22.724 364.44 22.5763C364.918 22.4248 365.42 22.349 365.946 22.349C366.295 22.349 366.664 22.3907 367.054 22.474C367.448 22.5536 367.815 22.7013 368.156 22.9172C368.501 23.1331 368.783 23.4418 369.003 23.8434C369.223 24.2411 369.332 24.7581 369.332 25.3945V31.1899H367.673V29.9968H367.605C367.495 30.2165 367.33 30.4324 367.111 30.6445C366.891 30.8566 366.609 31.0327 366.264 31.1729C365.92 31.313 365.507 31.3831 365.026 31.3831ZM365.395 30.0195C365.865 30.0195 366.266 29.9267 366.599 29.7411C366.937 29.5555 367.192 29.313 367.366 29.0138C367.545 28.7108 367.634 28.3869 367.634 28.0422V26.9172C367.573 26.9778 367.455 27.0346 367.281 27.0877C367.111 27.1369 366.916 27.1805 366.696 27.2184C366.476 27.2524 366.262 27.2846 366.054 27.3149C365.846 27.3415 365.671 27.3642 365.531 27.3831C365.202 27.4248 364.901 27.4949 364.628 27.5934C364.359 27.6918 364.143 27.8339 363.98 28.0195C363.821 28.2013 363.741 28.4437 363.741 28.7468C363.741 29.1672 363.897 29.4854 364.207 29.7013C364.518 29.9134 364.914 30.0195 365.395 30.0195ZM378.135 24.5934L376.595 24.8661C376.531 24.6691 376.429 24.4816 376.288 24.3036C376.152 24.1255 375.966 23.9797 375.732 23.8661C375.497 23.7524 375.203 23.6956 374.851 23.6956C374.37 23.6956 373.968 23.8036 373.646 24.0195C373.324 24.2316 373.163 24.5062 373.163 24.8434C373.163 25.135 373.271 25.3699 373.487 25.5479C373.703 25.7259 374.052 25.8718 374.533 25.9854L375.919 26.3036C376.722 26.4892 377.321 26.7752 377.714 27.1615C378.108 27.5479 378.305 28.0498 378.305 28.6672C378.305 29.1899 378.154 29.6559 377.851 30.0649C377.552 30.4702 377.133 30.7884 376.595 31.0195C376.061 31.2505 375.442 31.3661 374.737 31.3661C373.76 31.3661 372.963 31.1577 372.345 30.7411C371.728 30.3206 371.349 29.724 371.209 28.9513L372.851 28.7013C372.953 29.1293 373.163 29.4532 373.482 29.6729C373.8 29.8888 374.214 29.9968 374.726 29.9968C375.283 29.9968 375.728 29.8812 376.061 29.6502C376.394 29.4153 376.561 29.1293 376.561 28.7922C376.561 28.5195 376.459 28.2903 376.254 28.1047C376.054 27.9191 375.745 27.779 375.328 27.6843L373.851 27.3604C373.036 27.1748 372.434 26.8793 372.044 26.474C371.658 26.0687 371.464 25.5555 371.464 24.9343C371.464 24.4191 371.608 23.9684 371.896 23.582C372.184 23.1956 372.582 22.8945 373.089 22.6786C373.597 22.4589 374.179 22.349 374.834 22.349C375.777 22.349 376.519 22.5536 377.061 22.9627C377.603 23.368 377.961 23.9115 378.135 24.5934ZM384.247 22.4627V23.8263H379.48V22.4627H384.247ZM380.759 20.3718H382.457V28.6274C382.457 28.957 382.507 29.2051 382.605 29.3718C382.704 29.5346 382.83 29.6464 382.986 29.707C383.145 29.7638 383.317 29.7922 383.503 29.7922C383.639 29.7922 383.759 29.7827 383.861 29.7638C383.963 29.7449 384.043 29.7297 384.099 29.7184L384.406 31.1218C384.308 31.1596 384.168 31.1975 383.986 31.2354C383.804 31.2771 383.577 31.2998 383.304 31.3036C382.857 31.3112 382.44 31.2316 382.054 31.0649C381.668 30.8983 381.355 30.6407 381.116 30.2922C380.878 29.9437 380.759 29.5062 380.759 28.9797V20.3718ZM389.794 31.3661C388.934 31.3661 388.194 31.1824 387.572 30.8149C386.955 30.4437 386.478 29.9229 386.141 29.2524C385.807 28.5782 385.641 27.7884 385.641 26.8831C385.641 25.9892 385.807 25.2013 386.141 24.5195C386.478 23.8377 386.947 23.3055 387.55 22.9229C388.156 22.5403 388.864 22.349 389.675 22.349C390.167 22.349 390.644 22.4305 391.107 22.5934C391.569 22.7562 391.983 23.0119 392.351 23.3604C392.718 23.7089 393.008 24.1615 393.22 24.7184C393.432 25.2714 393.538 25.9437 393.538 26.7354V27.3377H386.601V26.0649H391.874C391.874 25.618 391.783 25.2221 391.601 24.8774C391.419 24.529 391.163 24.2543 390.834 24.0536C390.508 23.8528 390.125 23.7524 389.686 23.7524C389.209 23.7524 388.792 23.8699 388.436 24.1047C388.084 24.3358 387.811 24.6388 387.618 25.0138C387.429 25.385 387.334 25.7884 387.334 26.224V27.2184C387.334 27.8017 387.436 28.2979 387.641 28.707C387.849 29.1161 388.139 29.4286 388.51 29.6445C388.881 29.8566 389.315 29.9627 389.811 29.9627C390.133 29.9627 390.427 29.9172 390.692 29.8263C390.957 29.7316 391.186 29.5915 391.379 29.4059C391.572 29.2202 391.72 28.9911 391.822 28.7184L393.43 29.0081C393.302 29.4816 393.071 29.8964 392.737 30.2524C392.408 30.6047 391.993 30.8793 391.493 31.0763C390.997 31.2695 390.43 31.3661 389.794 31.3661ZM401.963 24.5934L400.423 24.8661C400.359 24.6691 400.257 24.4816 400.116 24.3036C399.98 24.1255 399.795 23.9797 399.56 23.8661C399.325 23.7524 399.031 23.6956 398.679 23.6956C398.198 23.6956 397.796 23.8036 397.474 24.0195C397.152 24.2316 396.991 24.5062 396.991 24.8434C396.991 25.135 397.099 25.3699 397.315 25.5479C397.531 25.7259 397.88 25.8718 398.361 25.9854L399.747 26.3036C400.55 26.4892 401.149 26.7752 401.543 27.1615C401.937 27.5479 402.134 28.0498 402.134 28.6672C402.134 29.1899 401.982 29.6559 401.679 30.0649C401.38 30.4702 400.961 30.7884 400.423 31.0195C399.889 31.2505 399.27 31.3661 398.565 31.3661C397.588 31.3661 396.791 31.1577 396.173 30.7411C395.556 30.3206 395.177 29.724 395.037 28.9513L396.679 28.7013C396.781 29.1293 396.991 29.4532 397.31 29.6729C397.628 29.8888 398.043 29.9968 398.554 29.9968C399.111 29.9968 399.556 29.8812 399.889 29.6502C400.223 29.4153 400.389 29.1293 400.389 28.7922C400.389 28.5195 400.287 28.2903 400.082 28.1047C399.882 27.9191 399.573 27.779 399.156 27.6843L397.679 27.3604C396.865 27.1748 396.262 26.8793 395.872 26.474C395.486 26.0687 395.293 25.5555 395.293 24.9343C395.293 24.4191 395.437 23.9684 395.724 23.582C396.012 23.1956 396.41 22.8945 396.918 22.6786C397.425 22.4589 398.007 22.349 398.662 22.349C399.605 22.349 400.348 22.5536 400.889 22.9627C401.431 23.368 401.789 23.9115 401.963 24.5934ZM408.075 22.4627V23.8263H403.308V22.4627H408.075ZM404.587 20.3718H406.286V28.6274C406.286 28.957 406.335 29.2051 406.433 29.3718C406.532 29.5346 406.659 29.6464 406.814 29.707C406.973 29.7638 407.145 29.7922 407.331 29.7922C407.467 29.7922 407.587 29.7827 407.689 29.7638C407.791 29.7449 407.871 29.7297 407.928 29.7184L408.234 31.1218C408.136 31.1596 407.996 31.1975 407.814 31.2354C407.632 31.2771 407.405 31.2998 407.132 31.3036C406.685 31.3112 406.268 31.2316 405.882 31.0649C405.496 30.8983 405.183 30.6407 404.945 30.2922C404.706 29.9437 404.587 29.5062 404.587 28.9797V20.3718Z" fill="white"/>
<path d="M58 83.1899C58 76.5625 63.3726 71.1899 70 71.1899H445V122.19H70C63.3726 122.19 58 116.817 58 110.19V83.1899Z" fill="#6F93E1"/>
<path d="M58 83.1899C58 76.5625 63.3726 71.1899 70 71.1899H131V122.19H70C63.3726 122.19 58 116.817 58 110.19V83.1899Z" fill="#2B3D63"/>
<rect x="70" y="83.1899" width="49" height="27" rx="8" fill="white"/>
<path d="M81.7188 94.7553C81.6733 94.3519 81.4858 94.0394 81.1562 93.8178C80.8267 93.5934 80.4119 93.4811 79.9119 93.4811C79.554 93.4811 79.2443 93.538 78.983 93.6516C78.7216 93.7624 78.5185 93.9158 78.3736 94.1118C78.2315 94.305 78.1605 94.5252 78.1605 94.7723C78.1605 94.9797 78.2088 95.1587 78.3054 95.3093C78.4048 95.4598 78.5341 95.5862 78.6932 95.6885C78.8551 95.788 79.0284 95.8718 79.2131 95.9399C79.3977 96.0053 79.5753 96.0593 79.7457 96.1019L80.598 96.3235C80.8764 96.3916 81.1619 96.484 81.4545 96.6005C81.7472 96.7169 82.0185 96.8703 82.2685 97.0607C82.5185 97.251 82.7202 97.4868 82.8736 97.7681C83.0298 98.0493 83.108 98.386 83.108 98.778C83.108 99.2723 82.9801 99.7112 82.7244 100.095C82.4716 100.478 82.1037 100.781 81.6207 101.002C81.1406 101.224 80.5597 101.335 79.8778 101.335C79.2244 101.335 78.6591 101.231 78.1818 101.024C77.7045 100.816 77.331 100.522 77.0611 100.142C76.7912 99.7581 76.642 99.3036 76.6136 98.778H77.9347C77.9602 99.0934 78.0625 99.3561 78.2415 99.5664C78.4233 99.7737 78.6548 99.9286 78.9361 100.031C79.2202 100.13 79.5312 100.18 79.8693 100.18C80.2415 100.18 80.5724 100.122 80.8622 100.005C81.1548 99.886 81.3849 99.7212 81.5526 99.511C81.7202 99.2979 81.804 99.0493 81.804 98.7652C81.804 98.5067 81.7301 98.2951 81.5824 98.1303C81.4375 97.9655 81.2401 97.8291 80.9901 97.7212C80.7429 97.6132 80.4631 97.5181 80.1506 97.4357L79.1193 97.1544C78.4205 96.9641 77.8665 96.6843 77.4574 96.3149C77.0511 95.9456 76.848 95.457 76.848 94.849C76.848 94.3462 76.9844 93.9073 77.2571 93.5323C77.5298 93.1573 77.8991 92.8661 78.3651 92.6587C78.831 92.4485 79.3565 92.3434 79.9418 92.3434C80.5327 92.3434 81.054 92.447 81.5057 92.6544C81.9602 92.8618 82.3182 93.1473 82.5795 93.511C82.8409 93.8718 82.9773 94.2865 82.9886 94.7553H81.7188ZM87.4002 101.322C86.7553 101.322 86.1999 101.184 85.734 100.909C85.271 100.63 84.913 100.24 84.6602 99.7368C84.4102 99.2311 84.2852 98.6388 84.2852 97.9598C84.2852 97.2894 84.4102 96.6985 84.6602 96.1871C84.913 95.6757 85.2653 95.2766 85.717 94.9897C86.1715 94.7027 86.7028 94.5593 87.3107 94.5593C87.68 94.5593 88.038 94.6203 88.3846 94.7425C88.7312 94.8647 89.0423 95.0564 89.3178 95.3178C89.5934 95.5791 89.8107 95.9186 89.9698 96.3362C90.1289 96.751 90.2085 97.2553 90.2085 97.849V98.3007H85.0053V97.3462H88.9599C88.9599 97.011 88.8917 96.7141 88.7553 96.4556C88.619 96.1942 88.4272 95.9882 88.18 95.8377C87.9357 95.6871 87.6488 95.6118 87.3192 95.6118C86.9613 95.6118 86.6488 95.6999 86.3817 95.876C86.1175 96.0493 85.913 96.2766 85.7681 96.5578C85.6261 96.8362 85.555 97.1388 85.555 97.4655V98.2112C85.555 98.6487 85.6317 99.0209 85.7852 99.3277C85.9414 99.6345 86.1587 99.8689 86.4371 100.031C86.7156 100.19 87.0408 100.269 87.413 100.269C87.6545 100.269 87.8746 100.235 88.0735 100.167C88.2724 100.096 88.4442 99.9911 88.5891 99.8519C88.734 99.7127 88.8448 99.5408 88.9215 99.3362L90.1275 99.5536C90.0309 99.9087 89.8576 100.22 89.6076 100.487C89.3604 100.751 89.0494 100.957 88.6744 101.105C88.3022 101.25 87.8775 101.322 87.4002 101.322ZM92.8963 92.4627V101.19H91.6222V92.4627H92.8963ZM97.4315 101.322C96.7866 101.322 96.2312 101.184 95.7653 100.909C95.3022 100.63 94.9442 100.24 94.6914 99.7368C94.4414 99.2311 94.3164 98.6388 94.3164 97.9598C94.3164 97.2894 94.4414 96.6985 94.6914 96.1871C94.9442 95.6757 95.2965 95.2766 95.7482 94.9897C96.2028 94.7027 96.734 94.5593 97.342 94.5593C97.7113 94.5593 98.0692 94.6203 98.4158 94.7425C98.7624 94.8647 99.0735 95.0564 99.3491 95.3178C99.6246 95.5791 99.842 95.9186 100.001 96.3362C100.16 96.751 100.24 97.2553 100.24 97.849V98.3007H95.0366V97.3462H98.9911C98.9911 97.011 98.9229 96.7141 98.7866 96.4556C98.6502 96.1942 98.4585 95.9882 98.2113 95.8377C97.967 95.6871 97.68 95.6118 97.3505 95.6118C96.9925 95.6118 96.68 95.6999 96.413 95.876C96.1488 96.0493 95.9442 96.2766 95.7994 96.5578C95.6573 96.8362 95.5863 97.1388 95.5863 97.4655V98.2112C95.5863 98.6487 95.663 99.0209 95.8164 99.3277C95.9727 99.6345 96.19 99.8689 96.4684 100.031C96.7468 100.19 97.0721 100.269 97.4442 100.269C97.6857 100.269 97.9059 100.235 98.1048 100.167C98.3036 100.096 98.4755 99.9911 98.6204 99.8519C98.7653 99.7127 98.8761 99.5408 98.9528 99.3362L100.159 99.5536C100.062 99.9087 99.8888 100.22 99.6388 100.487C99.3917 100.751 99.0806 100.957 98.7056 101.105C98.3335 101.25 97.9087 101.322 97.4315 101.322ZM104.411 101.322C103.777 101.322 103.232 101.179 102.774 100.892C102.32 100.602 101.97 100.203 101.726 99.6942C101.482 99.1857 101.359 98.6033 101.359 97.947C101.359 97.2823 101.484 96.6956 101.734 96.1871C101.984 95.6757 102.337 95.2766 102.791 94.9897C103.246 94.7027 103.781 94.5593 104.398 94.5593C104.895 94.5593 105.338 94.6516 105.727 94.8362C106.116 95.0181 106.43 95.2737 106.669 95.6033C106.911 95.9328 107.054 96.3178 107.099 96.7581H105.859C105.791 96.4513 105.635 96.1871 105.391 95.9655C105.149 95.7439 104.825 95.6331 104.419 95.6331C104.064 95.6331 103.753 95.7269 103.486 95.9144C103.222 96.099 103.016 96.3632 102.868 96.707C102.72 97.0479 102.646 97.4513 102.646 97.9172C102.646 98.3945 102.719 98.8064 102.864 99.153C103.009 99.4996 103.213 99.7681 103.477 99.9584C103.744 100.149 104.058 100.244 104.419 100.244C104.661 100.244 104.879 100.2 105.075 100.112C105.274 100.021 105.44 99.8916 105.574 99.724C105.71 99.5564 105.805 99.3547 105.859 99.1189H107.099C107.054 99.5422 106.916 99.9201 106.686 100.252C106.456 100.585 106.148 100.846 105.761 101.037C105.378 101.227 104.928 101.322 104.411 101.322ZM111.517 94.6445V95.6672H107.942V94.6445H111.517ZM108.901 93.0763H110.175V99.2681C110.175 99.5152 110.212 99.7013 110.286 99.8263C110.36 99.9485 110.455 100.032 110.571 100.078C110.691 100.12 110.82 100.142 110.959 100.142C111.061 100.142 111.151 100.135 111.228 100.12C111.304 100.106 111.364 100.095 111.407 100.086L111.637 101.139C111.563 101.167 111.458 101.196 111.321 101.224C111.185 101.255 111.015 101.272 110.81 101.275C110.475 101.281 110.162 101.221 109.873 101.096C109.583 100.971 109.348 100.778 109.169 100.517C108.99 100.255 108.901 99.9272 108.901 99.5323V93.0763Z" fill="#324878"/>
<path d="M332.278 102.19V90.5536H336.54C337.366 90.5536 338.049 90.6899 338.591 90.9627C339.133 91.2316 339.538 91.5971 339.807 92.0593C340.076 92.5176 340.21 93.0346 340.21 93.6104C340.21 94.0952 340.121 94.5043 339.943 94.8377C339.765 95.1672 339.527 95.4324 339.227 95.6331C338.932 95.8301 338.606 95.974 338.25 96.0649V96.1786C338.636 96.1975 339.013 96.3225 339.381 96.5536C339.752 96.7809 340.059 97.1047 340.301 97.5252C340.544 97.9456 340.665 98.457 340.665 99.0593C340.665 99.654 340.525 100.188 340.244 100.662C339.968 101.131 339.54 101.504 338.96 101.781C338.381 102.054 337.64 102.19 336.739 102.19H332.278ZM334.034 100.684H336.568C337.409 100.684 338.011 100.521 338.375 100.196C338.739 99.8699 338.92 99.4627 338.92 98.974C338.92 98.6066 338.828 98.2695 338.642 97.9627C338.456 97.6559 338.191 97.4115 337.847 97.2297C337.506 97.0479 337.1 96.957 336.631 96.957H334.034V100.684ZM334.034 95.5877H336.386C336.78 95.5877 337.134 95.5119 337.449 95.3604C337.767 95.2089 338.019 94.9968 338.205 94.724C338.394 94.4475 338.489 94.1218 338.489 93.7468C338.489 93.2657 338.32 92.8623 337.983 92.5365C337.646 92.2108 337.129 92.0479 336.432 92.0479H334.034V95.5877ZM346.372 102.366C345.512 102.366 344.772 102.182 344.151 101.815C343.533 101.444 343.056 100.923 342.719 100.252C342.385 99.5782 342.219 98.7884 342.219 97.8831C342.219 96.9892 342.385 96.2013 342.719 95.5195C343.056 94.8377 343.526 94.3055 344.128 93.9229C344.734 93.5403 345.442 93.349 346.253 93.349C346.745 93.349 347.223 93.4305 347.685 93.5934C348.147 93.7562 348.562 94.0119 348.929 94.3604C349.296 94.7089 349.586 95.1615 349.798 95.7184C350.01 96.2714 350.116 96.9437 350.116 97.7354V98.3377H343.179V97.0649H348.452C348.452 96.618 348.361 96.2221 348.179 95.8774C347.997 95.529 347.741 95.2543 347.412 95.0536C347.086 94.8528 346.704 94.7524 346.264 94.7524C345.787 94.7524 345.37 94.8699 345.014 95.1047C344.662 95.3358 344.389 95.6388 344.196 96.0138C344.007 96.385 343.912 96.7884 343.912 97.224V98.2184C343.912 98.8017 344.014 99.2979 344.219 99.707C344.427 100.116 344.717 100.429 345.088 100.644C345.459 100.857 345.893 100.963 346.389 100.963C346.711 100.963 347.005 100.917 347.27 100.826C347.535 100.732 347.764 100.591 347.957 100.406C348.151 100.22 348.298 99.9911 348.401 99.7184L350.009 100.008C349.88 100.482 349.649 100.896 349.315 101.252C348.986 101.605 348.571 101.879 348.071 102.076C347.575 102.269 347.009 102.366 346.372 102.366ZM358.541 95.5934L357.001 95.8661C356.937 95.6691 356.835 95.4816 356.695 95.3036C356.558 95.1255 356.373 94.9797 356.138 94.8661C355.903 94.7524 355.609 94.6956 355.257 94.6956C354.776 94.6956 354.375 94.8036 354.053 95.0195C353.731 95.2316 353.57 95.5062 353.57 95.8434C353.57 96.135 353.678 96.3699 353.893 96.5479C354.109 96.7259 354.458 96.8718 354.939 96.9854L356.325 97.3036C357.128 97.4892 357.727 97.7752 358.121 98.1615C358.515 98.5479 358.712 99.0498 358.712 99.6672C358.712 100.19 358.56 100.656 358.257 101.065C357.958 101.47 357.539 101.788 357.001 102.019C356.467 102.251 355.848 102.366 355.143 102.366C354.166 102.366 353.369 102.158 352.751 101.741C352.134 101.321 351.755 100.724 351.615 99.9513L353.257 99.7013C353.359 100.129 353.57 100.453 353.888 100.673C354.206 100.889 354.621 100.997 355.132 100.997C355.689 100.997 356.134 100.881 356.467 100.65C356.801 100.415 356.967 100.129 356.967 99.7922C356.967 99.5195 356.865 99.2903 356.661 99.1047C356.46 98.9191 356.151 98.779 355.734 98.6843L354.257 98.3604C353.443 98.1748 352.84 97.8793 352.45 97.474C352.064 97.0687 351.871 96.5555 351.871 95.9343C351.871 95.4191 352.015 94.9684 352.303 94.582C352.59 94.1956 352.988 93.8945 353.496 93.6786C354.003 93.4589 354.585 93.349 355.24 93.349C356.183 93.349 356.926 93.5536 357.467 93.9627C358.009 94.368 358.367 94.9115 358.541 95.5934ZM364.653 93.4627V94.8263H359.886V93.4627H364.653ZM361.165 91.3718H362.864V99.6274C362.864 99.957 362.913 100.205 363.011 100.372C363.11 100.535 363.237 100.646 363.392 100.707C363.551 100.764 363.723 100.792 363.909 100.792C364.045 100.792 364.165 100.783 364.267 100.764C364.369 100.745 364.449 100.73 364.506 100.718L364.812 102.122C364.714 102.16 364.574 102.198 364.392 102.235C364.21 102.277 363.983 102.3 363.71 102.304C363.263 102.311 362.847 102.232 362.46 102.065C362.074 101.898 361.761 101.641 361.523 101.292C361.284 100.944 361.165 100.506 361.165 99.9797V91.3718ZM370.903 102.19V90.5536H375.051C375.956 90.5536 376.706 90.7184 377.301 91.0479C377.896 91.3774 378.341 91.8282 378.636 92.4002C378.932 92.9684 379.08 93.6085 379.08 94.3206C379.08 95.0365 378.93 95.6805 378.631 96.2524C378.335 96.8206 377.888 97.2714 377.29 97.6047C376.695 97.9343 375.947 98.099 375.045 98.099H372.193V96.6104H374.886C375.458 96.6104 375.922 96.5119 376.278 96.3149C376.634 96.1142 376.896 95.8415 377.062 95.4968C377.229 95.1521 377.312 94.76 377.312 94.3206C377.312 93.8812 377.229 93.4911 377.062 93.1502C376.896 92.8093 376.633 92.5422 376.273 92.349C375.917 92.1559 375.447 92.0593 374.864 92.0593H372.659V102.19H370.903ZM381.001 102.19V93.4627H382.643V94.849H382.734C382.893 94.3793 383.174 94.01 383.575 93.7411C383.981 93.4684 384.439 93.332 384.95 93.332C385.056 93.332 385.181 93.3358 385.325 93.3434C385.473 93.3509 385.589 93.3604 385.672 93.3718V94.9968C385.604 94.9778 385.482 94.957 385.308 94.9343C385.134 94.9077 384.96 94.8945 384.786 94.8945C384.384 94.8945 384.026 94.9797 383.712 95.1502C383.401 95.3168 383.155 95.5498 382.973 95.849C382.791 96.1445 382.7 96.4816 382.7 96.8604V102.19H381.001ZM387.142 102.19V93.4627H388.841V102.19H387.142ZM388 92.1161C387.705 92.1161 387.451 92.0176 387.239 91.8206C387.03 91.6199 386.926 91.3812 386.926 91.1047C386.926 90.8244 387.03 90.5858 387.239 90.3888C387.451 90.188 387.705 90.0877 388 90.0877C388.295 90.0877 388.547 90.188 388.756 90.3888C388.968 90.5858 389.074 90.8244 389.074 91.1047C389.074 91.3812 388.968 91.6199 388.756 91.8206C388.547 92.0176 388.295 92.1161 388 92.1161ZM394.803 102.366C393.958 102.366 393.231 102.175 392.621 101.792C392.015 101.406 391.549 100.874 391.223 100.196C390.897 99.5176 390.734 98.7411 390.734 97.8661C390.734 96.9797 390.901 96.1975 391.234 95.5195C391.568 94.8377 392.037 94.3055 392.643 93.9229C393.25 93.5403 393.964 93.349 394.786 93.349C395.448 93.349 396.039 93.4721 396.558 93.7184C397.077 93.9608 397.496 94.3017 397.814 94.7411C398.136 95.1805 398.327 95.6937 398.388 96.2809H396.734C396.643 95.8718 396.435 95.5195 396.109 95.224C395.787 94.9286 395.356 94.7809 394.814 94.7809C394.34 94.7809 393.926 94.9059 393.57 95.1559C393.217 95.4021 392.943 95.7543 392.746 96.2127C392.549 96.6672 392.45 97.2051 392.45 97.8263C392.45 98.4627 392.547 99.0119 392.74 99.474C392.933 99.9362 393.206 100.294 393.558 100.548C393.914 100.802 394.333 100.929 394.814 100.929C395.136 100.929 395.428 100.87 395.689 100.752C395.954 100.631 396.176 100.459 396.354 100.235C396.536 100.012 396.662 99.743 396.734 99.4286H398.388C398.327 99.993 398.143 100.497 397.837 100.94C397.53 101.383 397.119 101.732 396.604 101.985C396.092 102.239 395.492 102.366 394.803 102.366ZM403.966 102.366C403.106 102.366 402.366 102.182 401.744 101.815C401.127 101.444 400.65 100.923 400.312 100.252C399.979 99.5782 399.812 98.7884 399.812 97.8831C399.812 96.9892 399.979 96.2013 400.312 95.5195C400.65 94.8377 401.119 94.3055 401.722 93.9229C402.328 93.5403 403.036 93.349 403.847 93.349C404.339 93.349 404.816 93.4305 405.278 93.5934C405.741 93.7562 406.155 94.0119 406.523 94.3604C406.89 94.7089 407.18 95.1615 407.392 95.7184C407.604 96.2714 407.71 96.9437 407.71 97.7354V98.3377H400.773V97.0649H406.045C406.045 96.618 405.955 96.2221 405.773 95.8774C405.591 95.529 405.335 95.2543 405.006 95.0536C404.68 94.8528 404.297 94.7524 403.858 94.7524C403.381 94.7524 402.964 94.8699 402.608 95.1047C402.256 95.3358 401.983 95.6388 401.79 96.0138C401.6 96.385 401.506 96.7884 401.506 97.224V98.2184C401.506 98.8017 401.608 99.2979 401.812 99.707C402.021 100.116 402.311 100.429 402.682 100.644C403.053 100.857 403.487 100.963 403.983 100.963C404.305 100.963 404.598 100.917 404.864 100.826C405.129 100.732 405.358 100.591 405.551 100.406C405.744 100.22 405.892 99.9911 405.994 99.7184L407.602 100.008C407.473 100.482 407.242 100.896 406.909 101.252C406.58 101.605 406.165 101.879 405.665 102.076C405.169 102.269 404.602 102.366 403.966 102.366Z" fill="white"/>
<path d="M39 154.19C39 147.563 44.3726 142.19 51 142.19H445V193.19H51C44.3726 193.19 39 187.817 39 181.19V154.19Z" fill="#587CCA"/>
<path d="M39 154.19C39 147.563 44.3726 142.19 51 142.19H112V193.19H51C44.3726 193.19 39 187.817 39 181.19V154.19Z" fill="#2B3D63"/>
<rect x="51" y="154.19" width="49" height="27" rx="8" fill="white"/>
<path d="M62.7188 165.755C62.6733 165.352 62.4858 165.039 62.1562 164.818C61.8267 164.593 61.4119 164.481 60.9119 164.481C60.554 164.481 60.2443 164.538 59.983 164.652C59.7216 164.762 59.5185 164.916 59.3736 165.112C59.2315 165.305 59.1605 165.525 59.1605 165.772C59.1605 165.98 59.2088 166.159 59.3054 166.309C59.4048 166.46 59.5341 166.586 59.6932 166.689C59.8551 166.788 60.0284 166.872 60.2131 166.94C60.3977 167.005 60.5753 167.059 60.7457 167.102L61.598 167.323C61.8764 167.392 62.1619 167.484 62.4545 167.6C62.7472 167.717 63.0185 167.87 63.2685 168.061C63.5185 168.251 63.7202 168.487 63.8736 168.768C64.0298 169.049 64.108 169.386 64.108 169.778C64.108 170.272 63.9801 170.711 63.7244 171.095C63.4716 171.478 63.1037 171.781 62.6207 172.002C62.1406 172.224 61.5597 172.335 60.8778 172.335C60.2244 172.335 59.6591 172.231 59.1818 172.024C58.7045 171.816 58.331 171.522 58.0611 171.142C57.7912 170.758 57.642 170.304 57.6136 169.778H58.9347C58.9602 170.093 59.0625 170.356 59.2415 170.566C59.4233 170.774 59.6548 170.929 59.9361 171.031C60.2202 171.13 60.5312 171.18 60.8693 171.18C61.2415 171.18 61.5724 171.122 61.8622 171.005C62.1548 170.886 62.3849 170.721 62.5526 170.511C62.7202 170.298 62.804 170.049 62.804 169.765C62.804 169.507 62.7301 169.295 62.5824 169.13C62.4375 168.966 62.2401 168.829 61.9901 168.721C61.7429 168.613 61.4631 168.518 61.1506 168.436L60.1193 168.154C59.4205 167.964 58.8665 167.684 58.4574 167.315C58.0511 166.946 57.848 166.457 57.848 165.849C57.848 165.346 57.9844 164.907 58.2571 164.532C58.5298 164.157 58.8991 163.866 59.3651 163.659C59.831 163.448 60.3565 163.343 60.9418 163.343C61.5327 163.343 62.054 163.447 62.5057 163.654C62.9602 163.862 63.3182 164.147 63.5795 164.511C63.8409 164.872 63.9773 165.287 63.9886 165.755H62.7188ZM68.4002 172.322C67.7553 172.322 67.1999 172.184 66.734 171.909C66.271 171.63 65.913 171.24 65.6602 170.737C65.4102 170.231 65.2852 169.639 65.2852 168.96C65.2852 168.289 65.4102 167.698 65.6602 167.187C65.913 166.676 66.2653 166.277 66.717 165.99C67.1715 165.703 67.7028 165.559 68.3107 165.559C68.68 165.559 69.038 165.62 69.3846 165.742C69.7312 165.865 70.0423 166.056 70.3178 166.318C70.5934 166.579 70.8107 166.919 70.9698 167.336C71.1289 167.751 71.2085 168.255 71.2085 168.849V169.301H66.0053V168.346H69.9599C69.9599 168.011 69.8917 167.714 69.7553 167.456C69.619 167.194 69.4272 166.988 69.18 166.838C68.9357 166.687 68.6488 166.612 68.3192 166.612C67.9613 166.612 67.6488 166.7 67.3817 166.876C67.1175 167.049 66.913 167.277 66.7681 167.558C66.6261 167.836 66.555 168.139 66.555 168.466V169.211C66.555 169.649 66.6317 170.021 66.7852 170.328C66.9414 170.635 67.1587 170.869 67.4371 171.031C67.7156 171.19 68.0408 171.269 68.413 171.269C68.6545 171.269 68.8746 171.235 69.0735 171.167C69.2724 171.096 69.4442 170.991 69.5891 170.852C69.734 170.713 69.8448 170.541 69.9215 170.336L71.1275 170.554C71.0309 170.909 70.8576 171.22 70.6076 171.487C70.3604 171.751 70.0494 171.957 69.6744 172.105C69.3022 172.25 68.8775 172.322 68.4002 172.322ZM73.8963 163.463V172.19H72.6222V163.463H73.8963ZM78.4315 172.322C77.7866 172.322 77.2312 172.184 76.7653 171.909C76.3022 171.63 75.9442 171.24 75.6914 170.737C75.4414 170.231 75.3164 169.639 75.3164 168.96C75.3164 168.289 75.4414 167.698 75.6914 167.187C75.9442 166.676 76.2965 166.277 76.7482 165.99C77.2028 165.703 77.734 165.559 78.342 165.559C78.7113 165.559 79.0692 165.62 79.4158 165.742C79.7624 165.865 80.0735 166.056 80.3491 166.318C80.6246 166.579 80.842 166.919 81.0011 167.336C81.1602 167.751 81.2397 168.255 81.2397 168.849V169.301H76.0366V168.346H79.9911C79.9911 168.011 79.9229 167.714 79.7866 167.456C79.6502 167.194 79.4585 166.988 79.2113 166.838C78.967 166.687 78.68 166.612 78.3505 166.612C77.9925 166.612 77.68 166.7 77.413 166.876C77.1488 167.049 76.9442 167.277 76.7994 167.558C76.6573 167.836 76.5863 168.139 76.5863 168.466V169.211C76.5863 169.649 76.663 170.021 76.8164 170.328C76.9727 170.635 77.19 170.869 77.4684 171.031C77.7468 171.19 78.0721 171.269 78.4442 171.269C78.6857 171.269 78.9059 171.235 79.1048 171.167C79.3036 171.096 79.4755 170.991 79.6204 170.852C79.7653 170.713 79.8761 170.541 79.9528 170.336L81.1587 170.554C81.0621 170.909 80.8888 171.22 80.6388 171.487C80.3917 171.751 80.0806 171.957 79.7056 172.105C79.3335 172.25 78.9087 172.322 78.4315 172.322ZM85.4105 172.322C84.777 172.322 84.2315 172.179 83.7741 171.892C83.3196 171.602 82.9702 171.203 82.7259 170.694C82.4815 170.186 82.3594 169.603 82.3594 168.947C82.3594 168.282 82.4844 167.696 82.7344 167.187C82.9844 166.676 83.3366 166.277 83.7912 165.99C84.2457 165.703 84.7813 165.559 85.3977 165.559C85.8949 165.559 86.3381 165.652 86.7273 165.836C87.1165 166.018 87.4304 166.274 87.669 166.603C87.9105 166.933 88.054 167.318 88.0994 167.758H86.8594C86.7912 167.451 86.6349 167.187 86.3906 166.966C86.1491 166.744 85.8253 166.633 85.419 166.633C85.0639 166.633 84.7528 166.727 84.4858 166.914C84.2216 167.099 84.0156 167.363 83.8679 167.707C83.7202 168.048 83.6463 168.451 83.6463 168.917C83.6463 169.394 83.7188 169.806 83.8636 170.153C84.0085 170.5 84.2131 170.768 84.4773 170.958C84.7443 171.149 85.0582 171.244 85.419 171.244C85.6605 171.244 85.8793 171.2 86.0753 171.112C86.2741 171.021 86.4403 170.892 86.5739 170.724C86.7102 170.556 86.8054 170.355 86.8594 170.119H88.0994C88.054 170.542 87.9162 170.92 87.6861 171.252C87.456 171.585 87.1477 171.846 86.7614 172.037C86.3778 172.227 85.9276 172.322 85.4105 172.322ZM92.5174 165.644V166.667H88.9421V165.644H92.5174ZM89.9009 164.076H91.1751V170.268C91.1751 170.515 91.212 170.701 91.2859 170.826C91.3597 170.948 91.4549 171.032 91.5714 171.078C91.6907 171.12 91.82 171.142 91.9592 171.142C92.0614 171.142 92.1509 171.135 92.2276 171.12C92.3043 171.106 92.364 171.095 92.4066 171.086L92.6367 172.139C92.5629 172.167 92.4577 172.196 92.3214 172.224C92.185 172.255 92.0146 172.272 91.81 172.275C91.4748 172.281 91.1623 172.221 90.8725 172.096C90.5827 171.971 90.3484 171.778 90.1694 171.517C89.9904 171.255 89.9009 170.927 89.9009 170.532V164.076Z" fill="#324878"/>
<path d="M353.278 173.19V161.554H360.574V163.065H355.034V166.61H360.193V168.116H355.034V171.679H360.642V173.19H353.278ZM365.322 173.383C364.769 173.383 364.269 173.281 363.822 173.076C363.375 172.868 363.021 172.567 362.76 172.173C362.502 171.779 362.374 171.296 362.374 170.724C362.374 170.232 362.468 169.826 362.658 169.508C362.847 169.19 363.103 168.938 363.425 168.752C363.747 168.567 364.107 168.427 364.504 168.332C364.902 168.237 365.307 168.165 365.72 168.116C366.243 168.055 366.667 168.006 366.993 167.968C367.319 167.927 367.555 167.86 367.703 167.769C367.851 167.679 367.925 167.531 367.925 167.326V167.287C367.925 166.79 367.785 166.406 367.504 166.133C367.228 165.86 366.815 165.724 366.266 165.724C365.694 165.724 365.243 165.851 364.913 166.105C364.588 166.355 364.362 166.633 364.237 166.94L362.641 166.576C362.83 166.046 363.107 165.618 363.47 165.292C363.838 164.963 364.26 164.724 364.737 164.576C365.214 164.425 365.716 164.349 366.243 164.349C366.591 164.349 366.961 164.391 367.351 164.474C367.745 164.554 368.112 164.701 368.453 164.917C368.798 165.133 369.08 165.442 369.3 165.843C369.519 166.241 369.629 166.758 369.629 167.394V173.19H367.97V171.997H367.902C367.792 172.216 367.627 172.432 367.408 172.644C367.188 172.857 366.906 173.033 366.561 173.173C366.216 173.313 365.804 173.383 365.322 173.383ZM365.692 172.019C366.161 172.019 366.563 171.927 366.896 171.741C367.233 171.555 367.489 171.313 367.663 171.014C367.841 170.711 367.93 170.387 367.93 170.042V168.917C367.87 168.978 367.752 169.035 367.578 169.088C367.408 169.137 367.213 169.18 366.993 169.218C366.773 169.252 366.559 169.285 366.351 169.315C366.143 169.341 365.968 169.364 365.828 169.383C365.499 169.425 365.197 169.495 364.925 169.593C364.656 169.692 364.44 169.834 364.277 170.019C364.118 170.201 364.038 170.444 364.038 170.747C364.038 171.167 364.194 171.485 364.504 171.701C364.815 171.913 365.211 172.019 365.692 172.019ZM371.892 173.19V164.463H373.534V165.849H373.625C373.784 165.379 374.064 165.01 374.466 164.741C374.871 164.468 375.33 164.332 375.841 164.332C375.947 164.332 376.072 164.336 376.216 164.343C376.364 164.351 376.479 164.36 376.562 164.372V165.997C376.494 165.978 376.373 165.957 376.199 165.934C376.025 165.908 375.85 165.894 375.676 165.894C375.275 165.894 374.917 165.98 374.602 166.15C374.292 166.317 374.045 166.55 373.864 166.849C373.682 167.144 373.591 167.482 373.591 167.86V173.19H371.892ZM379.732 161.554V173.19H378.033V161.554H379.732ZM382.017 173.19V164.463H383.716V173.19H382.017ZM382.875 163.116C382.58 163.116 382.326 163.018 382.114 162.821C381.905 162.62 381.801 162.381 381.801 162.105C381.801 161.824 381.905 161.586 382.114 161.389C382.326 161.188 382.58 161.088 382.875 161.088C383.17 161.088 383.422 161.188 383.631 161.389C383.843 161.586 383.949 161.824 383.949 162.105C383.949 162.381 383.843 162.62 383.631 162.821C383.422 163.018 383.17 163.116 382.875 163.116ZM389.763 173.366C388.903 173.366 388.162 173.182 387.541 172.815C386.924 172.444 386.446 171.923 386.109 171.252C385.776 170.578 385.609 169.788 385.609 168.883C385.609 167.989 385.776 167.201 386.109 166.519C386.446 165.838 386.916 165.305 387.518 164.923C388.125 164.54 388.833 164.349 389.643 164.349C390.136 164.349 390.613 164.43 391.075 164.593C391.537 164.756 391.952 165.012 392.32 165.36C392.687 165.709 392.977 166.162 393.189 166.718C393.401 167.271 393.507 167.944 393.507 168.735V169.338H386.57V168.065H391.842C391.842 167.618 391.751 167.222 391.57 166.877C391.388 166.529 391.132 166.254 390.803 166.054C390.477 165.853 390.094 165.752 389.655 165.752C389.178 165.752 388.761 165.87 388.405 166.105C388.053 166.336 387.78 166.639 387.587 167.014C387.397 167.385 387.303 167.788 387.303 168.224V169.218C387.303 169.802 387.405 170.298 387.609 170.707C387.818 171.116 388.107 171.429 388.479 171.644C388.85 171.857 389.284 171.963 389.78 171.963C390.102 171.963 390.395 171.917 390.661 171.826C390.926 171.732 391.155 171.591 391.348 171.406C391.541 171.22 391.689 170.991 391.791 170.718L393.399 171.008C393.27 171.482 393.039 171.896 392.706 172.252C392.376 172.605 391.962 172.879 391.462 173.076C390.965 173.269 390.399 173.366 389.763 173.366ZM401.932 166.593L400.392 166.866C400.328 166.669 400.225 166.482 400.085 166.304C399.949 166.126 399.763 165.98 399.528 165.866C399.294 165.752 399 165.696 398.648 165.696C398.167 165.696 397.765 165.804 397.443 166.019C397.121 166.232 396.96 166.506 396.96 166.843C396.96 167.135 397.068 167.37 397.284 167.548C397.5 167.726 397.848 167.872 398.33 167.985L399.716 168.304C400.519 168.489 401.117 168.775 401.511 169.162C401.905 169.548 402.102 170.05 402.102 170.667C402.102 171.19 401.951 171.656 401.648 172.065C401.348 172.47 400.93 172.788 400.392 173.019C399.858 173.251 399.239 173.366 398.534 173.366C397.557 173.366 396.759 173.158 396.142 172.741C395.525 172.321 395.146 171.724 395.006 170.951L396.648 170.701C396.75 171.129 396.96 171.453 397.278 171.673C397.597 171.889 398.011 171.997 398.523 171.997C399.08 171.997 399.525 171.881 399.858 171.65C400.191 171.415 400.358 171.129 400.358 170.792C400.358 170.519 400.256 170.29 400.051 170.105C399.85 169.919 399.542 169.779 399.125 169.684L397.648 169.36C396.833 169.175 396.231 168.879 395.841 168.474C395.455 168.069 395.261 167.555 395.261 166.934C395.261 166.419 395.405 165.968 395.693 165.582C395.981 165.196 396.379 164.894 396.886 164.679C397.394 164.459 397.975 164.349 398.631 164.349C399.574 164.349 400.316 164.554 400.858 164.963C401.4 165.368 401.758 165.912 401.932 166.593ZM408.044 164.463V165.826H403.277V164.463H408.044ZM404.555 162.372H406.254V170.627C406.254 170.957 406.304 171.205 406.402 171.372C406.5 171.535 406.627 171.646 406.783 171.707C406.942 171.764 407.114 171.792 407.3 171.792C407.436 171.792 407.555 171.783 407.658 171.764C407.76 171.745 407.839 171.73 407.896 171.718L408.203 173.122C408.105 173.16 407.964 173.198 407.783 173.235C407.601 173.277 407.374 173.3 407.101 173.304C406.654 173.311 406.237 173.232 405.851 173.065C405.464 172.898 405.152 172.641 404.913 172.292C404.675 171.944 404.555 171.506 404.555 170.98V162.372Z" fill="white"/>
<path d="M0 225.19C0 218.563 5.37258 213.19 12 213.19H445V264.19H12C5.37257 264.19 0 258.817 0 252.19V225.19Z" fill="#4263AA"/>
<path d="M0 225.19C0 218.563 5.37258 213.19 12 213.19H73V264.19H12C5.37259 264.19 0 258.817 0 252.19V225.19Z" fill="#2B3D63"/>
<rect x="12" y="225.19" width="49" height="27" rx="8" fill="white"/>
<path d="M23.7188 236.755C23.6733 236.352 23.4858 236.039 23.1562 235.818C22.8267 235.593 22.4119 235.481 21.9119 235.481C21.554 235.481 21.2443 235.538 20.983 235.652C20.7216 235.762 20.5185 235.916 20.3736 236.112C20.2315 236.305 20.1605 236.525 20.1605 236.772C20.1605 236.98 20.2088 237.159 20.3054 237.309C20.4048 237.46 20.5341 237.586 20.6932 237.689C20.8551 237.788 21.0284 237.872 21.2131 237.94C21.3977 238.005 21.5753 238.059 21.7457 238.102L22.598 238.323C22.8764 238.392 23.1619 238.484 23.4545 238.6C23.7472 238.717 24.0185 238.87 24.2685 239.061C24.5185 239.251 24.7202 239.487 24.8736 239.768C25.0298 240.049 25.108 240.386 25.108 240.778C25.108 241.272 24.9801 241.711 24.7244 242.095C24.4716 242.478 24.1037 242.781 23.6207 243.002C23.1406 243.224 22.5597 243.335 21.8778 243.335C21.2244 243.335 20.6591 243.231 20.1818 243.024C19.7045 242.816 19.331 242.522 19.0611 242.142C18.7912 241.758 18.642 241.304 18.6136 240.778H19.9347C19.9602 241.093 20.0625 241.356 20.2415 241.566C20.4233 241.774 20.6548 241.929 20.9361 242.031C21.2202 242.13 21.5312 242.18 21.8693 242.18C22.2415 242.18 22.5724 242.122 22.8622 242.005C23.1548 241.886 23.3849 241.721 23.5526 241.511C23.7202 241.298 23.804 241.049 23.804 240.765C23.804 240.507 23.7301 240.295 23.5824 240.13C23.4375 239.966 23.2401 239.829 22.9901 239.721C22.7429 239.613 22.4631 239.518 22.1506 239.436L21.1193 239.154C20.4205 238.964 19.8665 238.684 19.4574 238.315C19.0511 237.946 18.848 237.457 18.848 236.849C18.848 236.346 18.9844 235.907 19.2571 235.532C19.5298 235.157 19.8991 234.866 20.3651 234.659C20.831 234.448 21.3565 234.343 21.9418 234.343C22.5327 234.343 23.054 234.447 23.5057 234.654C23.9602 234.862 24.3182 235.147 24.5795 235.511C24.8409 235.872 24.9773 236.287 24.9886 236.755H23.7188ZM29.4002 243.322C28.7553 243.322 28.1999 243.184 27.734 242.909C27.271 242.63 26.913 242.24 26.6602 241.737C26.4102 241.231 26.2852 240.639 26.2852 239.96C26.2852 239.289 26.4102 238.698 26.6602 238.187C26.913 237.676 27.2653 237.277 27.717 236.99C28.1715 236.703 28.7028 236.559 29.3107 236.559C29.68 236.559 30.038 236.62 30.3846 236.742C30.7312 236.865 31.0423 237.056 31.3178 237.318C31.5934 237.579 31.8107 237.919 31.9698 238.336C32.1289 238.751 32.2085 239.255 32.2085 239.849V240.301H27.0053V239.346H30.9599C30.9599 239.011 30.8917 238.714 30.7553 238.456C30.619 238.194 30.4272 237.988 30.18 237.838C29.9357 237.687 29.6488 237.612 29.3192 237.612C28.9613 237.612 28.6488 237.7 28.3817 237.876C28.1175 238.049 27.913 238.277 27.7681 238.558C27.6261 238.836 27.555 239.139 27.555 239.466V240.211C27.555 240.649 27.6317 241.021 27.7852 241.328C27.9414 241.635 28.1587 241.869 28.4371 242.031C28.7156 242.19 29.0408 242.269 29.413 242.269C29.6545 242.269 29.8746 242.235 30.0735 242.167C30.2724 242.096 30.4442 241.991 30.5891 241.852C30.734 241.713 30.8448 241.541 30.9215 241.336L32.1275 241.554C32.0309 241.909 31.8576 242.22 31.6076 242.487C31.3604 242.751 31.0494 242.957 30.6744 243.105C30.3022 243.25 29.8775 243.322 29.4002 243.322ZM34.8963 234.463V243.19H33.6222V234.463H34.8963ZM39.4315 243.322C38.7866 243.322 38.2312 243.184 37.7653 242.909C37.3022 242.63 36.9442 242.24 36.6914 241.737C36.4414 241.231 36.3164 240.639 36.3164 239.96C36.3164 239.289 36.4414 238.698 36.6914 238.187C36.9442 237.676 37.2965 237.277 37.7482 236.99C38.2028 236.703 38.734 236.559 39.342 236.559C39.7113 236.559 40.0692 236.62 40.4158 236.742C40.7624 236.865 41.0735 237.056 41.3491 237.318C41.6246 237.579 41.842 237.919 42.0011 238.336C42.1602 238.751 42.2397 239.255 42.2397 239.849V240.301H37.0366V239.346H40.9911C40.9911 239.011 40.9229 238.714 40.7866 238.456C40.6502 238.194 40.4585 237.988 40.2113 237.838C39.967 237.687 39.68 237.612 39.3505 237.612C38.9925 237.612 38.68 237.7 38.413 237.876C38.1488 238.049 37.9442 238.277 37.7994 238.558C37.6573 238.836 37.5863 239.139 37.5863 239.466V240.211C37.5863 240.649 37.663 241.021 37.8164 241.328C37.9727 241.635 38.19 241.869 38.4684 242.031C38.7468 242.19 39.0721 242.269 39.4442 242.269C39.6857 242.269 39.9059 242.235 40.1048 242.167C40.3036 242.096 40.4755 241.991 40.6204 241.852C40.7653 241.713 40.8761 241.541 40.9528 241.336L42.1587 241.554C42.0621 241.909 41.8888 242.22 41.6388 242.487C41.3917 242.751 41.0806 242.957 40.7056 243.105C40.3335 243.25 39.9087 243.322 39.4315 243.322ZM46.4105 243.322C45.777 243.322 45.2315 243.179 44.7741 242.892C44.3196 242.602 43.9702 242.203 43.7259 241.694C43.4815 241.186 43.3594 240.603 43.3594 239.947C43.3594 239.282 43.4844 238.696 43.7344 238.187C43.9844 237.676 44.3366 237.277 44.7912 236.99C45.2457 236.703 45.7813 236.559 46.3977 236.559C46.8949 236.559 47.3381 236.652 47.7273 236.836C48.1165 237.018 48.4304 237.274 48.669 237.603C48.9105 237.933 49.054 238.318 49.0994 238.758H47.8594C47.7912 238.451 47.6349 238.187 47.3906 237.966C47.1491 237.744 46.8253 237.633 46.419 237.633C46.0639 237.633 45.7528 237.727 45.4858 237.914C45.2216 238.099 45.0156 238.363 44.8679 238.707C44.7202 239.048 44.6463 239.451 44.6463 239.917C44.6463 240.394 44.7188 240.806 44.8636 241.153C45.0085 241.5 45.2131 241.768 45.4773 241.958C45.7443 242.149 46.0582 242.244 46.419 242.244C46.6605 242.244 46.8793 242.2 47.0753 242.112C47.2741 242.021 47.4403 241.892 47.5739 241.724C47.7102 241.556 47.8054 241.355 47.8594 241.119H49.0994C49.054 241.542 48.9162 241.92 48.6861 242.252C48.456 242.585 48.1477 242.846 47.7614 243.037C47.3778 243.227 46.9276 243.322 46.4105 243.322ZM53.5174 236.644V237.667H49.9421V236.644H53.5174ZM50.9009 235.076H52.1751V241.268C52.1751 241.515 52.212 241.701 52.2859 241.826C52.3597 241.948 52.4549 242.032 52.5714 242.078C52.6907 242.12 52.82 242.142 52.9592 242.142C53.0614 242.142 53.1509 242.135 53.2276 242.12C53.3043 242.106 53.364 242.095 53.4066 242.086L53.6367 243.139C53.5629 243.167 53.4577 243.196 53.3214 243.224C53.185 243.255 53.0146 243.272 52.81 243.275C52.4748 243.281 52.1623 243.221 51.8725 243.096C51.5827 242.971 51.3484 242.778 51.1694 242.517C50.9904 242.255 50.9009 241.927 50.9009 241.532V235.076Z" fill="#324878"/>
<path d="M314.278 244.19V232.554H318.426C319.328 232.554 320.076 232.709 320.67 233.019C321.269 233.33 321.716 233.76 322.011 234.309C322.307 234.855 322.455 235.485 322.455 236.201C322.455 236.913 322.305 237.54 322.006 238.082C321.71 238.62 321.263 239.038 320.665 239.338C320.07 239.637 319.322 239.787 318.42 239.787H315.278V238.275H318.261C318.83 238.275 319.292 238.194 319.648 238.031C320.008 237.868 320.271 237.631 320.438 237.321C320.604 237.01 320.688 236.637 320.688 236.201C320.688 235.762 320.602 235.381 320.432 235.059C320.265 234.737 320.002 234.491 319.642 234.321C319.286 234.146 318.818 234.059 318.239 234.059H316.034V244.19H314.278ZM320.023 238.94L322.898 244.19H320.898L318.08 238.94H320.023ZM328.107 244.366C327.247 244.366 326.506 244.182 325.885 243.815C325.268 243.444 324.79 242.923 324.453 242.252C324.12 241.578 323.953 240.788 323.953 239.883C323.953 238.989 324.12 238.201 324.453 237.519C324.79 236.838 325.26 236.305 325.862 235.923C326.468 235.54 327.177 235.349 327.987 235.349C328.48 235.349 328.957 235.43 329.419 235.593C329.881 235.756 330.296 236.012 330.663 236.36C331.031 236.709 331.321 237.162 331.533 237.718C331.745 238.271 331.851 238.944 331.851 239.735V240.338H324.913V239.065H330.186C330.186 238.618 330.095 238.222 329.913 237.877C329.732 237.529 329.476 237.254 329.146 237.054C328.821 236.853 328.438 236.752 327.999 236.752C327.521 236.752 327.105 236.87 326.749 237.105C326.396 237.336 326.124 237.639 325.93 238.014C325.741 238.385 325.646 238.788 325.646 239.224V240.218C325.646 240.802 325.749 241.298 325.953 241.707C326.161 242.116 326.451 242.429 326.822 242.644C327.194 242.857 327.627 242.963 328.124 242.963C328.446 242.963 328.739 242.917 329.004 242.826C329.269 242.732 329.499 242.591 329.692 242.406C329.885 242.22 330.033 241.991 330.135 241.718L331.743 242.008C331.614 242.482 331.383 242.896 331.05 243.252C330.72 243.605 330.305 243.879 329.805 244.076C329.309 244.269 328.743 244.366 328.107 244.366ZM337.889 235.463V236.826H332.957V235.463H337.889ZM334.31 244.19V234.451C334.31 233.906 334.429 233.453 334.668 233.093C334.906 232.73 335.223 232.459 335.616 232.281C336.01 232.099 336.438 232.008 336.901 232.008C337.241 232.008 337.533 232.037 337.776 232.093C338.018 232.146 338.198 232.196 338.315 232.241L337.918 233.616C337.838 233.593 337.736 233.567 337.611 233.537C337.486 233.502 337.334 233.485 337.156 233.485C336.743 233.485 336.448 233.588 336.27 233.792C336.096 233.997 336.009 234.292 336.009 234.679V244.19H334.31ZM339.642 244.19V235.463H341.284V236.849H341.375C341.534 236.379 341.814 236.01 342.216 235.741C342.621 235.468 343.08 235.332 343.591 235.332C343.697 235.332 343.822 235.336 343.966 235.343C344.114 235.351 344.229 235.36 344.312 235.372V236.997C344.244 236.978 344.123 236.957 343.949 236.934C343.775 236.908 343.6 236.894 343.426 236.894C343.025 236.894 342.667 236.98 342.352 237.15C342.042 237.317 341.795 237.55 341.614 237.849C341.432 238.144 341.341 238.482 341.341 238.86V244.19H339.642ZM345.783 244.19V235.463H347.482V244.19H345.783ZM346.641 234.116C346.345 234.116 346.091 234.018 345.879 233.821C345.671 233.62 345.567 233.381 345.567 233.105C345.567 232.824 345.671 232.586 345.879 232.389C346.091 232.188 346.345 232.088 346.641 232.088C346.936 232.088 347.188 232.188 347.396 232.389C347.608 232.586 347.714 232.824 347.714 233.105C347.714 233.381 347.608 233.62 347.396 233.821C347.188 234.018 346.936 234.116 346.641 234.116ZM353.426 247.644C352.733 247.644 352.136 247.554 351.636 247.372C351.14 247.19 350.735 246.949 350.42 246.65C350.106 246.351 349.871 246.023 349.716 245.667L351.176 245.065C351.278 245.232 351.415 245.408 351.585 245.593C351.759 245.783 351.994 245.944 352.29 246.076C352.589 246.209 352.973 246.275 353.443 246.275C354.087 246.275 354.619 246.118 355.04 245.804C355.46 245.493 355.67 244.997 355.67 244.315V242.599H355.562C355.46 242.785 355.313 242.991 355.119 243.218C354.93 243.446 354.669 243.643 354.335 243.809C354.002 243.976 353.568 244.059 353.034 244.059C352.345 244.059 351.723 243.898 351.17 243.576C350.621 243.251 350.186 242.771 349.864 242.139C349.545 241.502 349.386 240.72 349.386 239.792C349.386 238.864 349.544 238.069 349.858 237.406C350.176 236.743 350.612 236.235 351.165 235.883C351.718 235.527 352.345 235.349 353.045 235.349C353.587 235.349 354.025 235.44 354.358 235.622C354.691 235.8 354.951 236.008 355.136 236.247C355.326 236.485 355.472 236.696 355.574 236.877H355.699V235.463H357.364V244.383C357.364 245.133 357.189 245.749 356.841 246.23C356.492 246.711 356.021 247.067 355.426 247.298C354.835 247.529 354.169 247.644 353.426 247.644ZM353.409 242.65C353.898 242.65 354.311 242.537 354.648 242.309C354.989 242.078 355.246 241.749 355.42 241.321C355.598 240.889 355.688 240.372 355.688 239.769C355.688 239.182 355.6 238.665 355.426 238.218C355.252 237.771 354.996 237.423 354.659 237.173C354.322 236.919 353.905 236.792 353.409 236.792C352.898 236.792 352.472 236.925 352.131 237.19C351.79 237.451 351.532 237.807 351.358 238.258C351.188 238.709 351.102 239.213 351.102 239.769C351.102 240.341 351.189 240.843 351.364 241.275C351.538 241.707 351.795 242.044 352.136 242.287C352.481 242.529 352.905 242.65 353.409 242.65ZM363.403 244.366C362.544 244.366 361.803 244.182 361.182 243.815C360.564 243.444 360.087 242.923 359.75 242.252C359.417 241.578 359.25 240.788 359.25 239.883C359.25 238.989 359.417 238.201 359.75 237.519C360.087 236.838 360.557 236.305 361.159 235.923C361.765 235.54 362.473 235.349 363.284 235.349C363.777 235.349 364.254 235.43 364.716 235.593C365.178 235.756 365.593 236.012 365.96 236.36C366.328 236.709 366.617 237.162 366.83 237.718C367.042 238.271 367.148 238.944 367.148 239.735V240.338H360.21V239.065H365.483C365.483 238.618 365.392 238.222 365.21 237.877C365.028 237.529 364.773 237.254 364.443 237.054C364.117 236.853 363.735 236.752 363.295 236.752C362.818 236.752 362.402 236.87 362.045 237.105C361.693 237.336 361.42 237.639 361.227 238.014C361.038 238.385 360.943 238.788 360.943 239.224V240.218C360.943 240.802 361.045 241.298 361.25 241.707C361.458 242.116 361.748 242.429 362.119 242.644C362.491 242.857 362.924 242.963 363.42 242.963C363.742 242.963 364.036 242.917 364.301 242.826C364.566 242.732 364.795 242.591 364.989 242.406C365.182 242.22 365.33 241.991 365.432 241.718L367.04 242.008C366.911 242.482 366.68 242.896 366.347 243.252C366.017 243.605 365.602 243.879 365.102 244.076C364.606 244.269 364.04 244.366 363.403 244.366ZM369.033 244.19V235.463H370.675V236.849H370.766C370.925 236.379 371.205 236.01 371.607 235.741C372.012 235.468 372.47 235.332 372.982 235.332C373.088 235.332 373.213 235.336 373.357 235.343C373.504 235.351 373.62 235.36 373.703 235.372V236.997C373.635 236.978 373.514 236.957 373.339 236.934C373.165 236.908 372.991 236.894 372.817 236.894C372.415 236.894 372.057 236.98 371.743 237.15C371.432 237.317 371.186 237.55 371.004 237.849C370.822 238.144 370.732 238.482 370.732 238.86V244.19H369.033ZM377.635 244.383C377.082 244.383 376.582 244.281 376.135 244.076C375.688 243.868 375.334 243.567 375.072 243.173C374.815 242.779 374.686 242.296 374.686 241.724C374.686 241.232 374.781 240.826 374.97 240.508C375.16 240.19 375.415 239.938 375.737 239.752C376.059 239.567 376.419 239.427 376.817 239.332C377.214 239.237 377.62 239.165 378.033 239.116C378.555 239.055 378.98 239.006 379.305 238.968C379.631 238.927 379.868 238.86 380.016 238.769C380.163 238.679 380.237 238.531 380.237 238.326V238.287C380.237 237.79 380.097 237.406 379.817 237.133C379.54 236.86 379.127 236.724 378.578 236.724C378.006 236.724 377.555 236.851 377.226 237.105C376.9 237.355 376.675 237.633 376.55 237.94L374.953 237.576C375.143 237.046 375.419 236.618 375.783 236.292C376.15 235.963 376.572 235.724 377.05 235.576C377.527 235.425 378.029 235.349 378.555 235.349C378.904 235.349 379.273 235.391 379.663 235.474C380.057 235.554 380.425 235.701 380.766 235.917C381.11 236.133 381.393 236.442 381.612 236.843C381.832 237.241 381.942 237.758 381.942 238.394V244.19H380.283V242.997H380.214C380.105 243.216 379.94 243.432 379.72 243.644C379.5 243.857 379.218 244.033 378.874 244.173C378.529 244.313 378.116 244.383 377.635 244.383ZM378.004 243.019C378.474 243.019 378.875 242.927 379.209 242.741C379.546 242.555 379.802 242.313 379.976 242.014C380.154 241.711 380.243 241.387 380.243 241.042V239.917C380.182 239.978 380.065 240.035 379.891 240.088C379.72 240.137 379.525 240.18 379.305 240.218C379.086 240.252 378.872 240.285 378.663 240.315C378.455 240.341 378.281 240.364 378.141 240.383C377.811 240.425 377.51 240.495 377.237 240.593C376.968 240.692 376.752 240.834 376.589 241.019C376.43 241.201 376.351 241.444 376.351 241.747C376.351 242.167 376.506 242.485 376.817 242.701C377.127 242.913 377.523 243.019 378.004 243.019ZM388.278 235.463V236.826H383.511V235.463H388.278ZM384.79 233.372H386.489V241.627C386.489 241.957 386.538 242.205 386.636 242.372C386.735 242.535 386.862 242.646 387.017 242.707C387.176 242.764 387.348 242.792 387.534 242.792C387.67 242.792 387.79 242.783 387.892 242.764C387.994 242.745 388.074 242.73 388.131 242.718L388.438 244.122C388.339 244.16 388.199 244.198 388.017 244.235C387.835 244.277 387.608 244.3 387.335 244.304C386.888 244.311 386.472 244.232 386.085 244.065C385.699 243.898 385.386 243.641 385.148 243.292C384.909 242.944 384.79 242.506 384.79 241.98V233.372ZM393.825 244.366C392.965 244.366 392.225 244.182 391.604 243.815C390.986 243.444 390.509 242.923 390.172 242.252C389.839 241.578 389.672 240.788 389.672 239.883C389.672 238.989 389.839 238.201 390.172 237.519C390.509 236.838 390.979 236.305 391.581 235.923C392.187 235.54 392.895 235.349 393.706 235.349C394.198 235.349 394.676 235.43 395.138 235.593C395.6 235.756 396.015 236.012 396.382 236.36C396.75 236.709 397.039 237.162 397.251 237.718C397.464 238.271 397.57 238.944 397.57 239.735V240.338H390.632V239.065H395.905C395.905 238.618 395.814 238.222 395.632 237.877C395.45 237.529 395.195 237.254 394.865 237.054C394.539 236.853 394.157 236.752 393.717 236.752C393.24 236.752 392.823 236.87 392.467 237.105C392.115 237.336 391.842 237.639 391.649 238.014C391.46 238.385 391.365 238.788 391.365 239.224V240.218C391.365 240.802 391.467 241.298 391.672 241.707C391.88 242.116 392.17 242.429 392.541 242.644C392.912 242.857 393.346 242.963 393.842 242.963C394.164 242.963 394.458 242.917 394.723 242.826C394.988 242.732 395.217 242.591 395.411 242.406C395.604 242.22 395.751 241.991 395.854 241.718L397.462 242.008C397.333 242.482 397.102 242.896 396.768 243.252C396.439 243.605 396.024 243.879 395.524 244.076C395.028 244.269 394.462 244.366 393.825 244.366ZM402.722 244.36C402.017 244.36 401.388 244.18 400.835 243.821C400.286 243.457 399.854 242.94 399.54 242.269C399.229 241.595 399.074 240.787 399.074 239.843C399.074 238.9 399.231 238.093 399.545 237.423C399.864 236.752 400.299 236.239 400.852 235.883C401.405 235.527 402.032 235.349 402.733 235.349C403.275 235.349 403.71 235.44 404.04 235.622C404.373 235.8 404.631 236.008 404.812 236.247C404.998 236.485 405.142 236.696 405.244 236.877H405.347V232.554H407.045V244.19H405.386V242.832H405.244C405.142 243.018 404.994 243.23 404.801 243.468C404.612 243.707 404.35 243.915 404.017 244.093C403.684 244.271 403.252 244.36 402.722 244.36ZM403.097 242.912C403.585 242.912 403.998 242.783 404.335 242.525C404.676 242.264 404.934 241.902 405.108 241.44C405.286 240.978 405.375 240.44 405.375 239.826C405.375 239.22 405.288 238.69 405.114 238.235C404.939 237.781 404.684 237.427 404.347 237.173C404.009 236.919 403.593 236.792 403.097 236.792C402.585 236.792 402.159 236.925 401.818 237.19C401.477 237.455 401.22 237.817 401.045 238.275C400.875 238.734 400.79 239.251 400.79 239.826C400.79 240.41 400.877 240.934 401.051 241.4C401.225 241.866 401.483 242.235 401.824 242.508C402.169 242.777 402.593 242.912 403.097 242.912Z" fill="white"/>
</svg>
