<svg width="570" height="360" viewBox="0 0 570 360" fill="none" xmlns="http://www.w3.org/2000/svg">
<path d="M131.31 282.318L146.366 287.808L146.379 284.966L131.322 279.475L131.31 282.318Z" fill="#B6B14A"/>
<path d="M146.366 287.808L298.635 232.191L298.648 229.349L146.379 284.966L146.366 287.808Z" fill="#9F9B40"/>
<path d="M131.322 279.475L146.379 284.966L298.648 229.349L283.592 223.858L131.322 279.475Z" fill="#E1DA5C"/>
<path d="M146.335 275.283L146.379 285.018L174.864 274.631L174.821 264.896L146.335 275.283Z" fill="#9F9B40"/>
<path d="M131.291 269.761L131.335 279.496L146.379 285.018L146.335 275.283L131.291 269.761Z" fill="#B6B14A"/>
<path d="M131.291 269.761L146.335 275.283L174.82 264.896L159.777 259.375L131.291 269.761Z" fill="#E1DA5C"/>
<path d="M216.055 249.8L216.098 259.535L244.584 249.148L244.54 239.413L216.055 249.8Z" fill="#9F9B40"/>
<path d="M201.011 244.278L201.055 254.014L216.098 259.535L216.055 249.8L201.011 244.278Z" fill="#B6B14A"/>
<path d="M201.011 244.278L216.055 249.799L244.54 239.412L229.497 233.891L201.011 244.278Z" fill="#E1DA5C"/>
<path d="M270.161 230.084L270.204 239.819L298.691 229.432L298.647 219.697L270.161 230.084Z" fill="#9F9B40"/>
<path d="M255.117 224.562L255.161 234.298L270.204 239.82L270.161 230.084L255.117 224.562Z" fill="#B6B14A"/>
<path d="M255.117 224.562L270.161 230.084L298.647 219.697L283.603 214.175L255.117 224.562Z" fill="#E1DA5C"/>
<path d="M131.297 270.126L146.353 275.616L146.366 272.774L131.31 267.284L131.297 270.126Z" fill="#B6B14A"/>
<path d="M146.354 275.616L298.649 219.719L298.662 216.876L146.366 272.774L146.354 275.616Z" fill="#9F9B40"/>
<path d="M131.31 267.284L146.366 272.774L298.661 216.877L283.605 211.387L131.31 267.284Z" fill="#E1DA5C"/>
<path d="M286.459 339.445L301.515 344.935L301.528 342.093L286.472 336.603L286.459 339.445Z" fill="#B6B14A"/>
<path d="M301.516 344.935L453.784 289.318L453.798 286.476L301.528 342.093L301.516 344.935Z" fill="#9F9B40"/>
<path d="M286.472 336.603L301.528 342.093L453.797 286.476L438.741 280.986L286.472 336.603Z" fill="#E1DA5C"/>
<path d="M301.484 332.41L301.528 342.146L330.013 331.758L329.97 322.023L301.484 332.41Z" fill="#9F9B40"/>
<path d="M286.44 326.889L286.485 336.624L301.528 342.145L301.484 332.41L286.44 326.889Z" fill="#B6B14A"/>
<path d="M286.44 326.889L301.484 332.41L329.97 322.023L314.926 316.502L286.44 326.889Z" fill="#E1DA5C"/>
<path d="M371.203 306.927L371.247 316.663L399.733 306.275L399.689 296.54L371.203 306.927Z" fill="#9F9B40"/>
<path d="M356.16 301.406L356.204 311.141L371.247 316.663L371.203 306.927L356.16 301.406Z" fill="#B6B14A"/>
<path d="M356.16 301.406L371.203 306.927L399.689 296.54L384.646 291.019L356.16 301.406Z" fill="#E1DA5C"/>
<path d="M425.311 287.212L425.355 296.947L453.841 286.56L453.797 276.824L425.311 287.212Z" fill="#9F9B40"/>
<path d="M410.268 281.69L410.311 291.425L425.355 296.947L425.311 287.212L410.268 281.69Z" fill="#B6B14A"/>
<path d="M410.268 281.69L425.311 287.211L453.797 276.824L438.753 271.303L410.268 281.69Z" fill="#E1DA5C"/>
<path d="M286.446 327.254L301.502 332.744L301.515 329.902L286.459 324.412L286.446 327.254Z" fill="#B6B14A"/>
<path d="M301.502 332.744L453.799 276.846L453.811 274.004L301.515 329.901L301.502 332.744Z" fill="#9F9B40"/>
<path d="M286.459 324.411L301.515 329.902L453.811 274.004L438.755 268.514L286.459 324.411Z" fill="#E1DA5C"/>
<path d="M209.058 310.948L224.114 316.438L224.126 313.596L209.07 308.105L209.058 310.948Z" fill="#B6B14A"/>
<path d="M224.114 316.438L376.383 260.821L376.396 257.979L224.126 313.596L224.114 316.438Z" fill="#9F9B40"/>
<path d="M209.07 308.106L224.126 313.596L376.396 257.979L361.34 252.489L209.07 308.106Z" fill="#E1DA5C"/>
<path d="M224.083 303.913L224.126 313.648L252.612 303.261L252.569 293.526L224.083 303.913Z" fill="#9F9B40"/>
<path d="M209.039 298.392L209.083 308.127L224.126 313.648L224.083 303.913L209.039 298.392Z" fill="#B6B14A"/>
<path d="M209.039 298.391L224.083 303.913L252.568 293.526L237.525 288.004L209.039 298.391Z" fill="#E1DA5C"/>
<path d="M293.803 278.43L293.846 288.165L322.332 277.778L322.288 268.042L293.803 278.43Z" fill="#9F9B40"/>
<path d="M278.759 272.908L278.803 282.644L293.846 288.165L293.803 278.43L278.759 272.908Z" fill="#B6B14A"/>
<path d="M278.759 272.908L293.803 278.43L322.288 268.042L307.245 262.521L278.759 272.908Z" fill="#E1DA5C"/>
<path d="M347.909 258.714L347.953 268.45L376.439 258.063L376.395 248.327L347.909 258.714Z" fill="#9F9B40"/>
<path d="M332.865 253.192L332.909 262.928L347.952 268.449L347.909 258.714L332.865 253.192Z" fill="#B6B14A"/>
<path d="M332.865 253.192L347.909 258.714L376.395 248.327L361.351 242.806L332.865 253.192Z" fill="#E1DA5C"/>
<path d="M209.045 298.756L224.101 304.246L224.114 301.404L209.058 295.914L209.045 298.756Z" fill="#B6B14A"/>
<path d="M224.101 304.247L376.397 248.349L376.409 245.507L224.114 301.404L224.101 304.247Z" fill="#9F9B40"/>
<path d="M209.058 295.914L224.114 301.404L376.41 245.507L361.353 240.017L209.058 295.914Z" fill="#E1DA5C"/>
<path d="M437.838 278.717L437.853 281.988L455.18 275.67L455.165 272.399L437.838 278.717Z" fill="#B6B14A"/>
<path d="M262.571 214.389L262.586 217.659L437.852 281.988L437.838 278.717L262.571 214.389Z" fill="#9F9B40"/>
<path d="M262.571 214.389L437.838 278.717L455.165 272.399L279.898 208.07L262.571 214.389Z" fill="#E1DA5C"/>
<path d="M396.677 293.837L396.691 297.107L414.018 290.789L414.004 287.519L396.677 293.837Z" fill="#B6B14A"/>
<path d="M221.41 229.508L221.424 232.779L396.691 297.107L396.676 293.837L221.41 229.508Z" fill="#9F9B40"/>
<path d="M221.41 229.508L396.677 293.837L414.004 287.519L238.737 223.189L221.41 229.508Z" fill="#E1DA5C"/>
<path d="M355.514 308.956L355.529 312.227L372.856 305.909L372.841 302.638L355.514 308.956Z" fill="#B6B14A"/>
<path d="M180.248 244.628L180.262 247.898L355.529 312.227L355.514 308.957L180.248 244.628Z" fill="#9F9B40"/>
<path d="M180.248 244.628L355.514 308.956L372.841 302.638L197.575 238.309L180.248 244.628Z" fill="#E1DA5C"/>
<path d="M314.353 324.076L314.367 327.346L331.694 321.028L331.68 317.757L314.353 324.076Z" fill="#B6B14A"/>
<path d="M139.086 259.747L139.101 263.018L314.367 327.347L314.352 324.076L139.086 259.747Z" fill="#9F9B40"/>
<path d="M139.086 259.747L314.352 324.076L331.68 317.757L156.414 253.429L139.086 259.747Z" fill="#E1DA5C"/>
<path d="M259.765 209.11L259.97 255.009L323.212 231.948L323.005 186.05L259.765 209.11Z" fill="#E3B380"/>
<path d="M195.346 185.466L195.551 231.364L259.971 255.009L259.765 209.11L195.346 185.466Z" fill="#C99F71"/>
<path d="M195.346 185.466L259.765 209.11L323.005 186.05L258.586 162.406L195.346 185.466Z" fill="#F2BF88"/>
<path d="M223.393 175.242L287.812 198.886L294.808 196.331L230.389 172.686L223.393 175.242Z" fill="#B38D64"/>
<path d="M287.812 198.883L287.907 216.256C288.08 215.722 288.313 215.199 288.692 214.721C288.692 215.556 288.703 216.256 288.997 216.999C289.222 216.446 289.319 215.812 289.686 215.348C290.259 215.71 290.337 216.073 290.491 216.436C290.866 215.446 291.176 214.455 291.176 213.465C291.813 214.27 292.046 215.072 292.391 215.794C292.695 215.018 292.84 214.242 293.66 213.465C293.66 213.91 293.882 214.355 294.116 214.8C294.378 214.302 294.64 213.806 294.902 213.309L294.809 196.331L287.812 198.883Z" fill="#9E7D58"/>
<path d="M262.326 246.167L262.349 251.176L269.251 248.66L269.229 243.65L262.326 246.167Z" stroke="#B38C65" stroke-width="0.7335" stroke-miterlimit="10"/>
<path d="M270.354 243.198L270.378 248.208L277.28 245.691L277.257 240.682L270.354 243.198Z" stroke="#B38C65" stroke-width="0.7335" stroke-miterlimit="10"/>
<path d="M326.637 234.005L326.842 279.903L390.083 256.843L389.877 210.945L326.637 234.005Z" fill="#E3B380"/>
<path d="M262.217 210.361L262.423 256.259L326.842 279.903L326.636 234.005L262.217 210.361Z" fill="#C99F71"/>
<path d="M262.217 210.361L326.636 234.005L389.877 210.945L325.457 187.301L262.217 210.361Z" fill="#F2BF88"/>
<path d="M290.265 200.137L354.684 223.781L361.679 221.225L297.26 197.581L290.265 200.137Z" fill="#B38D64"/>
<path d="M354.683 223.777L354.779 241.151C354.951 240.616 355.185 240.093 355.563 239.615C355.563 240.451 355.573 241.15 355.867 241.893C356.093 241.34 356.189 240.706 356.556 240.243C357.131 240.605 357.208 240.968 357.362 241.33C357.737 240.34 358.047 239.35 358.047 238.36C358.684 239.165 358.918 239.966 359.262 240.688C359.565 239.912 359.712 239.136 360.531 238.36C360.531 238.804 360.753 239.249 360.987 239.694C361.249 239.197 361.51 238.7 361.773 238.203L361.679 221.225L354.683 223.777Z" fill="#9E7D58"/>
<path d="M329.197 271.061L329.22 276.071L336.122 273.554L336.099 268.544L329.197 271.061Z" stroke="#B38C65" stroke-width="0.7335" stroke-miterlimit="10"/>
<path d="M337.227 268.093L337.249 273.102L344.152 270.586L344.13 265.576L337.227 268.093Z" stroke="#B38C65" stroke-width="0.7335" stroke-miterlimit="10"/>
<path d="M393.508 258.899L393.714 304.798L456.955 281.738L456.748 235.84L393.508 258.899Z" fill="#E3B380"/>
<path d="M329.089 235.255L329.295 281.153L393.714 304.797L393.508 258.899L329.089 235.255Z" fill="#C99F71"/>
<path d="M329.089 235.256L393.508 258.899L456.749 235.84L392.329 212.195L329.089 235.256Z" fill="#F2BF88"/>
<path d="M357.137 225.031L421.557 248.676L428.552 246.12L364.132 222.476L357.137 225.031Z" fill="#B38D64"/>
<path d="M421.555 248.672L421.65 266.045C421.823 265.51 422.057 264.987 422.435 264.509C422.435 265.345 422.445 266.044 422.74 266.788C422.964 266.235 423.062 265.601 423.429 265.137C424.002 265.499 424.081 265.862 424.234 266.225C424.609 265.235 424.919 264.245 424.919 263.254C425.556 264.059 425.79 264.861 426.134 265.583C426.438 264.807 426.584 264.031 427.404 263.254C427.404 263.699 427.626 264.144 427.859 264.588C428.121 264.092 428.384 263.595 428.646 263.098L428.552 246.12L421.555 248.672Z" fill="#9E7D58"/>
<path d="M396.068 295.956L396.092 300.965L402.994 298.448L402.971 293.439L396.068 295.956Z" stroke="#B38C65" stroke-width="0.7335" stroke-miterlimit="10"/>
<path d="M404.099 292.987L404.121 297.997L411.023 295.48L411.001 290.471L404.099 292.987Z" stroke="#B38C65" stroke-width="0.7335" stroke-miterlimit="10"/>
<path d="M196.038 232.352L196.244 278.249L259.484 255.189L259.279 209.292L196.038 232.352Z" fill="#E3B380"/>
<path d="M131.619 208.708L131.825 254.606L196.244 278.249L196.038 232.352L131.619 208.708Z" fill="#C99F71"/>
<path d="M131.619 208.708L196.038 232.352L259.279 209.292L194.859 185.647L131.619 208.708Z" fill="#F2BF88"/>
<path d="M159.666 198.483L224.086 222.128L231.081 219.572L166.661 195.928L159.666 198.483Z" fill="#B38D64"/>
<path d="M224.085 222.123L224.181 239.497C224.353 238.963 224.587 238.439 224.965 237.961C224.965 238.798 224.976 239.496 225.27 240.24C225.495 239.687 225.592 239.053 225.959 238.589C226.533 238.952 226.611 239.314 226.765 239.677C227.139 238.687 227.45 237.696 227.45 236.707C228.087 237.511 228.32 238.313 228.664 239.035C228.969 238.259 229.115 237.482 229.934 236.707C229.934 237.151 230.156 237.596 230.39 238.04C230.652 237.544 230.914 237.047 231.176 236.55L231.082 219.572L224.085 222.123Z" fill="#9E7D58"/>
<path d="M198.6 269.408L198.621 274.418L205.524 271.901L205.502 266.891L198.6 269.408Z" stroke="#B38C65" stroke-width="0.7335" stroke-miterlimit="10"/>
<path d="M206.628 266.439L206.651 271.449L213.553 268.932L213.53 263.922L206.628 266.439Z" stroke="#B38C65" stroke-width="0.7335" stroke-miterlimit="10"/>
<path d="M262.91 257.246L263.116 303.145L326.356 280.085L326.15 234.187L262.91 257.246Z" fill="#E3B380"/>
<path d="M198.49 233.602L198.696 279.5L263.116 303.144L262.91 257.246L198.49 233.602Z" fill="#C99F71"/>
<path d="M198.49 233.602L262.91 257.246L326.15 234.186L261.731 210.542L198.49 233.602Z" fill="#F2BF88"/>
<path d="M226.538 223.378L290.958 247.022L297.953 244.466L233.534 220.822L226.538 223.378Z" fill="#B38D64"/>
<path d="M290.956 247.018L291.053 264.392C291.225 263.857 291.458 263.334 291.837 262.856C291.837 263.693 291.847 264.391 292.142 265.134C292.367 264.581 292.463 263.947 292.831 263.484C293.405 263.846 293.482 264.209 293.636 264.571C294.011 263.581 294.322 262.591 294.322 261.601C294.959 262.406 295.192 263.207 295.536 263.929C295.84 263.154 295.987 262.377 296.805 261.601C296.805 262.046 297.027 262.49 297.261 262.935C297.523 262.438 297.785 261.941 298.047 261.445L297.953 244.466L290.956 247.018Z" fill="#9E7D58"/>
<path d="M265.472 294.303L265.494 299.312L272.396 296.795L272.373 291.786L265.472 294.303Z" stroke="#B38C65" stroke-width="0.7335" stroke-miterlimit="10"/>
<path d="M273.5 291.335L273.522 296.344L280.425 293.827L280.402 288.817L273.5 291.335Z" stroke="#B38C65" stroke-width="0.7335" stroke-miterlimit="10"/>
<path d="M329.781 282.141L329.987 328.039L393.228 304.979L393.021 259.081L329.781 282.141Z" fill="#E3B380"/>
<path d="M265.361 258.497L265.567 304.395L329.987 328.039L329.781 282.14L265.361 258.497Z" fill="#C99F71"/>
<path d="M265.361 258.497L329.781 282.141L393.021 259.08L328.602 235.437L265.361 258.497Z" fill="#F2BF88"/>
<path d="M293.409 248.272L357.828 271.917L364.824 269.361L300.404 245.717L293.409 248.272Z" fill="#B38D64"/>
<path d="M357.827 271.913L357.923 289.286C358.095 288.752 358.329 288.229 358.708 287.751C358.708 288.587 358.717 289.286 359.012 290.029C359.237 289.476 359.334 288.842 359.701 288.378C360.275 288.741 360.353 289.103 360.507 289.466C360.881 288.476 361.191 287.486 361.191 286.495C361.828 287.3 362.062 288.102 362.406 288.823C362.71 288.048 362.857 287.272 363.676 286.495C363.676 286.94 363.896 287.385 364.131 287.829C364.393 287.333 364.655 286.836 364.917 286.339L364.823 269.361L357.827 271.913Z" fill="#9E7D58"/>
<path d="M332.342 319.197L332.365 324.206L339.267 321.689L339.244 316.68L332.342 319.197Z" stroke="#B38C65" stroke-width="0.7335" stroke-miterlimit="10"/>
<path d="M340.371 316.229L340.394 321.238L347.296 318.721L347.274 313.711L340.371 316.229Z" stroke="#B38C65" stroke-width="0.7335" stroke-miterlimit="10"/>
<path d="M259.765 162.774L259.97 208.672L323.212 185.612L323.005 139.714L259.765 162.774Z" fill="#E3B380"/>
<path d="M195.346 139.13L195.551 185.028L259.971 208.672L259.765 162.774L195.346 139.13Z" fill="#C99F71"/>
<path d="M195.346 139.131L259.765 162.774L323.005 139.714L258.586 116.07L195.346 139.131Z" fill="#F2BF88"/>
<path d="M223.393 128.906L287.812 152.55L294.808 149.995L230.389 126.351L223.393 128.906Z" fill="#B38D64"/>
<path d="M287.812 152.546L287.907 169.92C288.08 169.386 288.313 168.862 288.692 168.384C288.692 169.221 288.703 169.919 288.997 170.663C289.222 170.11 289.319 169.475 289.686 169.012C290.259 169.374 290.337 169.737 290.491 170.099C290.866 169.109 291.176 168.119 291.176 167.129C291.813 167.934 292.046 168.736 292.391 169.457C292.695 168.682 292.84 167.905 293.66 167.129C293.66 167.573 293.882 168.018 294.116 168.463C294.378 167.966 294.64 167.469 294.902 166.973L294.809 149.995L287.812 152.546Z" fill="#9E7D58"/>
<path d="M262.326 199.831L262.349 204.841L269.251 202.323L269.229 197.314L262.326 199.831Z" stroke="#B38C65" stroke-width="0.7335" stroke-miterlimit="10"/>
<path d="M270.354 196.862L270.378 201.872L277.28 199.355L277.257 194.345L270.354 196.862Z" stroke="#B38C65" stroke-width="0.7335" stroke-miterlimit="10"/>
<path d="M326.637 187.669L326.842 233.567L390.083 210.507L389.877 164.609L326.637 187.669Z" fill="#E3B380"/>
<path d="M262.217 164.025L262.423 209.923L326.842 233.567L326.636 187.669L262.217 164.025Z" fill="#C99F71"/>
<path d="M262.217 164.025L326.636 187.669L389.877 164.609L325.457 140.965L262.217 164.025Z" fill="#F2BF88"/>
<path d="M290.265 153.801L354.684 177.445L361.679 174.89L297.26 151.245L290.265 153.801Z" fill="#B38D64"/>
<path d="M354.683 177.441L354.779 194.814C354.951 194.28 355.185 193.757 355.563 193.279C355.563 194.115 355.573 194.814 355.867 195.557C356.093 195.004 356.189 194.37 356.556 193.906C357.131 194.269 357.208 194.631 357.362 194.994C357.737 194.004 358.047 193.014 358.047 192.024C358.684 192.829 358.918 193.631 359.262 194.352C359.565 193.576 359.712 192.8 360.531 192.024C360.531 192.468 360.753 192.913 360.987 193.358C361.249 192.861 361.51 192.365 361.773 191.868L361.679 174.89L354.683 177.441Z" fill="#9E7D58"/>
<path d="M329.197 224.725L329.22 229.735L336.122 227.218L336.099 222.208L329.197 224.725Z" stroke="#B38C65" stroke-width="0.7335" stroke-miterlimit="10"/>
<path d="M337.227 221.757L337.249 226.766L344.152 224.249L344.13 219.24L337.227 221.757Z" stroke="#B38C65" stroke-width="0.7335" stroke-miterlimit="10"/>
<path d="M393.508 212.563L393.714 258.461L456.955 235.401L456.748 189.503L393.508 212.563Z" fill="#E3B380"/>
<path d="M329.089 188.919L329.295 234.818L393.714 258.461L393.508 212.563L329.089 188.919Z" fill="#C99F71"/>
<path d="M329.089 188.92L393.508 212.563L456.749 189.504L392.329 165.859L329.089 188.92Z" fill="#F2BF88"/>
<path d="M357.137 178.695L421.557 202.339L428.552 199.784L364.132 176.14L357.137 178.695Z" fill="#B38D64"/>
<path d="M421.555 202.335L421.65 219.709C421.823 219.175 422.057 218.651 422.435 218.173C422.435 219.009 422.445 219.708 422.74 220.452C422.964 219.898 423.062 219.265 423.429 218.801C424.002 219.163 424.081 219.526 424.234 219.889C424.609 218.898 424.919 217.908 424.919 216.918C425.556 217.723 425.79 218.525 426.134 219.246C426.438 218.471 426.584 217.694 427.404 216.918C427.404 217.363 427.626 217.807 427.859 218.252C428.121 217.755 428.384 217.259 428.646 216.762L428.552 199.784L421.555 202.335Z" fill="#9E7D58"/>
<path d="M396.068 249.62L396.092 254.629L402.994 252.112L402.971 247.103L396.068 249.62Z" stroke="#B38C65" stroke-width="0.7335" stroke-miterlimit="10"/>
<path d="M404.099 246.651L404.121 251.661L411.023 249.144L411.001 244.134L404.099 246.651Z" stroke="#B38C65" stroke-width="0.7335" stroke-miterlimit="10"/>
<path d="M196.038 186.016L196.244 231.914L259.484 208.853L259.279 162.955L196.038 186.016Z" fill="#E3B380"/>
<path d="M131.619 162.371L131.825 208.269L196.244 231.913L196.038 186.015L131.619 162.371Z" fill="#C99F71"/>
<path d="M131.619 162.371L196.038 186.015L259.279 162.955L194.859 139.311L131.619 162.371Z" fill="#F2BF88"/>
<path d="M159.666 152.147L224.086 175.792L231.081 173.236L166.661 149.592L159.666 152.147Z" fill="#B38D64"/>
<path d="M224.085 175.787L224.181 193.161C224.353 192.626 224.587 192.103 224.965 191.625C224.965 192.461 224.976 193.16 225.27 193.903C225.495 193.351 225.592 192.716 225.959 192.253C226.533 192.615 226.611 192.978 226.765 193.34C227.139 192.35 227.45 191.36 227.45 190.37C228.087 191.175 228.32 191.976 228.664 192.698C228.969 191.922 229.115 191.146 229.934 190.37C229.934 190.815 230.156 191.259 230.39 191.704C230.652 191.207 230.914 190.711 231.176 190.214L231.082 173.236L224.085 175.787Z" fill="#9E7D58"/>
<path d="M198.6 223.071L198.621 228.081L205.524 225.564L205.502 220.555L198.6 223.071Z" stroke="#B38C65" stroke-width="0.7335" stroke-miterlimit="10"/>
<path d="M206.628 220.103L206.651 225.113L213.553 222.596L213.53 217.586L206.628 220.103Z" stroke="#B38C65" stroke-width="0.7335" stroke-miterlimit="10"/>
<path d="M262.91 210.91L263.116 256.808L326.356 233.748L326.15 187.85L262.91 210.91Z" fill="#E3B380"/>
<path d="M198.49 187.266L198.696 233.164L263.116 256.808L262.91 210.91L198.49 187.266Z" fill="#C99F71"/>
<path d="M198.49 187.266L262.91 210.91L326.15 187.85L261.731 164.206L198.49 187.266Z" fill="#F2BF88"/>
<path d="M226.538 177.042L290.958 200.686L297.953 198.13L233.534 174.486L226.538 177.042Z" fill="#B38D64"/>
<path d="M290.956 200.682L291.053 218.055C291.225 217.521 291.458 216.998 291.837 216.52C291.837 217.356 291.847 218.055 292.142 218.798C292.367 218.245 292.463 217.611 292.831 217.147C293.405 217.51 293.482 217.872 293.636 218.235C294.011 217.245 294.322 216.255 294.322 215.265C294.959 216.07 295.192 216.871 295.536 217.593C295.84 216.817 295.987 216.04 296.805 215.265C296.805 215.709 297.027 216.154 297.261 216.598C297.523 216.102 297.785 215.605 298.047 215.109L297.953 198.13L290.956 200.682Z" fill="#9E7D58"/>
<path d="M265.472 247.966L265.494 252.976L272.396 250.459L272.373 245.45L265.472 247.966Z" stroke="#B38C65" stroke-width="0.7335" stroke-miterlimit="10"/>
<path d="M273.5 244.998L273.522 250.007L280.425 247.49L280.402 242.48L273.5 244.998Z" stroke="#B38C65" stroke-width="0.7335" stroke-miterlimit="10"/>
<path d="M329.781 235.805L329.987 281.703L393.228 258.643L393.021 212.745L329.781 235.805Z" fill="#E3B380"/>
<path d="M265.361 212.161L265.567 258.059L329.987 281.703L329.781 235.805L265.361 212.161Z" fill="#C99F71"/>
<path d="M265.361 212.16L329.781 235.805L393.021 212.745L328.602 189.101L265.361 212.16Z" fill="#F2BF88"/>
<path d="M293.409 201.937L357.828 225.581L364.824 223.025L300.404 199.381L293.409 201.937Z" fill="#B38D64"/>
<path d="M357.827 225.577L357.923 242.95C358.095 242.416 358.329 241.893 358.708 241.414C358.708 242.251 358.717 242.949 359.012 243.693C359.237 243.14 359.334 242.506 359.701 242.042C360.275 242.405 360.353 242.767 360.507 243.13C360.881 242.14 361.191 241.15 361.191 240.159C361.828 240.964 362.062 241.766 362.406 242.488C362.71 241.712 362.857 240.935 363.676 240.159C363.676 240.604 363.896 241.049 364.131 241.493C364.393 240.996 364.655 240.5 364.917 240.004L364.823 223.025L357.827 225.577Z" fill="#9E7D58"/>
<path d="M332.342 272.861L332.365 277.871L339.267 275.354L339.244 270.344L332.342 272.861Z" stroke="#B38C65" stroke-width="0.7335" stroke-miterlimit="10"/>
<path d="M340.371 269.892L340.394 274.902L347.296 272.386L347.274 267.376L340.371 269.892Z" stroke="#B38C65" stroke-width="0.7335" stroke-miterlimit="10"/>
<path d="M259.765 116.619L259.97 162.517L323.212 139.457L323.005 93.5591L259.765 116.619Z" fill="#E3B380"/>
<path d="M195.346 92.9751L195.551 138.873L259.971 162.517L259.765 116.619L195.346 92.9751Z" fill="#C99F71"/>
<path d="M195.346 92.9753L259.765 116.619L323.005 93.5589L258.586 69.915L195.346 92.9753Z" fill="#F2BF88"/>
<path d="M223.393 82.7511L287.812 106.396L294.808 103.84L230.389 80.1958L223.393 82.7511Z" fill="#B38D64"/>
<path d="M287.812 106.391L287.907 123.764C288.08 123.231 288.313 122.707 288.692 122.229C288.692 123.065 288.703 123.764 288.997 124.507C289.222 123.954 289.319 123.32 289.686 122.857C290.259 123.219 290.337 123.582 290.491 123.944C290.866 122.954 291.176 121.964 291.176 120.974C291.813 121.779 292.046 122.58 292.391 123.302C292.695 122.526 292.84 121.75 293.66 120.974C293.66 121.418 293.882 121.863 294.116 122.308C294.378 121.811 294.64 121.314 294.902 120.818L294.809 103.839L287.812 106.391Z" fill="#9E7D58"/>
<path d="M262.326 153.676L262.349 158.685L269.251 156.168L269.229 151.159L262.326 153.676Z" stroke="#B38C65" stroke-width="0.7335" stroke-miterlimit="10"/>
<path d="M270.354 150.707L270.378 155.717L277.28 153.2L277.257 148.19L270.354 150.707Z" stroke="#B38C65" stroke-width="0.7335" stroke-miterlimit="10"/>
<path d="M326.637 141.514L326.842 187.412L390.083 164.352L389.877 118.454L326.637 141.514Z" fill="#E3B380"/>
<path d="M262.217 117.87L262.423 163.768L326.842 187.412L326.636 141.514L262.217 117.87Z" fill="#C99F71"/>
<path d="M262.217 117.87L326.636 141.514L389.877 118.454L325.457 94.8101L262.217 117.87Z" fill="#F2BF88"/>
<path d="M290.265 107.646L354.684 131.29L361.679 128.735L297.26 105.09L290.265 107.646Z" fill="#B38D64"/>
<path d="M354.683 131.286L354.779 148.66C354.951 148.126 355.185 147.602 355.563 147.124C355.563 147.96 355.573 148.659 355.867 149.403C356.093 148.85 356.189 148.215 356.556 147.752C357.131 148.114 357.208 148.477 357.362 148.839C357.737 147.849 358.047 146.859 358.047 145.869C358.684 146.674 358.918 147.475 359.262 148.197C359.565 147.421 359.712 146.645 360.531 145.869C360.531 146.314 360.753 146.758 360.987 147.203C361.249 146.706 361.51 146.209 361.773 145.713L361.679 128.735L354.683 131.286Z" fill="#9E7D58"/>
<path d="M329.197 178.57L329.22 183.58L336.122 181.063L336.099 176.054L329.197 178.57Z" stroke="#B38C65" stroke-width="0.7335" stroke-miterlimit="10"/>
<path d="M337.227 175.602L337.249 180.612L344.152 178.095L344.13 173.085L337.227 175.602Z" stroke="#B38C65" stroke-width="0.7335" stroke-miterlimit="10"/>
<path d="M393.508 166.409L393.714 212.307L456.955 189.247L456.748 143.349L393.508 166.409Z" fill="#E3B380"/>
<path d="M329.089 142.765L329.295 188.663L393.714 212.307L393.508 166.409L329.089 142.765Z" fill="#C99F71"/>
<path d="M329.089 142.765L393.508 166.409L456.749 143.348L392.329 119.705L329.089 142.765Z" fill="#F2BF88"/>
<path d="M357.137 132.541L421.557 156.184L428.552 153.629L364.132 129.985L357.137 132.541Z" fill="#B38D64"/>
<path d="M421.555 156.181L421.65 173.554C421.823 173.02 422.057 172.496 422.435 172.019C422.435 172.855 422.445 173.554 422.74 174.297C422.964 173.744 423.062 173.11 423.429 172.646C424.002 173.009 424.081 173.371 424.234 173.734C424.609 172.744 424.919 171.754 424.919 170.763C425.556 171.568 425.79 172.37 426.134 173.092C426.438 172.316 426.584 171.54 427.404 170.763C427.404 171.208 427.626 171.653 427.859 172.097C428.121 171.601 428.384 171.104 428.646 170.608L428.552 153.629L421.555 156.181Z" fill="#9E7D58"/>
<path d="M396.068 203.465L396.092 208.475L402.994 205.958L402.971 200.948L396.068 203.465Z" stroke="#B38C65" stroke-width="0.7335" stroke-miterlimit="10"/>
<path d="M404.099 200.496L404.121 205.506L411.023 202.99L411.001 197.98L404.099 200.496Z" stroke="#B38C65" stroke-width="0.7335" stroke-miterlimit="10"/>
<path d="M196.038 139.86L196.244 185.758L259.484 162.698L259.279 116.8L196.038 139.86Z" fill="#E3B380"/>
<path d="M131.619 116.216L131.825 162.114L196.244 185.758L196.038 139.86L131.619 116.216Z" fill="#C99F71"/>
<path d="M131.619 116.216L196.038 139.86L259.279 116.8L194.859 93.1562L131.619 116.216Z" fill="#F2BF88"/>
<path d="M159.666 105.992L224.086 129.636L231.081 127.081L166.661 103.437L159.666 105.992Z" fill="#B38D64"/>
<path d="M224.085 129.632L224.181 147.006C224.353 146.471 224.587 145.948 224.965 145.47C224.965 146.306 224.976 147.005 225.27 147.748C225.495 147.195 225.592 146.561 225.959 146.097C226.533 146.46 226.611 146.822 226.765 147.185C227.139 146.195 227.45 145.205 227.45 144.215C228.087 145.02 228.32 145.821 228.664 146.543C228.969 145.767 229.115 144.991 229.934 144.215C229.934 144.659 230.156 145.104 230.39 145.549C230.652 145.052 230.914 144.555 231.176 144.059L231.082 127.081L224.085 129.632Z" fill="#9E7D58"/>
<path d="M198.6 176.916L198.621 181.926L205.524 179.409L205.502 174.4L198.6 176.916Z" stroke="#B38C65" stroke-width="0.7335" stroke-miterlimit="10"/>
<path d="M206.628 173.948L206.651 178.958L213.553 176.441L213.53 171.431L206.628 173.948Z" stroke="#B38C65" stroke-width="0.7335" stroke-miterlimit="10"/>
<path d="M262.91 164.755L263.116 210.653L326.356 187.593L326.15 141.695L262.91 164.755Z" fill="#E3B380"/>
<path d="M198.49 141.111L198.696 187.009L263.116 210.654L262.91 164.755L198.49 141.111Z" fill="#C99F71"/>
<path d="M198.49 141.111L262.91 164.755L326.15 141.695L261.731 118.051L198.49 141.111Z" fill="#F2BF88"/>
<path d="M226.538 130.887L290.958 154.531L297.953 151.975L233.534 128.332L226.538 130.887Z" fill="#B38D64"/>
<path d="M290.956 154.527L291.053 171.901C291.225 171.366 291.458 170.843 291.837 170.365C291.837 171.202 291.847 171.9 292.142 172.644C292.367 172.091 292.463 171.456 292.831 170.993C293.405 171.355 293.482 171.718 293.636 172.08C294.011 171.09 294.322 170.1 294.322 169.11C294.959 169.915 295.192 170.717 295.536 171.438C295.84 170.662 295.987 169.886 296.805 169.11C296.805 169.555 297.027 169.999 297.261 170.444C297.523 169.948 297.785 169.451 298.047 168.954L297.953 151.976L290.956 154.527Z" fill="#9E7D58"/>
<path d="M265.472 201.812L265.494 206.821L272.396 204.304L272.373 199.294L265.472 201.812Z" stroke="#B38C65" stroke-width="0.7335" stroke-miterlimit="10"/>
<path d="M273.5 198.843L273.522 203.852L280.425 201.336L280.402 196.326L273.5 198.843Z" stroke="#B38C65" stroke-width="0.7335" stroke-miterlimit="10"/>
<path d="M329.781 189.65L329.987 235.548L393.228 212.488L393.021 166.59L329.781 189.65Z" fill="#E3B380"/>
<path d="M265.361 166.006L265.567 211.904L329.987 235.548L329.781 189.65L265.361 166.006Z" fill="#C99F71"/>
<path d="M265.361 166.006L329.781 189.65L393.021 166.59L328.602 142.946L265.361 166.006Z" fill="#F2BF88"/>
<path d="M293.409 155.781L357.828 179.426L364.824 176.871L300.404 153.226L293.409 155.781Z" fill="#B38D64"/>
<path d="M357.827 179.422L357.923 196.795C358.095 196.261 358.329 195.738 358.708 195.26C358.708 196.096 358.717 196.795 359.012 197.538C359.237 196.985 359.334 196.351 359.701 195.887C360.275 196.25 360.353 196.612 360.507 196.975C360.881 195.985 361.191 194.995 361.191 194.005C361.828 194.81 362.062 195.611 362.406 196.333C362.71 195.557 362.857 194.781 363.676 194.005C363.676 194.449 363.896 194.894 364.131 195.339C364.393 194.842 364.655 194.345 364.917 193.848L364.823 176.871L357.827 179.422Z" fill="#9E7D58"/>
<path d="M332.342 226.706L332.365 231.716L339.267 229.199L339.244 224.189L332.342 226.706Z" stroke="#B38C65" stroke-width="0.7335" stroke-miterlimit="10"/>
<path d="M340.371 223.737L340.394 228.747L347.296 226.23L347.274 221.221L340.371 223.737Z" stroke="#B38C65" stroke-width="0.7335" stroke-miterlimit="10"/>
<path d="M259.765 70.2829L259.97 116.181L323.212 93.1207L323.005 47.2227L259.765 70.2829Z" fill="#E3B380"/>
<path d="M195.346 46.6392L195.551 92.5372L259.971 116.181L259.765 70.283L195.346 46.6392Z" fill="#C99F71"/>
<path d="M195.346 46.6391L259.765 70.283L323.005 47.2228L258.586 23.5786L195.346 46.6391Z" fill="#F2BF88"/>
<path d="M223.393 36.415L287.812 60.0592L294.808 57.5039L230.389 33.8594L223.393 36.415Z" fill="#B38D64"/>
<path d="M287.812 60.0549L287.907 77.4286C288.08 76.8943 288.313 76.371 288.692 75.8926C288.692 76.7291 288.703 77.4276 288.997 78.171C289.222 77.6179 289.319 76.9835 289.686 76.5202C290.259 76.8828 290.337 77.2453 290.491 77.6079C290.866 76.6174 291.176 75.6276 291.176 74.6374C291.813 75.4425 292.046 76.244 292.391 76.9659C292.695 76.1897 292.84 75.4136 293.66 74.6374C293.66 75.0821 293.882 75.5265 294.116 75.9712C294.378 75.4749 294.64 74.9779 294.902 74.4815L294.809 57.5034L287.812 60.0549Z" fill="#9E7D58"/>
<path d="M262.326 107.339L262.349 112.349L269.251 109.832L269.229 104.822L262.326 107.339Z" stroke="#B38C65" stroke-width="0.7335" stroke-miterlimit="10"/>
<path d="M270.354 104.371L270.378 109.38L277.28 106.864L277.257 101.854L270.354 104.371Z" stroke="#B38C65" stroke-width="0.7335" stroke-miterlimit="10"/>
<path d="M326.637 95.1779L326.842 141.076L390.083 118.016L389.877 72.1177L326.637 95.1779Z" fill="#E3B380"/>
<path d="M262.217 71.5337L262.423 117.432L326.842 141.076L326.636 95.1775L262.217 71.5337Z" fill="#C99F71"/>
<path d="M262.217 71.5338L326.636 95.1777L389.877 72.1175L325.457 48.4736L262.217 71.5338Z" fill="#F2BF88"/>
<path d="M290.265 61.31L354.684 84.9539L361.679 82.3986L297.26 58.7544L290.265 61.31Z" fill="#B38D64"/>
<path d="M354.683 84.9502L354.779 102.324C354.951 101.789 355.185 101.266 355.563 100.788C355.563 101.624 355.573 102.323 355.867 103.066C356.093 102.513 356.189 101.879 356.556 101.416C357.131 101.778 357.208 102.141 357.362 102.503C357.737 101.513 358.047 100.523 358.047 99.5328C358.684 100.338 358.918 101.139 359.262 101.862C359.565 101.085 359.712 100.309 360.531 99.5328C360.531 99.9775 360.753 100.422 360.987 100.867C361.249 100.37 361.51 99.8735 361.773 99.3772L361.679 82.3984L354.683 84.9502Z" fill="#9E7D58"/>
<path d="M329.197 132.234L329.22 137.244L336.122 134.727L336.099 129.717L329.197 132.234Z" stroke="#B38C65" stroke-width="0.7335" stroke-miterlimit="10"/>
<path d="M337.227 129.265L337.249 134.275L344.152 131.758L344.13 126.749L337.227 129.265Z" stroke="#B38C65" stroke-width="0.7335" stroke-miterlimit="10"/>
<path d="M393.508 120.072L393.714 165.97L456.955 142.91L456.748 97.0122L393.508 120.072Z" fill="#E3B380"/>
<path d="M329.089 96.4282L329.295 142.326L393.714 165.97L393.508 120.072L329.089 96.4282Z" fill="#C99F71"/>
<path d="M329.089 96.4284L393.508 120.072L456.749 97.012L392.329 73.3682L329.089 96.4284Z" fill="#F2BF88"/>
<path d="M357.137 86.2039L421.557 109.848L428.552 107.293L364.132 83.6479L357.137 86.2039Z" fill="#B38D64"/>
<path d="M421.555 109.844L421.65 127.218C421.823 126.684 422.057 126.16 422.435 125.682C422.435 126.518 422.445 127.217 422.74 127.961C422.964 127.407 423.062 126.773 423.429 126.31C424.002 126.672 424.081 127.035 424.234 127.397C424.609 126.407 424.919 125.417 424.919 124.427C425.556 125.232 425.79 126.034 426.134 126.755C426.438 125.98 426.584 125.203 427.404 124.427C427.404 124.872 427.626 125.316 427.859 125.761C428.121 125.264 428.384 124.767 428.646 124.271L428.552 107.293L421.555 109.844Z" fill="#9E7D58"/>
<path d="M396.068 157.129L396.092 162.138L402.994 159.621L402.971 154.612L396.068 157.129Z" stroke="#B38C65" stroke-width="0.7335" stroke-miterlimit="10"/>
<path d="M404.099 154.16L404.121 159.17L411.023 156.652L411.001 151.643L404.099 154.16Z" stroke="#B38C65" stroke-width="0.7335" stroke-miterlimit="10"/>
<path d="M196.038 93.5238L196.244 139.422L259.484 116.362L259.279 70.4639L196.038 93.5238Z" fill="#E3B380"/>
<path d="M131.619 69.8794L131.825 115.777L196.244 139.422L196.038 93.5236L131.619 69.8794Z" fill="#C99F71"/>
<path d="M131.619 69.8795L196.038 93.5237L259.279 70.4638L194.859 46.8193L131.619 69.8795Z" fill="#F2BF88"/>
<path d="M159.666 59.6554L224.086 83.2996L231.081 80.7443L166.661 57.1001L159.666 59.6554Z" fill="#B38D64"/>
<path d="M224.085 83.2959L224.181 100.669C224.353 100.135 224.587 99.6114 224.965 99.1337C224.965 99.9698 224.976 100.669 225.27 101.412C225.495 100.859 225.592 100.225 225.959 99.7613C226.533 100.124 226.611 100.486 226.765 100.849C227.139 99.8585 227.45 98.8686 227.45 97.8781C228.087 98.6832 228.32 99.4847 228.664 100.207C228.969 99.4308 229.115 98.6546 229.934 97.8781C229.934 98.3229 230.156 98.7676 230.39 99.2123C230.652 98.7156 230.914 98.2189 231.176 97.7225L231.082 80.7441L224.085 83.2959Z" fill="#9E7D58"/>
<path d="M198.6 130.58L198.621 135.589L205.524 133.073L205.502 128.063L198.6 130.58Z" stroke="#B38C65" stroke-width="0.7335" stroke-miterlimit="10"/>
<path d="M206.628 127.612L206.651 132.621L213.553 130.104L213.53 125.095L206.628 127.612Z" stroke="#B38C65" stroke-width="0.7335" stroke-miterlimit="10"/>
<path d="M262.91 118.419L263.116 164.317L326.356 141.257L326.15 95.3589L262.91 118.419Z" fill="#E3B380"/>
<path d="M198.49 94.7749L198.696 140.673L263.116 164.317L262.91 118.419L198.49 94.7749Z" fill="#C99F71"/>
<path d="M198.49 94.7747L262.91 118.419L326.15 95.3587L261.731 71.7148L198.49 94.7747Z" fill="#F2BF88"/>
<path d="M226.538 84.5507L290.958 108.195L297.953 105.639L233.534 81.9951L226.538 84.5507Z" fill="#B38D64"/>
<path d="M290.956 108.19L291.053 125.564C291.225 125.03 291.458 124.507 291.837 124.028C291.837 124.865 291.847 125.563 292.142 126.307C292.367 125.753 292.463 125.12 292.831 124.656C293.405 125.019 293.482 125.381 293.636 125.743C294.011 124.753 294.322 123.763 294.322 122.773C294.959 123.578 295.192 124.38 295.536 125.101C295.84 124.325 295.987 123.549 296.805 122.773C296.805 123.218 297.027 123.662 297.261 124.107C297.523 123.61 297.785 123.114 298.047 122.617L297.953 105.639L290.956 108.19Z" fill="#9E7D58"/>
<path d="M265.472 155.475L265.494 160.485L272.396 157.968L272.373 152.958L265.472 155.475Z" stroke="#B38C65" stroke-width="0.7335" stroke-miterlimit="10"/>
<path d="M273.5 152.507L273.522 157.516L280.425 154.999L280.402 149.99L273.5 152.507Z" stroke="#B38C65" stroke-width="0.7335" stroke-miterlimit="10"/>
<path d="M329.781 143.314L329.987 189.212L393.228 166.151L393.021 120.253L329.781 143.314Z" fill="#E3B380"/>
<path d="M265.361 119.669L265.567 165.568L329.987 189.212L329.781 143.314L265.361 119.669Z" fill="#C99F71"/>
<path d="M265.361 119.669L329.781 143.314L393.021 120.254L328.602 96.6094L265.361 119.669Z" fill="#F2BF88"/>
<path d="M293.409 109.445L357.828 133.09L364.824 130.534L300.404 106.89L293.409 109.445Z" fill="#B38D64"/>
<path d="M357.827 133.086L357.923 150.459C358.095 149.925 358.329 149.401 358.708 148.924C358.708 149.76 358.717 150.459 359.012 151.202C359.237 150.649 359.334 150.014 359.701 149.551C360.275 149.913 360.353 150.276 360.507 150.639C360.881 149.648 361.191 148.659 361.191 147.668C361.828 148.473 362.062 149.275 362.406 149.996C362.71 149.221 362.857 148.444 363.676 147.668C363.676 148.113 363.896 148.557 364.131 149.002C364.393 148.505 364.655 148.009 364.917 147.512L364.823 130.534L357.827 133.086Z" fill="#9E7D58"/>
<path d="M332.342 180.37L332.365 185.38L339.267 182.863L339.244 177.853L332.342 180.37Z" stroke="#B38C65" stroke-width="0.7335" stroke-miterlimit="10"/>
<path d="M340.371 177.401L340.394 182.411L347.296 179.894L347.274 174.884L340.371 177.401Z" stroke="#B38C65" stroke-width="0.7335" stroke-miterlimit="10"/>
<path d="M259.591 116.51L259.797 162.408L323.038 139.348L322.831 93.4497L259.591 116.51Z" fill="#E3B380"/>
<path d="M195.172 92.8657L195.378 138.764L259.797 162.408L259.591 116.51L195.172 92.8657Z" fill="#C99F71"/>
<path d="M195.172 92.8656L259.591 116.509L322.832 93.4495L258.412 69.8057L195.172 92.8656Z" fill="#F2BF88"/>
<path d="M223.22 82.6414L287.639 106.286L294.634 103.73L230.216 80.0864L223.22 82.6414Z" fill="#B38D64"/>
<path d="M287.638 106.282L287.733 123.655C287.906 123.121 288.14 122.598 288.518 122.119C288.518 122.956 288.528 123.654 288.822 124.398C289.047 123.845 289.145 123.211 289.511 122.747C290.085 123.11 290.163 123.472 290.317 123.835C290.691 122.845 291.002 121.854 291.002 120.864C291.639 121.669 291.873 122.471 292.217 123.193C292.52 122.417 292.667 121.641 293.487 120.864C293.487 121.309 293.708 121.754 293.942 122.198C294.204 121.701 294.466 121.205 294.728 120.709L294.634 103.73L287.638 106.282Z" fill="#9E7D58"/>
<path d="M262.152 153.566L262.175 158.576L269.077 156.059L269.055 151.049L262.152 153.566Z" stroke="#B38C65" stroke-width="0.7335" stroke-miterlimit="10"/>
<path d="M270.182 150.597L270.204 155.607L277.106 153.09L277.084 148.081L270.182 150.597Z" stroke="#B38C65" stroke-width="0.7335" stroke-miterlimit="10"/>
<path d="M326.463 141.405L326.669 187.303L389.909 164.242L389.703 118.344L326.463 141.405Z" fill="#E3B380"/>
<path d="M262.043 117.76L262.25 163.658L326.669 187.302L326.463 141.404L262.043 117.76Z" fill="#C99F71"/>
<path d="M262.043 117.76L326.463 141.405L389.704 118.344L325.285 94.7002L262.043 117.76Z" fill="#F2BF88"/>
<path d="M290.092 107.536L354.511 131.18L361.507 128.625L297.087 104.98L290.092 107.536Z" fill="#B38D64"/>
<path d="M354.51 131.176L354.606 148.55C354.778 148.016 355.012 147.493 355.39 147.014C355.39 147.851 355.4 148.549 355.695 149.293C355.92 148.74 356.017 148.106 356.384 147.642C356.958 148.005 357.036 148.367 357.19 148.73C357.564 147.739 357.874 146.749 357.874 145.759C358.511 146.564 358.745 147.366 359.089 148.088C359.393 147.312 359.54 146.535 360.358 145.759C360.358 146.204 360.58 146.648 360.814 147.093C361.076 146.597 361.338 146.099 361.6 145.603L361.506 128.625L354.51 131.176Z" fill="#9E7D58"/>
<path d="M329.024 178.46L329.047 183.47L335.949 180.953L335.926 175.944L329.024 178.46Z" stroke="#B38C65" stroke-width="0.7335" stroke-miterlimit="10"/>
<path d="M337.053 175.492L337.075 180.502L343.978 177.985L343.956 172.975L337.053 175.492Z" stroke="#B38C65" stroke-width="0.7335" stroke-miterlimit="10"/>
<path d="M393.334 166.299L393.54 212.197L456.781 189.137L456.575 143.239L393.334 166.299Z" fill="#E3B380"/>
<path d="M328.915 142.655L329.121 188.553L393.54 212.197L393.334 166.3L328.915 142.655Z" fill="#C99F71"/>
<path d="M328.915 142.655L393.334 166.299L456.575 143.239L392.156 119.595L328.915 142.655Z" fill="#F2BF88"/>
<path d="M356.962 132.431L421.382 156.075L428.377 153.52L363.958 129.875L356.962 132.431Z" fill="#B38D64"/>
<path d="M421.381 156.071L421.477 173.445C421.65 172.911 421.883 172.387 422.261 171.909C422.261 172.745 422.271 173.444 422.567 174.187C422.791 173.634 422.889 173 423.255 172.536C423.829 172.898 423.907 173.261 424.061 173.624C424.436 172.634 424.746 171.644 424.746 170.653C425.383 171.458 425.616 172.26 425.961 172.982C426.265 172.206 426.411 171.43 427.231 170.653C427.231 171.098 427.452 171.543 427.686 171.987C427.948 171.491 428.211 170.994 428.473 170.498L428.379 153.519L421.381 156.071Z" fill="#9E7D58"/>
<path d="M395.895 203.355L395.918 208.365L402.82 205.848L402.798 200.838L395.895 203.355Z" stroke="#B38C65" stroke-width="0.7335" stroke-miterlimit="10"/>
<path d="M403.925 200.387L403.947 205.396L410.849 202.88L410.827 197.87L403.925 200.387Z" stroke="#B38C65" stroke-width="0.7335" stroke-miterlimit="10"/>
<path d="M195.864 139.751L196.07 185.649L259.312 162.589L259.105 116.69L195.864 139.751Z" fill="#E3B380"/>
<path d="M131.445 116.106L131.651 162.004L196.07 185.648L195.864 139.75L131.445 116.106Z" fill="#C99F71"/>
<path d="M131.445 116.107L195.864 139.75L259.105 116.69L194.686 93.0464L131.445 116.107Z" fill="#F2BF88"/>
<path d="M159.492 105.882L223.911 129.526L230.907 126.971L166.488 103.327L159.492 105.882Z" fill="#B38D64"/>
<path d="M223.911 129.522L224.007 146.896C224.179 146.362 224.414 145.838 224.792 145.36C224.792 146.197 224.801 146.896 225.096 147.639C225.321 147.085 225.418 146.451 225.785 145.988C226.359 146.35 226.437 146.713 226.591 147.076C226.965 146.085 227.275 145.095 227.275 144.105C227.912 144.91 228.146 145.712 228.491 146.434C228.794 145.657 228.941 144.881 229.76 144.105C229.76 144.55 229.982 144.994 230.216 145.439C230.478 144.942 230.74 144.446 231.002 143.949L230.908 126.971L223.911 129.522Z" fill="#9E7D58"/>
<path d="M198.425 176.806L198.447 181.816L205.35 179.299L205.328 174.29L198.425 176.806Z" stroke="#B38C65" stroke-width="0.7335" stroke-miterlimit="10"/>
<path d="M206.454 173.838L206.477 178.848L213.379 176.331L213.357 171.321L206.454 173.838Z" stroke="#B38C65" stroke-width="0.7335" stroke-miterlimit="10"/>
<path d="M262.736 164.645L262.942 210.543L326.183 187.483L325.977 141.585L262.736 164.645Z" fill="#E3B380"/>
<path d="M198.316 141.001L198.522 186.899L262.942 210.543L262.737 164.645L198.316 141.001Z" fill="#C99F71"/>
<path d="M198.316 141.001L262.737 164.645L325.977 141.585L261.557 117.941L198.316 141.001Z" fill="#F2BF88"/>
<path d="M226.365 130.777L290.784 154.421L297.78 151.866L233.361 128.222L226.365 130.777Z" fill="#B38D64"/>
<path d="M290.783 154.417L290.879 171.791C291.051 171.257 291.285 170.733 291.663 170.255C291.663 171.091 291.674 171.79 291.968 172.534C292.193 171.98 292.29 171.346 292.657 170.883C293.231 171.245 293.309 171.608 293.463 171.97C293.837 170.98 294.148 169.99 294.148 169C294.785 169.805 295.019 170.607 295.363 171.329C295.666 170.552 295.813 169.776 296.632 169C296.632 169.444 296.854 169.889 297.088 170.334C297.349 169.837 297.612 169.34 297.874 168.844L297.78 151.866L290.783 154.417Z" fill="#9E7D58"/>
<path d="M265.297 201.702L265.319 206.712L272.222 204.194L272.199 199.185L265.297 201.702Z" stroke="#B38C65" stroke-width="0.7335" stroke-miterlimit="10"/>
<path d="M273.326 198.733L273.349 203.743L280.251 201.226L280.229 196.216L273.326 198.733Z" stroke="#B38C65" stroke-width="0.7335" stroke-miterlimit="10"/>
<path d="M329.607 189.54L329.814 235.438L393.055 212.378L392.848 166.479L329.607 189.54Z" fill="#E3B380"/>
<path d="M265.188 165.896L265.394 211.794L329.814 235.438L329.608 189.54L265.188 165.896Z" fill="#C99F71"/>
<path d="M265.188 165.896L329.608 189.54L392.848 166.48L328.429 142.835L265.188 165.896Z" fill="#F2BF88"/>
<path d="M293.236 155.672L357.656 179.316L364.652 176.76L300.232 153.116L293.236 155.672Z" fill="#B38D64"/>
<path d="M357.654 179.312L357.75 196.685C357.923 196.151 358.156 195.628 358.534 195.15C358.534 195.986 358.544 196.685 358.839 197.428C359.064 196.875 359.161 196.241 359.528 195.777C360.102 196.14 360.18 196.503 360.334 196.865C360.709 195.875 361.018 194.885 361.018 193.895C361.656 194.7 361.889 195.501 362.234 196.223C362.537 195.447 362.684 194.671 363.503 193.895C363.503 194.339 363.724 194.784 363.958 195.229C364.22 194.732 364.483 194.235 364.745 193.738L364.651 176.76L357.654 179.312Z" fill="#9E7D58"/>
<path d="M332.169 226.596L332.192 231.605L339.094 229.089L339.072 224.079L332.169 226.596Z" stroke="#B38C65" stroke-width="0.7335" stroke-miterlimit="10"/>
<path d="M340.198 223.628L340.221 228.637L347.123 226.12L347.1 221.111L340.198 223.628Z" stroke="#B38C65" stroke-width="0.7335" stroke-miterlimit="10"/>
<path d="M259.591 70.1735L259.797 116.072L323.038 93.0114L322.831 47.1133L259.591 70.1735Z" fill="#E3B380"/>
<path d="M195.172 46.5293L195.378 92.4271L259.797 116.071L259.591 70.1731L195.172 46.5293Z" fill="#C99F71"/>
<path d="M195.172 46.5294L259.591 70.1733L322.832 47.1131L258.412 23.4692L195.172 46.5294Z" fill="#F2BF88"/>
<path d="M223.22 36.3051L287.639 59.9493L294.634 57.3937L230.216 33.7495L223.22 36.3051Z" fill="#B38D64"/>
<path d="M287.638 59.9453L287.733 77.3187C287.906 76.7845 288.14 76.2611 288.518 75.7831C288.518 76.6192 288.528 77.318 288.822 78.0615C289.047 77.5083 289.145 76.874 289.511 76.4107C290.085 76.7736 290.163 77.1358 290.317 77.4984C290.691 76.5079 291.002 75.518 291.002 74.5279C291.639 75.3329 291.873 76.1347 292.217 76.8563C292.52 76.0805 292.667 75.304 293.487 74.5279C293.487 74.9726 293.708 75.417 293.942 75.8617C294.204 75.3653 294.466 74.8683 294.728 74.3719L294.634 57.3936L287.638 59.9453Z" fill="#9E7D58"/>
<path d="M262.152 107.23L262.175 112.239L269.077 109.722L269.055 104.712L262.152 107.23Z" stroke="#B38C65" stroke-width="0.7335" stroke-miterlimit="10"/>
<path d="M270.182 104.261L270.204 109.271L277.106 106.754L277.084 101.744L270.182 104.261Z" stroke="#B38C65" stroke-width="0.7335" stroke-miterlimit="10"/>
<path d="M326.463 95.0683L326.669 140.966L389.909 117.906L389.703 72.0078L326.463 95.0683Z" fill="#E3B380"/>
<path d="M262.043 71.4238L262.25 117.322L326.669 140.966L326.463 95.068L262.043 71.4238Z" fill="#C99F71"/>
<path d="M262.043 71.424L326.463 95.0681L389.704 72.0076L325.285 48.3638L262.043 71.424Z" fill="#F2BF88"/>
<path d="M290.092 61.1998L354.511 84.844L361.507 82.2887L297.087 58.6445L290.092 61.1998Z" fill="#B38D64"/>
<path d="M354.51 84.8403L354.606 102.214C354.778 101.679 355.012 101.156 355.39 100.678C355.39 101.514 355.4 102.213 355.695 102.956C355.92 102.403 356.017 101.769 356.384 101.306C356.958 101.668 357.036 102.031 357.19 102.393C357.564 101.403 357.874 100.413 357.874 99.4226C358.511 100.228 358.745 101.029 359.089 101.751C359.393 100.975 359.54 100.199 360.358 99.4226C360.358 99.8673 360.58 100.312 360.814 100.757C361.076 100.26 361.338 99.7633 361.6 99.267L361.506 82.2886L354.51 84.8403Z" fill="#9E7D58"/>
<path d="M329.024 132.125L329.047 137.134L335.949 134.617L335.926 129.607L329.024 132.125Z" stroke="#B38C65" stroke-width="0.7335" stroke-miterlimit="10"/>
<path d="M337.053 129.156L337.075 134.165L343.978 131.648L343.956 126.639L337.053 129.156Z" stroke="#B38C65" stroke-width="0.7335" stroke-miterlimit="10"/>
<path d="M393.334 119.963L393.54 165.861L456.781 142.801L456.575 96.9028L393.334 119.963Z" fill="#E3B380"/>
<path d="M328.915 96.3188L329.121 142.217L393.54 165.861L393.334 119.963L328.915 96.3188Z" fill="#C99F71"/>
<path d="M328.915 96.3187L393.334 119.963L456.575 96.9026L392.156 73.2588L328.915 96.3187Z" fill="#F2BF88"/>
<path d="M356.962 86.0947L421.382 109.739L428.377 107.184L363.958 83.5391L356.962 86.0947Z" fill="#B38D64"/>
<path d="M421.381 109.735L421.477 127.108C421.65 126.574 421.883 126.051 422.261 125.573C422.261 126.409 422.271 127.107 422.567 127.851C422.791 127.298 422.889 126.664 423.255 126.2C423.829 126.563 423.907 126.925 424.061 127.288C424.436 126.298 424.746 125.308 424.746 124.318C425.383 125.123 425.616 125.924 425.961 126.646C426.265 125.87 426.411 125.094 427.231 124.318C427.231 124.762 427.452 125.207 427.686 125.651C427.948 125.155 428.211 124.659 428.473 124.162L428.379 107.184L421.381 109.735Z" fill="#9E7D58"/>
<path d="M395.895 157.019L395.918 162.029L402.82 159.512L402.798 154.502L395.895 157.019Z" stroke="#B38C65" stroke-width="0.7335" stroke-miterlimit="10"/>
<path d="M403.925 154.051L403.947 159.06L410.849 156.543L410.827 151.534L403.925 154.051Z" stroke="#B38C65" stroke-width="0.7335" stroke-miterlimit="10"/>
<path d="M195.864 93.4147L196.07 139.313L259.312 116.253L259.105 70.3545L195.864 93.4147Z" fill="#E3B380"/>
<path d="M131.445 69.77L131.651 115.668L196.07 139.313L195.864 93.4145L131.445 69.77Z" fill="#C99F71"/>
<path d="M131.445 69.7702L195.864 93.4147L259.105 70.3545L194.686 46.71L131.445 69.7702Z" fill="#F2BF88"/>
<path d="M159.492 59.5463L223.911 83.1902L230.907 80.6346L166.488 56.9907L159.492 59.5463Z" fill="#B38D64"/>
<path d="M223.911 83.1867L224.007 100.56C224.179 100.026 224.414 99.5025 224.792 99.0245C224.792 99.8609 224.801 100.559 225.096 101.303C225.321 100.75 225.418 100.116 225.785 99.6524C226.359 100.015 226.437 100.377 226.591 100.74C226.965 99.7496 227.275 98.7597 227.275 97.7699C227.912 98.5743 228.146 99.3764 228.491 100.098C228.794 99.3216 228.941 98.5457 229.76 97.7699C229.76 98.214 229.982 98.659 230.216 99.1034C230.478 98.607 230.74 98.1103 231.002 97.6136L230.908 80.6353L223.911 83.1867Z" fill="#9E7D58"/>
<path d="M198.425 130.471L198.447 135.48L205.35 132.963L205.328 127.954L198.425 130.471Z" stroke="#B38C65" stroke-width="0.7335" stroke-miterlimit="10"/>
<path d="M206.454 127.502L206.477 132.512L213.379 129.995L213.357 124.985L206.454 127.502Z" stroke="#B38C65" stroke-width="0.7335" stroke-miterlimit="10"/>
<path d="M262.736 118.309L262.942 164.207L326.183 141.147L325.977 95.2485L262.736 118.309Z" fill="#E3B380"/>
<path d="M198.316 94.6646L198.522 140.563L262.942 164.207L262.737 118.309L198.316 94.6646Z" fill="#C99F71"/>
<path d="M198.316 94.6647L262.737 118.309L325.977 95.2487L261.557 71.6045L198.316 94.6647Z" fill="#F2BF88"/>
<path d="M226.365 84.4409L290.784 108.085L297.78 105.529L233.361 81.8853L226.365 84.4409Z" fill="#B38D64"/>
<path d="M290.783 108.081L290.879 125.454C291.051 124.92 291.285 124.397 291.663 123.919C291.663 124.755 291.673 125.454 291.967 126.197C292.193 125.644 292.289 125.01 292.656 124.546C293.23 124.909 293.308 125.272 293.462 125.634C293.837 124.644 294.147 123.654 294.147 122.664C294.784 123.469 295.018 124.27 295.362 124.992C295.666 124.216 295.813 123.439 296.632 122.664C296.632 123.108 296.853 123.553 297.087 123.998C297.349 123.501 297.611 123.004 297.873 122.507L297.779 105.529L290.783 108.081Z" fill="#9E7D58"/>
<path d="M265.297 155.365L265.319 160.374L272.222 157.857L272.199 152.848L265.297 155.365Z" stroke="#B38C65" stroke-width="0.7335" stroke-miterlimit="10"/>
<path d="M273.326 152.397L273.349 157.406L280.251 154.889L280.229 149.879L273.326 152.397Z" stroke="#B38C65" stroke-width="0.7335" stroke-miterlimit="10"/>
<path d="M329.607 143.204L329.814 189.102L393.055 166.042L392.848 120.144L329.607 143.204Z" fill="#E3B380"/>
<path d="M265.188 119.56L265.394 165.458L329.814 189.102L329.608 143.204L265.188 119.56Z" fill="#C99F71"/>
<path d="M265.188 119.56L329.608 143.204L392.848 120.144L328.429 96.499L265.188 119.56Z" fill="#F2BF88"/>
<path d="M293.236 109.335L357.656 132.979L364.652 130.424L300.232 106.78L293.236 109.335Z" fill="#B38D64"/>
<path d="M357.654 132.976L357.75 150.349C357.923 149.815 358.156 149.291 358.534 148.813C358.534 149.649 358.544 150.348 358.839 151.092C359.064 150.539 359.161 149.904 359.528 149.441C360.102 149.803 360.18 150.166 360.334 150.529C360.709 149.538 361.018 148.548 361.018 147.558C361.656 148.363 361.889 149.165 362.234 149.886C362.537 149.11 362.684 148.334 363.503 147.558C363.503 148.003 363.724 148.447 363.958 148.892C364.22 148.396 364.483 147.899 364.745 147.402L364.651 130.424L357.654 132.976Z" fill="#9E7D58"/>
<path d="M332.169 180.259L332.192 185.269L339.094 182.753L339.072 177.743L332.169 180.259Z" stroke="#B38C65" stroke-width="0.7335" stroke-miterlimit="10"/>
<path d="M340.198 177.292L340.221 182.301L347.123 179.784L347.1 174.774L340.198 177.292Z" stroke="#B38C65" stroke-width="0.7335" stroke-miterlimit="10"/>
</svg>
