<svg width="570" height="360" viewBox="0 0 570 360" fill="none" xmlns="http://www.w3.org/2000/svg">
<path d="M322.446 271.728H109.92V301.577H322.446V271.728Z" fill="#8C6320"/>
<path d="M337.654 251.427C337.896 251.427 338.148 251.441 338.391 251.456C349.432 252.114 358.263 267.602 358.263 286.637C358.263 306.086 349.038 321.861 337.654 321.861H321.438V251.456L337.654 251.427Z" fill="#333332"/>
<path d="M321.439 315.526C313.906 315.526 307.099 303.183 306.575 288.573C306.55 287.847 306.538 287.211 306.538 286.637C306.538 271.254 313.501 257.761 321.439 257.761C321.579 257.761 321.724 257.772 321.864 257.781C328.853 258.197 336.331 269.891 336.331 286.637C336.331 302.027 329.372 315.526 321.439 315.526Z" fill="#BCBDBF"/>
<path d="M321.394 264.097C321.448 264.099 321.502 264.103 321.561 264.106C323.005 264.192 324.97 266.07 326.568 268.89C329.139 273.429 330.613 279.897 330.613 286.637C330.613 293.526 329.084 300.092 326.418 304.651C324.804 307.409 322.849 309.191 321.439 309.191C318.587 309.191 312.772 301.824 312.288 288.339C312.266 287.686 312.255 287.129 312.255 286.637C312.255 279.75 313.784 273.189 316.452 268.635C318.05 265.906 319.983 264.133 321.394 264.097ZM321.438 251.427C310.054 251.427 300.82 267.187 300.82 286.637C300.82 287.366 300.837 288.096 300.862 288.825C301.524 307.259 310.48 321.861 321.438 321.861C332.822 321.861 342.047 306.086 342.047 286.637C342.047 267.602 333.216 252.114 322.175 251.456C321.932 251.441 321.681 251.427 321.438 251.427Z" fill="#21211F"/>
<path d="M132.977 288.83C132.224 268.951 123.334 252.862 111.933 250.216C110.845 249.944 109.723 249.816 108.593 249.816H94.2451V288.829L132.977 288.83Z" fill="#8C6320"/>
<path d="M320.504 249.44C317.865 249.44 315.605 247.221 315.338 244.249C315.299 243.815 311.363 200.317 304.159 157.436C290.693 77.2797 278.845 74.9654 277.538 74.9654C274.668 74.9654 272.341 72.387 272.341 69.2068C272.341 66.0266 274.668 63.4482 277.538 63.4482C286.444 63.4482 293.798 73.3214 300.679 94.5194C305.472 109.282 310.085 129.762 314.388 155.391C321.669 198.749 325.642 242.674 325.682 243.113C325.965 246.278 323.879 249.098 321.023 249.412C320.849 249.43 320.675 249.44 320.504 249.44Z" fill="#738086"/>
<path d="M212.079 69.9209H201.039V203.638H212.079V69.9209Z" fill="#738086"/>
<path d="M313.144 249.44C310.505 249.44 308.245 247.221 307.978 244.249C307.94 243.815 304.003 200.317 296.799 157.436C283.333 77.2797 271.485 74.9654 270.179 74.9654H183.061C180.19 74.9654 177.863 72.387 177.863 69.2068C177.863 66.0266 180.19 63.4482 183.061 63.4482H270.179C279.084 63.4482 286.438 73.3214 293.32 94.5194C298.112 109.282 302.725 129.762 307.028 155.391C314.309 198.749 318.282 242.674 318.322 243.113C318.605 246.278 316.52 249.098 313.663 249.412C313.489 249.43 313.315 249.44 313.144 249.44Z" fill="#485959"/>
<path d="M212.079 71.3511H201.039V95.6628H212.079V71.3511Z" fill="#485959"/>
<path d="M177.001 258.798V288.83H312.438C312.413 288.086 313.818 287.371 313.818 286.642C313.818 261.686 313.581 267.222 328.189 267.222C328.431 267.222 328.674 267.237 328.925 267.251V241.636H304.08H243.781L177.001 258.798Z" fill="#FFC943"/>
<path d="M177 256.195C177 264.06 180.767 270.496 185.371 270.496L242.136 260.127C246.74 260.127 257.739 266.022 254.274 260.843L217.324 199.565C213.859 194.385 207.258 190.147 202.653 190.147H112.768C108.165 190.147 104.397 196.583 104.397 204.449L177 256.195Z" fill="#FFC943"/>
<path d="M215.785 288.83C215.032 268.951 206.141 252.862 194.741 250.216C193.652 249.944 192.531 249.816 191.401 249.816H177.053V288.829L215.785 288.83Z" fill="#8D7120"/>
<path d="M317.617 292.095H246.039L243.092 244.204L317.617 247.469V292.095Z" fill="#8C6320"/>
<path d="M303.354 95.6442H315.501C316.794 95.6442 317.853 93.8357 317.853 91.6252V70.644C317.853 68.4335 316.794 66.625 315.501 66.625H303.354V95.6442Z" fill="#FF573B"/>
<path d="M302.488 95.6442H305.494C306.788 95.6442 307.847 93.8357 307.847 91.6252V70.644C307.847 68.4335 306.788 66.625 305.494 66.625H302.488V95.6442Z" fill="#D33131"/>
<path d="M303.285 66.625H297.709C296.328 66.625 295.198 68.5555 295.198 70.9152V91.4136C295.198 93.7732 296.328 95.7038 297.709 95.7038H303.285V66.625Z" fill="#3B3F42"/>
<path d="M267.059 244.204H252.914V288.83H267.059V244.204Z" fill="#8D7120"/>
<path d="M231.713 230.68C230.571 230.752 229.5 229.785 229.332 228.532L220.627 163.49C220.459 162.237 221.257 161.211 222.4 161.211H262.016C263.159 161.211 264.667 162.031 265.367 163.033L277.356 180.197C278.055 181.199 278.729 183.05 278.852 184.309L282.845 225.182C282.968 226.442 282.135 227.531 280.993 227.602L231.713 230.68Z" fill="#3C4949"/>
<path d="M123.399 261.311C123.543 261.299 123.695 261.299 123.838 261.299C133.627 261.299 141.559 274.85 141.559 291.574C141.559 292.201 141.545 292.829 141.523 293.455C140.954 309.306 133.26 321.861 123.838 321.861H110.728V261.299L123.399 261.311Z" fill="#333332"/>
<path d="M110.728 315.526C105.048 315.526 98.7178 305.689 98.7178 291.574C98.7178 284.801 100.195 278.49 102.877 273.804C104.158 271.567 106.852 267.791 110.501 267.641L110.643 267.634H110.728C116.406 267.634 122.732 277.466 122.732 291.574C122.732 292.122 122.72 292.669 122.7 293.217C122.267 305.303 116.784 315.526 110.728 315.526Z" fill="#BCBDBF"/>
<path d="M110.753 273.969C111.095 274.008 112.322 274.762 113.666 277.059C115.794 280.695 117.015 285.985 117.015 291.574C117.015 291.974 117.005 292.431 116.987 292.952C116.799 298.208 115.514 303.121 113.463 306.431C112.057 308.701 110.931 309.192 110.727 309.192C110.426 309.192 109.169 308.458 107.785 306.095C105.655 302.455 104.433 297.162 104.433 291.574C104.433 286.068 105.625 280.828 107.703 277.197C109.198 274.586 110.476 273.981 110.712 273.972L110.753 273.969ZM110.728 261.299C110.584 261.299 110.433 261.299 110.289 261.311C100.702 261.705 93 275.096 93 291.574C93 308.296 100.939 321.86 110.728 321.86C120.15 321.86 127.844 309.305 128.413 293.455C128.434 292.828 128.449 292.2 128.449 291.574C128.448 274.85 120.517 261.299 110.728 261.299Z" fill="#21211F"/>
<path d="M286.726 46.7637H269.382V309.466H286.726V46.7637Z" fill="#738086"/>
<path d="M199.568 187.191H165.925V200.062H199.568V187.191Z" fill="#333332"/>
<path d="M167.116 117.631C165.107 117.631 163.605 119.499 163.78 121.784L166.968 163.418C167.143 165.702 168.712 167.571 170.453 167.571C172.195 167.571 173.985 165.739 174.431 163.501L178.584 142.635C179.03 140.396 178.692 136.858 177.833 134.773L172.332 121.422C171.473 119.337 169.126 117.631 167.116 117.631Z" fill="#3C4949"/>
<path d="M151.049 238.695C151.049 245.03 155.726 250.212 161.443 250.212H214.787C220.504 250.212 225.181 245.03 225.181 238.695V207.385C225.181 201.051 220.504 195.868 214.787 195.868H161.444C155.727 195.868 151.049 201.051 151.049 207.385L151.049 238.695Z" fill="#738086"/>
<path opacity="0.4" d="M220.783 232.735L180.301 208.524L172.481 240.636L221.242 237.577L220.783 232.735Z" fill="#21211F"/>
<path d="M171.948 117.631C169.939 117.631 168.437 119.499 168.613 121.784L171.8 163.418C171.975 165.702 173.544 167.571 175.285 167.571C177.027 167.571 178.817 165.739 179.263 163.501L183.416 142.635C183.862 140.396 183.524 136.858 182.665 134.773L177.164 121.422C176.305 119.337 173.958 117.631 171.948 117.631Z" fill="#738086"/>
<path d="M129.273 69.9199H118.233V203.637H129.273V69.9199Z" fill="#485959"/>
<path d="M143.121 117.835C141.052 117.835 139.503 119.704 139.677 121.988L142.865 163.622C143.04 165.906 144.876 167.775 146.945 167.775H165.959C168.028 167.775 169.825 165.903 169.953 163.615L171.108 142.928C171.236 140.641 170.951 136.943 170.474 134.713L167.737 121.89C167.261 119.659 165.178 117.834 163.109 117.834L143.121 117.835Z" fill="#485959"/>
<path d="M145.725 117.631C143.716 117.631 142.215 119.499 142.39 121.784L145.578 163.418C145.753 165.702 147.321 167.571 149.063 167.571C150.805 167.571 152.595 165.739 153.04 163.501L157.194 142.635C157.64 140.396 157.301 136.858 156.442 134.773L150.942 121.422C150.082 119.337 147.735 117.631 145.725 117.631Z" fill="#738086"/>
<path d="M163.844 187.02C165.715 188.478 169.116 189.671 171.403 189.671H198.802C201.088 189.671 202.959 187.597 202.959 185.064V183.456C202.959 180.923 201.131 178.41 198.896 177.873L171.308 171.245C169.073 170.708 165.374 170.269 163.087 170.269H146.507C144.221 170.269 143.88 171.461 145.75 172.919L163.844 187.02Z" fill="#738086"/>
<path d="M164.346 85.8694C164.604 84.5607 165.508 82.639 168.386 82.3732C171.264 82.1073 171.357 84.6834 171.098 85.1538C170.84 85.6242 170.047 86.6669 170.047 86.6669L167.334 87.3413L164.346 85.8694Z" fill="#FFF1AA"/>
<path d="M176.429 128.764L181.169 138.119L183.726 143.164L186.621 148.279C187.26 149.545 188.391 150.474 189.65 150.889C190.46 151.156 191.325 151.21 192.147 151.005L211.056 146.107C212.563 145.728 213.509 144.07 213.17 142.398C212.828 140.728 211.33 139.679 209.823 140.055L191.306 144.856L187.092 137.14L186.418 135.809L181.31 125.727C180.552 124.235 178.845 123.704 177.499 124.541C176.15 125.38 175.671 127.273 176.429 128.764Z" fill="#FFA68A"/>
<path d="M181.17 138.119L183.727 143.164L187.093 137.141L186.419 135.81L184.645 134.435L181.17 138.119Z" fill="#E5785C"/>
<path d="M181.556 125.64C182.561 127.557 187.01 136.947 187.01 136.947L180.389 141.795L175.466 133.338L181.556 125.64Z" fill="#FFE02C"/>
<path d="M182.354 167.059C182.354 167.059 182.414 166.944 182.478 166.791C182.499 166.948 182.354 167.059 182.354 167.059Z" fill="#FFE536"/>
<path d="M183.524 131.97C183.524 131.97 183.377 139.709 183.199 148.589C183.053 156.654 183.171 155.642 182.728 161.259C182.669 162.107 182.64 163.022 182.64 163.838C182.64 164.948 182.699 165.861 182.669 166.123C182.669 166.319 182.551 166.58 182.463 166.777C182.434 166.385 181.313 165.667 173.829 165.731C161.6 165.83 156.738 160.703 156.738 160.703L156.709 129.849C156.709 128.249 157.091 126.911 157.799 125.93L165.048 134.027L165.991 135.105L167.406 129.163L163.604 123.449C163.9 123.318 164.223 123.253 164.547 123.253H176.806C176.983 123.253 177.16 123.253 177.337 123.285C177.513 123.285 177.66 123.318 177.808 123.352C178.604 123.481 179.311 123.808 179.959 124.232C180.018 124.266 180.077 124.331 180.165 124.363C182.228 125.864 183.524 128.77 183.524 131.97Z" fill="#F5A838"/>
<path d="M183.525 131.97C183.525 131.97 183.377 139.709 183.2 148.589C183.053 156.654 183.171 155.642 182.729 161.259C182.67 162.107 182.641 163.022 182.641 163.838L165.048 134.027L165.992 135.104L167.406 129.163L163.604 123.449C163.9 123.318 164.223 123.252 164.548 123.252H176.806C176.983 123.252 177.16 123.252 177.337 123.284C177.513 123.284 177.66 123.318 177.808 123.351C178.604 123.481 179.311 123.808 179.959 124.232C180.018 124.265 180.077 124.331 180.166 124.362C182.229 125.864 183.525 128.771 183.525 131.97Z" fill="#FFE02C"/>
<path d="M182.787 161.193V162.238C182.787 162.272 182.787 162.272 182.787 162.303V176.703H156.709V160.964C156.738 160.77 156.738 160.639 156.738 160.54C156.738 160.932 165.225 161.422 165.225 161.422C166.079 161.096 166.61 160.574 166.61 159.823C166.61 154.892 166.521 146.957 166.61 141.832C166.669 139.383 166.639 140.46 166.639 139.286H181.726V161.422L182.787 161.193Z" fill="#177FBF"/>
<path d="M169.065 129.163L165.99 135.105L157.798 125.929C158.711 124.558 160.244 123.807 162.188 123.807C162.63 123.807 163.102 123.579 163.603 123.448L169.065 129.163Z" fill="#F7C52C"/>
<path d="M164.615 123.132C168.963 123.132 169.916 134.552 169.858 139.622L168.359 139.71L166.643 139.622C166.701 134.552 166.062 123.07 161.115 123.889C161.115 123.889 161.862 123.483 162.623 123.363C163.383 123.243 164.615 123.132 164.615 123.132Z" fill="#177FBF"/>
<path d="M174.424 123.981C174.72 124.1 174.994 124.289 175.251 124.533C177.942 127.096 178.613 135.933 178.567 139.951L180.43 139.789L181.72 139.951C181.769 135.81 181.141 127.073 178.543 124.006C178.314 123.739 178.073 123.516 177.816 123.342C177.41 123.066 176.965 122.915 176.477 122.915C176.477 122.915 175.307 122.787 174.547 122.906C174.519 122.912 174.49 122.917 174.464 122.92V123.635C174.465 123.637 174.468 123.776 174.424 123.981Z" fill="#177FBF"/>
<g opacity="0.5">
<path d="M169.917 144.012C169.917 144.012 169.917 145.448 169.917 147.201C169.917 148.956 171.245 150.39 172.869 150.391H175.968C177.592 150.391 178.921 148.956 178.921 147.202C178.921 145.448 178.921 144.013 178.921 144.013L169.917 144.012Z" fill="#27A3E0"/>
</g>
<path opacity="0.5" d="M173.933 124.246C173.933 124.602 173.484 125.812 174.512 124.958C174.699 124.801 174.951 124.659 175.252 124.533C176.112 124.169 177.359 123.95 178.544 124.007C179.039 124.03 179.525 124.101 179.967 124.232C179.32 123.794 178.597 123.486 177.816 123.344C177.41 123.067 176.966 122.916 176.477 122.916C176.477 122.916 175.308 122.789 174.547 122.908C174.519 122.914 174.491 122.919 174.465 122.922V123.241H173.789C173.864 123.807 173.933 124.246 173.933 124.246Z" fill="#E09F2B"/>
<path d="M178.921 142.704H169.917V144.692H178.921V142.704Z" fill="#16569B"/>
<path d="M209.174 148.634C216.468 145.683 221.072 139.32 219.458 134.421C217.843 129.523 210.622 127.945 203.328 130.896C196.034 133.847 191.43 140.211 193.044 145.109C194.658 150.007 201.88 151.585 209.174 148.634Z" stroke="#3C4949" stroke-width="10.7591" stroke-miterlimit="10" stroke-linecap="round" stroke-linejoin="round"/>
<path d="M161.503 95.8456C159.879 98.217 158.945 100.417 159.289 101.815C159.731 103.614 162.093 103.124 171.762 102.551C181.43 101.979 185.563 98.6538 183.57 93.0656C182.379 89.7245 161.503 95.8456 161.503 95.8456Z" fill="#D88916"/>
<path d="M160.576 102.44C161.008 109.104 162.495 110.905 164.845 110.905C166.773 110.905 168.371 107.955 168.301 107.266C168.232 106.577 167.541 102.518 166.988 102.288C166.435 102.057 160.576 102.44 160.576 102.44Z" fill="#8E3925"/>
<path d="M166.079 109.488C165.697 108.638 165.461 111.338 165.456 111.016C165.358 105.343 160.974 109.566 160.628 103.285C160.333 97.9294 160.291 97.8829 160.161 95.2809C159.902 90.1106 162.613 84.625 172.585 84.7105C178.137 84.7576 179.562 87.1468 180.813 90.2798C183.145 96.1156 181.262 103.612 181.262 103.612L166.079 109.488Z" fill="#8E3925"/>
<path d="M175.054 123.637C175.054 123.637 175.13 125.82 171.921 125.82C168.711 125.82 166.713 123.637 166.713 123.637V112.807L175.054 112.295V123.637Z" fill="#FFB287"/>
<path d="M175.054 121.32C172.869 121.615 166.772 120.748 166.772 119.157C166.772 117.566 166.713 110.507 166.713 110.507L175.054 110.57V121.32Z" fill="#E5785C"/>
<path d="M182.26 107.041C182.26 109.169 180.586 114.075 179.547 115.543C179.104 116.169 178.492 117.591 177.086 118.063C175.806 118.493 175.049 118.796 175.049 119.562C175.049 120.393 173.473 118.781 172.936 118.781C166.542 118.781 163.382 111.15 163.382 105.951L165.352 99.1313C165.352 93.44 168.761 89.349 173.723 89.3914C178.684 89.4339 182.679 93.1823 182.679 98.8737L182.26 107.041Z" fill="#E5785C"/>
<path d="M182.809 98.6525L182.744 100.913L182.706 102.199L182.567 107.047C182.378 113.016 181.168 118.531 174.626 118.472C168.096 118.423 166.346 109.663 166.523 103.984L166.833 99.0451C166.833 98.8387 166.833 98.6295 166.845 98.4332C166.978 91.0241 169.693 88.309 174.494 88.3096C180.489 88.3096 182.624 92.206 182.807 97.2265C182.824 97.694 182.824 98.1685 182.809 98.6525Z" fill="#FFB287"/>
<path d="M176.988 108.417C177.919 108.418 178.711 107.835 178.67 107.241C178.656 107.024 178.46 106.763 178.095 106.953C177.928 107.041 177.475 107.143 176.994 107.14C176.513 107.136 176.252 107.03 175.98 106.939C175.388 106.742 175.201 107 175.186 107.216C175.145 107.81 176.057 108.405 176.988 108.417Z" fill="#E5785C"/>
<path d="M166.618 103.465C166.753 105.586 165.78 107.408 164.444 107.534C163.107 107.66 161.914 106.043 161.779 103.922C161.643 101.801 162.388 100.149 163.711 99.8877C165.034 99.6265 166.482 101.344 166.618 103.465Z" fill="#E5785C"/>
<path d="M172.274 102.996C172.274 103.5 172.646 103.911 173.104 103.915C173.563 103.919 173.934 103.514 173.934 103.01C173.934 102.506 173.562 102.094 173.104 102.09C172.646 102.087 172.274 102.492 172.274 102.996Z" fill="#422B27" stroke="#422B27" stroke-width="1.1078" stroke-miterlimit="10"/>
<path d="M179.604 103.137C179.604 103.641 179.976 104.053 180.434 104.057C180.893 104.061 181.264 103.656 181.264 103.152C181.264 102.648 180.892 102.236 180.434 102.232C179.976 102.228 179.604 102.633 179.604 103.137Z" fill="#422B27" stroke="#422B27" stroke-width="1.1078" stroke-miterlimit="10"/>
<path d="M164.607 98.2718C164.607 95.0486 165.91 92.169 167.941 90.285C166.962 88.9375 166.607 86.9227 166.816 86.7376C167.161 86.431 171.643 82.7409 176.931 86.1304C180.552 88.4518 182.209 90.0097 181.589 91.6567C181.597 91.6756 181.606 91.6939 181.613 91.7127C181.603 91.7009 181.593 91.6886 181.582 91.6768C181.022 93.141 179.777 94.0913 178.671 94.0913C174.039 94.0913 174.138 91.0779 170.687 91.372C169.338 91.487 167.482 91.866 167.482 95.5997C167.482 99.65 166.693 104.442 166.669 104.444C165.585 104.522 165.571 103.742 165.571 103.742C165.571 101.598 165.281 100.397 164.05 99.7591L164.607 98.2718Z" fill="#8E3925"/>
<path d="M176.213 113.062H176.205C174.907 113.061 173.988 112.857 173.473 112.456C173.217 112.256 173.156 111.865 173.336 111.581C173.516 111.298 173.87 111.23 174.125 111.429C174.427 111.665 175.204 111.806 176.205 111.807C176.207 111.807 176.209 111.807 176.209 111.807C176.756 111.807 177.525 111.767 177.952 111.432C178.208 111.232 178.561 111.3 178.742 111.583C178.922 111.865 178.861 112.257 178.606 112.457C177.924 112.992 176.97 113.062 176.213 113.062Z" fill="#E5785C"/>
<path opacity="0.6" d="M182.819 97.963C182.819 97.94 182.819 97.917 182.819 97.894C182.802 92.5569 180.752 88.3086 174.493 88.3086C169.692 88.3086 167.474 92.8487 167.101 100.534C167.182 99.4438 168.899 99.05 171.16 98.6527C180.619 98.0815 182.584 101.757 182.584 101.757L182.781 99.6047L182.81 98.6533C182.816 98.421 182.819 98.1911 182.819 97.963Z" fill="#C67560"/>
<path d="M160.539 101.855C160.539 102.318 159.896 101.499 159.788 101.136C159.635 100.622 159.419 100.142 159.755 99.7488C159.935 99.5396 164.285 94.6187 176.044 94.6187C181.184 94.6187 182.713 95.1498 183.202 96.9087C183.688 98.6548 182.717 100.139 182.76 99.8526C182.834 99.3622 182.907 98.2581 182.501 97.6857C182.494 97.6762 181.998 96.5816 176.043 96.5816C165.038 96.581 161.078 101.055 161.04 101.1C160.866 101.303 160.507 101.606 160.539 101.855Z" fill="#754559"/>
<path d="M183.243 95.1917C182.821 94.8351 182.393 94.7667 181.519 94.7797C181.2 94.7826 180.819 94.7991 180.359 94.8156C179.742 94.8386 178.977 94.8616 178.018 94.8616C173.911 94.8616 169.717 95.5254 166.343 96.6607C162.93 97.8019 160.359 99.7289 159.473 101.407C159.207 101.622 158.906 99.5191 158.75 97.3339C158.7 96.6141 158.664 95.8849 158.653 95.2241C158.644 95.0768 158.644 94.9359 158.644 94.7956C158.644 93.7487 158.762 92.7089 158.995 91.7079C159.875 88.0184 162.402 84.7899 166.847 83.2555C167.352 83.0786 167.88 82.9254 168.432 82.7974C168.739 82.7255 169.055 82.6601 169.38 82.6047C169.403 82.6047 169.427 82.5882 169.427 82.5882C170.079 82.4803 170.744 82.4019 171.449 82.3465C171.488 82.343 171.526 82.34 171.567 82.3365C171.833 82.32 172.087 82.3105 172.344 82.3105C173.923 82.2876 174.679 82.3724 175.883 82.8175C176.695 83.1175 177.178 83.8379 177.261 83.8803C180.349 85.13 181.725 86.9096 182.691 89.3371C183.893 92.3328 183.795 95.1428 183.243 95.1917Z" fill="#F7C52C"/>
<path d="M181.509 89.3365C180.543 86.9078 178.237 83.9681 175.371 82.5793C175.29 82.5386 175.204 82.5074 175.119 82.4756C173.918 82.0211 172.363 82.1054 170.784 82.1278C170.528 82.1278 170.272 82.1372 170.008 82.1549C169.454 82.195 168.898 82.2993 168.385 82.373C168.901 82.4343 169.411 82.6412 169.638 82.7461C171.536 83.6233 173.104 86.3714 173.901 88.3762C175.181 91.5676 175.046 94.7337 174.458 94.7861L176.836 94.8598C180.461 94.8598 181.277 94.5268 182.06 95.1929C182.613 95.144 182.71 92.3328 181.509 89.3365Z" fill="#FFE02C"/>
<path d="M159.289 101.76C160.044 99.8935 162.928 97.8021 166.342 96.6597C169.715 95.5261 173.908 94.8606 178.017 94.8606C181.642 94.8606 182.458 94.5276 183.242 95.1937C183.794 95.1441 183.891 92.3329 182.689 89.3372C181.723 86.908 180.423 85.1302 177.334 83.8799C179.956 85.6748 180.519 90.5881 180.581 92.0842C180.605 92.6837 177.592 92.1661 168.698 94.5783C161.614 96.4999 157.813 99.4161 159.289 101.76Z" fill="#F7C52C"/>
<path d="M189.105 93.6939C189.105 93.6939 184.518 94.8452 183.053 95.2737C183.053 95.2737 182.711 94.989 181.651 94.7243C180.748 94.5021 179.324 94.2923 177.149 94.2923C175.886 94.2923 173.97 94.6554 172.204 95.0674C169.887 95.6038 167.826 96.2287 167.826 96.2287L167.652 94.92C167.652 94.92 168.951 93.9291 172.205 93.072C174.398 92.4932 177.48 91.9733 181.651 91.8619C182.198 91.8454 182.764 91.8389 183.349 91.8389C187.199 91.8389 188.781 92.1236 189.07 92.5356C189.199 92.7189 189.105 93.6939 189.105 93.6939Z" fill="#FFE536"/>
<path d="M183.35 92.8203C171.689 92.8197 167.704 96.2546 167.704 96.2546C167.704 96.2546 172.428 95.2731 177.151 95.2737C181.874 95.2737 183.055 96.2552 183.055 96.2552C185.86 95.437 195.011 92.8209 183.35 92.8203Z" fill="#D88916"/>
<path d="M165.051 103.337C165.144 105.222 164.48 106.841 163.569 106.953C162.657 107.065 161.843 105.628 161.75 103.743C161.657 101.858 162.165 100.391 163.067 100.158C163.97 99.9255 164.958 101.452 165.051 103.337Z" fill="#E5785C"/>
<path d="M223.516 226.309C220.926 226.309 218.552 224.403 217.835 221.501L208.892 185.29H182.817C179.563 185.29 176.924 182.366 176.924 178.76C176.924 175.153 179.563 172.229 182.817 172.229H213.39C216.046 172.229 218.373 174.198 219.075 177.036L229.204 218.053C230.063 221.532 228.215 225.124 225.075 226.076C224.554 226.234 224.031 226.309 223.516 226.309Z" fill="#16569B"/>
<path d="M209.308 212.389C209.308 214.806 207.068 215.492 204.358 216.308C203.827 216.471 203.326 216.536 202.796 216.536C200.497 216.536 198.877 217.287 198.022 215.393C197.933 215.165 197.846 214.904 197.757 214.577L190.479 185.29H164.399C161.158 185.29 158.506 182.351 158.506 178.76C158.506 175.168 161.158 172.229 164.399 172.229H194.957C197.639 172.229 199.938 174.189 200.645 177.028L209.131 211.117C209.25 211.573 209.308 211.998 209.308 212.389Z" fill="#16569B"/>
<path d="M209.309 212.389C209.309 213.532 208.808 214.283 207.983 214.838C207.07 215.492 205.773 215.884 204.359 216.308C203.828 216.471 203.327 216.536 202.797 216.536C202.031 216.536 201.353 216.602 200.734 216.635C199.496 216.732 198.583 216.667 198.022 215.393V215.296C198.022 214.644 198.406 214.056 200.027 213.402C200.763 213.075 201.824 212.716 203.208 212.292C204.829 211.803 206.096 211.51 207.039 211.411C208.543 211.214 209.25 211.509 209.309 212.389Z" fill="#1D4366"/>
<path d="M159.244 130.327L163.245 138.12L165.802 143.165L168.697 148.28C169.336 149.546 170.467 150.475 171.726 150.89C172.536 151.157 173.401 151.211 174.223 151.007L193.132 146.109C194.639 145.729 195.585 144.072 195.246 142.4C194.904 140.73 193.406 139.68 191.899 140.057L173.382 144.857L169.169 137.141L168.494 135.81L164.126 127.29C163.368 125.798 161.661 125.268 160.315 126.104C158.965 126.943 158.487 128.835 159.244 130.327Z" fill="#FFA68A"/>
<path d="M164.868 128.637C165.89 130.587 170.913 140.185 170.913 140.185L164.175 145.121L159.166 136.514C159.166 136.514 153.747 127.636 159.183 124.519C162.167 122.808 164.868 128.637 164.868 128.637Z" fill="#FFE02C"/>
<path d="M182.788 167.886V176.702H156.709V160.546L162.346 161.253L164.216 170.8L182.788 167.886Z" fill="#16569B"/>
<path d="M214.789 221.075L202.884 223.753C201.881 224.079 200.85 221.434 200.555 219.181C200.526 218.952 200.496 218.757 200.496 218.529C200.496 218.495 200.467 218.495 200.437 218.463L199.966 216.046C199.73 215.165 199.612 214.218 199.494 213.598C200.231 213.271 201.822 212.716 203.207 212.292C204.828 211.803 206.095 211.509 207.038 211.41C207.539 211.247 207.863 212.161 208.04 212.912C208.158 213.401 208.217 213.794 208.217 213.794C213.433 212.096 216.29 214.48 216.792 215.753C217.293 217.025 217.529 218.234 217.529 218.234C218 219.965 216.321 220.552 214.789 221.075Z" fill="#5E3A32"/>
<path d="M208.04 212.912C204.032 213.631 202.117 216.34 200.555 219.181C200.526 218.952 200.496 218.757 200.496 218.529C200.496 218.495 200.467 218.495 200.437 218.463L199.966 216.046C199.73 215.164 199.612 214.218 199.494 213.598C200.231 213.271 201.822 212.716 203.207 212.292C204.828 211.803 206.552 211.407 207.495 211.308C207.587 211.665 207.863 212.161 208.04 212.912Z" fill="#3D2723"/>
<path d="M217.396 218.4C217.853 220.123 216.103 220.658 214.548 221.164L203.399 224.573C201.844 225.079 200.793 221.719 202.348 221.213L211.226 218.4C212.781 217.893 216.863 216.438 217.319 218.161L217.396 218.4Z" fill="#3D2723"/>
<path d="M205.931 225.083C205.289 225.083 204.699 224.615 204.514 223.896C204.292 223.029 204.747 222.126 205.529 221.88L212.988 219.533C213.771 219.286 214.586 219.79 214.808 220.657C215.03 221.524 214.576 222.427 213.794 222.674L206.334 225.02C206.2 225.063 206.064 225.083 205.931 225.083Z" fill="#343A3D"/>
<path d="M213.389 234.369C212.754 234.369 212.167 233.909 211.977 233.2L209.215 222.895C208.983 222.031 209.428 221.122 210.208 220.865C210.988 220.608 211.808 221.101 212.04 221.965L214.802 232.271C215.033 233.135 214.589 234.044 213.809 234.3C213.669 234.347 213.528 234.369 213.389 234.369Z" fill="#343A3D"/>
<path d="M166.864 187.191H143.844V200.063H166.864V187.191Z" fill="#21211F"/>
<path d="M247.03 191.82C246.248 191.82 245.468 191.477 244.889 190.798L206.581 145.903C205.463 144.592 205.515 142.526 206.698 141.287C207.882 140.048 209.746 140.106 210.863 141.417L249.171 186.312C250.29 187.622 250.237 189.689 249.055 190.927C248.485 191.524 247.757 191.82 247.03 191.82Z" fill="#3C4949"/>
<path d="M229.404 230.131C228.312 230.504 227.088 229.84 226.685 228.654L209.177 177.191C208.774 176.005 209.021 174.219 209.725 173.221L216.928 163.025C217.633 162.027 218.782 162.031 219.482 163.032L231.471 180.197C232.17 181.199 232.844 183.049 232.967 184.308L236.96 225.182C237.083 226.441 236.29 227.777 235.197 228.15L229.404 230.131Z" fill="#3B3F42"/>
<path d="M316.465 210.053H229.982V244.204H316.465V210.053Z" fill="#738086"/>
<path opacity="0.5" d="M314.67 244.103H300.525L293.624 210.181H307.769L314.67 244.103Z" fill="#3B3F42"/>
<path opacity="0.5" d="M268.095 243.975H253.949L247.049 210.053H261.194L268.095 243.975Z" fill="#3B3F42"/>
<path d="M272.055 46.7637H254.711V309.466H272.055V46.7637Z" fill="#3B3F42"/>
<path d="M114.825 238.695C114.825 245.03 119.503 250.212 125.219 250.212H170.282C175.999 250.212 180.676 245.03 180.676 238.695V207.386C180.676 201.051 175.999 195.869 170.282 195.869H125.219C119.503 195.869 114.825 201.051 114.825 207.386V238.695Z" fill="#3C4949"/>
<path d="M156.533 259.708C157.073 261.512 158.919 262.987 160.634 262.987H232.247C233.962 262.987 235.198 261.443 234.992 259.557L232.39 235.67C232.185 233.784 231.692 230.728 231.295 228.879L226.599 206.999C226.202 205.15 225.123 204.948 224.201 206.55L211.089 229.327C210.166 230.929 208.009 232.24 206.293 232.24H151.426C149.71 232.24 148.749 233.715 149.289 235.519L156.533 259.708Z" fill="#3C4949"/>
<path d="M109.923 190.148H127.201C131.811 190.148 138.407 194.384 141.871 199.568L177.587 258.792L178.829 260.841C182.292 266.024 171.294 260.122 166.684 260.122L135.219 265.871C134.005 263.241 132.625 260.856 131.079 258.792C127.754 254.28 123.71 251.238 119.294 250.214C118.204 249.938 117.085 249.816 115.954 249.816H101.602L101.561 204.447C101.56 196.586 105.314 190.148 109.923 190.148Z" fill="#FFC943"/>
<path d="M237.695 249.44C235.056 249.44 232.796 247.221 232.53 244.249C232.491 243.815 228.554 200.317 221.351 157.436C207.884 77.2797 196.036 74.9654 194.73 74.9654C191.859 74.9654 189.532 72.387 189.532 69.2068C189.532 66.0266 191.859 63.4482 194.73 63.4482C203.636 63.4482 210.989 73.3214 217.871 94.5194C222.664 109.282 227.276 129.762 231.58 155.391C238.86 198.749 242.834 242.674 242.873 243.113C243.156 246.278 241.071 249.098 238.215 249.412C238.041 249.43 237.867 249.44 237.695 249.44Z" fill="#738086"/>
<path d="M230.337 249.44C227.697 249.44 225.437 247.221 225.171 244.249C225.132 243.815 221.196 200.317 213.992 157.436C200.525 77.2797 188.678 74.9654 187.371 74.9654H118.731C115.86 74.9654 113.533 72.387 113.533 69.2068C113.533 66.0266 115.86 63.4482 118.731 63.4482H187.371C196.277 63.4482 203.63 73.3214 210.512 94.5194C215.305 109.282 219.917 129.762 224.221 155.391C231.502 198.749 235.475 242.674 235.515 243.113C235.798 246.278 233.712 249.098 230.856 249.412C230.682 249.43 230.508 249.44 230.337 249.44Z" fill="#3C4949"/>
<path d="M141.025 185.064C141.025 187.597 142.896 189.671 145.183 189.671H172.581C174.868 189.671 176.739 187.597 176.739 185.064V183.456C176.739 180.923 174.91 178.41 172.675 177.873L145.088 171.245C142.853 170.708 141.024 172.342 141.024 174.875V185.064H141.025Z" fill="#3C4949"/>
<path d="M129.273 71.3511H118.233V95.6628H129.273V71.3511Z" fill="#3C4949"/>
<path d="M140.896 117.631C138.887 117.631 137.386 119.499 137.561 121.784L140.748 163.418C140.923 165.702 142.491 167.571 144.233 167.571C145.975 167.571 147.765 165.739 148.21 163.501L152.364 142.635C152.81 140.396 152.472 136.858 151.612 134.773L146.112 121.422C145.253 119.337 142.906 117.631 140.896 117.631Z" fill="#3C4949"/>
<path d="M123.72 258.791C125.266 260.855 126.646 263.241 127.86 265.871C130.799 272.278 132.662 280.199 132.98 288.823H218.97C218.942 288.089 218.942 287.37 218.942 286.636C218.942 261.681 230.769 267.216 245.384 267.216C245.632 267.216 245.867 267.232 246.115 267.246V241.634H221.275L206.633 258.791H123.72Z" fill="#F5A838"/>
<path d="M102.563 190.148H119.841C124.45 190.148 131.047 194.384 134.511 199.568L170.226 258.792L171.468 260.841C174.932 266.024 163.934 260.122 159.324 260.122L127.859 265.871C126.644 263.241 125.264 260.856 123.719 258.792C120.393 254.28 116.35 251.238 111.933 250.214C110.843 249.938 109.725 249.816 108.594 249.816H94.2417L94.2002 204.447C94.1997 196.586 97.9535 190.148 102.563 190.148Z" fill="#F5A838"/>
<path d="M199.443 291.888C200.197 268.408 209.087 246.347 220.488 243.222C221.576 242.901 222.698 242.749 223.828 242.749H246.198V288.829L199.443 291.888Z" fill="#8C6320"/>
<path d="M199.263 291.708C196.967 291.708 195.105 289.645 195.105 287.101V280.248C195.105 280.184 195.107 280.119 195.109 280.054C195.948 257.916 205.946 240.276 219.427 237.134C220.489 236.867 221.604 236.708 222.833 236.647C223.106 236.63 223.388 236.628 223.648 236.628H229.293C231.59 236.628 233.451 238.691 233.451 241.235C233.451 243.779 231.59 245.841 229.293 245.841H223.648C223.537 245.841 223.419 245.838 223.305 245.847C223.277 245.848 223.249 245.85 223.222 245.851C222.477 245.886 221.832 245.976 221.25 246.124C221.221 246.131 221.193 246.139 221.164 246.145C211.722 248.323 204.104 263.018 203.421 280.346V287.1C203.421 289.645 201.56 291.708 199.263 291.708Z" fill="#3B3F42"/>
<path d="M244.468 245.841H229.295C226.999 245.841 225.138 243.779 225.138 241.235C225.138 238.691 226.999 236.628 229.295 236.628H244.468C246.765 236.628 248.626 238.691 248.626 241.235C248.626 243.779 246.765 245.841 244.468 245.841Z" fill="#485959"/>
<path d="M251.027 245.841H244.467C242.171 245.841 240.31 243.779 240.31 241.235C240.31 238.691 242.171 236.628 244.467 236.628H251.027C253.323 236.628 255.185 238.691 255.185 241.235C255.185 243.779 253.323 245.841 251.027 245.841Z" fill="#3C4949"/>
<path d="M243.811 251.427C244.054 251.427 244.305 251.441 244.548 251.456C255.589 252.114 264.42 267.602 264.42 286.637C264.42 306.086 255.195 321.861 243.811 321.861H227.596V251.456L243.811 251.427Z" fill="#333332"/>
<path d="M227.597 315.526C220.064 315.526 213.258 303.183 212.734 288.573C212.709 287.848 212.697 287.211 212.697 286.637C212.697 271.255 219.66 257.762 227.598 257.762C227.739 257.762 227.883 257.772 228.024 257.781C235.013 258.197 242.49 269.892 242.49 286.637C242.49 302.027 235.531 315.526 227.597 315.526Z" fill="#BCBDBF"/>
<path d="M227.553 264.097C227.606 264.099 227.66 264.103 227.72 264.106C229.163 264.192 231.129 266.07 232.726 268.89C235.297 273.429 236.772 279.897 236.772 286.637C236.772 293.526 235.243 300.092 232.576 304.651C230.963 307.409 229.008 309.191 227.597 309.191C224.745 309.191 218.93 301.825 218.446 288.339C218.423 287.686 218.413 287.129 218.413 286.637C218.413 279.75 219.942 273.189 222.61 268.635C224.208 265.906 226.142 264.133 227.553 264.097ZM227.597 251.427C216.213 251.427 206.979 267.187 206.979 286.637C206.979 287.366 206.996 288.096 207.022 288.825C207.683 307.259 216.64 321.861 227.597 321.861C238.981 321.861 248.206 306.086 248.206 286.637C248.206 267.602 239.375 252.114 228.334 251.456C228.091 251.441 227.84 251.427 227.597 251.427Z" fill="#21211F"/>
<path d="M223.082 95.6442H235.228C236.522 95.6442 237.581 93.8357 237.581 91.6252V70.644C237.581 68.4335 236.522 66.625 235.228 66.625H223.082V95.6442Z" fill="#FF573B"/>
<path d="M272.055 46.7637H251.362V58.6811H272.055V46.7637Z" fill="#3B3F42"/>
<path d="M271.313 121.1C270.994 121.1 270.673 120.999 270.388 120.788L265.587 117.234C264.821 116.667 264.615 115.52 265.127 114.67C265.639 113.821 266.674 113.593 267.441 114.16L272.242 117.713C273.008 118.28 273.214 119.428 272.702 120.277C272.38 120.811 271.852 121.1 271.313 121.1Z" fill="#F5A838"/>
<path d="M271.313 112.937C270.994 112.937 270.673 112.836 270.388 112.625L265.587 109.072C264.821 108.505 264.615 107.357 265.127 106.508C265.639 105.659 266.674 105.43 267.441 105.997L272.242 109.551C273.008 110.118 273.214 111.265 272.702 112.115C272.38 112.648 271.852 112.937 271.313 112.937Z" fill="#F5A838"/>
<path d="M271.313 104.774C270.994 104.774 270.673 104.673 270.388 104.462L265.587 100.909C264.821 100.342 264.615 99.1933 265.127 98.3445C265.639 97.4956 266.674 97.2669 267.441 97.834L272.242 101.387C273.008 101.954 273.214 103.102 272.702 103.952C272.38 104.486 271.852 104.774 271.313 104.774Z" fill="#F5A838"/>
<path d="M271.313 96.6116C270.994 96.6116 270.673 96.5108 270.388 96.2998L265.587 92.7464C264.821 92.1793 264.615 91.0316 265.127 90.1822C265.639 89.334 266.674 89.1046 267.441 89.6717L272.242 93.2251C273.008 93.7921 273.214 94.9398 272.702 95.7893C272.38 96.3228 271.852 96.6116 271.313 96.6116Z" fill="#F5A838"/>
<path d="M271.313 88.4485C270.994 88.4485 270.673 88.3477 270.388 88.1367L265.587 84.5833C264.821 84.0163 264.615 82.8686 265.127 82.0191C265.639 81.1709 266.674 80.9416 267.441 81.5086L272.242 85.062C273.008 85.6291 273.214 86.7768 272.702 87.6262C272.38 88.1603 271.852 88.4485 271.313 88.4485Z" fill="#F5A838"/>
<path d="M333.645 46.7637H316.302V309.466H333.645V46.7637Z" fill="#738086"/>
<path d="M324.508 46.7637H307.164V309.466H324.508V46.7637Z" fill="#3B3F42"/>
<path d="M324.508 46.7637H303.815V58.6811H324.508V46.7637Z" fill="#3B3F42"/>
<path d="M222.217 95.6442H225.223C226.516 95.6442 227.575 93.8357 227.575 91.6252V70.644C227.575 68.4335 226.516 66.625 225.223 66.625H222.217V95.6442Z" fill="#D33131"/>
<path d="M223.014 66.625H217.438C216.057 66.625 214.927 68.5555 214.927 70.9152V91.413C214.927 93.7726 216.057 95.7032 217.438 95.7032H223.014V66.625Z" fill="#3B3F42"/>
<path d="M286.726 179.2H268.44V196.02H286.726V179.2Z" fill="#3B3F42"/>
<path d="M333.648 179.2H315.362V196.02H333.648V179.2Z" fill="#3B3F42"/>
<path opacity="0.5" d="M333.648 223.29H315.362V258.842H333.648V223.29Z" fill="#3B3F42"/>
<path d="M256.202 247.118C256.202 255.528 262.412 262.409 270.002 262.409H342.684C350.274 262.409 356.484 255.528 356.484 247.118V197.169C356.484 188.759 350.274 181.878 342.684 181.877H270.003C262.413 181.877 256.202 188.758 256.202 197.169V247.118Z" stroke="#485959" stroke-width="19.5382" stroke-miterlimit="10" stroke-linecap="round" stroke-linejoin="round"/>
<path d="M356.486 225.098H256.203C253.333 225.098 251.006 222.519 251.006 219.339C251.006 216.159 253.333 213.581 256.203 213.581H356.486C359.356 213.581 361.683 216.159 361.683 219.339C361.683 222.519 359.356 225.098 356.486 225.098Z" fill="#485959"/>
<path d="M349.714 200.23H337.189V273.133H349.714V200.23Z" fill="#FED500"/>
<path d="M337.293 200.23H327.528V273.133H337.293V200.23Z" fill="#F5A838"/>
<path d="M427.547 264.098H327.528V273.133H427.547V264.098Z" fill="#F5A838"/>
<path d="M337.293 200.23H319.168V213.606H337.293V200.23Z" fill="#F5A838"/>
<path d="M298.997 200.23H286.473V273.133H298.997V200.23Z" fill="#FED500"/>
<path d="M286.576 200.23H276.812V273.133H286.576V200.23Z" fill="#F5A838"/>
<path d="M376.83 264.098H276.812V273.133H376.83V264.098Z" fill="#F5A838"/>
<path d="M286.576 200.23H268.451V213.606H286.576V200.23Z" fill="#F5A838"/>
<path d="M104.242 219.708C104.242 225.824 107.146 230.785 110.726 230.785C114.171 230.785 116.985 226.194 117.193 220.396C117.201 220.167 117.207 219.938 117.207 219.708C117.207 213.592 114.306 208.636 110.726 208.636C110.673 208.636 110.618 208.636 110.565 208.64C107.059 208.785 104.242 213.682 104.242 219.708Z" fill="#8D7120"/>
<path d="M461.344 38.5288H402.31V123.199H461.344V38.5288Z" fill="#FFD18D"/>
<path d="M405.895 38.5264H352.746V123.197H405.895V38.5264Z" fill="#D88850"/>
<g opacity="0.5">
<path d="M461.357 79.8633H352.847V81.5551H461.357V79.8633Z" fill="#C9804F"/>
</g>
<path d="M436.044 38.5264H429.446V47.1651H436.044V38.5264Z" fill="#A58258"/>
<path opacity="0.8" d="M361.68 71.1978H355.514V77.4144H361.68V71.1978Z" fill="#C2D8EF"/>
<g opacity="0.2">
<path d="M393.039 71.1978H382.749V77.4144H393.039V71.1978Z" fill="#333332"/>
</g>
<g opacity="0.2">
<path d="M399.787 71.1978H394.489V77.4144H399.787V71.1978Z" fill="#333332"/>
</g>
<g opacity="0.2">
<path d="M393.039 114.097H382.749V120.314H393.039V114.097Z" fill="#333332"/>
</g>
<g opacity="0.2">
<path d="M399.787 114.097H394.489V120.314H399.787V114.097Z" fill="#333332"/>
</g>
<path opacity="0.8" d="M361.68 114.447H355.514V120.664H361.68V114.447Z" fill="#C2D8EF"/>
<path d="M436.634 79.9258H430.037V88.5645H436.634V79.9258Z" fill="#A58258"/>
<path d="M359.023 38.5264H296.599V123.197H359.023V38.5264Z" fill="#BA6145"/>
<path d="M303.575 38.5264H262.014V123.197H303.575V38.5264Z" fill="#D88850"/>
<g opacity="0.5">
<path d="M359.038 79.8633H262.116V81.5551H359.038V79.8633Z" fill="#C9804F"/>
</g>
<path d="M338.485 38.5264H331.888V46.5008H338.485V38.5264Z" fill="#A86951"/>
<g opacity="0.3">
<path d="M287.33 71.1978H282.032V77.4144H287.33V71.1978Z" fill="#333332"/>
</g>
<g opacity="0.3">
<path d="M294.079 71.1978H288.781V77.4144H294.079V71.1978Z" fill="#333332"/>
</g>
<g opacity="0.3">
<path d="M300.616 71.1978H295.318V77.4144H300.616V71.1978Z" fill="#333332"/>
</g>
<g opacity="0.3">
<path d="M287.33 114.097H282.032V120.314H287.33V114.097Z" fill="#333332"/>
</g>
<g opacity="0.3">
<path d="M294.079 114.097H288.781V120.314H294.079V114.097Z" fill="#333332"/>
</g>
<g opacity="0.3">
<path d="M300.616 114.097H295.318V120.314H300.616V114.097Z" fill="#333332"/>
</g>
<path d="M339.075 79.9292H332.478V89.9049H339.075V79.9292Z" fill="#A86951"/>
<path d="M404.16 38.5264H341.735V123.197H404.16V38.5264Z" fill="#FFD18D"/>
<path d="M348.711 38.5264H307.15V123.197H348.711V38.5264Z" fill="#D88850"/>
<g opacity="0.5">
<path d="M404.173 79.8633H307.251V81.5551H404.173V79.8633Z" fill="#C9804F"/>
</g>
<path d="M378.694 38.5264H372.097V47.1657H378.694V38.5264Z" fill="#A58258"/>
<g opacity="0.3">
<path d="M332.467 71.1978H327.169V77.4144H332.467V71.1978Z" fill="#333332"/>
</g>
<g opacity="0.3">
<path d="M339.216 71.1978H333.918V77.4144H339.216V71.1978Z" fill="#333332"/>
</g>
<g opacity="0.3">
<path d="M345.753 71.1978H340.455V77.4144H345.753V71.1978Z" fill="#333332"/>
</g>
<g opacity="0.3">
<path d="M332.467 114.097H327.169V120.314H332.467V114.097Z" fill="#333332"/>
</g>
<g opacity="0.3">
<path d="M339.216 114.097H333.918V120.314H339.216V114.097Z" fill="#333332"/>
</g>
<g opacity="0.3">
<path d="M345.753 114.097H340.455V120.314H345.753V114.097Z" fill="#333332"/>
</g>
<path d="M378.694 79.9258H372.097V88.5645H378.694V79.9258Z" fill="#A58258"/>
<path d="M461.344 122.574H402.31V250.079H461.344V122.574Z" fill="#FFD18D"/>
<path d="M405.895 122.575H352.746V250.077H405.895V122.575Z" fill="#D88850"/>
<g opacity="0.5">
<path d="M461.343 164.236H352.847V165.928H461.343V164.236Z" fill="#C9804F"/>
</g>
<g opacity="0.5">
<path d="M461.357 206.744H352.847V208.436H461.357V206.744Z" fill="#C9804F"/>
</g>
<path d="M436.044 164.291H429.446V172.93H436.044V164.291Z" fill="#A58258"/>
<path opacity="0.8" d="M361.68 198.079H355.514V204.295H361.68V198.079Z" fill="#C2D8EF"/>
<g opacity="0.2">
<path d="M393.039 198.079H382.749V204.295H393.039V198.079Z" fill="#333332"/>
</g>
<g opacity="0.2">
<path d="M399.787 198.079H394.489V204.295H399.787V198.079Z" fill="#333332"/>
</g>
<g opacity="0.2">
<path d="M393.039 155.063H382.749V161.28H393.039V155.063Z" fill="#333332"/>
</g>
<g opacity="0.2">
<path d="M399.787 155.063H394.489V161.28H399.787V155.063Z" fill="#333332"/>
</g>
<g opacity="0.2">
<path d="M393.039 240.977H382.749V247.194H393.039V240.977Z" fill="#333332"/>
</g>
<g opacity="0.2">
<path d="M399.787 240.977H394.489V247.194H399.787V240.977Z" fill="#333332"/>
</g>
<path opacity="0.8" d="M361.68 241.328H355.514V247.545H361.68V241.328Z" fill="#C2D8EF"/>
<path opacity="0.8" d="M361.68 155.531H355.514V161.747H361.68V155.531Z" fill="#C2D8EF"/>
<path d="M436.634 206.806H430.037V215.445H436.634V206.806Z" fill="#A58258"/>
<path d="M359.023 122.575H296.599V250.077H359.023V122.575Z" fill="#BA6145"/>
<path d="M303.575 122.575H262.014V250.077H303.575V122.575Z" fill="#D88850"/>
<g opacity="0.5">
<path d="M359.025 164.236H262.116V165.928H359.025V164.236Z" fill="#C9804F"/>
</g>
<g opacity="0.5">
<path d="M359.038 206.744H262.116V208.436H359.038V206.744Z" fill="#C9804F"/>
</g>
<path d="M338.485 164.335H331.888V172.309H338.485V164.335Z" fill="#A86951"/>
<g opacity="0.3">
<path d="M287.33 198.079H282.032V204.296H287.33V198.079Z" fill="#333332"/>
</g>
<g opacity="0.3">
<path d="M294.079 198.079H288.781V204.295H294.079V198.079Z" fill="#333332"/>
</g>
<g opacity="0.3">
<path d="M300.616 198.079H295.318V204.296H300.616V198.079Z" fill="#333332"/>
</g>
<g opacity="0.3">
<path d="M287.33 155.063H282.032V161.28H287.33V155.063Z" fill="#333332"/>
</g>
<g opacity="0.3">
<path d="M294.079 155.063H288.781V161.28H294.079V155.063Z" fill="#333332"/>
</g>
<g opacity="0.3">
<path d="M300.616 155.063H295.318V161.28H300.616V155.063Z" fill="#333332"/>
</g>
<g opacity="0.3">
<path d="M287.33 240.977H282.032V247.194H287.33V240.977Z" fill="#333332"/>
</g>
<g opacity="0.3">
<path d="M294.079 240.977H288.781V247.194H294.079V240.977Z" fill="#333332"/>
</g>
<g opacity="0.3">
<path d="M300.616 240.977H295.318V247.194H300.616V240.977Z" fill="#333332"/>
</g>
<path d="M339.075 122.575H332.478V129.332H339.075V122.575Z" fill="#A86951"/>
<path d="M339.075 206.81H332.478V216.786H339.075V206.81Z" fill="#A86951"/>
<path d="M404.16 122.575H341.735V250.077H404.16V122.575Z" fill="#FFD18D"/>
<path d="M348.711 122.575H307.15V250.077H348.711V122.575Z" fill="#D88850"/>
<g opacity="0.5">
<path d="M404.159 164.236H307.251V165.928H404.159V164.236Z" fill="#C9804F"/>
</g>
<g opacity="0.5">
<path d="M404.173 206.744H307.251V208.436H404.173V206.744Z" fill="#C9804F"/>
</g>
<path d="M378.694 164.291H372.097V172.93H378.694V164.291Z" fill="#A58258"/>
<g opacity="0.3">
<path d="M332.467 198.079H327.169V204.296H332.467V198.079Z" fill="#333332"/>
</g>
<g opacity="0.3">
<path d="M339.216 198.079H333.918V204.296H339.216V198.079Z" fill="#333332"/>
</g>
<g opacity="0.3">
<path d="M345.753 198.079H340.455V204.295H345.753V198.079Z" fill="#333332"/>
</g>
<g opacity="0.3">
<path d="M332.467 155.063H327.169V161.28H332.467V155.063Z" fill="#333332"/>
</g>
<g opacity="0.3">
<path d="M339.216 155.063H333.918V161.28H339.216V155.063Z" fill="#333332"/>
</g>
<g opacity="0.3">
<path d="M345.753 155.063H340.455V161.28H345.753V155.063Z" fill="#333332"/>
</g>
<g opacity="0.3">
<path d="M332.467 240.977H327.169V247.194H332.467V240.977Z" fill="#333332"/>
</g>
<g opacity="0.3">
<path d="M339.216 240.977H333.918V247.194H339.216V240.977Z" fill="#333332"/>
</g>
<g opacity="0.3">
<path d="M345.753 240.977H340.455V247.194H345.753V240.977Z" fill="#333332"/>
</g>
<path d="M379.734 206.806H373.137V215.445H379.734V206.806Z" fill="#A58258"/>
<g opacity="0.5">
<path d="M461.343 122.56H261.982V124.252H461.343V122.56Z" fill="#C9804F"/>
</g>
<path d="M436.634 122.594H430.037V131.232H436.634V122.594Z" fill="#A58258"/>
<path d="M378.694 122.594H372.097V131.232H378.694V122.594Z" fill="#A58258"/>
<path d="M476.383 249.94H456.448V256.774H476.383V249.94Z" fill="#FFCE78"/>
<path d="M456.743 249.94H336.565V256.983H456.743V249.94Z" fill="#CC865E"/>
<path d="M431.998 256.774H447.086L451.933 249.94H447.096L431.998 256.774Z" fill="#72504C"/>
<path d="M403.519 256.774H418.607L423.453 249.94H418.513L403.519 256.774Z" fill="#72504C"/>
<path d="M373.789 256.774H388.877L393.724 249.94H389.266L373.789 256.774Z" fill="#72504C"/>
<path d="M344.743 256.774H359.831L364.678 249.94H360.221L344.743 256.774Z" fill="#72504C"/>
<path d="M418.236 249.94H398.302V256.774H418.236V249.94Z" fill="#FFCE78"/>
<path d="M447.309 249.94H427.374V256.774H447.309V249.94Z" fill="#FFCE78"/>
<path d="M389.163 249.94H369.228V256.774H389.163V249.94Z" fill="#FFCE78"/>
<path d="M347.091 249.94H246.831V257.051H347.091V249.94Z" fill="#C48E47"/>
<path d="M313.113 262.091H299.639V281.481H313.113V262.091Z" fill="#72504C"/>
<path d="M272.667 262.091H259.193V281.481H272.667V262.091Z" fill="#72504C"/>
<path d="M457.864 276.066H348.995V283.337H457.864V276.066Z" fill="#72504C"/>
<path d="M457.863 263.948H444.739V283.337H457.863V263.948Z" fill="#B87A53"/>
<path d="M444.739 283.337L457.736 263.832H444.739V276.271L442.678 279.497L444.739 283.337Z" fill="#72504C"/>
<path d="M362.119 263.948H348.995V283.337H362.119V263.948Z" fill="#72504C"/>
<path d="M412.551 263.948H399.427V283.337H412.551V263.948Z" fill="#B87A53"/>
<path d="M401.34 276.066H297.591V283.337H401.34V276.066Z" fill="#72504C"/>
<path d="M401.34 263.948H388.216V283.337H401.34V263.948Z" fill="#B87A53"/>
<path d="M350.908 263.948H337.784V283.337H350.908V263.948Z" fill="#B87A53"/>
<path d="M457.771 283.337H476.364V260.482L457.771 263.948V283.337Z" fill="#EFBB67"/>
<path d="M401.248 283.337H419.84V260.86L401.248 263.948V283.337Z" fill="#EFBB67"/>
<path d="M340.151 283.337H358.744V260.67L340.151 263.948V283.337Z" fill="#EFBB67"/>
<path d="M327.302 283.337H340.426V263.948L327.302 261.049V283.337Z" fill="#B87A53"/>
<path d="M246.916 283.337H260.04V263.948L246.916 260.481V283.337Z" fill="#B87A53"/>
<path d="M287.11 283.337H300.234V263.948L287.11 259.725V283.337Z" fill="#B87A53"/>
<path d="M476.366 256.677H340.153V263.948H476.366V256.677Z" fill="#EFBB67"/>
<path d="M340.426 256.677H246.916V263.948H340.426V256.677Z" fill="#B87A53"/>
<path d="M340.426 276.066H246.916V283.337H340.426V276.066Z" fill="#B87A53"/>
<path d="M388.123 283.337L401.119 263.832H388.123V276.101L385.513 279.837L388.123 283.337Z" fill="#72504C"/>
<path d="M360.351 249.94H340.416V256.843H360.351V249.94Z" fill="#FFCE78"/>
<path d="M390.246 263.776H374.107V272.812H390.246V263.776Z" fill="#FFC943"/>
<path d="M374.531 263.776H358.393V272.812H374.531V263.776Z" fill="#F5A838"/>
<path d="M451.641 264.049H435.502V273.084H451.641V264.049Z" fill="#FFC943"/>
<path d="M435.923 264.049H419.784V273.084H435.923V264.049Z" fill="#F5A838"/>
</svg>
