<svg width="1091" height="704" viewBox="0 0 1091 704" fill="none" xmlns="http://www.w3.org/2000/svg">
<g opacity="0.5">
<path d="M198.264 605.584H1052.8L1022.31 356.254C989.056 129.586 742.722 54.3155 566.881 186.307C495.468 227.846 411.947 240.984 330.394 232.181C171.653 216.948 60.7113 411.473 154.205 540.483C154.199 540.479 198.264 605.584 198.264 605.584Z" fill="#DCECFD"/>
<g opacity="0.5">
<mask id="mask0_833_22286" style="mask-type:luminance" maskUnits="userSpaceOnUse" x="119" y="121" width="934" height="485">
<path d="M198.264 605.584H1052.8L1022.31 356.254C989.056 129.586 742.722 54.3155 566.881 186.307C495.468 227.846 411.947 240.984 330.394 232.181C171.653 216.948 60.7113 411.473 154.205 540.483C154.199 540.479 198.264 605.584 198.264 605.584Z" fill="white"/>
</mask>
<g mask="url(#mask0_833_22286)">
<path opacity="0.7" d="M120.2 614.098V429.081H252.85V335.042H488.838V451.633H756.467V355.735H942.913V414.923H1084.45V617.058L120.2 614.098Z" fill="#F1F8FE"/>
</g>
</g>
</g>
<path d="M801.241 266.368H742.344C738.779 266.368 735.672 268.795 734.808 272.254L662.231 562.992L667.576 562.998L739.558 274.643C739.965 273.014 741.428 271.871 743.106 271.871H801.241C802.761 271.871 803.992 270.639 803.992 269.119C803.992 267.6 802.76 266.368 801.241 266.368Z" fill="#324D90"/>
<path d="M1011.09 266.607H952.096C948.532 266.607 945.425 269.035 944.561 272.494L871.984 563.232L877.329 563.238L949.311 274.883C949.718 273.254 951.181 272.111 952.859 272.111H1011.09C1012.61 272.111 1013.84 270.879 1013.84 269.359C1013.84 267.839 1012.61 266.607 1011.09 266.607Z" fill="#324D90"/>
<path d="M735.598 576.965C735.479 565.739 731.197 552.885 719.924 548.927C714.748 547.745 709.275 548.577 703.996 548.379C690.019 546.336 680.04 558.7 679.762 576.965C680.044 595.232 690.016 607.591 703.996 605.55C709.274 605.354 714.748 606.183 719.924 605.003C731.121 601.192 735.552 587.957 735.598 576.965Z" fill="#152E60"/>
<path d="M635.989 564.558C633.449 556.709 627.252 548.388 618.295 548.346C612.695 548.372 606.886 548.361 601.394 548.35C590.595 548.604 581.915 561.579 582.092 577.439C582.278 593.081 591.016 605.669 601.851 605.584C607.331 605.562 612.814 605.562 618.295 605.585C631.99 604.962 637.997 588.926 637.925 576.965C637.925 572.52 637.23 568.311 635.989 564.558Z" fill="#152E60"/>
<path d="M912.566 393.081H771.393V567.191H912.566V393.081Z" fill="#F08F3C"/>
<path d="M863.168 393.081H846.443V412.935H863.168V393.081Z" fill="#FDF1E6"/>
<path d="M794.793 393.081H582.089V567.191H794.793V393.081Z" fill="#F3AC4A"/>
<path d="M701.04 393.081H675.841V412.935H701.04V393.081Z" fill="#FDF1E6"/>
<path d="M932.831 565.663H561.825V575.593H932.831V565.663Z" fill="#324D90"/>
<path d="M747.328 565.663H561.825V575.593H747.328V565.663Z" fill="#152E60"/>
<path d="M900.754 548.346C896.457 548.369 892.16 548.369 887.862 548.346C858.687 544.203 857 604.648 884.179 605.585C888.476 605.561 892.773 605.561 897.071 605.584C926.246 609.728 927.932 549.282 900.754 548.346Z" fill="#152E60"/>
<path d="M920.384 576.965C919.874 614.631 881.633 614.627 881.125 576.964C881.635 539.3 919.877 539.303 920.384 576.965Z" fill="#324D90"/>
<path d="M907.794 576.965C907.61 591.477 893.898 591.476 893.715 576.965C893.899 562.453 907.611 562.454 907.794 576.965Z" fill="#152E60"/>
<path d="M803.082 548.346C798.783 548.369 794.487 548.369 790.189 548.346C761.014 544.203 759.328 604.648 786.506 605.585C790.803 605.561 795.1 605.561 799.398 605.584C828.572 609.728 830.259 549.282 803.082 548.346Z" fill="#152E60"/>
<path d="M822.711 576.965C822.201 614.631 783.96 614.627 783.452 576.964C783.962 539.3 822.204 539.303 822.711 576.965Z" fill="#324D90"/>
<path d="M810.121 576.965C809.937 591.477 796.225 591.476 796.042 576.965C796.226 562.453 809.938 562.454 810.121 576.965Z" fill="#152E60"/>
<path d="M573.159 253.489L521.916 295.086L505.354 276.949L483.852 296.594C486.379 299.393 501.447 315.798 503.509 318.21C511.837 327.966 528.092 327.994 536.469 318.291C536.469 318.291 583.126 266.484 583.126 266.484L573.159 253.489Z" fill="#F4D2C6"/>
<mask id="mask1_833_22286" style="mask-type:luminance" maskUnits="userSpaceOnUse" x="483" y="253" width="101" height="73">
<path d="M573.159 253.489L521.916 295.086L505.354 276.949L483.852 296.594C486.379 299.393 501.447 315.798 503.509 318.21C511.837 327.966 528.092 327.994 536.469 318.291C536.469 318.291 583.126 266.484 583.126 266.484L573.159 253.489Z" fill="white"/>
</mask>
<g mask="url(#mask1_833_22286)">
<path d="M521.916 295.086L507.873 325.613L492.371 311.939L516.894 288.171L521.916 295.086Z" fill="#EDA19D"/>
</g>
<path d="M601.433 341.563H553.985C551.429 341.563 549.357 339.49 549.357 336.934V266.875C549.357 264.319 551.429 262.246 553.985 262.246H601.433C603.989 262.246 606.061 264.319 606.061 266.875V336.934C606.061 339.491 603.989 341.563 601.433 341.563Z" fill="#324D90"/>
<path d="M600.513 268.345H554.906V335.507H600.513V268.345Z" fill="#F3F5FB"/>
<path d="M585.588 270.223H569.83C568.807 270.223 567.979 269.394 567.979 268.371V262.351C567.979 261.328 568.807 260.499 569.83 260.499H585.588C586.611 260.499 587.44 261.328 587.44 262.351V268.371C587.44 269.394 586.611 270.223 585.588 270.223Z" fill="#152E60"/>
<path d="M596.647 279.551H558.771V284.119H596.647V279.551Z" fill="#E3EAF4"/>
<path d="M596.647 289.586H558.771V294.153H596.647V289.586Z" fill="#E3EAF4"/>
<path d="M596.647 299.621H558.771V304.188H596.647V299.621Z" fill="#E3EAF4"/>
<path d="M596.647 309.655H558.771V314.223H596.647V309.655Z" fill="#E3EAF4"/>
<path d="M585.327 319.69H558.771V324.258H585.327V319.69Z" fill="#E3EAF4"/>
<path d="M570.291 258.621C569.578 264.629 574.489 267.744 579.167 270.098C585.989 274.281 595.451 267.425 593.398 259.62C592.664 254.1 589.134 251.409 583.974 250.141C578.188 248.271 570.775 252.286 570.291 258.621Z" fill="#F4D2C6"/>
<path d="M395.764 298.782L451.425 269.579L433.66 235.699L377.999 264.902L395.764 298.782Z" fill="#4292F3"/>
<path d="M375.711 305.272L393.779 293.173L381.154 270.922C370.466 277.224 352.886 283.757 353.131 298.781C354.097 304.923 346.017 373.148 352.638 376.086C360.438 384.967 369.014 377.698 376.165 372.435L366.171 372.335L375.711 305.272Z" fill="#F4D2C6"/>
<mask id="mask2_833_22286" style="mask-type:luminance" maskUnits="userSpaceOnUse" x="350" y="270" width="44" height="111">
<path d="M375.711 305.272L393.779 293.173L381.154 270.922C370.466 277.224 352.886 283.757 353.131 298.781C354.097 304.923 346.017 373.148 352.638 376.086C360.438 384.967 369.014 377.698 376.165 372.435L366.171 372.335L375.711 305.272Z" fill="white"/>
</mask>
<g mask="url(#mask2_833_22286)">
<path d="M373.198 271.346L379.735 297.517L394.723 287.755L384.459 265.361L373.198 271.346Z" fill="#EDA19D"/>
</g>
<path d="M522.901 288.372L478.459 243.917L451.416 270.968L495.858 315.423L522.901 288.372Z" fill="#4292F3"/>
<path d="M496.798 314.489L489.338 273.619L501.948 309.338L496.798 314.489Z" fill="#3C7ED7"/>
<path d="M403.375 335.603L408.124 584.611H424.865L459.949 335.043L403.375 335.603Z" fill="#324D90"/>
<mask id="mask3_833_22286" style="mask-type:luminance" maskUnits="userSpaceOnUse" x="403" y="335" width="57" height="250">
<path d="M403.375 335.603L408.124 584.611H424.865L459.949 335.043L403.375 335.603Z" fill="white"/>
</mask>
<g mask="url(#mask3_833_22286)">
<path d="M450.547 401.926C426.223 434.247 418.897 541.472 416.977 587.991H431.662L449.826 473.911L450.547 401.926Z" fill="#2A437D"/>
</g>
<path d="M497.933 335.603L493.183 584.611H475.646L441.358 335.043L497.933 335.603Z" fill="#324D90"/>
<mask id="mask4_833_22286" style="mask-type:luminance" maskUnits="userSpaceOnUse" x="441" y="335" width="57" height="250">
<path d="M497.933 335.603L493.183 584.611H475.646L441.358 335.043L497.933 335.603Z" fill="white"/>
</mask>
<g mask="url(#mask4_833_22286)">
<path d="M450.547 401.926C471.229 428.209 482.633 548.814 483.138 586.535H469.645L450.547 401.926Z" fill="#2A437D"/>
</g>
<path d="M434.314 197.952C435.601 205.691 428.944 206.822 427.605 199.092C426.318 191.354 432.975 190.223 434.314 197.952Z" fill="#EDA19D"/>
<path d="M466.361 197.952C465.073 205.691 471.731 206.822 473.07 199.092C474.357 191.354 467.7 190.223 466.361 197.952Z" fill="#EDA19D"/>
<path d="M469.384 198.914C468.91 229.405 431.762 229.401 431.291 198.913C427.913 167.702 471.753 167.396 469.384 198.914Z" fill="#F4D2C6"/>
<mask id="mask5_833_22286" style="mask-type:luminance" maskUnits="userSpaceOnUse" x="431" y="175" width="39" height="47">
<path d="M469.384 198.914C468.91 229.405 431.762 229.401 431.291 198.913C427.913 167.702 471.753 167.396 469.384 198.914Z" fill="white"/>
</mask>
<g mask="url(#mask5_833_22286)">
<path d="M432.939 187.937C432.939 187.937 447.335 190.914 466.639 185.553L464.55 178.653L436.458 179.651L432.939 186.759" fill="#EDA19D"/>
</g>
<path d="M460.209 204.514C455.247 204.514 445.426 204.514 440.466 204.514C442.847 211.315 437.651 245.373 437.651 245.373C444.016 245.373 456.66 245.373 463.023 245.373C463.023 245.373 457.827 211.315 460.209 204.514Z" fill="#F4D2C6"/>
<path d="M440.734 218.934C440.734 218.934 449.68 225.835 459.936 218.934L460.476 225.112C460.476 225.112 449.432 230.273 440.19 225.175L440.734 218.934Z" fill="#EDA19D"/>
<path d="M433.872 182.476C433.872 182.476 458.779 184.956 465.203 181.123C471.627 177.29 470.275 164.326 470.275 164.326C466.623 164.909 425.246 163.896 433.872 182.476Z" fill="#59445A"/>
<path d="M434.347 174.151C434.347 174.151 427.39 176.239 426.554 179.092C425.72 181.945 431.55 192.975 431.55 192.975C433.116 192.96 434.469 191.875 434.824 190.35L436.99 181.04L434.347 174.151Z" fill="#59445A"/>
<path d="M466.277 174.151C466.277 174.151 473.234 176.239 474.07 179.092C474.904 181.945 469.074 192.975 469.074 192.975C467.498 193.017 466.048 191.685 465.8 190.347C465.757 190.165 463.634 181.041 463.634 181.041L466.277 174.151Z" fill="#59445A"/>
<path d="M463.633 181.824C463.633 181.824 469.253 178.569 469.383 175.332C469.383 175.332 471.504 183.139 463.633 181.824Z" fill="#34254B"/>
<path d="M410.939 584.611L409.092 591.085L389.136 599.64C386.759 600.659 385.218 602.997 385.218 605.584H426.428L424.865 584.611H410.939Z" fill="#152E60"/>
<path d="M489.573 584.611L491.421 591.085L511.376 599.64C513.753 600.659 515.295 602.997 515.295 605.584H474.084L475.647 584.611H489.573Z" fill="#152E60"/>
<path d="M489.777 268.092C486.019 243.055 466.906 230.509 445.488 233.284C428.387 232.655 412.978 250.054 410.85 268.12C410.576 269.928 396.894 360.345 396.894 360.345H503.737L489.777 268.092Z" fill="#4292F3"/>
<mask id="mask6_833_22286" style="mask-type:luminance" maskUnits="userSpaceOnUse" x="396" y="232" width="108" height="129">
<path d="M489.777 268.092C486.019 243.055 466.906 230.509 445.488 233.284C428.387 232.655 412.978 250.054 410.85 268.12C410.576 269.928 396.894 360.345 396.894 360.345H503.737L489.777 268.092Z" fill="white"/>
</mask>
<g mask="url(#mask6_833_22286)">
<path d="M439.204 362.643L458.876 341.562L417.666 274.637L431.732 336.774L389.518 366.479L439.204 362.643Z" fill="#3C7ED7"/>
</g>
<path d="M417.673 274.614L337.379 310.432L366.864 376.567L447.159 340.749L417.673 274.614Z" fill="#F3AC4A"/>
<path d="M383.767 289.738L371.285 295.307L375.718 305.25L388.2 299.682L383.767 289.738Z" fill="#FDF1E6"/>
<path d="M359.976 366.479C364.221 367.409 372.404 367.135 373.198 372.932L359.976 373.599V366.479Z" fill="#F4D2C6"/>
<path d="M439.204 233.962C443.061 245.402 457.617 245.398 461.471 233.962C461.471 233.962 451.947 228.806 439.204 233.962Z" fill="#F4D2C6"/>
<path d="M403.787 360.366H497.461L404.194 378.495L403.787 360.366Z" fill="#2A437D"/>
<path d="M439.204 233.962L449.827 242.575L445.429 245.356C438.414 249.046 437.275 239.331 435.57 234.998C435.57 234.998 437.418 234.189 439.204 233.962Z" fill="#F3F5FB"/>
<path d="M452.489 242.369L456.626 244.936C459.528 246.738 463.334 245.072 463.982 241.717L465.264 235.071C465.264 235.071 462.365 234.109 461.471 233.963L452.489 242.369Z" fill="#F3F5FB"/>
<path d="M327.035 459.827H206.428V605.584H327.035V459.827Z" fill="#F3AC4A"/>
<path d="M276.049 459.827H257.414V473.968H276.049V459.827Z" fill="#FDF1E6"/>
<path d="M390.031 459.827H327.035V605.584H390.031V459.827Z" fill="#F08F3C"/>
<path d="M369.899 459.827H353.935V473.968H369.899V459.827Z" fill="#FDF1E6"/>
<path d="M812.12 218.934H669.992C666.119 218.934 662.979 215.794 662.979 211.919V164.887C662.979 161.013 666.119 157.872 669.992 157.872H812.12C815.993 157.872 819.133 161.013 819.133 164.887V211.919C819.132 215.794 815.993 218.934 812.12 218.934Z" fill="white"/>
<path d="M807.17 168.015H674.941V175.674H807.17V168.015Z" fill="#DEEEFC"/>
<path d="M807.17 184.574H674.941V192.233H807.17V184.574Z" fill="#DEEEFC"/>
<path d="M762.721 201.132H674.941V208.791H762.721V201.132Z" fill="#DEEEFC"/>
<path d="M321.976 229.017C311.324 319.376 260.095 319.294 249.466 229.016C250.279 181.352 321.169 181.35 321.976 229.017Z" fill="#324D90"/>
<path d="M305.127 227.111C304.692 252.628 266.747 252.624 266.314 227.11C266.75 201.594 304.695 201.598 305.127 227.111Z" fill="white"/>
<path d="M329.367 408.787H217.656C215.672 408.787 214.063 407.179 214.063 405.194V366.237C214.063 364.252 215.672 362.643 217.656 362.643H329.367C331.351 362.643 332.96 364.252 332.96 366.237V405.194C332.96 407.178 331.351 408.787 329.367 408.787Z" fill="#D4E8FC"/>
<path d="M323.816 404.13H214.21C211.223 404.13 208.802 401.708 208.802 398.72V362.45C208.802 359.462 211.223 357.04 214.21 357.04H323.816C326.803 357.04 329.224 359.462 329.224 362.45V398.72C329.224 401.708 326.803 404.13 323.816 404.13Z" fill="white"/>
<path d="M319.999 364.862H218.027V370.769H319.999V364.862Z" fill="#DEEEFC"/>
<path d="M319.999 377.632H218.027V383.538H319.999V377.632Z" fill="#DEEEFC"/>
<path d="M285.721 390.402H218.027V396.309H285.721V390.402Z" fill="#DEEEFC"/>
<path d="M642.287 480.136H582.09V522.316H642.287C644.962 522.316 647.131 520.147 647.131 517.47V484.981C647.131 482.305 644.962 480.136 642.287 480.136Z" fill="#F08F3C"/>
<path d="M636.531 516.091H538.351C535.676 516.091 533.507 513.922 533.507 511.246V478.757C533.507 476.08 535.676 473.911 538.351 473.911H636.531C639.206 473.911 641.375 476.08 641.375 478.757V511.246C641.375 513.922 639.206 516.091 636.531 516.091Z" fill="white"/>
<path d="M633.112 480.917H541.771V486.208H633.112V480.917Z" fill="#DEEEFC"/>
<path d="M633.112 492.356H541.771V497.647H633.112V492.356Z" fill="#DEEEFC"/>
<path d="M602.407 503.794H541.771V509.085H602.407V503.794Z" fill="#DEEEFC"/>
<path d="M918.509 204.514L896.338 249.132C895.893 250.027 894.606 249.996 894.205 249.08L888.499 236.041L918.509 204.514Z" fill="#324D90"/>
<path d="M888.499 236.041L873.049 230.906L918.509 204.514L888.499 236.041Z" fill="#4292F3"/>
<path d="M918.509 204.514L898.026 239.52L916.427 245.686L918.509 204.514Z" fill="#4292F3"/>
<path d="M891.899 260.285L891.317 260.065C891.575 259.385 891.828 258.706 892.077 258.029L892.66 258.243C892.411 258.922 892.157 259.603 891.899 260.285Z" fill="#324D90"/>
<path d="M600.532 371.906L600.427 371.294C601.815 371.054 603.228 370.707 604.625 370.261L604.814 370.854C603.39 371.308 601.949 371.662 600.532 371.906ZM606.598 370.233L606.378 369.651C607.675 369.16 609.009 368.569 610.344 367.894L610.624 368.45C609.27 369.135 607.916 369.735 606.598 370.233ZM612.291 367.565L611.99 367.021C613.2 366.35 614.417 365.611 615.712 364.765L616.052 365.286C614.745 366.141 613.514 366.886 612.291 367.565ZM617.615 364.237L617.263 363.724C618.37 362.963 619.527 362.127 620.8 361.171L621.174 361.669C619.893 362.63 618.729 363.47 617.615 364.237ZM622.669 360.531L622.29 360.039C623.499 359.109 624.7 358.161 625.732 357.346L626.117 357.834C625.084 358.651 623.881 359.6 622.669 360.531ZM627.587 356.672L627.202 356.184C628.302 355.314 629.482 354.386 630.651 353.49L631.029 353.984C629.864 354.877 628.686 355.804 627.587 356.672ZM632.521 352.855L632.149 352.357C633.446 351.391 634.518 350.624 635.722 349.809L636.071 350.325C634.875 351.134 633.81 351.895 632.521 352.855ZM637.628 349.297L637.292 348.774C638.526 347.979 639.789 347.213 641.044 346.498L641.352 347.038C640.106 347.748 638.853 348.508 637.628 349.297ZM642.985 346.133L642.69 345.586C643.978 344.892 645.298 344.229 646.611 343.615L646.875 344.178C645.572 344.787 644.263 345.445 642.985 346.133ZM759.782 345.984C759.769 345.984 759.395 345.982 759.383 345.982L759.387 345.361C760.845 345.37 762.326 345.327 763.735 345.232L763.776 345.853C762.477 345.94 761.133 345.984 759.782 345.984ZM757.501 345.944C756.044 345.895 754.577 345.785 753.122 345.67L753.172 345.05C754.618 345.164 756.075 345.273 757.522 345.322L757.501 345.944ZM765.656 345.696L765.593 345.077C767.075 344.926 768.522 344.714 769.891 344.447L770.01 345.057C768.622 345.328 767.157 345.543 765.656 345.696ZM751.251 345.51C749.847 345.382 748.381 345.233 746.895 345.065L746.964 344.447C748.446 344.614 749.908 344.763 751.308 344.89L751.251 345.51ZM745.031 344.848C743.64 344.68 742.179 344.49 740.689 344.285L740.774 343.669C742.261 343.873 743.718 344.062 745.105 344.23L745.031 344.848ZM771.854 344.655L771.707 344.05C773.162 343.697 774.555 343.269 775.848 342.779L776.069 343.361C774.752 343.86 773.334 344.296 771.854 344.655ZM738.831 344.023C737.387 343.814 735.944 343.597 734.503 343.373L734.598 342.758C736.037 342.982 737.477 343.199 738.92 343.407L738.831 344.023ZM800.715 343.85L800.713 343.228C802.11 343.224 803.573 343.164 805.059 343.053L805.105 343.674C803.604 343.786 802.127 343.845 800.715 343.85ZM798.83 343.823C797.314 343.775 795.838 343.66 794.441 343.48L794.521 342.864C795.897 343.04 797.354 343.154 798.849 343.202L798.83 343.823ZM806.981 343.507L806.918 342.889C808.32 342.746 809.772 342.556 811.236 342.324L811.333 342.938C809.859 343.172 808.394 343.364 806.981 343.507ZM648.575 343.409L648.325 342.839C649.663 342.254 651.033 341.702 652.396 341.198L652.612 341.781C651.26 342.281 649.902 342.829 648.575 343.409ZM792.574 343.195C791.074 342.928 789.632 342.575 788.289 342.145L788.478 341.553C789.795 341.974 791.209 342.32 792.683 342.582L792.574 343.195ZM732.65 343.08C731.208 342.85 729.769 342.614 728.331 342.374L728.433 341.761C729.87 342 731.308 342.236 732.747 342.466L732.65 343.08ZM777.818 342.635L777.561 342.068C778.919 341.452 780.185 340.744 781.325 339.964L781.676 340.477C780.507 341.277 779.209 342.004 777.818 342.635ZM813.187 342.624L813.077 342.012C814.508 341.753 815.929 341.46 817.338 341.12L817.484 341.725C816.063 342.068 814.631 342.363 813.187 342.624ZM726.481 342.064C725.042 341.822 723.605 341.578 722.169 341.334L722.273 340.721C723.709 340.964 725.146 341.209 726.584 341.451L726.481 342.064ZM786.505 341.509C785.089 340.946 783.792 340.307 782.549 339.526L782.882 339C782.908 339.017 782.934 339.033 782.96 339.05L782.801 338.856C783.93 337.929 784.937 336.895 785.794 335.782L786.286 336.162C785.426 337.279 784.42 338.319 783.295 339.255C784.37 339.892 785.515 340.448 786.734 340.931L786.505 341.509ZM819.307 341.26L819.145 340.659C820.538 340.284 821.939 339.861 823.308 339.4L823.507 339.989C822.125 340.454 820.712 340.882 819.307 341.26ZM654.37 341.156L654.169 340.567C655.543 340.098 656.954 339.662 658.363 339.27L658.529 339.869C657.132 340.258 655.733 340.691 654.37 341.156ZM720.319 341.02C718.879 340.777 717.442 340.535 716.007 340.297L716.108 339.684C717.545 339.921 718.983 340.163 720.423 340.407L720.319 341.02ZM714.156 339.993C712.715 339.759 711.276 339.53 709.84 339.31L709.933 338.695C711.373 338.916 712.813 339.145 714.256 339.379L714.156 339.993ZM660.33 339.391L660.177 338.788C661.583 338.434 663.023 338.113 664.458 337.834L664.577 338.445C663.153 338.722 661.723 339.04 660.33 339.391ZM825.282 339.366L825.068 338.782C826.418 338.289 827.777 337.745 829.108 337.166L829.356 337.736C828.013 338.32 826.643 338.868 825.282 339.366ZM707.985 339.03C706.461 338.804 705.046 338.604 703.659 338.42L703.741 337.804C705.131 337.989 706.55 338.188 708.076 338.415L707.985 339.03ZM780.992 338.428C779.819 337.513 778.752 336.47 777.82 335.33L778.3 334.936C779.204 336.04 780.238 337.051 781.374 337.938L780.992 338.428ZM701.799 338.18C700.312 337.993 698.853 337.824 697.462 337.678L697.526 337.06C698.922 337.206 700.386 337.375 701.877 337.563L701.799 338.18ZM666.412 338.11L666.307 337.497C667.728 337.255 669.189 337.044 670.648 336.871L670.722 337.489C669.273 337.66 667.823 337.87 666.412 338.11ZM695.597 337.492C694.117 337.352 692.653 337.233 691.247 337.138L691.289 336.517C692.701 336.613 694.17 336.733 695.656 336.873L695.597 337.492ZM672.578 337.288L672.518 336.669C673.943 336.53 675.414 336.421 676.892 336.345L676.924 336.966C675.455 337.042 673.993 337.15 672.578 337.288ZM689.378 337.024C687.897 336.942 686.431 336.886 685.019 336.855L685.033 336.234C686.451 336.264 687.925 336.321 689.412 336.403L689.378 337.024ZM831.067 336.966L830.804 336.402C832.106 335.796 833.414 335.141 834.692 334.455L834.986 335.003C833.697 335.695 832.378 336.355 831.067 336.966ZM678.79 336.887L678.769 336.265C680.197 336.216 681.688 336.195 683.154 336.207L683.15 336.829C681.7 336.82 680.212 336.839 678.79 336.887ZM787.37 334.597L786.841 334.269C787.589 333.059 788.216 331.744 788.624 330.38L789.219 330.56C788.796 331.976 788.146 333.341 787.37 334.597ZM836.631 334.095L836.324 333.554C837.573 332.844 838.827 332.086 840.05 331.301L840.386 331.825C839.153 332.616 837.89 333.379 836.631 334.095ZM776.69 333.794C775.837 332.499 775.189 331.151 774.764 329.786L775.358 329.601C775.765 330.91 776.388 332.206 777.209 333.452L776.69 333.794ZM841.958 330.79L841.611 330.275C842.802 329.473 843.997 328.623 845.164 327.749L845.537 328.247C844.362 329.127 843.158 329.983 841.958 330.79ZM789.653 328.696L789.04 328.595C789.274 327.181 789.282 325.73 789.003 324.358L789.612 324.234C789.906 325.681 789.899 327.208 789.653 328.696ZM774.327 327.919C774.096 326.434 774.108 324.889 774.521 323.451L775.119 323.621C774.731 324.973 774.724 326.425 774.941 327.822L774.327 327.919ZM847.034 327.102L846.651 326.612C847.78 325.73 848.915 324.799 850.025 323.846L850.43 324.318C849.313 325.277 848.171 326.214 847.034 327.102ZM851.848 323.077L851.434 322.613C852.503 321.659 853.578 320.658 854.629 319.637L855.062 320.083C854.005 321.11 852.923 322.117 851.848 323.077ZM788.477 322.623C787.944 321.32 787.033 320.058 785.998 319.28L786.376 318.786C787.498 319.631 788.477 320.981 789.051 322.386L788.477 322.623ZM775.804 321.957L775.259 321.656C775.997 320.318 777.081 319.207 778.392 318.445L778.704 318.983C777.49 319.688 776.487 320.717 775.804 321.957ZM856.403 318.758L855.962 318.32C856.973 317.302 857.989 316.24 858.98 315.162L859.438 315.584C858.441 316.667 857.42 317.735 856.403 318.758ZM784.447 318.409C783.172 317.919 781.736 317.873 780.352 318.274L780.179 317.677C781.692 317.238 783.269 317.291 784.67 317.829L784.447 318.409ZM860.703 314.186L860.238 313.772C861.192 312.701 862.151 311.586 863.085 310.459L863.564 310.856C862.625 311.989 861.662 313.11 860.703 314.186ZM864.756 309.398L864.272 309.008C865.172 307.89 866.075 306.73 866.955 305.561L867.452 305.935C866.567 307.109 865.66 308.275 864.756 309.398ZM868.574 304.423L868.073 304.056C868.924 302.893 869.775 301.694 870.599 300.493L871.112 300.845C870.284 302.051 869.43 303.255 868.574 304.423ZM872.167 299.289L871.651 298.943C872.45 297.749 873.25 296.517 874.029 295.28L874.555 295.612C873.772 296.853 872.969 298.09 872.167 299.289ZM875.547 294.017L875.017 293.691C875.771 292.465 876.523 291.203 877.254 289.942L877.792 290.254C877.058 291.52 876.303 292.786 875.547 294.017ZM878.724 288.626L878.183 288.32C878.891 287.066 879.598 285.78 880.285 284.496L880.833 284.79C880.145 286.077 879.435 287.368 878.724 288.626ZM881.709 283.133L881.157 282.845C881.822 281.57 882.486 280.262 883.13 278.957L883.688 279.232C883.042 280.541 882.376 281.853 881.709 283.133ZM884.511 277.543L883.951 277.274C884.577 275.974 885.201 274.642 885.804 273.317L886.37 273.576C885.765 274.904 885.139 276.239 884.511 277.543ZM887.142 271.864L886.574 271.611C887.159 270.296 887.743 268.947 888.31 267.601L888.883 267.842C888.314 269.192 887.729 270.545 887.142 271.864ZM889.604 266.108L889.029 265.872C889.578 264.532 890.124 263.167 890.648 261.814L891.228 262.039C890.702 263.395 890.155 264.764 889.604 266.108Z" fill="#324D90"/>
<path d="M596.457 372.324L596.437 371.702C597.153 371.679 597.876 371.628 598.585 371.552L598.652 372.17C597.927 372.248 597.189 372.3 596.457 372.324Z" fill="#324D90"/>
<path d="M592.08 372.056C590.657 371.73 589.255 371.244 587.913 370.613L588.177 370.05C589.48 370.662 590.839 371.134 592.219 371.45L592.08 372.056ZM586.237 369.732C584.965 368.989 583.768 368.113 582.68 367.127L583.096 366.666C584.153 367.623 585.315 368.474 586.551 369.195L586.237 369.732ZM581.335 365.795C580.332 364.706 579.457 363.522 578.713 362.247L579.25 361.933C579.971 363.17 580.819 364.318 581.792 365.373L581.335 365.795ZM577.834 360.569C577.213 359.239 576.728 357.837 576.392 356.402L576.998 356.26C577.323 357.654 577.794 359.015 578.398 360.306L577.834 360.569ZM576.044 354.541C575.836 353.077 575.783 351.6 575.889 350.132L576.509 350.177C576.406 351.6 576.458 353.033 576.659 354.454L576.044 354.541Z" fill="#324D90"/>
<path d="M89.4893 606.063C422.474 604.753 770.332 604.742 1103.31 606.063C770.327 607.384 422.47 607.373 89.4893 606.063Z" fill="#152E60"/>
</svg>
