<svg width="980" height="803" viewBox="0 0 980 803" fill="none" xmlns="http://www.w3.org/2000/svg">
<path opacity="0.44" d="M342.798 701.184C342.798 701.184 51.6316 697.124 61.3103 709.785C97.3556 756.939 234.578 724.749 235.524 728.536C236.471 732.324 264.928 780.583 377.1 773.954C489.272 767.326 485.107 740.007 504.112 732.745C523.116 725.484 843.698 762.179 898.337 718.697C935.894 688.808 913.362 679.264 843.698 673.486C251.106 624.341 342.798 701.184 342.798 701.184Z" fill="#0B0047"/>
<path d="M200.958 93.8806C200.958 93.8806 246.544 15.1315 366.975 30.2105C487.407 45.2894 474.156 113.986 557.536 110.636C640.916 107.285 731.692 58.6958 805.756 154.124C891.675 264.828 744.854 358.988 803.167 426.64C907.644 547.852 803.167 690.725 569.841 663.606C376.34 641.116 374.605 609.562 262.285 647.78C149.966 685.998 47.837 544.865 88.6386 434.368C129.44 323.871 233.147 366.001 184.555 275.77C135.964 185.54 200.958 93.8806 200.958 93.8806Z" fill="#270044" fill-opacity="0.3"/>
<path d="M281.319 445.631H126.195V569.216H281.319V445.631Z" fill="#E4AC6F"/>
<path d="M291.849 445.631H222.688V569.216H291.849V445.631Z" fill="#DB9166"/>
<path d="M185.99 445.631H160.395V486.395H185.99V445.631Z" fill="#EDC78F"/>
<path d="M160.395 486.395V490.022L164.662 486.395L160.395 482.768V486.395Z" fill="#EDC78F"/>
<path d="M164.66 486.395L168.925 490.022L173.191 486.395L168.925 482.768L164.66 486.395Z" fill="#EDC78F"/>
<path d="M173.191 486.395L177.459 490.022L181.724 486.395L177.459 482.768L173.191 486.395Z" fill="#EDC78F"/>
<path d="M181.723 486.395L185.99 490.022V486.395V482.768L181.723 486.395Z" fill="#EDC78F"/>
<path d="M157.88 572.15C157.88 572.15 147.821 555.929 145.555 539.125C143.288 522.319 135.196 491.506 130.005 484.618C124.814 477.73 161.322 495.09 162.14 528.099C162.653 548.875 176.909 559.207 171.382 568.014C165.856 576.82 157.88 572.15 157.88 572.15Z" fill="#306A72"/>
<path d="M164.015 551.966C164.015 551.966 153.744 520.344 167.763 487.092C176.376 466.663 166.455 448.037 170.371 452.275C174.289 456.512 187.453 461.507 186.055 486.308C184.657 511.108 181.274 534.686 183.647 546.097C186.019 557.508 188.952 563.375 179.824 563.375C170.696 563.375 164.015 551.966 164.015 551.966Z" fill="#306A72"/>
<path d="M181.096 558.186C180.9 556.823 176.737 526.955 187.481 509.483C198.226 492.009 190.767 469.23 193.806 471.817C196.845 474.404 209.503 491.524 206.648 513.453C203.794 535.383 196.016 553.947 193.529 559.489C191.043 565.031 182.033 564.693 181.096 558.186Z" fill="#306A72"/>
<path d="M198.425 547.282H188.358H156.387H146.321C142.326 547.282 139.358 550.984 140.226 554.884L146.783 584.347C147.418 587.203 149.953 589.234 152.878 589.234H156.387H188.356H191.865C194.792 589.234 197.325 587.203 197.96 584.347L204.518 554.884C205.387 550.982 202.419 547.282 198.425 547.282Z" fill="#CE5E4C"/>
<path d="M714.698 437.622C733.651 437.622 749.016 422.257 749.016 403.304C749.016 384.35 733.651 368.985 714.698 368.985C695.744 368.985 680.379 384.35 680.379 403.304C680.379 422.257 695.744 437.622 714.698 437.622Z" fill="#352B4C"/>
<path d="M714.698 415.595C721.487 415.595 726.99 410.092 726.99 403.303C726.99 396.515 721.487 391.011 714.698 391.011C707.91 391.011 702.406 396.515 702.406 403.303C702.406 410.092 707.91 415.595 714.698 415.595Z" fill="#B7B7B7"/>
<path d="M491.819 437.622C510.772 437.622 526.137 422.257 526.137 403.304C526.137 384.35 510.772 368.985 491.819 368.985C472.865 368.985 457.5 384.35 457.5 403.304C457.5 422.257 472.865 437.622 491.819 437.622Z" fill="#352B4C"/>
<path d="M491.819 415.595C498.608 415.595 504.111 410.092 504.111 403.303C504.111 396.515 498.608 391.011 491.819 391.011C485.031 391.011 479.527 396.515 479.527 403.303C479.527 410.092 485.031 415.595 491.819 415.595Z" fill="#B7B7B7"/>
<path d="M580.228 159.502H431.441V371.012H580.228V159.502Z" fill="#BE5C51"/>
<path d="M729.083 159.502H431.441V263.315H729.083V159.502Z" fill="#D98B64"/>
<path d="M728.577 159.502H490.418V371.012H728.577V159.502Z" fill="#EFCC98"/>
<path d="M431.441 367.028V400.621H833.855C842.214 400.621 848.991 393.845 848.991 385.486V367.027L431.441 367.028Z" fill="#352B4C"/>
<path d="M728.578 200.232V367.028H816.937V251.759C816.937 223.302 793.646 200.232 764.916 200.232H728.578Z" fill="#E4AC6F"/>
<path d="M793.559 272.42V367.029H848.991V313.112C848.991 300.053 840.677 288.444 828.312 284.238L793.559 272.42Z" fill="#E4AC6F"/>
<path d="M771.73 225.514V266.954C771.73 274.24 778.087 280.144 785.928 280.144H816.935V251.762C816.935 235.932 809.723 221.775 798.383 212.324H785.93C778.086 212.323 771.73 218.229 771.73 225.514Z" fill="#352B4C"/>
<path d="M564.811 437.622C583.765 437.622 599.13 422.257 599.13 403.304C599.13 384.35 583.765 368.985 564.811 368.985C545.857 368.985 530.492 384.35 530.492 403.304C530.492 422.257 545.857 437.622 564.811 437.622Z" fill="#352B4C"/>
<path d="M564.812 415.595C571.6 415.595 577.103 410.092 577.103 403.303C577.103 396.515 571.6 391.011 564.812 391.011C558.023 391.011 552.52 396.515 552.52 403.303C552.52 410.092 558.023 415.595 564.812 415.595Z" fill="#FEFEFF"/>
<path d="M771.178 437.622C790.132 437.622 805.497 422.257 805.497 403.304C805.497 384.35 790.132 368.985 771.178 368.985C752.224 368.985 736.859 384.35 736.859 403.304C736.859 422.257 752.224 437.622 771.178 437.622Z" fill="#352B4C"/>
<path d="M771.179 415.595C777.967 415.595 783.471 410.092 783.471 403.303C783.471 396.515 777.967 391.011 771.179 391.011C764.39 391.011 758.887 396.515 758.887 403.303C758.887 410.092 764.39 415.595 771.179 415.595Z" fill="#FEFEFF"/>
<path d="M742.683 200.055H728.578V367.029H742.683V200.055Z" fill="#D98B64"/>
<path d="M321.899 569.214H68.8047V705.444H321.899V569.214Z" fill="#D98B64"/>
<path d="M350.892 569.214H179.504V705.443H350.892V569.214Z" fill="#BE5C51"/>
<path d="M653.635 459.216H487.199V578.742H653.635V459.216Z" fill="#E4AC6F"/>
<path d="M653.133 459.216H577.828V578.742H653.133V459.216Z" fill="#DB9166"/>
<path d="M602.676 459.216V496.353V499.98V503.607L606.941 499.98L611.208 503.607L615.474 499.98L619.741 503.607L624.006 499.98L628.273 503.607V499.98V496.353V459.216H602.676Z" fill="#EDC78F"/>
<path d="M183.321 579.231H158.973V618.007H183.321V579.231Z" fill="#EDC78F"/>
<path d="M158.973 618.007V621.457L163.031 618.007L158.973 614.558V618.007Z" fill="#EDC78F"/>
<path d="M163.035 618.007L167.093 621.457L171.151 618.007L167.093 614.558L163.035 618.007Z" fill="#EDC78F"/>
<path d="M171.148 618.007L175.207 621.457L179.265 618.007L175.207 614.558L171.148 618.007Z" fill="#EDC78F"/>
<path d="M179.266 618.007L183.324 621.457V618.007V614.558L179.266 618.007Z" fill="#EDC78F"/>
<path d="M799.929 441.438H699.144C666.733 441.438 640.215 467.955 640.215 500.366V618.103C640.215 650.513 666.733 677.031 699.144 677.031H799.929C832.34 677.031 858.858 650.513 858.858 618.103V500.366C858.858 467.955 832.34 441.438 799.929 441.438Z" fill="#39548F"/>
<path d="M806.787 581.589H692.287C663.647 581.589 640.215 605.021 640.215 633.661V687.453C640.215 699.801 650.319 709.905 662.667 709.905H834.57C847.984 709.905 858.858 699.032 858.858 685.618V633.661C858.859 605.021 835.427 581.589 806.787 581.589Z" fill="#324878"/>
<path d="M637.241 552.679H623.138C610.818 552.679 600.738 562.759 600.738 575.079V688.578C600.738 700.898 610.818 710.978 623.138 710.978H637.241C649.561 710.978 659.641 700.898 659.641 688.578V575.079C659.641 562.759 649.561 552.679 637.241 552.679Z" fill="#243354"/>
<path d="M875.932 552.679H861.83C849.51 552.679 839.43 562.759 839.43 575.079V688.578C839.43 700.898 849.51 710.978 861.83 710.978H875.932C888.252 710.978 898.332 700.898 898.332 688.578V575.079C898.332 562.759 888.252 552.679 875.932 552.679Z" fill="#243354"/>
<path d="M631.961 613.802L632.284 711.188L769.842 711.003L769.517 613.619L631.961 613.802Z" fill="#E4AC6F"/>
<path d="M740.25 613.658L740.575 711.042L778.748 710.992L778.423 613.606L740.25 613.658Z" fill="#DB9166"/>
<path d="M671.832 613.619V644.299V647.297V650.293L675.356 647.297L678.881 650.293L682.407 647.297L685.931 650.293L689.455 647.297L692.979 650.293V647.297V644.299V613.619H671.832Z" fill="#EDC78F"/>
<path d="M632.278 574.956H473.141V711.186H632.278V574.956Z" fill="#D98B64"/>
<path d="M632.654 574.956H602.832V711.186H632.654V574.956Z" fill="#BE5C51"/>
<path d="M524.355 574.956V612.094V615.721V619.348L528.621 615.721L532.888 619.348L537.153 615.721L541.421 619.348L545.686 615.721L549.951 619.348V615.721V612.094V574.956H524.355Z" fill="#EDC78F"/>
<path d="M692.987 599.036H734.303C737.757 599.036 740.581 601.86 740.581 605.314V612.235H686.707V605.314C686.709 601.86 689.535 599.036 692.987 599.036Z" fill="#352B4C"/>
<path d="M714.023 558.74H713.265C709.195 558.74 705.867 562.071 705.867 566.138V598.235C705.867 602.305 709.197 605.633 713.265 605.633H714.023C718.092 605.633 721.42 602.305 721.42 598.235V566.138C721.42 562.071 718.092 558.74 714.023 558.74Z" fill="#352B4C"/>
<path d="M673.995 575.127H689.316H737.971H753.293C759.374 575.127 763.89 569.496 762.57 563.56L752.591 518.717C751.624 514.369 747.767 511.278 743.315 511.278H737.973H689.318H683.976C679.522 511.278 675.667 514.371 674.699 518.717L664.719 563.56C663.398 569.494 667.913 575.127 673.995 575.127Z" fill="#EFCC98"/>
<path d="M417.234 315.38C417.234 315.38 450.345 366.176 450.884 384.564C451.424 402.953 418.55 423.766 403.882 414.373C389.213 404.98 374.362 363.348 371.069 345.881C367.776 328.415 399.556 285.771 417.234 315.38Z" fill="#DA8E8D"/>
<path d="M472.163 354.184H371.066V440.728H472.163V354.184Z" fill="#E4AC6F"/>
<path d="M419.137 354.184H365.496V440.728H419.137V354.184Z" fill="#DB9166"/>
<path d="M312.196 214.085C312.196 214.085 319.943 250.448 315.612 254.133C311.28 257.817 280.943 264.319 277.99 261.164C275.036 258.01 266.552 231.333 265.619 225.991C264.684 220.65 312.196 214.085 312.196 214.085Z" fill="#DA8E8D"/>
<path d="M307.122 246.018C307.122 246.018 308.83 268.711 313.502 274.899C318.174 281.087 341.326 281.031 342.874 284.126C344.421 287.221 329.447 326.632 313.963 328.266C282.034 331.633 248.473 295.909 250.412 292.355C252.352 288.801 278.67 284.699 282.175 280.057C285.681 275.415 279.239 243.954 279.239 243.954L307.122 246.018Z" fill="#DA8E8D"/>
<path d="M264.226 201.244C264.226 201.244 282.62 188.069 302.812 200.701C323.003 213.331 320.024 256.307 295.464 258.902C274.179 261.151 253.173 225.242 264.226 201.244Z" fill="#DA8E8D"/>
<path d="M271.968 238.791C271.968 238.791 264.413 223.882 259.594 235.92C256.904 242.642 261.798 246.644 266.075 248.895C273.825 252.972 276.933 242.526 271.968 238.791Z" fill="#DA8E8D"/>
<path d="M311.232 229.254C311.232 229.254 308.098 215.926 317.557 220.716C322.837 223.391 321.859 228.537 320.342 232.265C317.594 239.018 310.067 234.273 311.232 229.254Z" fill="#DA8E8D"/>
<path d="M267.586 244.568C267.033 242.64 266.197 241.415 265.103 240.932C263.873 240.386 262.658 240.956 262.647 240.961L261.809 239.263C261.889 239.222 263.821 238.292 265.87 239.199C267.504 239.922 268.695 241.553 269.41 244.047L267.586 244.568Z" fill="#D26E7E"/>
<path d="M289.147 244.82C289.147 244.82 296.89 243.978 299.105 243.455C301.323 242.932 299.477 250.324 295.986 251.129C292.546 251.92 286.993 245.331 289.147 244.82Z" fill="#FEFEFF"/>
<path d="M292.115 228.212C292.115 228.212 290.766 241.492 291.484 241.671C292.201 241.85 299.173 240.237 299.274 239.518C299.371 238.802 291.46 224.673 292.115 228.212Z" fill="#D26E7E"/>
<path d="M260.075 219.651C260.075 219.651 252.839 196.929 264.543 189.953C272.494 185.213 295.202 179.195 300.402 183.319C305.601 187.442 309.448 204.785 309.407 206.872C309.368 208.959 260.075 219.651 260.075 219.651Z" fill="#4263AA"/>
<path d="M301.94 230.621C303.119 230.39 303.795 228.77 303.449 227.004C303.103 225.237 301.867 223.992 300.687 224.224C299.507 224.455 298.831 226.074 299.177 227.84C299.523 229.607 300.76 230.852 301.94 230.621Z" fill="#352B4C"/>
<path d="M281.08 236.19C282.26 235.958 282.936 234.339 282.59 232.573C282.244 230.806 281.007 229.561 279.827 229.792C278.648 230.023 277.972 231.643 278.318 233.409C278.664 235.176 279.901 236.421 281.08 236.19Z" fill="#352B4C"/>
<path d="M270.483 217.458C270.483 217.458 272.495 226.338 270.483 228.787C268.47 231.238 273.217 240.647 273.217 241.683C273.217 242.719 267.705 241.648 264.183 232.307C260.66 222.966 258.629 219.058 261.175 218.638C263.722 218.218 269.432 216.08 270.483 217.458Z" fill="#352B4C"/>
<path d="M302.195 209.651C302.195 209.651 305.608 218.092 308.658 218.957C311.708 219.821 313.177 230.257 313.769 231.11C314.36 231.963 318.277 227.937 315.843 218.257C313.408 208.576 312.847 204.206 310.515 205.315C308.184 206.424 302.274 207.923 302.195 209.651Z" fill="#352B4C"/>
<path d="M261.18 218.64C261.18 218.64 287.692 211.109 296.2 201.965C304.709 192.82 314.988 184.825 320.766 189.773C326.543 194.722 322.923 202.715 305.927 208.436C288.931 214.158 276.382 217.072 261.18 218.64Z" fill="#352B4C"/>
<path d="M288.446 261.444C288.446 261.444 305.857 259.956 308.42 257.235C308.42 257.235 311.774 271.854 312.379 272.993C312.984 274.132 300.505 273.687 294.655 271.354C288.809 269.021 286.085 262.538 288.446 261.444Z" fill="#D26E7E"/>
<path d="M280.418 225.128C280.418 225.128 275.452 227.79 274.372 228.505C273.291 229.222 272.882 227.174 275.542 225.128C278.202 223.082 280.586 223.9 280.418 225.128Z" fill="#352B4C"/>
<path d="M305.89 219.726C305.89 219.726 300.256 219.783 298.966 219.918C297.676 220.052 298.263 218.049 301.568 217.467C304.876 216.886 306.607 218.714 305.89 219.726Z" fill="#352B4C"/>
<path d="M282.172 280.059C282.172 280.059 294.533 303.622 309.411 296.732C324.288 289.842 315.531 277.154 323.405 276.755C331.279 276.355 352 272.247 368.08 281.517C384.159 290.789 393.065 343.272 392.154 381.109C391.936 390.151 394.124 450.648 387.232 453.323C380.34 456 270.227 452.447 255.518 453.592C240.811 454.736 247.799 391.667 245.88 377.348C242.827 354.58 213.367 299.284 216.43 294.483C219.491 289.678 269.819 277.638 282.172 280.059Z" fill="#352B4C"/>
<path d="M283.456 708.861C283.456 708.861 323.972 730.776 314.706 732.1C305.44 733.423 271.231 732.35 264.885 732.1C259.109 731.872 259.109 729.453 259.109 729.453L261.206 707.181L283.456 708.861Z" fill="#352B4C"/>
<path d="M439.249 686.673C439.583 683.169 478.35 686.878 478.016 690.38C477.125 699.698 440.929 713.064 435.387 716.168C429.104 719.688 427.45 712.121 427.45 712.121L421.641 695.078L439.249 686.673Z" fill="#352B4C"/>
<path d="M229.447 294.48C229.447 294.48 131.476 339.68 156.294 391.011C156.294 391.011 173.663 401.681 190.836 394.911C208.01 388.139 250.185 358.595 255.13 347.335C260.075 336.075 229.447 294.48 229.447 294.48Z" fill="#DA8E8D"/>
<path d="M427.208 331.521C427.208 331.521 407.135 341.819 371.073 354.184C362.873 356.995 344.664 275.652 352.084 273.594C365.669 269.829 411.675 286.223 427.208 331.521Z" fill="#352B4C"/>
<path d="M182.68 315.38C182.68 315.38 208.934 375.727 221.073 370.952C233.212 366.177 264.236 344.64 258.83 331.827C253.425 319.014 238.844 285.935 231.715 288.182C224.586 290.43 204.24 295.576 182.68 315.38Z" fill="#352B4C"/>
<path d="M265.609 280.828C265.609 280.828 282.196 325.499 294.104 328.489C306.011 331.48 356.506 321.709 356.506 321.709C352.538 300.491 333.722 275.457 333.722 275.457C333.722 275.457 347.319 271.929 352.081 273.596C356.842 275.263 381.048 305.531 390.043 344.113C395.602 367.954 402.283 454.345 402.283 454.345C391.846 467.311 252.169 481.022 250.332 473.303C234.042 404.894 270.489 395.794 265.611 345.885C263.033 319.507 245.32 284.58 245.32 284.58C256.117 280.277 265.609 280.828 265.609 280.828Z" fill="#4263AA"/>
<path d="M269.498 325.409C269.498 325.409 285.85 311.848 287.515 303.9C289.179 295.952 296.32 311.275 286.724 321.538C286.724 321.538 297.657 328.695 296.981 336.716C296.305 344.739 293.28 365.214 282.477 360.706C271.675 356.198 255.131 347.333 255.131 347.333C255.131 347.333 252.273 329.283 269.498 325.409Z" fill="#DA8E8D"/>
<path d="M269.493 325.409C269.493 325.409 179.117 348.63 163.799 364.534C148.481 380.438 151.143 401.147 182.675 406.415C209.876 410.96 257.935 362.645 267.561 353.741C277.19 344.839 269.493 325.409 269.493 325.409Z" fill="#DA8E8D"/>
<path d="M245.319 708.623C245.319 708.623 279.643 711.072 296.656 708.86C313.669 706.648 333.904 625.489 336.803 594.863C339.701 564.236 342.983 492.754 342.983 492.754C342.983 492.754 367.509 539.386 374.922 574.863C379.805 598.24 398.492 695.614 410.142 695.93C423.362 696.286 457.985 684.03 457.615 674.588C457.423 669.647 455.073 570.361 442.299 536.673C429.525 502.984 403.889 443.263 399.358 440.2C394.828 437.137 249.775 461.995 250.329 473.302C250.884 484.608 261.178 542.798 258.826 568.916C257.854 579.741 232.783 709.607 245.319 708.623Z" fill="#4263AA"/>
<path d="M457.364 666.791C457.364 666.791 437.219 687.16 429.041 633.355C420.863 579.55 426.473 539.286 405.236 501.003C384.001 462.719 384.032 416.208 379.478 389.156C374.923 362.104 378.079 312.253 379.478 315.378C396.434 353.271 393.125 360.588 399.359 389.156C405.594 417.723 407.407 452.386 419.245 480.397C431.082 508.412 452.522 524.334 457.364 666.791Z" fill="#6F93E1"/>
<path d="M307.197 698.912C307.197 698.912 296.943 698.085 292.793 682.288C288.644 666.49 317.967 588.661 316.086 555.905C314.204 523.149 343.21 488.184 342.798 496.715C342.385 505.246 342.139 568.955 336.134 600.621C330.129 632.287 318.942 682.157 307.197 698.912Z" fill="#6F93E1"/>
<path d="M199.993 350.482C199.993 350.482 185.831 356.532 182.676 358.048C179.522 359.565 191.334 333.648 191.334 333.648C191.334 333.648 199.637 345.752 199.993 350.482Z" fill="#D26E7E"/>
<path d="M430.188 354.255V391.392V395.019V398.646L434.453 395.019L438.72 398.646L442.985 395.019L447.253 398.646L451.518 395.019L455.783 398.646V395.019V391.392V354.255H430.188Z" fill="#EDC78F"/>
<path d="M474.647 388.021C474.647 388.021 464.465 387.088 458.747 392.091C456.031 394.467 469.645 395.525 469.645 395.525C469.645 395.525 446.991 398.469 447.521 402.531C448.051 406.593 463.75 404.637 463.75 404.637C463.75 404.637 445.706 404.637 447.67 408.389C450.726 414.224 462.811 411.3 462.811 411.3C462.811 411.3 447.861 415.002 453.052 417.306C458.243 419.609 471.838 418.814 477.149 416.07C482.683 413.21 487.748 392.983 474.647 388.021Z" fill="#DA8E8D"/>
</svg>
