<svg width="500" height="402" viewBox="0 0 500 402" fill="none" xmlns="http://www.w3.org/2000/svg">
<g clip-path="url(#clip0_723_22018)">
<path d="M435.592 141.15H341.09V202.866H435.592V141.15Z" fill="#363C50"/>
<path d="M430.689 145.807H345.672V198.211H430.689V145.807Z" fill="#4263AA"/>
<path d="M411.726 150.873H382.594V164.374H411.726V150.873Z" fill="white"/>
<path d="M398.228 202.866H378.455V225.769H398.228V202.866Z" fill="#363C50"/>
<path d="M402.339 222.176H374.346V225.875H402.339V222.176Z" fill="#363C50"/>
<path d="M368.304 214.93H356.021V198.284C356.021 195.454 358.316 193.159 361.146 193.159H363.179C366.009 193.159 368.304 195.454 368.304 198.284V214.93Z" fill="#F2DBAF"/>
<path d="M376.713 150.873H351.41V152.065H376.713V150.873Z" fill="white"/>
<path d="M376.713 154.469H351.41V155.661H376.713V154.469Z" fill="white"/>
<path d="M376.713 158.063H351.41V159.255H376.713V158.063Z" fill="white"/>
<path d="M376.713 161.658H351.41V162.85H376.713V161.658Z" fill="white"/>
<path d="M376.713 165.253H351.41V166.445H376.713V165.253Z" fill="white"/>
<path d="M376.713 168.849H351.41V170.041H376.713V168.849Z" fill="white"/>
<path d="M376.713 172.443H351.41V173.635H376.713V172.443Z" fill="white"/>
<path d="M376.713 176.039H351.41V177.231H376.713V176.039Z" fill="white"/>
<path d="M376.713 179.635H351.41V180.827H376.713V179.635Z" fill="white"/>
<path d="M376.713 183.229H351.41V184.421H376.713V183.229Z" fill="white"/>
<path d="M376.713 186.824H351.41V188.016H376.713V186.824Z" fill="white"/>
<path d="M376.713 190.419H351.41V191.611H376.713V190.419Z" fill="white"/>
<path d="M435.592 160.167V156.667H418.562V160.167H401.574C399.136 160.167 397.16 162.143 397.16 164.581V202.667H435.654V160.167H435.592Z" fill="#4263AA"/>
<path d="M460.36 250.353H402.675C401.064 250.353 399.758 249.047 399.758 247.436V165.311C399.758 163.7 401.064 162.394 402.675 162.394H460.36C461.971 162.394 463.277 163.7 463.277 165.311V247.437C463.277 249.047 461.971 250.353 460.36 250.353Z" fill="#FCBE32"/>
<path d="M459.282 165.988H403.957V245.481H459.282V165.988Z" fill="white"/>
<path d="M447.099 158.498H420.035V169.683H447.099V158.498Z" fill="#363C50"/>
<path d="M436.912 155.652H431.619V158.498H436.912V155.652Z" fill="#363C50"/>
<path d="M421.484 174.228H409.5V186.212H421.484V174.228Z" fill="#4263AA"/>
<path d="M452.64 194.15H421.482V195.348H452.64V194.15Z" fill="#363C50"/>
<path d="M452.64 200.542H421.482V201.74H452.64V200.542Z" fill="#363C50"/>
<path d="M452.64 206.934H421.482V208.132H452.64V206.934Z" fill="#363C50"/>
<path d="M452.64 213.325H421.482V214.523H452.64V213.325Z" fill="#363C50"/>
<path d="M452.64 219.716H421.482V220.914H452.64V219.716Z" fill="#363C50"/>
<path d="M452.64 226.107H421.482V227.305H452.64V226.107Z" fill="#363C50"/>
<path d="M452.64 232.5H421.482V233.698H452.64V232.5Z" fill="#363C50"/>
<path d="M409.5 193.701L411.522 197.596L418.562 190.63L412.046 194.75L409.5 193.701Z" fill="#4263AA"/>
<path d="M409.5 201.328L411.522 205.223L418.562 198.257L412.046 202.377L409.5 201.328Z" fill="#4263AA"/>
<path d="M409.5 208.955L411.522 212.85L418.562 205.885L412.046 210.004L409.5 208.955Z" fill="#4263AA"/>
<path d="M409.5 216.583L411.522 220.477L418.562 213.512L412.046 217.631L409.5 216.583Z" fill="#4263AA"/>
<path d="M409.5 224.21L411.522 228.105L418.562 221.139L412.046 225.258L409.5 224.21Z" fill="#4263AA"/>
<path d="M409.5 231.838L411.522 235.733L418.562 228.767L412.046 232.887L409.5 231.838Z" fill="#4263AA"/>
<path d="M356.021 208.794H341.836V241.65H356.021V208.794Z" fill="#4263AA"/>
<path d="M378.941 241.65H356.021V208.794H378.941C382.091 208.794 384.645 211.348 384.645 214.498V235.946C384.645 239.096 382.091 241.65 378.941 241.65Z" fill="#F2DBAF"/>
<path d="M280.976 363.122H275.762V373.504H280.976V363.122Z" fill="#F2DBAF"/>
<path d="M305.292 363.122H300.078V373.504H305.292V363.122Z" fill="#F2DBAF"/>
<path d="M255.556 259.038C255.556 259.038 254.449 255.531 252.788 254.978C251.127 254.425 250.989 254.194 250.989 254.194C250.989 254.194 250.297 255.947 251.635 256.824H245.36C245.36 256.824 242.73 256.34 242.73 258.808C242.73 261.276 242.73 264.114 242.73 264.114C242.73 264.114 242.73 265.36 244.991 265.36C247.252 265.36 255.557 265.36 255.557 265.36V259.038H255.556Z" fill="#F2DBAF"/>
<path d="M279.022 223.959V254.689C279.022 260.703 274.147 265.578 268.133 265.578H255.275V258.072H263.211C268.206 258.072 272.255 254.023 272.255 249.028V230.725C272.255 226.989 275.285 223.959 279.022 223.959Z" fill="#6F93E1"/>
<path d="M242.447 268.594C242.447 268.594 243.554 265.087 245.215 264.534C246.876 263.98 247.015 263.75 247.015 263.75C247.015 263.75 247.707 265.503 246.369 266.38H252.644C252.644 266.38 255.274 265.896 255.274 268.364C255.274 270.832 255.274 273.67 255.274 273.67C255.274 273.67 255.274 274.916 253.013 274.916C250.752 274.916 242.447 274.916 242.447 274.916V268.594Z" fill="#F2DBAF"/>
<path d="M224.555 215.89C224.555 215.89 232.214 220.58 232.214 234.08V265.364C232.214 266.944 233.495 268.225 235.075 268.225H243.934V276.069H233.506C228.562 276.069 224.555 272.061 224.555 267.118V215.89Z" fill="#4263AA"/>
<path d="M230.359 288.649H192.523V230.596C192.523 220.356 200.824 212.054 211.065 212.054H213.109C222.636 212.054 230.359 219.777 230.359 229.304V288.649Z" fill="#6F93E1"/>
<path d="M252.875 241.585H206.734V270.746H252.875V241.585Z" fill="#FCBE32"/>
<path d="M230.358 241.585H206.734V270.746H230.358V241.585Z" fill="#FFD580"/>
<path d="M222.361 288.649H217.624H205.258H199.967H192.523V372.257H205.258V311.873C205.258 308.458 208.026 305.69 211.441 305.69C214.856 305.69 217.624 308.458 217.624 311.873V372.257H230.359V288.649H222.361Z" fill="#4263AA"/>
<path d="M205.257 372.257C205.257 372.257 208.21 376.194 210.548 376.194C212.886 376.194 213.993 376.194 213.993 376.194C213.993 376.194 214.608 379.393 212.516 379.762H192.521V372.256L205.257 372.257Z" fill="#363C50"/>
<path d="M230.725 372.257C230.725 372.257 233.678 376.194 236.016 376.194C238.354 376.194 239.461 376.194 239.461 376.194C239.461 376.194 240.076 379.393 237.984 379.762H217.99V372.256L230.725 372.257Z" fill="#363C50"/>
<path d="M272.697 372.257C272.697 372.257 269.744 376.065 267.406 376.065C265.068 376.065 263.961 376.065 263.961 376.065C263.961 376.065 263.346 379.159 265.438 379.516H280.561C282.158 379.516 283.453 378.221 283.453 376.624V372.256L272.697 372.257Z" fill="#363C50"/>
<path d="M297.059 372.257C297.059 372.257 294.106 376.065 291.768 376.065C289.43 376.065 288.323 376.065 288.323 376.065C288.323 376.065 287.708 379.159 289.8 379.516H304.923C306.52 379.516 307.815 378.221 307.815 376.624V372.256L297.059 372.257Z" fill="#363C50"/>
<path d="M307.691 288.649H272.07V229.865C272.07 220.029 280.044 212.054 289.881 212.054C299.717 212.054 307.692 220.028 307.692 229.865L307.691 288.649Z" fill="#4263AA"/>
<path d="M274.654 288.649V364.874H282.037V309.135C282.037 304.446 285.838 300.645 290.527 300.645C295.216 300.645 299.017 304.446 299.017 309.135V364.874H306.4V288.649H274.654Z" fill="#4263AA"/>
<path d="M290.824 214.209H286.782C285.01 214.209 283.574 212.773 283.574 211.001V206.581H294.033V211.001C294.033 212.773 292.596 214.209 290.824 214.209Z" fill="#F2DBAF"/>
<path d="M283.574 210.189C283.574 210.189 289.244 212.095 294.033 208.251V206.581H283.574V210.189Z" fill="#6F93E1"/>
<path d="M207.902 214.885L218.73 214.885L218.73 205.688L207.902 205.688L207.902 214.885Z" fill="#F2DBAF"/>
<path d="M207.902 208.303C207.902 208.303 210.609 212.24 218.73 210.733V206.58L207.902 206.079V208.303Z" fill="#6F93E1"/>
<path d="M307.691 229.292V261.457C307.691 263.734 305.846 265.579 303.569 265.579H282.59V258.073H298.647C299.904 258.073 300.923 257.054 300.923 255.797V235.935C300.923 232.217 303.973 229.223 307.691 229.292Z" fill="#6F93E1"/>
<path d="M207.902 210.886L205.377 215.079L210.24 222.637L213.685 214.885L207.902 210.886Z" fill="#4263AA"/>
<path d="M213.686 214.885L218.116 222.452L221.341 215.461L218.731 211.409L213.686 214.885Z" fill="#4263AA"/>
<path d="M192.754 225.852C192.754 225.852 200.413 225.344 200.413 235.219V266.503C200.413 268.083 201.694 269.364 203.274 269.364H212.133V277.208H201.705C196.761 277.208 192.754 273.2 192.754 268.257V225.852Z" fill="#4263AA"/>
<path d="M211.901 270.009C211.901 270.009 213.008 266.502 214.669 265.949C216.33 265.395 216.468 265.165 216.468 265.165C216.468 265.165 217.16 266.918 215.822 267.795H222.097C222.097 267.795 224.727 267.311 224.727 269.779C224.727 272.247 224.727 275.085 224.727 275.085C224.727 275.085 224.727 276.331 222.466 276.331C220.205 276.331 211.9 276.331 211.9 276.331V270.009H211.901Z" fill="#F2DBAF"/>
<path d="M221.007 241.585H214.055V251.921H221.007V241.585Z" fill="#FFE9C5"/>
<path d="M216.023 209.471C222.445 209.471 227.651 204.265 227.651 197.843V185.904C227.651 181.744 224.279 178.371 220.118 178.371H216.023C209.601 178.371 204.395 183.577 204.395 189.999V197.843C204.396 204.265 209.602 209.471 216.023 209.471Z" fill="#F2DBAF"/>
<path d="M210.795 185.848V189.109C210.795 189.109 206.55 189.201 206.55 193.892H202.551V185.848H210.795Z" fill="#363C50"/>
<path d="M202.551 188H227.652V184.37L202.551 185.355V188Z" fill="#6F93E1"/>
<path d="M206.309 186.886L234.69 185.835L228.438 182.3C228.438 182.3 227.129 175.385 224.914 173.273C222.699 171.16 205.48 172.94 204.643 173.897C203.551 175.145 201.79 176.121 201.974 186.886H206.309Z" fill="#4263AA"/>
<path d="M204.366 198.828C201.971 198.828 200.029 196.886 200.029 194.491C200.029 192.096 201.971 190.154 204.366 190.154" fill="#F2DBAF"/>
<path d="M282.901 259.038C282.901 259.038 281.794 255.531 280.133 254.978C278.472 254.424 278.333 254.194 278.333 254.194C278.333 254.194 277.641 255.947 278.979 256.824H272.704C272.704 256.824 270.074 256.34 270.074 258.808C270.074 261.276 270.074 264.114 270.074 264.114C270.074 264.114 270.074 265.36 272.335 265.36C274.596 265.36 282.901 265.36 282.901 265.36V259.038Z" fill="#F2DBAF"/>
<path d="M306.399 288.649H274.654V291.541H306.399V288.649Z" fill="#4263AA"/>
<path d="M230.359 288.649H192.523V291.541H230.359V288.649Z" fill="#4263AA"/>
<path d="M286.945 209.471H286.282C279.86 209.471 274.654 204.265 274.654 197.843V189.999C274.654 183.577 279.86 178.371 286.282 178.371H291.621C295.46 178.371 298.572 181.483 298.572 185.322V197.842C298.572 204.265 293.367 209.471 286.945 209.471Z" fill="#F2DBAF"/>
<path d="M274.654 188.719C274.654 188.719 281.697 189.189 283.822 185.407C287.01 185.501 289.322 185.595 291.76 183.688C292.073 187.031 296.341 190.178 296.341 190.178L293.885 178.938L281.229 181.469L274.878 187.721L274.654 188.719Z" fill="#6F93E1"/>
<path d="M292.239 181.238C292.239 181.238 291.239 185.625 283.406 184.309C283.406 184.309 282.698 187.723 274.655 187.723C274.655 187.723 273.332 187.538 273.332 186C273.332 184.462 272.809 178.787 278.658 174.442C284.993 169.736 303.63 169.319 304.924 185.108C305.97 197.874 301.233 204.414 296.342 204.414V190.178C296.342 190.178 292.239 187.457 292.239 181.238Z" fill="#363C50"/>
<path d="M295.879 198.828C298.274 198.828 300.216 196.886 300.216 194.491C300.216 192.096 298.274 190.154 295.879 190.154V198.828Z" fill="#F2DBAF"/>
<path d="M215.669 194.251C215.983 194.251 216.238 193.608 216.238 192.813C216.238 192.019 215.983 191.375 215.669 191.375C215.354 191.375 215.1 192.019 215.1 192.813C215.1 193.608 215.354 194.251 215.669 194.251Z" fill="#363C50"/>
<path d="M225.122 194.251C225.436 194.251 225.691 193.608 225.691 192.813C225.691 192.019 225.436 191.375 225.122 191.375C224.807 191.375 224.553 192.019 224.553 192.813C224.553 193.608 224.807 194.251 225.122 194.251Z" fill="#363C50"/>
<path d="M214.572 200.688C214.76 200.751 218.799 203.938 225.123 200.688" stroke="#363C50" stroke-width="0.75" stroke-miterlimit="10" stroke-linecap="round"/>
<path d="M278.128 194.251C278.442 194.251 278.697 193.608 278.697 192.813C278.697 192.019 278.442 191.375 278.128 191.375C277.813 191.375 277.559 192.019 277.559 192.813C277.559 193.608 277.813 194.251 278.128 194.251Z" fill="#363C50"/>
<path d="M287.581 194.251C287.895 194.251 288.15 193.608 288.15 192.813C288.15 192.019 287.895 191.375 287.581 191.375C287.266 191.375 287.012 192.019 287.012 192.813C287.012 193.608 287.266 194.251 287.581 194.251Z" fill="#363C50"/>
<path d="M287.582 200.688C287.394 200.751 282.031 203.709 277.031 200.688" stroke="#363C50" stroke-width="0.75" stroke-miterlimit="10" stroke-linecap="round"/>
<path d="M312.273 93.9043H176.287V109.268H312.273V93.9043Z" fill="#4263AA"/>
<path d="M304.463 93.9043H176.287V96.5353H304.463V93.9043Z" fill="#4263AA"/>
<path d="M271.781 38.3037L314.077 42.5177C316.226 42.7317 317.914 44.4527 318.088 46.6057L320.505 76.6717C320.505 76.6717 323.391 77.5207 323.391 81.0857C323.391 84.6507 323.391 109.268 323.391 109.268H304.377L298.944 93.8187H271.781V38.3037Z" fill="#FCBE32"/>
<path d="M317.92 45.707L315.838 46.708L316.879 75.908L320.506 76.672L317.92 45.707Z" fill="#363C50"/>
<path d="M271.783 28.542H167.629V93.903H271.783V28.542Z" fill="#4263AA"/>
<path d="M218.355 120.982C224.824 120.982 230.069 115.737 230.069 109.268C230.069 102.798 224.824 97.5537 218.355 97.5537C211.885 97.5537 206.641 102.798 206.641 109.268C206.641 115.737 211.885 120.982 218.355 120.982Z" fill="#363C50"/>
<path d="M218.355 116.787C222.508 116.787 225.874 113.421 225.874 109.268C225.874 105.115 222.508 101.749 218.355 101.749C214.202 101.749 210.836 105.115 210.836 109.268C210.836 113.421 214.202 116.787 218.355 116.787Z" fill="white"/>
<path d="M218.356 110.52C219.047 110.52 219.608 109.959 219.608 109.268C219.608 108.576 219.047 108.016 218.356 108.016C217.664 108.016 217.104 108.576 217.104 109.268C217.104 109.959 217.664 110.52 218.356 110.52Z" fill="#363C50"/>
<path d="M218.355 106.644C218.611 106.644 218.819 106.436 218.819 106.18C218.819 105.924 218.611 105.716 218.355 105.716C218.098 105.716 217.891 105.924 217.891 106.18C217.891 106.436 218.098 106.644 218.355 106.644Z" fill="#363C50"/>
<path d="M218.355 112.82C218.611 112.82 218.819 112.612 218.819 112.356C218.819 112.099 218.611 111.892 218.355 111.892C218.098 111.892 217.891 112.099 217.891 112.356C217.891 112.612 218.098 112.82 218.355 112.82Z" fill="#363C50"/>
<path d="M221.443 109.732C221.699 109.732 221.907 109.524 221.907 109.268C221.907 109.011 221.699 108.804 221.443 108.804C221.186 108.804 220.979 109.011 220.979 109.268C220.979 109.524 221.186 109.732 221.443 109.732Z" fill="#363C50"/>
<path d="M215.267 109.732C215.523 109.732 215.731 109.524 215.731 109.268C215.731 109.011 215.523 108.804 215.267 108.804C215.01 108.804 214.803 109.011 214.803 109.268C214.803 109.524 215.01 109.732 215.267 109.732Z" fill="#363C50"/>
<path d="M220.538 107.549C220.794 107.549 221.002 107.341 221.002 107.085C221.002 106.829 220.794 106.621 220.538 106.621C220.282 106.621 220.074 106.829 220.074 107.085C220.074 107.341 220.282 107.549 220.538 107.549Z" fill="#363C50"/>
<path d="M216.171 111.915C216.427 111.915 216.635 111.708 216.635 111.451C216.635 111.195 216.427 110.987 216.171 110.987C215.915 110.987 215.707 111.195 215.707 111.451C215.707 111.708 215.915 111.915 216.171 111.915Z" fill="#363C50"/>
<path d="M216.171 107.549C216.427 107.549 216.635 107.341 216.635 107.085C216.635 106.829 216.427 106.621 216.171 106.621C215.915 106.621 215.707 106.829 215.707 107.085C215.707 107.341 215.915 107.549 216.171 107.549Z" fill="#363C50"/>
<path d="M220.538 111.915C220.794 111.915 221.002 111.708 221.002 111.451C221.002 111.195 220.794 110.987 220.538 110.987C220.282 110.987 220.074 111.195 220.074 111.451C220.074 111.708 220.282 111.915 220.538 111.915Z" fill="#363C50"/>
<path d="M218.356 115.229C221.648 115.229 224.317 112.56 224.317 109.268C224.317 105.975 221.648 103.307 218.356 103.307C215.063 103.307 212.395 105.975 212.395 109.268C212.395 112.56 215.063 115.229 218.356 115.229Z" stroke="#363C50" stroke-width="0.25" stroke-miterlimit="10"/>
<path d="M191.984 120.982C198.453 120.982 203.698 115.737 203.698 109.268C203.698 102.798 198.453 97.5537 191.984 97.5537C185.514 97.5537 180.27 102.798 180.27 109.268C180.27 115.737 185.514 120.982 191.984 120.982Z" fill="#363C50"/>
<path d="M191.984 116.787C196.136 116.787 199.503 113.421 199.503 109.268C199.503 105.115 196.136 101.749 191.984 101.749C187.831 101.749 184.465 105.115 184.465 109.268C184.465 113.421 187.831 116.787 191.984 116.787Z" fill="white"/>
<path d="M191.984 110.52C192.676 110.52 193.236 109.959 193.236 109.268C193.236 108.576 192.676 108.016 191.984 108.016C191.293 108.016 190.732 108.576 190.732 109.268C190.732 109.959 191.293 110.52 191.984 110.52Z" fill="#363C50"/>
<path d="M191.984 106.644C192.24 106.644 192.448 106.436 192.448 106.18C192.448 105.924 192.24 105.716 191.984 105.716C191.727 105.716 191.52 105.924 191.52 106.18C191.52 106.436 191.727 106.644 191.984 106.644Z" fill="#363C50"/>
<path d="M191.984 112.82C192.24 112.82 192.448 112.612 192.448 112.356C192.448 112.099 192.24 111.892 191.984 111.892C191.727 111.892 191.52 112.099 191.52 112.356C191.52 112.612 191.727 112.82 191.984 112.82Z" fill="#363C50"/>
<path d="M195.071 109.732C195.328 109.732 195.535 109.524 195.535 109.268C195.535 109.011 195.328 108.804 195.071 108.804C194.815 108.804 194.607 109.011 194.607 109.268C194.607 109.524 194.815 109.732 195.071 109.732Z" fill="#363C50"/>
<path d="M188.896 109.732C189.152 109.732 189.36 109.524 189.36 109.268C189.36 109.011 189.152 108.804 188.896 108.804C188.639 108.804 188.432 109.011 188.432 109.268C188.432 109.524 188.639 109.732 188.896 109.732Z" fill="#363C50"/>
<path d="M194.165 107.549C194.421 107.549 194.629 107.341 194.629 107.085C194.629 106.829 194.421 106.621 194.165 106.621C193.909 106.621 193.701 106.829 193.701 107.085C193.701 107.341 193.909 107.549 194.165 107.549Z" fill="#363C50"/>
<path d="M189.8 111.915C190.056 111.915 190.264 111.708 190.264 111.451C190.264 111.195 190.056 110.987 189.8 110.987C189.544 110.987 189.336 111.195 189.336 111.451C189.336 111.708 189.544 111.915 189.8 111.915Z" fill="#363C50"/>
<path d="M189.8 107.549C190.056 107.549 190.264 107.341 190.264 107.085C190.264 106.829 190.056 106.621 189.8 106.621C189.544 106.621 189.336 106.829 189.336 107.085C189.336 107.341 189.544 107.549 189.8 107.549Z" fill="#363C50"/>
<path d="M194.165 111.915C194.421 111.915 194.629 111.708 194.629 111.451C194.629 111.195 194.421 110.987 194.165 110.987C193.909 110.987 193.701 111.195 193.701 111.451C193.701 111.708 193.909 111.915 194.165 111.915Z" fill="#363C50"/>
<path d="M191.984 115.229C195.277 115.229 197.945 112.56 197.945 109.268C197.945 105.975 195.277 103.307 191.984 103.307C188.692 103.307 186.023 105.975 186.023 109.268C186.023 112.56 188.692 115.229 191.984 115.229Z" stroke="#363C50" stroke-width="0.25" stroke-miterlimit="10"/>
<path d="M286.958 120.982C293.428 120.982 298.672 115.737 298.672 109.268C298.672 102.798 293.428 97.5537 286.958 97.5537C280.489 97.5537 275.244 102.798 275.244 109.268C275.244 115.737 280.489 120.982 286.958 120.982Z" fill="#363C50"/>
<path d="M286.958 116.787C291.111 116.787 294.477 113.421 294.477 109.268C294.477 105.115 291.111 101.749 286.958 101.749C282.806 101.749 279.439 105.115 279.439 109.268C279.439 113.421 282.806 116.787 286.958 116.787Z" fill="white"/>
<path d="M286.959 110.52C287.651 110.52 288.211 109.959 288.211 109.268C288.211 108.576 287.651 108.016 286.959 108.016C286.268 108.016 285.707 108.576 285.707 109.268C285.707 109.959 286.268 110.52 286.959 110.52Z" fill="#363C50"/>
<path d="M286.958 106.644C287.214 106.644 287.422 106.436 287.422 106.18C287.422 105.924 287.214 105.716 286.958 105.716C286.702 105.716 286.494 105.924 286.494 106.18C286.494 106.436 286.702 106.644 286.958 106.644Z" fill="#363C50"/>
<path d="M286.958 112.82C287.214 112.82 287.422 112.612 287.422 112.356C287.422 112.099 287.214 111.892 286.958 111.892C286.702 111.892 286.494 112.099 286.494 112.356C286.494 112.612 286.702 112.82 286.958 112.82Z" fill="#363C50"/>
<path d="M290.046 109.732C290.302 109.732 290.51 109.524 290.51 109.268C290.51 109.011 290.302 108.804 290.046 108.804C289.79 108.804 289.582 109.011 289.582 109.268C289.582 109.524 289.79 109.732 290.046 109.732Z" fill="#363C50"/>
<path d="M283.87 109.732C284.126 109.732 284.334 109.524 284.334 109.268C284.334 109.011 284.126 108.804 283.87 108.804C283.614 108.804 283.406 109.011 283.406 109.268C283.406 109.524 283.614 109.732 283.87 109.732Z" fill="#363C50"/>
<path d="M289.14 107.549C289.396 107.549 289.604 107.341 289.604 107.085C289.604 106.829 289.396 106.621 289.14 106.621C288.884 106.621 288.676 106.829 288.676 107.085C288.676 107.341 288.884 107.549 289.14 107.549Z" fill="#363C50"/>
<path d="M284.775 111.915C285.031 111.915 285.239 111.708 285.239 111.451C285.239 111.195 285.031 110.987 284.775 110.987C284.518 110.987 284.311 111.195 284.311 111.451C284.311 111.708 284.518 111.915 284.775 111.915Z" fill="#363C50"/>
<path d="M284.775 107.549C285.031 107.549 285.239 107.341 285.239 107.085C285.239 106.829 285.031 106.621 284.775 106.621C284.518 106.621 284.311 106.829 284.311 107.085C284.311 107.341 284.518 107.549 284.775 107.549Z" fill="#363C50"/>
<path d="M289.14 111.915C289.396 111.915 289.604 111.708 289.604 111.451C289.604 111.195 289.396 110.987 289.14 110.987C288.884 110.987 288.676 111.195 288.676 111.451C288.676 111.708 288.884 111.915 289.14 111.915Z" fill="#363C50"/>
<path d="M286.959 115.229C290.251 115.229 292.92 112.56 292.92 109.268C292.92 105.975 290.251 103.307 286.959 103.307C283.667 103.307 280.998 105.975 280.998 109.268C280.998 112.56 283.667 115.229 286.959 115.229Z" stroke="#363C50" stroke-width="0.25" stroke-miterlimit="10"/>
<path d="M238.153 115.549H265.939C267.619 115.549 268.981 114.187 268.981 112.507V101.19C268.981 99.5104 267.619 98.1484 265.939 98.1484H238.153C236.473 98.1484 235.111 99.5104 235.111 101.19V112.508C235.111 114.188 236.473 115.549 238.153 115.549Z" fill="#363C50"/>
<path d="M305.94 47.7862L284.516 46.4102V73.2762L312.832 75.6312L312.273 54.5392C312.273 50.9712 309.502 48.0152 305.94 47.7862Z" fill="#363C50"/>
<path d="M323.392 81.0859H320.506V88.2159L323.392 91.4419V81.0859Z" fill="#4263AA"/>
<path d="M320.972 81.6172H271.781" stroke="#4263AA" stroke-width="0.5" stroke-miterlimit="10"/>
<path d="M324.835 100.864H317.195V111.451H324.835V100.864Z" fill="#363C50"/>
<path d="M178.156 100.864H170.516V111.451H178.156V100.864Z" fill="#363C50"/>
<path d="M267.493 103.307H236.514V105.716H267.493V103.307Z" fill="white"/>
<path d="M157.132 215.034H37.1914V219.919H157.132V215.034Z" fill="#363C50"/>
<path d="M139.313 219.919H51.7168V224.804H139.313V219.919Z" fill="#363C50"/>
<path d="M41.5813 215.766L27.2383 158.54L29.8733 157.954L45.2403 215.034L41.5813 215.766Z" fill="#363C50"/>
<path d="M149.52 188.482H95.5137V215.034H149.52V188.482Z" fill="#FCBE32"/>
<path d="M149.522 188.482H129.156V215.034H149.522V188.482Z" fill="#FFD580"/>
<path d="M95.515 149.594H59.291V182.305H95.515V149.594Z" fill="#FCBE32"/>
<path d="M95.515 182.322H59.291V215.033H95.515V182.322Z" fill="#FCBE32"/>
<path d="M139.312 157.954H95.5137V188.482H139.312V157.954Z" fill="#FCBE32"/>
<path d="M80.9761 149.594H73.8301V155.268H80.9761V149.594Z" fill="#FFE9C5"/>
<path d="M112.669 157.954H95.5137V188.482H112.669V157.954Z" fill="#FFD580"/>
<path d="M105.27 157.954H99.5957V163.628H105.27V157.954Z" fill="#FFE9C5"/>
<path d="M143.153 188.482H137.479V194.156H143.153V188.482Z" fill="#FFE9C5"/>
<path d="M72.3094 182.322H48.1094V215.033H72.3094V182.322Z" fill="#FFD580"/>
<path d="M62.5054 182.313H55.3594V187.987H62.5054V182.313Z" fill="#FFE9C5"/>
<path d="M95.515 177.601H59.291V182.305H95.515V177.601Z" fill="#FFD580"/>
<path d="M139.312 185.863H95.5137V188.482H139.312V185.863Z" fill="#FFD580"/>
<path d="M95.5156 188.482V215.034H99.2506V188.482H95.5156Z" fill="#FFD580"/>
<path d="M55.6112 236.964C58.3693 236.964 60.6052 234.728 60.6052 231.97C60.6052 229.211 58.3693 226.976 55.6112 226.976C52.8531 226.976 50.6172 229.211 50.6172 231.97C50.6172 234.728 52.8531 236.964 55.6112 236.964Z" fill="#363C50"/>
<path d="M135.58 236.964C138.338 236.964 140.574 234.728 140.574 231.97C140.574 229.211 138.338 226.976 135.58 226.976C132.822 226.976 130.586 229.211 130.586 231.97C130.586 234.728 132.822 236.964 135.58 236.964Z" fill="#363C50"/>
<path d="M135.58 234.894C137.195 234.894 138.504 233.585 138.504 231.97C138.504 230.355 137.195 229.046 135.58 229.046C133.965 229.046 132.656 230.355 132.656 231.97C132.656 233.585 133.965 234.894 135.58 234.894Z" fill="white"/>
<path d="M55.6095 234.894C57.2244 234.894 58.5335 233.585 58.5335 231.97C58.5335 230.355 57.2244 229.046 55.6095 229.046C53.9947 229.046 52.6855 230.355 52.6855 231.97C52.6855 233.585 53.9947 234.894 55.6095 234.894Z" fill="white"/>
<path d="M52.7168 223.869L54.6658 231.97H56.7368L58.5028 223.869H52.7168Z" fill="#363C50"/>
<path d="M132.484 223.869L134.433 231.97H136.504L138.27 223.869H132.484Z" fill="#363C50"/>
<path d="M159.245 317.284H92.7969V354.227H159.245V317.284Z" fill="#FCBE32"/>
<path d="M97.1188 348.264H46.7598V381.217H97.1188V348.264Z" fill="#FCBE32"/>
<path d="M63.3303 348.264H35.3203V381.217H63.3303V348.264Z" fill="#FFD580"/>
<path d="M124.199 317.284H92.7969V354.227H124.199V317.284Z" fill="#FFD580"/>
<path d="M85.6798 322.796H46.7598V348.264H85.6798V322.796Z" fill="#FCBE32"/>
<path d="M167.626 354.227H84.0254V366.134H167.626V354.227Z" fill="#6F93E1"/>
<path d="M159.245 366.134H90.8535V374.461H159.245V366.134Z" fill="#6F93E1"/>
<path d="M146.644 282.589H92.7969V307.902H146.644V282.589Z" fill="#6F93E1"/>
<path d="M139.441 304.627H99.9707C98.2447 304.627 96.8457 303.228 96.8457 301.502V288.989C96.8457 287.263 98.2447 285.864 99.9707 285.864H139.441C141.167 285.864 142.566 287.263 142.566 288.989V301.502C142.566 303.228 141.167 304.627 139.441 304.627Z" fill="#4263AA"/>
<path d="M108.23 307.902H98.8477V317.284H108.23V307.902Z" fill="#6F93E1"/>
<path d="M100.458 374.461H95.9062V381.289H100.458V374.461Z" fill="#6F93E1"/>
<path d="M157.523 374.461H152.971V381.289H157.523V374.461Z" fill="#6F93E1"/>
<path d="M70.0169 322.796H62.4219V328.827H70.0169V322.796Z" fill="#FFE9C5"/>
<path d="M51.5462 348.264H43.9512V354.295H51.5462V348.264Z" fill="#FFE9C5"/>
<path d="M85.6798 345.203H46.7598V348.264H85.6798V345.203Z" fill="#FFD580"/>
<path d="M159.245 350.795H92.7969V354.227H159.245V350.795Z" fill="#FFD580"/>
<path d="M107.79 299.276H100.571V297.507L103 295.051C103.694 294.325 104.148 293.83 104.361 293.564C104.574 293.298 104.723 293.071 104.807 292.88C104.891 292.689 104.933 292.49 104.933 292.281C104.933 292.022 104.849 291.818 104.681 291.669C104.513 291.519 104.277 291.444 103.973 291.444C103.66 291.444 103.344 291.534 103.024 291.713C102.704 291.892 102.343 292.156 101.939 292.506L100.463 290.778C100.976 290.32 101.406 289.992 101.756 289.795C102.105 289.598 102.485 289.447 102.896 289.343C103.307 289.239 103.768 289.187 104.281 289.187C104.925 289.187 105.5 289.3 106.006 289.527C106.512 289.754 106.904 290.077 107.183 290.497C107.462 290.917 107.601 291.387 107.601 291.909C107.601 292.299 107.552 292.66 107.455 292.991C107.357 293.322 107.207 293.648 107.003 293.967C106.799 294.287 106.528 294.624 106.19 294.977C105.852 295.331 105.132 296.002 104.03 296.991V297.059H107.792V299.276H107.79Z" fill="white"/>
<path d="M115.995 294.316C115.995 296.076 115.7 297.365 115.111 298.184C114.522 299.003 113.619 299.412 112.403 299.412C111.215 299.412 110.319 298.985 109.716 298.13C109.113 297.275 108.811 296.004 108.811 294.317C108.811 292.548 109.106 291.251 109.695 290.425C110.285 289.599 111.187 289.187 112.403 289.187C113.587 289.187 114.481 289.617 115.087 290.476C115.692 291.335 115.995 292.615 115.995 294.316ZM111.484 294.316C111.484 295.441 111.554 296.214 111.695 296.636C111.836 297.058 112.071 297.269 112.403 297.269C112.739 297.269 112.976 297.051 113.114 296.616C113.252 296.181 113.322 295.414 113.322 294.316C113.322 293.214 113.252 292.442 113.111 291.999C112.97 291.557 112.735 291.336 112.403 291.336C112.071 291.336 111.836 291.549 111.695 291.976C111.555 292.402 111.484 293.182 111.484 294.316Z" fill="white"/>
<path d="M110.287 317.284H103.539V324.032H110.287V317.284Z" fill="#FFE9C5"/>
<path d="M159.245 366.134H90.8535V369.138H159.245V366.134Z" fill="#4263AA"/>
<path d="M108.23 307.902H98.8477V309.774H108.23V307.902Z" fill="#4263AA"/>
<path d="M409.656 401.766C434.682 401.766 454.97 381.478 454.97 356.452C454.97 331.426 434.682 311.138 409.656 311.138C384.63 311.138 364.342 331.426 364.342 356.452C364.342 381.478 384.63 401.766 409.656 401.766Z" fill="#4263AA"/>
<path d="M452.941 343.014H445.821L444.488 347.5L439.321 348.812C439.321 348.812 436.154 351.834 436.988 353C437.821 354.167 433.321 359.525 433.321 359.525L426.988 358C426.988 358 426.488 359.333 426.988 361C427.488 362.667 426.543 363.996 426.766 366.331C426.988 368.666 424.655 366.666 423.822 369.333C422.989 372 417.488 372.5 417.488 374.5C417.488 376.5 417.488 378 417.488 378C417.488 378 418.321 378 422.821 378C427.321 378 433.154 378 433.154 378C433.154 378 438.821 376.833 439.321 378C439.821 379.167 442.7 378.167 441.927 381C441.159 383.814 442.867 387.195 442.891 387.24C450.382 379.157 454.968 368.342 454.968 356.452C454.968 351.773 454.258 347.26 452.941 343.014Z" fill="#6F93E1"/>
<path d="M380.587 345.25C382.228 342.5 382.946 338.5 385.071 339.459C387.196 340.418 385.565 343.875 389.321 345.25C393.077 346.625 391.821 355 393.845 355C395.868 355 400.446 360.125 401.19 358.911C401.934 357.697 405.821 358 405.446 355.75C405.071 353.5 409.821 350.75 408.196 349.75C406.571 348.75 404.446 346.75 403.571 346C402.696 345.25 403.571 342.25 404.446 339.459C405.321 336.668 404.071 335.5 402.446 334.651C400.821 333.802 401.571 331.125 401.696 330.625C401.821 330.125 401.571 328.125 399.571 326.125C397.571 324.125 399.571 320.5 399.571 318.875C399.571 317.254 393.876 313.994 393.847 313.977C378.922 319.534 367.726 332.731 364.994 348.814C365.098 348.84 373.078 350.874 374.205 350.75C375.34 350.625 378.946 348 380.587 345.25Z" fill="#6F93E1"/>
<path d="M423.447 322.25C422.072 322.625 420.822 327.625 419.822 329.375C418.822 331.125 418.322 333.25 420.197 336.561C422.072 339.872 418.322 341.625 415.572 344.333C412.822 347.041 412.12 347.085 412.197 348.812C412.322 351.624 415.072 349.875 416.697 350.625C418.322 351.375 419.572 350.25 420.072 347.5C420.572 344.75 423.197 344.25 424.822 344.333C426.447 344.416 429.322 344.375 432.197 341.75C435.072 339.125 433.072 336.75 434.447 335.375C435.822 334 438.947 334.625 441.928 334.322C443.882 334.123 445.962 332.279 447.167 331.028C442.725 324.487 436.617 319.17 429.453 315.685C428.645 316.327 427.759 317.288 426.572 318C424.697 319.125 424.822 321.875 423.447 322.25Z" fill="#6F93E1"/>
<path d="M400.964 366.331C400.964 349.807 387.569 336.412 371.045 336.412C370.347 336.412 369.657 336.445 368.972 336.492C366.011 342.515 364.342 349.287 364.342 356.452C364.342 371.766 371.946 385.296 383.577 393.498C393.839 388.756 400.964 378.379 400.964 366.331Z" fill="#4263AA"/>
<path d="M400.964 366.331C400.964 349.807 387.569 336.412 371.045 336.412C370.347 336.412 369.657 336.445 368.972 336.492C366.011 342.515 364.342 349.287 364.342 356.452C364.342 371.766 371.946 385.296 383.577 393.498C393.839 388.756 400.964 378.379 400.964 366.331Z" fill="#4263AA"/>
<path d="M421.227 312.63L408.537 333.268H448.597L440.489 313.767L422.363 312.944L421.227 312.63Z" fill="#4263AA"/>
<path d="M371.045 393.071C385.813 393.071 397.785 381.099 397.785 366.331C397.785 351.563 385.813 339.591 371.045 339.591C356.277 339.591 344.305 351.563 344.305 366.331C344.305 381.099 356.277 393.071 371.045 393.071Z" fill="#363C50"/>
<path d="M371.045 388.329C383.194 388.329 393.043 378.48 393.043 366.331C393.043 354.182 383.194 344.333 371.045 344.333C358.896 344.333 349.047 354.182 349.047 366.331C349.047 378.48 358.896 388.329 371.045 388.329Z" fill="white"/>
<path d="M376.183 336.561H365.908V342.357H376.183V336.561Z" fill="#363C50"/>
<path d="M371.045 320.622C367.262 320.622 364.195 323.689 364.195 327.472C364.195 331.255 367.262 334.322 371.045 334.322C374.828 334.322 377.895 331.255 377.895 327.472C377.895 323.689 374.828 320.622 371.045 320.622ZM371.045 331.996C368.547 331.996 366.522 329.971 366.522 327.473C366.522 324.975 368.547 322.949 371.045 322.949C373.543 322.949 375.568 324.974 375.568 327.473C375.568 329.97 373.543 331.996 371.045 331.996Z" fill="#363C50"/>
<path d="M372.559 332.741H369.529V336.561H372.559V332.741Z" fill="#363C50"/>
<path d="M369.53 348.812C369.53 348.812 374.103 370.239 369.53 370.239C364.957 370.239 369.53 348.812 369.53 348.812Z" fill="#363C50"/>
<path d="M380.587 358.911C380.587 358.911 371.185 373.253 368.207 369.782C365.229 366.311 380.587 358.911 380.587 358.911Z" fill="#363C50"/>
<path d="M411.236 331.996H472.621V307.186H425.726L411.236 331.996Z" fill="#FCBE32"/>
<path d="M438.263 325.584H429.688V323.482L432.573 320.565C433.398 319.703 433.936 319.114 434.19 318.798C434.443 318.484 434.619 318.212 434.719 317.986C434.819 317.759 434.868 317.522 434.868 317.274C434.868 316.967 434.768 316.724 434.569 316.546C434.369 316.368 434.089 316.279 433.728 316.279C433.356 316.279 432.98 316.385 432.6 316.598C432.22 316.811 431.79 317.125 431.311 317.539L429.557 315.486C430.166 314.942 430.678 314.552 431.093 314.318C431.508 314.084 431.959 313.905 432.447 313.781C432.935 313.657 433.483 313.595 434.092 313.595C434.858 313.595 435.54 313.73 436.141 313.998C436.742 314.268 437.208 314.652 437.539 315.15C437.87 315.648 438.036 316.208 438.036 316.827C438.036 317.291 437.978 317.719 437.862 318.112C437.746 318.505 437.567 318.892 437.325 319.272C437.082 319.652 436.761 320.051 436.359 320.472C435.958 320.892 435.102 321.69 433.793 322.864V322.945H438.263V325.584Z" fill="#363C50"/>
<path d="M448.341 323.297H447.039V325.584H443.888V323.297H439.176V320.953L444.089 313.767H447.039V320.912H448.341V323.297ZM443.888 320.912V319.539C443.888 319.28 443.897 318.932 443.916 318.492C443.935 318.053 443.949 317.822 443.96 317.801H443.871C443.687 318.216 443.48 318.604 443.249 318.965L441.939 320.912H443.888Z" fill="#363C50"/>
<path d="M464.294 325.584H461.086V320.767H457.376V325.584H454.168V313.768H457.376V318.149H461.086V313.768H464.294V325.584Z" fill="#363C50"/>
</g>
<defs>
<clipPath id="clip0_723_22018">
<rect width="500" height="401" fill="white" transform="translate(0 0.5)"/>
</clipPath>
</defs>
</svg>
