<svg width="684" height="480" viewBox="0 0 684 480" fill="none" xmlns="http://www.w3.org/2000/svg">
<g clip-path="url(#clip0_672_44109)">
<path d="M35.9871 410.148C36.019 410.171 660.797 410.074 660.797 410.074C680.049 370.627 690.204 326.926 679.35 284.191C666.334 232.938 622.62 198.503 593.575 185.334C569.77 174.5 547.704 173.088 528.185 174.884C513.093 176.273 499.521 179.581 487.848 181.939C479.61 183.611 471.884 184.883 465.436 184.462C454.726 183.763 446.331 176.096 438.781 168.111C412.025 139.838 381.386 90.9617 271.978 85.1129C239.466 83.3861 201.874 86.2529 171.812 98.7651C159.029 104.081 110.869 127.87 96.7383 168.111C92.2752 180.811 91.2046 195.15 95.7043 211.065C111.63 267.38 87.3821 274.389 57.042 301.227C16.5471 337.044 3.50811 385.374 35.9871 410.148Z" fill="#EDF4FF"/>
<path d="M196.647 196.735H62.8008V275.347H196.647V196.735Z" fill="#E58638"/>
<path d="M601.181 181.145H447.754V411.103H601.181V181.145Z" fill="#F2D3B6"/>
<path d="M380.189 166.304H196.637V410.529H380.189V166.304Z" fill="#F2D3B6"/>
<path d="M451.706 84.4082H189.316V203.526H451.706V84.4082Z" fill="#E58638"/>
<path d="M328.951 188.129L466.897 57.7046L604.842 188.129H328.951Z" fill="#F2D3B6"/>
<path d="M616.021 200.948C614.787 200.948 613.553 200.503 612.576 199.599L466.898 72.8548C420.496 115.103 366.6 155.794 364.98 156.873C362.658 158.423 359.511 157.8 357.957 155.464C356.459 153.217 356.993 150.212 359.124 148.608C362.463 145.847 423.255 90.5939 463.488 53.9577C465.438 52.1862 468.42 52.2059 470.343 53.9874L619.465 192.163C621.517 194.066 621.639 197.273 619.739 199.325C618.739 200.404 617.38 200.948 616.021 200.948Z" fill="#E58638"/>
<path d="M471.964 166.304H288.412V410.529H471.964V166.304Z" fill="#FFE3CA"/>
<path d="M288.412 166.304L380.188 79.5312L471.964 166.304H288.412Z" fill="#FFE3CA"/>
<path d="M406.741 195.08V242.342H352.824V195.992C352.824 187.986 356.236 180.79 361.709 175.791C362.587 174.98 363.533 174.237 364.513 173.561C365.459 172.852 366.473 172.243 367.52 171.703C371.304 169.71 375.628 168.594 380.222 168.594C384.816 168.594 389.107 169.743 392.857 171.838C393.904 172.345 394.918 172.987 395.863 173.73C396.742 174.338 397.587 175.047 398.397 175.791C403.532 180.621 406.741 187.479 406.741 195.08Z" fill="#EFCDAF"/>
<path d="M407.636 187.986H352.143L353 185.703C354.584 181.48 357.2 177.624 360.572 174.543C361.476 173.708 362.482 172.91 363.557 172.171C364.438 171.504 365.5 170.844 366.744 170.201C370.835 168.046 375.5 166.905 380.221 166.905C385.044 166.905 389.574 168.07 393.681 170.363C394.737 170.874 395.848 171.574 396.904 172.398C397.679 172.933 398.567 173.652 399.537 174.546C402.859 177.683 405.383 181.55 406.848 185.74L407.636 187.986ZM357.151 184.608H402.744C401.421 181.794 399.547 179.201 397.234 177.017C396.502 176.344 395.72 175.684 394.899 175.116C393.955 174.377 393.045 173.807 392.118 173.358C388.436 171.303 384.461 170.283 380.221 170.283C376.045 170.283 371.927 171.289 368.308 173.196C367.223 173.757 366.319 174.315 365.534 174.912C364.528 175.601 363.647 176.301 362.855 177.033C360.493 179.191 358.553 181.774 357.151 184.608Z" fill="#F9DDBF"/>
<path d="M432.472 186.308H327.1V242.331H432.472V186.308Z" fill="#EFCDAF"/>
<path d="M381.474 186.307H378.096V242.331H381.474V186.307Z" fill="#F9DDBF"/>
<path d="M430.164 203.513H328.344V205.202H430.164V203.513Z" fill="#F9DDBF"/>
<path d="M430.164 221.921H328.344V223.61H430.164V221.921Z" fill="#F9DDBF"/>
<path d="M358.038 186.307H354.66V242.331H358.038V186.307Z" fill="#F9DDBF"/>
<path d="M404.911 186.307H401.533V242.331H404.911V186.307Z" fill="#F9DDBF"/>
<path d="M432.472 186.307H429.094V242.331H432.472V186.307Z" fill="#F9DDBF"/>
<path d="M330.478 186.307H327.1V242.331H330.478V186.307Z" fill="#F9DDBF"/>
<path d="M432.478 238.954H327.105V242.332H432.478V238.954Z" fill="#F9DDBF"/>
<path d="M432.478 186.307H327.105V189.685H432.478V186.307Z" fill="#F9DDBF"/>
<path d="M395.862 173.729L379.95 190.588L364.512 173.561C365.458 172.852 366.471 172.243 367.518 171.703L379.984 185.452L392.855 171.838C393.903 172.344 394.916 172.987 395.862 173.729Z" fill="#F9DDBF"/>
<path d="M432.472 298.702H327.1V354.724H432.472V298.702Z" fill="#EFCDAF"/>
<path d="M381.474 298.701H378.096V354.724H381.474V298.701Z" fill="#F9DDBF"/>
<path d="M430.164 315.907H328.344V317.596H430.164V315.907Z" fill="#F9DDBF"/>
<path d="M430.164 334.314H328.344V336.004H430.164V334.314Z" fill="#F9DDBF"/>
<path d="M358.038 298.701H354.66V354.724H358.038V298.701Z" fill="#F9DDBF"/>
<path d="M404.911 298.701H401.533V354.724H404.911V298.701Z" fill="#F9DDBF"/>
<path d="M432.472 298.701H429.094V354.724H432.472V298.701Z" fill="#F9DDBF"/>
<path d="M330.478 298.701H327.1V354.724H330.478V298.701Z" fill="#F9DDBF"/>
<path d="M432.478 351.348H327.105V354.726H432.478V351.348Z" fill="#F9DDBF"/>
<path d="M432.478 298.701H327.105V302.079H432.478V298.701Z" fill="#F9DDBF"/>
<path d="M268.421 298.702H221.721V354.724H268.421V298.702Z" fill="#EFCDAF"/>
<path d="M268.423 298.701H265.521V354.724H268.423V298.701Z" fill="#F9DDBF"/>
<path d="M267.397 315.907H222.271V317.596H267.397V315.907Z" fill="#F9DDBF"/>
<path d="M267.397 334.314H222.271V336.004H267.397V334.314Z" fill="#F9DDBF"/>
<path d="M246.286 298.701H243.385V354.724H246.286V298.701Z" fill="#F9DDBF"/>
<path d="M224.622 298.701H221.721V354.724H224.622V298.701Z" fill="#F9DDBF"/>
<path d="M268.423 351.348H221.723V354.726H268.423V351.348Z" fill="#F9DDBF"/>
<path d="M268.423 298.701H221.723V302.079H268.423V298.701Z" fill="#F9DDBF"/>
<path d="M268.421 218.473H221.721V274.496H268.421V218.473Z" fill="#EFCDAF"/>
<path d="M268.423 218.472H265.521V274.496H268.423V218.472Z" fill="#F9DDBF"/>
<path d="M267.397 235.678H222.271V237.368H267.397V235.678Z" fill="#F9DDBF"/>
<path d="M267.397 254.085H222.271V255.775H267.397V254.085Z" fill="#F9DDBF"/>
<path d="M246.286 218.472H243.385V274.496H246.286V218.472Z" fill="#F9DDBF"/>
<path d="M224.622 218.472H221.721V274.496H224.622V218.472Z" fill="#F9DDBF"/>
<path d="M268.423 271.119H221.723V274.497H268.423V271.119Z" fill="#F9DDBF"/>
<path d="M268.423 218.472H221.723V221.85H268.423V218.472Z" fill="#F9DDBF"/>
<path d="M559.131 175.501H512.432V231.524H559.131V175.501Z" fill="#EFCDAF"/>
<path d="M559.134 175.5H556.232V231.524H559.134V175.5Z" fill="#F9DDBF"/>
<path d="M558.108 192.707H512.982V194.396H558.108V192.707Z" fill="#F9DDBF"/>
<path d="M558.108 211.114H512.982V212.803H558.108V211.114Z" fill="#F9DDBF"/>
<path d="M536.995 175.5H534.094V231.524H536.995V175.5Z" fill="#F9DDBF"/>
<path d="M515.333 175.5H512.432V231.524H515.333V175.5Z" fill="#F9DDBF"/>
<path d="M559.134 228.147H512.434V231.526H559.134V228.147Z" fill="#F9DDBF"/>
<path d="M559.134 175.5H512.434V178.879H559.134V175.5Z" fill="#F9DDBF"/>
<path d="M275.465 179.551C273.829 179.551 272.222 178.759 271.246 177.291C269.748 175.044 270.282 172.039 272.413 170.435C275.755 167.674 336.544 112.421 376.777 75.7849C378.723 74.0132 381.706 74.0332 383.632 75.8147L486.105 170.766C488.157 172.669 488.279 175.876 486.379 177.928C484.472 179.987 481.269 180.102 479.216 178.202L379.061 96.9256C335.594 134.277 279.889 177.621 278.269 178.7C277.409 179.277 276.432 179.551 275.465 179.551Z" fill="#ED9F4A"/>
<path d="M196.636 275.359H70.2891V409.613H196.636V275.359Z" fill="#FFE3CA"/>
<path d="M607.578 241.058H471.975V294.975H607.578V241.058Z" fill="#E58638"/>
<path d="M552.303 396.174H503.387V336.761C503.387 323.79 513.902 313.274 526.873 313.274H529.087C541.909 313.274 552.303 323.669 552.303 336.491V396.174Z" fill="#E0B794"/>
<path d="M547.652 338.218V339.299H508.025V338.42C508.025 327.914 516.539 319.4 527.045 319.4H528.836C539.24 319.4 547.652 327.812 547.652 338.218Z" fill="#CEA484"/>
<path d="M547.652 345.438H508.025V361.365H547.652V345.438Z" fill="#CEA484"/>
<path d="M547.652 366.623H508.025V392.654H547.652V366.623Z" fill="#CEA484"/>
<path d="M564.477 395.268H491.211V400.546H564.477V395.268Z" fill="#E0B794"/>
<path d="M570.676 400.546H485.014V405.824H570.676V400.546Z" fill="#E0B794"/>
<path d="M575.767 405.825H479.922V411.103H575.767V405.825Z" fill="#E0B794"/>
<path d="M168.701 300.017H104.855V376.607H168.701V300.017Z" fill="#EFCDAF"/>
<path d="M168.705 300.015H164.738V376.607H168.705V300.015Z" fill="#F9DDBF"/>
<path d="M167.302 323.539H105.609V325.848H167.302V323.539Z" fill="#F9DDBF"/>
<path d="M167.302 348.704H105.609V351.013H167.302V348.704Z" fill="#F9DDBF"/>
<path d="M138.439 300.015H134.473V376.607H138.439V300.015Z" fill="#F9DDBF"/>
<path d="M108.822 300.015H104.855V376.607H108.822V300.015Z" fill="#F9DDBF"/>
<path d="M168.704 371.991H104.859V376.61H168.704V371.991Z" fill="#F9DDBF"/>
<path d="M168.704 300.015H104.859V304.634H168.704V300.015Z" fill="#F9DDBF"/>
<path d="M153.575 275.347H62.8008V196.735H118.644L153.575 275.347Z" fill="#ED9F4A"/>
<path d="M260.767 203.525H189.316V84.4082H216.174C223.842 105.624 247.355 168.02 260.767 203.525Z" fill="#ED9F4A"/>
<path d="M607.578 241.058V294.975H517.852L553.458 241.058H607.578Z" fill="#ED9F4A"/>
<path d="M279.651 110.037H265.311V80.2893C265.311 78.8193 266.502 77.6279 267.972 77.6279H277.04C278.482 77.6279 279.651 78.797 279.651 80.2391V110.037Z" fill="#F2D3B6"/>
<path d="M261.949 74.5721H282.852L272.48 64.6855L261.949 74.5721Z" fill="#E58638"/>
<path d="M268.068 77.6289H267.138L266.996 74.29H268.272L268.068 77.6289Z" fill="#E58638"/>
<path d="M277.65 77.6289H276.72L276.578 74.29H277.854L277.65 77.6289Z" fill="#E58638"/>
<path d="M637.678 409.266H620.193C619.256 408.472 620.842 406.667 622.498 406.545C623.218 406.491 624.127 406.642 625.167 406.861C625.407 403.666 626.781 389.3 631.96 389.877C637.782 390.523 631.96 396.203 630.314 399.566C629.095 402.057 627.808 405.629 627.221 407.315C627.693 407.417 628.183 407.518 628.683 407.61C629.454 405.24 632.326 397.27 635.978 397.734C640.265 398.278 638.542 401.474 635.503 403.371C633.273 404.766 630.536 406.748 629.235 407.706C630.337 407.886 631.487 408.007 632.654 407.98C635.649 407.909 637.111 408.792 637.678 409.266Z" fill="#82B378"/>
<path d="M196.656 363.065V409.679L86.5215 409.71C86.5215 409.71 90.0435 397.214 103.918 390.384C105.235 389.71 106.674 389.098 108.205 388.577C110.043 387.934 112.003 387.413 114.116 386.985C114.147 386.985 114.178 386.985 114.208 386.954C115.158 386.77 116.076 386.525 116.965 386.219C136.566 379.634 137.454 349.16 193.716 362.33C194.726 362.574 195.706 362.819 196.656 363.065Z" fill="#82B378"/>
<path d="M117.081 391.162C117.081 390.177 117.327 369.972 110.428 371.451C103.53 372.929 117.081 391.162 117.081 391.162Z" fill="#82B378"/>
<path d="M268.465 409.148C268.465 409.148 276.349 392.354 294.089 392.127C311.829 391.901 321.617 371.204 338.159 372.19C354.701 373.176 356.673 389.397 368.499 392.127C380.326 394.858 412.849 388.979 414.82 410.151L268.465 409.148Z" fill="#82B378"/>
<path d="M310.496 392.127C310.496 391.901 297.684 368.179 293.003 372.156C288.321 376.132 310.496 392.127 310.496 392.127Z" fill="#82B378"/>
<path d="M305.813 392.887C305.813 392.887 294.356 385.865 288.935 387.59C283.515 389.314 305.813 392.887 305.813 392.887Z" fill="#82B378"/>
<path d="M333.779 378.473C333.902 377.734 333.533 359.131 327.373 361.472C321.214 363.813 333.779 378.473 333.779 378.473Z" fill="#82B378"/>
<path d="M337.474 375.024C337.72 374.654 341.416 364.675 338.706 364.675C335.996 364.675 337.721 374.654 337.721 374.654L337.474 375.024Z" fill="#82B378"/>
<path d="M687.43 411.103H-3.43028C-3.8618 411.103 -4.21484 410.75 -4.21484 410.318V410.051C-4.21484 409.619 -3.8618 409.266 -3.43028 409.266H687.43C687.861 409.266 688.214 409.619 688.214 410.051V410.318C688.214 410.75 687.861 411.103 687.43 411.103Z" fill="#2E3552"/>
<path d="M372.165 214.319H194.846V364.463H393.519L372.165 214.319Z" fill="#895EB9"/>
<path d="M364.401 219.459H163.438V364.463H385.242L364.401 219.459Z" fill="#233862"/>
<path d="M277.724 364.463H305.053V336.756H277.724V364.463Z" fill="#E69D43"/>
<path d="M303.916 364.463H316.428V336.756H303.916V364.463Z" fill="#D57912"/>
<path d="M276.273 337.135H321.592V309.807H276.273V337.135Z" fill="#E69D43"/>
<path d="M320.455 337.135H332.967V309.807H320.455V337.135Z" fill="#D57912"/>
<path d="M85.5542 374.944H27.1977C25.7795 374.944 24.6191 373.784 24.6191 372.366V349.351C24.6191 347.933 25.7795 346.772 27.1977 346.772H85.5544C86.9728 346.772 88.133 347.933 88.133 349.351V372.366C88.133 373.784 86.9726 374.944 85.5542 374.944Z" fill="#B65615"/>
<path d="M280.773 402.251C290.716 392.308 290.716 376.187 280.773 366.245C270.83 356.302 254.71 356.302 244.767 366.245C234.824 376.187 234.824 392.308 244.767 402.251C254.71 412.193 270.83 412.193 280.773 402.251Z" fill="#233862"/>
<path d="M385.058 389.665C388.056 375.928 379.35 362.36 365.612 359.363C351.874 356.365 338.307 365.071 335.309 378.809C332.311 392.547 341.018 406.114 354.755 409.112C368.493 412.11 382.06 403.403 385.058 389.665Z" fill="#233862"/>
<path d="M82.5148 393.441C87.584 380.324 81.0604 365.582 67.9441 360.513C54.8277 355.444 40.0855 361.968 35.0164 375.084C29.9472 388.2 36.4708 402.943 49.5871 408.012C62.7035 413.081 77.4457 406.557 82.5148 393.441Z" fill="#233862"/>
<path d="M45.9023 384.248C45.9023 377.151 51.6556 371.398 58.7527 371.398C65.8497 371.398 71.6027 377.151 71.6027 384.248C71.6027 391.345 65.8495 397.098 58.7527 397.098C51.6559 397.098 45.9023 391.345 45.9023 384.248Z" fill="#D36E2A"/>
<path d="M45.9023 384.248C45.9023 377.151 51.6556 371.398 58.7527 371.398C65.8497 371.398 71.6027 377.151 71.6027 384.248C71.6027 391.345 65.8495 397.098 58.7527 397.098C51.6559 397.098 45.9023 391.345 45.9023 384.248Z" fill="#739AF0"/>
<path d="M67.3064 374.662C68.0283 376.268 68.4332 378.047 68.4332 379.922C68.4332 387.019 62.6802 392.773 55.5829 392.773C52.2975 392.773 49.3014 391.538 47.0293 389.509C49.0398 393.982 53.5309 397.099 58.7528 397.099C65.8499 397.099 71.6029 391.345 71.6029 384.249C71.6029 380.437 69.9421 377.015 67.3064 374.662Z" fill="#4A75CB"/>
<path d="M54.7695 384.248C54.7695 382.048 56.553 380.265 58.753 380.265C60.9531 380.265 62.7366 382.048 62.7366 384.248C62.7366 386.448 60.9531 388.232 58.753 388.232C56.553 388.232 54.7695 386.448 54.7695 384.248Z" fill="#233862"/>
<path d="M50.4336 391.075C50.4336 390.223 51.1238 389.533 51.9756 389.533C52.8271 389.533 53.5176 390.223 53.5176 391.075C53.5176 391.927 52.8274 392.617 51.9756 392.617C51.1238 392.617 50.4336 391.927 50.4336 391.075Z" fill="#233862"/>
<path d="M48.6348 379.622C48.6348 378.771 49.3253 378.08 50.1768 378.08C51.0283 378.08 51.7188 378.771 51.7188 379.622C51.7188 380.474 51.0283 381.164 50.1768 381.164C49.3253 381.164 48.6348 380.474 48.6348 379.622Z" fill="#233862"/>
<path d="M65.5957 379.622C65.5957 378.771 66.2859 378.08 67.1377 378.08C67.9892 378.08 68.6797 378.771 68.6797 379.622C68.6797 380.474 67.9895 381.164 67.1377 381.164C66.2859 381.164 65.5957 380.474 65.5957 379.622Z" fill="#233862"/>
<path d="M64.3105 391.075C64.3105 390.223 65.0008 389.533 65.8525 389.533C66.7043 389.533 67.3945 390.223 67.3945 391.075C67.3945 391.927 66.7043 392.617 65.8525 392.617C65.0008 392.617 64.3105 391.927 64.3105 391.075Z" fill="#233862"/>
<path d="M57.2109 374.43C57.2109 373.578 57.9012 372.888 58.7529 372.888C59.6045 372.888 60.2949 373.578 60.2949 374.43C60.2949 375.282 59.6047 375.972 58.7529 375.972C57.9014 375.972 57.2109 375.282 57.2109 374.43Z" fill="#233862"/>
<path d="M249.451 384.248C249.451 377.151 255.204 371.398 262.301 371.398C269.398 371.398 275.152 377.151 275.152 384.248C275.152 391.345 269.398 397.098 262.301 397.098C255.205 397.098 249.451 391.345 249.451 384.248Z" fill="#D36E2A"/>
<path d="M249.451 384.248C249.451 377.151 255.204 371.398 262.301 371.398C269.398 371.398 275.152 377.151 275.152 384.248C275.152 391.345 269.398 397.098 262.301 397.098C255.205 397.098 249.451 391.345 249.451 384.248Z" fill="#4A75CB"/>
<path d="M258.316 384.248C258.316 382.048 260.1 380.265 262.3 380.265C264.5 380.265 266.283 382.048 266.283 384.248C266.283 386.448 264.5 388.232 262.3 388.232C260.1 388.232 258.316 386.448 258.316 384.248Z" fill="#233862"/>
<path d="M255.522 392.617C256.374 392.617 257.064 391.927 257.064 391.075C257.064 390.224 256.374 389.533 255.522 389.533C254.671 389.533 253.98 390.224 253.98 391.075C253.98 391.927 254.671 392.617 255.522 392.617Z" fill="#233862"/>
<path d="M252.182 379.622C252.182 378.771 252.872 378.08 253.724 378.08C254.575 378.08 255.266 378.771 255.266 379.622C255.266 380.474 254.575 381.164 253.724 381.164C252.872 381.164 252.182 380.474 252.182 379.622Z" fill="#233862"/>
<path d="M269.143 379.622C269.143 378.771 269.833 378.08 270.685 378.08C271.536 378.08 272.227 378.771 272.227 379.622C272.227 380.474 271.536 381.164 270.685 381.164C269.833 381.164 269.143 380.474 269.143 379.622Z" fill="#B65615"/>
<path d="M269.399 392.617C270.251 392.617 270.941 391.927 270.941 391.075C270.941 390.224 270.251 389.533 269.399 389.533C268.548 389.533 267.857 390.224 267.857 391.075C267.857 391.927 268.548 392.617 269.399 392.617Z" fill="#233862"/>
<path d="M260.758 374.43C260.758 373.578 261.448 372.888 262.3 372.888C263.152 372.888 263.842 373.578 263.842 374.43C263.842 375.282 263.152 375.972 262.3 375.972C261.448 375.972 260.758 375.282 260.758 374.43Z" fill="#B65615"/>
<path d="M149.091 402.25C159.034 392.307 159.034 376.187 149.091 366.244C139.148 356.301 123.028 356.301 113.085 366.244C103.142 376.187 103.142 392.307 113.085 402.25C123.028 412.193 139.148 412.193 149.091 402.25Z" fill="#233862"/>
<path d="M58.4707 246.774C58.4707 246.774 72.2858 225.936 88.2566 225.764L86.832 248.31L58.4707 246.774Z" fill="#4A75CB"/>
<path d="M139.856 341.975H29.2852L38.4882 267.287C39.9841 255.147 50.2964 246.028 62.5283 246.028H139.856L139.856 341.975Z" fill="#739AF0"/>
<path d="M75.5805 296.318H44.5742L48.6813 266.828C49.5271 260.755 54.7207 256.234 60.8522 256.234H76.5408L75.5805 296.318Z" fill="#4A75CB"/>
<path d="M73.2882 294.1H52.8738C49.7932 294.1 47.4169 291.388 47.8225 288.334L50.5314 267.93C51.2469 262.54 55.6408 258.529 60.8281 258.529H74.1006L73.2882 294.1Z" fill="#DCE7F9"/>
<path d="M290.249 364.463H77.5742L87.0607 214.319H277.68L290.249 364.463Z" fill="#7C4EAF"/>
<path d="M281.924 358.769H85.3828L94.1495 220.014H270.308L279.723 332.485L281.924 358.769Z" fill="#7C4EAF"/>
<path d="M96.752 341.975H29.2844C23.3432 342.37 22.7689 345.307 22.7689 345.307L17 373.211C17 374.164 17.8765 374.944 18.9478 374.944H35.9113C36.9824 374.944 37.7554 374.159 38.2124 373.166C38.2124 373.166 40.8224 369.941 42.5734 368.787C46.959 365.896 51.7203 364 58.7535 364C67.4014 364 75.0411 366.751 79.6426 370.955H96.7522C98.8174 370.955 100.507 369.877 100.507 368.56V344.37C100.507 343.052 98.8172 341.975 96.752 341.975Z" fill="#4A75CB"/>
<path d="M297.077 396.751H275.695C275.203 394.16 274.274 391.877 273.016 389.866C266.552 379.505 251.435 376.339 242.824 375.371C239.051 374.946 236.525 374.944 236.525 374.944H273.28C282.895 376.247 288.798 381.49 292.317 386.51C295.997 391.753 297.077 396.751 297.077 396.751Z" fill="#7C4EAF"/>
<path d="M393.519 396.751H372.137C371.578 393.803 370.449 391.251 368.92 389.047C359.155 374.963 332.967 374.944 332.967 374.944H369.724C377.764 376.034 383.206 379.879 386.833 384.044C392.074 390.065 393.519 396.751 393.519 396.751Z" fill="#7C4EAF"/>
<path d="M292.316 386.51C292.316 386.51 278.243 383.54 273.015 389.866C266.55 379.505 251.434 376.339 242.823 375.371C242.648 375.227 242.475 375.085 242.305 374.944H273.279C282.893 376.247 288.797 381.49 292.316 386.51Z" fill="#502482"/>
<path d="M386.833 384.045C386.833 384.047 386.833 384.047 386.833 384.047C386.833 384.047 375.063 383.783 368.92 389.048C359.155 374.963 332.967 374.944 332.967 374.944H369.724C377.764 376.034 383.206 379.88 386.833 384.045Z" fill="#502482"/>
<path d="M82.392 379.025H395.938C397.513 379.025 398.801 377.737 398.801 376.162V367.325C398.801 365.751 397.513 364.463 395.938 364.463H82.392C80.8176 364.463 79.5293 365.751 79.5293 367.325V376.162C79.5293 377.737 80.8176 379.025 82.392 379.025Z" fill="#502482"/>
<path d="M153.794 400.375H95.7981C94.2806 400.375 93.0391 399.133 93.0391 397.616V370.881C93.0391 369.364 94.2803 368.122 95.7981 368.122H153.794C155.311 368.122 156.553 369.364 156.553 370.881V397.616C156.553 399.133 155.311 400.375 153.794 400.375Z" fill="#502482"/>
<path d="M282.18 358.769H85.6387L94.4054 220.014H128.734C139.481 251.711 175.833 326.856 279.979 332.485L282.18 358.769Z" fill="#4D2876"/>
<path d="M31.2961 281.865C31.2961 281.865 28.5317 296.719 28.669 299.141C28.8063 301.563 31.0928 302.744 32.8309 302.744L31.2961 281.865Z" fill="#739AF0"/>
<path d="M39.6875 302.744H32.9697C31.9874 302.744 31.1836 301.941 31.1836 300.958V282.412C31.1836 281.429 31.9874 280.625 32.9697 280.625H39.6875C40.6698 280.625 41.4736 281.429 41.4736 282.412V300.958C41.4738 301.941 40.6698 302.744 39.6875 302.744Z" fill="#4A75CB"/>
<path d="M39.1732 301.669H33.8524C33.014 301.669 32.3281 300.983 32.3281 300.145V283.389C32.3281 282.551 33.014 281.865 33.8524 281.865H39.1732C40.0115 281.865 40.6974 282.551 40.6974 283.389V300.145C40.6974 300.983 40.0115 301.669 39.1732 301.669Z" fill="#DCE7F9"/>
<path d="M36.3293 281.029C36.1397 281.029 35.9863 280.848 35.9863 280.625V274.382C35.9863 274.365 35.9873 274.348 35.989 274.332C35.9928 274.296 36.4169 270.742 40.157 270.857C43.5775 270.962 45.0514 270.858 45.0658 270.857C45.2551 270.843 45.4176 271.012 45.4294 271.235C45.4411 271.457 45.2976 271.649 45.1085 271.663C45.0482 271.667 43.5903 271.771 40.1391 271.664C37.1266 271.571 36.7092 274.122 36.6722 274.409V280.625C36.6722 280.848 36.5189 281.029 36.3293 281.029Z" fill="#4A75CB"/>
<path d="M72.7086 305.93H66.4523C65.5763 305.93 64.8594 305.214 64.8594 304.337C64.8594 303.461 65.5763 302.744 66.4523 302.744H72.7086C73.5846 302.744 74.3015 303.461 74.3015 304.337C74.3015 305.214 73.5848 305.93 72.7086 305.93Z" fill="#4A75CB"/>
<path d="M323.085 364.463H350.414V337.135H323.085V364.463Z" fill="#E69D43"/>
<path d="M349.278 364.463H361.789V337.135H349.278V364.463Z" fill="#D57912"/>
<path d="M410.053 409.563H395.832C395.979 409.052 396.459 408.176 398.032 407.92C400.227 407.563 404.03 406.289 404.877 403.483C404.904 403.392 404.929 403.3 404.95 403.206C405.624 400.206 410.522 404.125 410.522 404.125C410.522 404.125 410.536 404.246 410.557 404.45C410.671 405.544 410.959 409.058 410.053 409.563Z" fill="#233862"/>
<path d="M398.615 329.332C398.615 329.332 399.359 338.613 400.233 349.769C401.422 364.924 402.851 383.539 402.992 387.066C403.236 393.19 404.217 402.985 404.217 402.985C404.217 402.985 406.542 405.312 411.197 404.331C411.197 404.331 415.344 390.348 416.529 375.553C416.547 375.311 416.565 375.066 416.584 374.822C417.686 359.761 419.399 328.046 419.399 328.046L398.615 329.332Z" fill="#2B478B"/>
<path d="M398.615 329.333C398.615 329.333 399.359 338.613 400.233 349.77L416.529 375.554C416.547 375.311 416.565 375.067 416.584 374.823C417.686 359.761 419.399 328.047 419.399 328.047L398.615 329.333Z" fill="#233862"/>
<path d="M402.012 330.434C402.012 330.434 415.42 364.047 424.236 379.842C433.053 395.638 435.808 400.047 435.808 400.047C435.808 400.047 440.859 398.026 441.318 396.649C441.318 396.649 437.946 366.154 432.043 358.72C428.706 354.52 424.788 341.914 424.604 337.506C424.42 333.098 423.41 324.373 423.41 324.373L402.012 330.434Z" fill="#2B478B"/>
<path d="M419.654 278.635C419.654 278.635 410.582 283.081 405.352 281.431C405.352 281.431 406.639 279.782 408.892 278.555C408.711 277.489 408.57 276.563 408.489 275.779C408.268 273.968 408.268 272.943 408.268 272.943L411.768 270.147L415.087 267.472C414.826 274.994 419.654 278.635 419.654 278.635Z" fill="#FFB27D"/>
<path d="M424.434 326.095C424.455 326.658 423.268 327.301 422.745 327.543C418.862 329.272 415.242 330.479 411.138 330.882C406.29 331.385 400.557 330.278 398.586 330.319C398.385 330.319 398.204 330.238 398.043 330.097C397.902 329.997 397.801 324.063 397.902 316.6C397.902 316.298 397.902 315.996 397.922 315.695V315.594C397.962 312.677 398.063 309.62 398.204 306.563C398.486 299.844 399.009 293.366 399.893 289.786C400.959 285.562 403.374 282.766 405.566 280.734L407.377 279.125C409.187 279.487 411.098 279.386 413.009 278.441C415.101 277.415 417.39 276.264 417.752 276.545C420.488 278.577 422.302 283.188 423.288 289.021C423.851 292.381 424.133 296.142 424.113 300.085C424.113 301.534 424.073 303.022 423.992 304.49C423.509 312.456 423.992 319.376 424.274 323.379C424.354 324.546 424.414 325.451 424.434 326.095Z" fill="#739AF0"/>
<path d="M424.273 323.379C380.321 323.319 416.167 290.611 416.167 290.611L423.288 289.022C423.851 292.381 424.133 296.143 424.113 300.086C424.113 301.534 424.073 303.023 423.992 304.491C423.509 312.457 423.992 319.376 424.273 323.379Z" fill="#4A75CB"/>
<path d="M370.203 323.166H397.531V295.837H370.203V323.166Z" fill="#E69D43"/>
<path d="M396.395 323.166H408.906V295.837H396.395V323.166Z" fill="#D57912"/>
<path d="M393.426 309.905L391.799 309.383C391.799 309.383 390.66 305.616 386.811 307.302C386.811 307.302 385.249 308.13 385.937 309.111C386.625 310.091 386.499 309.575 387.44 310.987C388.38 312.399 389.869 313.069 391.055 312.536L392.407 312.574L393.426 309.905Z" fill="#FFB27D"/>
<path d="M419.655 278.626C419.655 278.626 429.609 294.456 419.006 312.748C415.696 318.459 390.698 313.031 390.698 313.031C390.698 313.031 389.723 311.271 392.332 309.417C392.332 309.417 408.976 306.599 410.96 306.127C412.72 305.708 411.546 289.532 413.558 284.838C415.57 280.144 419.655 278.626 419.655 278.626Z" fill="#739AF0"/>
<path d="M415.147 270.348C415.147 270.348 412.854 274.592 408.489 275.779C408.268 273.968 408.268 272.943 408.268 272.943L411.767 270.147L415.147 270.348Z" fill="#ED985F"/>
<path d="M406.673 272.82C406.673 272.82 415.328 274.258 416.14 268.855C416.952 263.451 418.616 259.998 413.125 258.851C407.634 257.705 406.248 259.605 405.538 261.343C404.828 263.08 404.443 272.307 406.673 272.82Z" fill="#FFB27D"/>
<path d="M416.082 269.227C416.082 269.227 415.907 261.989 408.022 260.828C402.62 260.032 403.069 256.119 403.687 255.404C403.687 255.404 410.668 255.462 414.864 256.519C421.208 258.118 417.019 268.151 416.082 269.227Z" fill="#233862"/>
<path d="M441.318 397.781L440.898 397.241L436.132 399.912C436.087 400.824 436.063 401.878 436.114 402.802C436.149 403.428 436.112 404.068 436 404.673C435.9 405.146 435.396 407.165 433.92 407.694C432.244 408.296 432.11 409.583 434.97 409.562C435.482 409.558 435.984 409.556 436.463 409.555C438.248 409.55 439.772 408.336 440.258 406.619C440.449 405.944 440.803 405.185 441.416 404.377C442.167 403.498 443.052 402.722 443.338 401.761C443.828 400.108 441.318 397.781 441.318 397.781Z" fill="#233862"/>
<path d="M555.646 348.689L554.055 348.992C554.055 348.992 551.074 348.286 549.978 351.431C549.978 351.431 549.623 352.764 550.617 352.693C551.611 352.623 551.22 352.506 552.624 352.438C554.028 352.369 555.275 351.66 555.604 350.685L556.382 349.822L555.646 348.689Z" fill="#FFB27D"/>
<path d="M554.621 349.991C554.132 348.934 554.19 348.747 554.19 348.747C554.19 348.747 563.289 342.18 564.116 341.527C564.942 340.874 573.657 328.792 573.657 328.792L584.389 330.296C584.389 330.296 569.945 344.596 567.818 346.211C564.304 348.878 555.67 351.253 555.67 351.253C555.67 351.253 555.006 350.822 554.621 349.991Z" fill="#233862"/>
<path d="M500.084 351.56L501.161 352.435C501.161 352.435 504.107 351.378 504.772 354.879C504.772 354.879 504.949 356.372 504.004 356.374C503.059 356.377 503.449 356.211 502.11 356.25C500.772 356.289 499.663 355.584 499.466 354.498L498.826 353.577L500.084 351.56Z" fill="#EA8E50"/>
<path d="M499.962 353.437C500.822 352.54 500.752 351.876 500.752 351.876C500.752 351.876 490.802 343.73 489.793 343.066C489.106 342.614 481.778 336.118 478.353 332.158C476.654 330.193 474.549 330.955 472.141 331.646L470.158 332.215C467.764 332.902 467.141 336.251 469.106 337.878C474.639 342.461 483.843 347.616 485.565 348.699C489.84 351.389 498.209 354.584 498.209 354.584C498.209 354.584 499.225 354.207 499.962 353.437Z" fill="#4A75CB"/>
<path d="M570.525 356.402C568.311 362.919 560.731 365.993 553.72 364.77L539.832 362.347L547.618 324.032C547.618 324.032 561.72 321.549 564.342 326.176C566.64 330.228 572.1 345.638 571.068 354.015C570.964 354.855 570.78 355.652 570.525 356.402Z" fill="#DB6161"/>
<path d="M537.837 326.026C537.837 326.026 558.239 319.731 560.698 326.597C562.003 330.242 562.815 344.176 561.75 352.547C560.715 360.68 554.865 364.969 547.674 363.715L534.902 361.487L537.837 326.026Z" fill="#A03C37"/>
<path d="M540.433 331.945C540.133 332.73 538.485 333.219 536.118 333.494C535.701 333.542 535.261 333.584 534.803 333.62C526.801 334.241 513.04 332.966 511.848 332.164C510.199 331.055 506.027 290.167 506.027 290.167C506.027 290.167 516.567 291.6 524.917 292.858C527.773 293.29 530.372 293.7 532.206 294.025C532.429 294.065 532.637 294.116 532.83 294.18C533.604 294.431 534.135 294.865 534.515 295.449C535.603 297.121 535.439 300.021 536.131 303.379C536.815 306.699 537.643 310.837 538.398 314.933C538.593 315.989 538.783 317.041 538.964 318.077C539.016 318.369 539.066 318.66 539.117 318.949C540.196 325.216 540.918 330.673 540.433 331.945Z" fill="#C44943"/>
<path d="M570.525 356.402C568.311 362.919 560.707 366.081 553.696 364.858L546.82 363.655C551.9 361.368 557.75 352.522 570.525 356.402Z" fill="#C44943"/>
<path d="M558.725 359.46C555.394 362.717 550.866 364.388 546.299 363.515L526.605 360.091L517.17 358.45L533.882 325.342C533.882 325.342 561.214 327.355 563.905 331.497C565.155 333.42 564.712 341.064 563.878 348.703C563.407 353.009 561.474 356.775 558.725 359.46Z" fill="#D15050"/>
<path d="M558.718 359.5C555.387 362.757 550.87 364.439 546.303 363.567L526.598 360.13C529.254 358.589 537.504 354.341 545.262 355.963C551.142 357.192 555.854 357.926 558.718 359.5Z" fill="#A03C37"/>
<path d="M543.211 352C540.951 358.3 534.054 361.34 527.719 360.235L514.947 358.008L522.756 319.136C522.756 319.136 536.231 317.144 538.586 321.724C540.65 325.736 544.926 340.899 543.861 349.269C543.737 350.238 543.517 351.149 543.211 352Z" fill="#DB6161"/>
<path d="M543.196 352.087C540.937 358.387 534.039 361.427 527.705 360.323L517.484 358.54C522.834 356.132 530.837 348.296 543.196 352.087Z" fill="#C44943"/>
<path d="M498.95 355.308C493.667 354.35 489.804 351.976 487.909 346.954C486.527 343.303 486.413 338.817 486.641 334.921C486.772 332.682 487.043 330.226 487.452 327.534C487.69 325.971 487.974 324.329 488.304 322.606C488.831 319.851 489.477 316.885 490.239 313.696C491.309 309.218 492.609 304.298 494.134 298.9C495.527 293.969 496.736 290.564 497.743 289.915C499.228 288.959 501.978 288.949 503.868 289.083C503.869 289.083 503.869 289.083 503.87 289.084L503.872 289.084C503.873 289.084 503.873 289.084 503.874 289.084C505.729 289.211 507.006 289.334 508.293 290.478C509.309 291.378 510.004 292.7 510.188 294.225C510.811 299.411 511.92 308.682 513.067 318.376C513.073 318.424 513.079 318.473 513.085 318.522C513.15 319.078 513.216 319.637 513.283 320.196C513.289 320.253 513.296 320.309 513.303 320.366C513.306 320.394 513.31 320.423 513.31 320.423C513.31 320.423 513.339 320.446 513.365 320.439C513.508 320.402 513.681 320.358 513.833 320.321C513.839 320.319 513.845 320.317 513.852 320.316C518.016 319.278 523.868 318.178 528.136 318.656H528.137C530.35 318.904 532.76 319.645 533.506 321.752C535.116 326.27 537.594 340.239 536.61 347.977C535.629 355.691 528.474 359.81 521.566 359.132C521.155 359.091 520.789 359.117 520.448 359.057L498.95 355.308Z" fill="#A03C37"/>
<path d="M507.11 320.978C507.11 320.978 505.212 293.129 505.13 290.803C505.095 289.766 504.508 289.291 503.869 289.083C505.042 289.167 505.882 289.304 505.882 289.304C508.15 289.7 509.882 291.674 510.19 294.214C510.859 299.753 512.124 310.04 513.361 320.44L507.11 320.978Z" fill="#DB6161"/>
<path d="M511.317 403.486C511.317 403.486 513.731 405.296 517.432 404.34C517.432 404.34 520.415 403.66 521.069 405.148C521.069 405.148 516.494 407.472 515.336 408.108C514.463 408.587 513.553 409.343 512.909 409.928C512.4 410.39 511.606 410.328 511.172 409.794C510.971 409.546 510.74 409.251 510.488 408.909C509.782 407.953 508.139 404.865 508.139 404.865L511.317 403.486Z" fill="#233862"/>
<path d="M512.735 402.568C512.735 402.568 511.264 405.958 507.87 405.335C507.87 405.335 500.945 399.615 496.194 393.673C494.651 391.743 493.337 389.79 492.566 388.003C489.415 380.709 480.912 369.83 475.506 364.316L489.032 359.423C489.032 359.423 493.364 368.138 499.128 378.843C503.283 386.557 508.179 395.303 512.735 402.568Z" fill="#2B478B"/>
<path d="M499.129 378.843L496.194 393.673C494.651 391.743 493.337 389.79 492.566 388.003C489.415 380.709 480.912 369.83 475.506 364.316L489.032 359.423C489.032 359.423 493.364 368.138 499.129 378.843Z" fill="#233862"/>
<path d="M488.073 405.454C488.073 405.454 487.925 408.16 491.205 408.521C491.205 408.521 493.184 408.561 493.19 410.283H483.553C483.553 410.283 483.276 409.588 483.209 408.1C483.157 406.958 484.316 403.972 484.316 403.972L488.073 405.454Z" fill="#233862"/>
<path d="M484.595 359.424C484.595 359.424 490.62 366.045 494.446 377.973C496.526 384.463 490.631 400.781 489.482 406.45C489.482 406.45 485.527 406.786 482.822 405.74C482.822 405.74 482.617 394.031 484.198 385.005C485.084 379.954 476.265 374.203 472.411 365.076C469.79 358.867 472.979 358.973 476.898 358.823L484.595 359.424Z" fill="#2B478B"/>
<path d="M477.64 329.884C474.287 331.777 467.424 330.031 467.424 330.031C467.424 330.031 470.211 326.845 468.944 321.713L471.577 323.05L474.404 324.485C474.404 324.485 474.587 325.392 474.714 327.02C474.747 327.439 474.776 327.907 474.795 328.419C476.517 328.941 477.64 329.884 477.64 329.884Z" fill="#FFB07B"/>
<path d="M489.933 359.082C489.933 359.671 489.255 359.953 489.11 359.982C487.758 360.229 483.982 361.697 480.581 362.034C477.718 362.334 475.059 362.049 472.138 361.463C471.751 361.385 470.842 361.14 470.778 360.77C470.698 360.365 459.511 337.964 468.207 328.342C468.411 328.117 470.128 328.523 471.698 328.896C473.148 329.24 474.477 329.048 475.665 328.571L477.137 329.346C478.945 330.353 482.366 333.933 482.766 336.741C482.97 338.17 483.786 339.227 484.023 340.484C484.11 340.948 484.2 341.403 484.291 341.845C484.469 342.712 484.653 343.538 484.842 344.324C485.353 346.448 485.893 348.276 486.424 349.856C486.988 351.533 487.541 352.929 488.036 354.095C488.677 355.609 489.219 356.74 489.557 357.606C489.796 358.215 489.933 358.694 489.933 359.082Z" fill="#739AF0"/>
<path d="M489.555 357.605C473.764 350.166 468.295 335.879 468.295 335.879C468.295 335.879 481.125 340.612 484.29 341.844C484.468 342.712 484.652 343.538 484.841 344.323C485.352 346.447 485.892 348.276 486.422 349.856C486.987 351.533 487.54 352.928 488.034 354.095C488.675 355.609 489.217 356.739 489.555 357.605Z" fill="#4A75CB"/>
<path d="M498.796 353.294L500.16 353.794C500.16 353.794 502.893 351.862 504.595 355.005C504.595 355.005 505.21 356.377 504.236 356.675C503.262 356.974 503.616 356.693 502.247 357.149C500.878 357.605 499.529 357.277 499.011 356.298L498.084 355.618L498.796 353.294Z" fill="#FFB07B"/>
<path d="M499.919 355.224C500.424 353.907 500.654 353.311 500.654 353.311C500.654 353.311 490.343 344.906 489.292 344.186C488.577 343.694 481.449 338.367 477.974 334.215C476.25 332.155 473.533 331.214 470.904 331.765L468.739 332.219C466.126 332.767 465.276 336.075 467.304 337.813C473.014 342.709 482.645 348.386 484.441 349.567C488.898 352.499 498.759 356.607 498.759 356.607C498.759 356.607 499.523 356.257 499.919 355.224Z" fill="#739AF0"/>
<path d="M474.714 327.02C471.418 327.205 469.273 324.483 469.273 324.483C469.273 324.483 470.764 323.657 471.577 323.049L474.404 324.485C474.404 324.485 474.587 325.392 474.714 327.02Z" fill="#EA8E50"/>
<path d="M476.119 323.635C476.119 323.635 471.124 327.22 468.939 324.074C466.755 320.929 464.639 319.274 467.736 316.852C470.833 314.43 472.293 315.196 473.277 316.068C474.262 316.94 477.362 322.621 476.119 323.635Z" fill="#FFB07B"/>
<path d="M473.804 313.228C473.625 312.019 473.222 311.168 473.222 311.168C473.222 311.168 472.909 312.466 470.536 312.287C468.162 312.108 464.401 312.521 463.148 315.225C463.068 315.397 462.997 315.574 462.933 315.755C462.707 315.156 462.652 314.257 462.652 314.257C462.201 315.422 462.652 316.878 462.652 316.878C462.645 316.92 462.64 316.963 462.633 317.005C462.11 317.448 461.67 318.824 461.67 318.824C461.828 318.441 462.214 318.19 462.557 318.036C462.546 320.14 463.4 322.197 464.897 322.81C467.088 323.705 467.07 323.022 469.273 324.483C469.273 324.483 469.864 323.75 469.461 323.257C469.058 322.765 467.536 322.049 468.386 321.332C469.237 320.616 469.55 321.422 469.863 320.929C470.177 320.437 468.61 319.004 470.625 317.661C472.64 316.317 473.983 314.437 473.804 313.228Z" fill="#233862"/>
<path d="M608.501 402.268C608.501 402.268 610.182 403.826 609.854 404.933C609.526 406.04 608.009 406.778 607.804 408.13C607.599 409.483 606.779 410.221 606.041 410.221C605.303 410.221 602.524 410.221 602.524 410.221C602.524 410.221 601.98 409.269 603.292 408.982C604.604 408.695 605.098 407.106 605.017 405.63C604.935 404.154 605.14 402.186 605.14 402.186L607.927 401.53L608.501 402.268Z" fill="#2C3A64"/>
<path d="M587.554 410.164C587.513 410.185 587.445 410.204 587.356 410.221H578.029C578.104 409.894 578.395 409.239 579.519 409.057C580.989 408.819 583.536 407.966 584.104 406.085C584.122 406.025 584.138 405.963 584.152 405.9C584.603 403.892 587.882 406.515 587.882 406.515C587.882 406.515 587.892 406.595 587.906 406.731C587.982 407.468 588.177 409.852 587.554 410.164Z" fill="#2C3A64"/>
<path d="M579.91 356.437C579.91 356.437 580.408 362.652 580.994 370.121C581.789 380.269 582.746 392.733 582.841 395.094C583.004 399.194 583.661 405.753 583.661 405.753C583.661 405.753 585.218 407.311 588.335 406.654C588.335 406.654 591.111 397.292 591.905 387.386C591.917 387.223 591.929 387.06 591.942 386.896C592.679 376.812 593.827 355.577 593.827 355.577L579.91 356.437Z" fill="#739AF0"/>
<path d="M579.91 356.437C579.91 356.437 580.408 362.652 580.994 370.121L591.905 387.386C591.917 387.223 591.929 387.06 591.942 386.896C592.679 376.812 593.827 355.577 593.827 355.577L579.91 356.437Z" fill="#4A75CB"/>
<path d="M582.184 357.175C582.184 357.175 591.161 379.681 597.064 390.257C602.967 400.834 604.812 403.785 604.812 403.785C604.812 403.785 608.194 402.432 608.502 401.51C608.502 401.51 606.244 381.092 602.291 376.114C600.057 373.302 597.433 364.862 597.31 361.91C597.187 358.959 596.511 353.117 596.511 353.117L582.184 357.175Z" fill="#739AF0"/>
<path d="M578.229 321.745C578.229 321.745 574.566 328.19 570.985 329.031C570.985 329.031 571.134 326.866 572.006 325.385C571.649 324.964 571.336 324.578 571.064 324.231C570.163 323.076 569.734 322.369 569.734 322.369L570.949 319.103L571.774 316.886C572.17 317.606 572.607 318.219 573.062 318.743C575.409 321.44 578.229 321.745 578.229 321.745Z" fill="#FFB27D"/>
<path d="M573.062 318.743C573.062 318.743 573.5 321.972 571.064 324.231C570.163 323.076 569.734 322.369 569.734 322.369L570.949 319.103C572.252 318.705 573.062 318.743 573.062 318.743Z" fill="#ED975D"/>
<path d="M568.768 322.845C568.768 322.845 574.241 320.712 572.86 317.324C571.479 313.936 571.255 311.379 567.702 312.598C564.15 313.817 564.002 315.385 564.188 316.628C564.374 317.871 567.309 323.313 568.768 322.845Z" fill="#FFB27D"/>
<path d="M597.04 354.817C594.832 357.992 578.325 362.233 578.521 360.036C578.596 359.195 578.696 357.712 578.519 355.702C578.477 355.231 578.419 354.732 578.343 354.205C577.924 351.318 576.928 347.606 574.706 343.309C574.54 342.987 574.366 342.663 574.186 342.334C573.271 340.67 572.492 338.911 571.897 337.192C570.754 333.887 570.293 330.725 570.87 328.657C570.872 328.647 570.875 328.638 570.879 328.628C574.33 327.032 575.666 320.845 575.666 320.845C575.666 320.845 587.439 322.958 594.032 338.65C594.032 338.65 598.961 352.055 597.04 354.817Z" fill="#2B478B"/>
<path d="M578.52 355.702C578.478 355.232 578.42 354.733 578.344 354.205C577.925 351.319 576.929 347.606 574.707 343.31C575.088 340.997 575.615 339.074 576.193 338.209C578.541 334.69 579.908 334.14 579.908 334.14C579.908 334.14 583.429 348.988 578.52 355.702Z" fill="#233862"/>
<path d="M573.647 311.031C573.685 310.955 573.796 310.874 574.068 310.791C574.068 310.791 573.813 310.705 573.517 310.77C573.363 310.395 572.99 309.757 572.289 309.752C572.289 309.752 572.691 309.857 572.839 310.259C571.879 309.65 570.1 309.474 565.658 310.953C559.803 312.903 562.728 316.302 563.615 316.574C564.502 316.847 566.136 315.098 567.605 314.859C569.074 314.621 569.869 316.667 570.429 316.837C570.99 317.007 570.671 316.541 571.258 316.075C571.844 315.608 572.181 316.705 572.168 317.476C572.155 318.247 573.299 318.977 573.299 318.977C573.299 318.977 573.299 318.977 573.97 317.747C574.641 316.516 574.458 312.05 573.818 311.246C573.761 311.175 573.704 311.103 573.647 311.031Z" fill="#233862"/>
<path d="M559.332 352.348C559.332 352.348 557.278 352.241 556.823 352.348C556.369 352.455 554.873 353.39 554.873 353.524C554.873 353.657 554.966 353.751 555.247 353.724C555.527 353.697 556.422 353.43 556.382 353.55C556.342 353.67 553.795 354.619 553.853 355.154C553.91 355.688 555.514 356.437 556.743 356.303C557.973 356.169 560.166 354.427 560.339 354.309C560.512 354.192 559.332 352.348 559.332 352.348Z" fill="#FFB27D"/>
<path d="M559.35 353.404C558.698 352.35 559.168 351.87 559.168 351.87C559.168 351.87 569.228 343.993 570.017 343.197C570.805 342.402 574.458 329.731 574.458 329.731C574.458 329.731 575.715 324.604 578.659 324.038C581.217 323.547 582.986 324.812 584.143 326.296C585.521 328.064 585.657 330.503 584.512 332.431C581.944 336.759 576.762 345.351 575.249 346.818C571.881 350.085 560.614 354.651 560.614 354.651C560.614 354.651 559.863 354.232 559.35 353.404Z" fill="#2B478B"/>
</g>
<defs>
<clipPath id="clip0_672_44109">
<rect width="684" height="480" fill="white"/>
</clipPath>
</defs>
</svg>
