<svg width="24" height="24" viewBox="0 0 24 24" fill="none" xmlns="http://www.w3.org/2000/svg">
<path d="M18.8341 17.5158V15.0636L15.5908 11.7412L16.1445 11.1875L19.5856 14.7472L19.6251 17.5158H18.8341Z" fill="#324878"/>
<path d="M18.8341 17.5158V15.0636L15.5908 11.7412L16.1445 11.1875L19.5856 14.7472L19.6251 17.5158H18.8341Z" stroke="#324878"/>
<path d="M16.2995 20.6723C16.3015 20.9157 16.104 21.1137 15.8606 21.1123L3.01132 21.038C2.79382 21.0367 2.61816 20.8601 2.61816 20.6426C2.61816 20.4232 2.79669 20.2458 3.01603 20.2471L15.0693 20.3211C15.3128 20.3226 15.5104 20.1245 15.5083 19.881L15.395 6.66057C15.394 6.54529 15.4387 6.4343 15.5193 6.35185L18.5367 3.26425C18.6804 3.11723 18.9151 3.11154 19.0657 3.25141C19.2211 3.39574 19.2279 3.6395 19.0807 3.79221L16.3082 6.66872C16.2289 6.75094 16.185 6.86096 16.186 6.97516L16.2995 20.6723Z" fill="#324878"/>
<path d="M16.2995 20.6723C16.3015 20.9157 16.104 21.1137 15.8606 21.1123L3.01132 21.038C2.79382 21.0367 2.61816 20.8601 2.61816 20.6426C2.61816 20.4232 2.79669 20.2458 3.01603 20.2471L15.0693 20.3211C15.3128 20.3226 15.5104 20.1245 15.5083 19.881L15.395 6.66057C15.394 6.54529 15.4387 6.4343 15.5193 6.35185L18.5367 3.26425C18.6804 3.11723 18.9151 3.11154 19.0657 3.25141C19.2211 3.39574 19.2279 3.6395 19.0807 3.79221L16.3082 6.66872C16.2289 6.75094 16.185 6.86096 16.186 6.97516L16.2995 20.6723Z" stroke="#324878"/>
<path d="M19.2696 21.1149C18.1621 21.1149 17.292 20.2052 17.292 19.0977C17.292 18.544 17.4898 18.0694 17.8457 17.6738C18.2017 17.3179 18.6763 17.1201 19.1905 17.1201C20.2979 17.1201 21.1681 18.0298 21.1681 19.1373C21.1681 19.691 20.9703 20.1656 20.6144 20.5611C20.2584 20.9171 19.7838 21.1149 19.2696 21.1149ZM19.23 17.9112C18.9136 17.9112 18.6368 18.0298 18.3995 18.2671C18.1621 18.5044 18.0435 18.8209 18.0435 19.1373C18.0435 19.8097 18.5972 20.3634 19.23 20.3634C19.5465 20.3634 19.8233 20.2447 20.0211 20.0074C20.2584 19.7701 20.3771 19.4537 20.3771 19.1373C20.4166 18.4649 19.9024 17.9112 19.23 17.9112Z" fill="#324878"/>
<path d="M19.2696 21.1149C18.1621 21.1149 17.292 20.2052 17.292 19.0977C17.292 18.544 17.4898 18.0694 17.8457 17.6738C18.2017 17.3179 18.6763 17.1201 19.1905 17.1201C20.2979 17.1201 21.1681 18.0298 21.1681 19.1373C21.1681 19.691 20.9703 20.1656 20.6144 20.5611C20.2584 20.9171 19.7838 21.1149 19.2696 21.1149ZM19.23 17.9112C18.9136 17.9112 18.6368 18.0298 18.3995 18.2671C18.1621 18.5044 18.0435 18.8209 18.0435 19.1373C18.0435 19.8097 18.5972 20.3634 19.23 20.3634C19.5465 20.3634 19.8233 20.2447 20.0211 20.0074C20.2584 19.7701 20.3771 19.4537 20.3771 19.1373C20.4166 18.4649 19.9024 17.9112 19.23 17.9112Z" stroke="#324878"/>
<path d="M14.2069 19.1371L3.05323 19.0184L2.93457 7.86475L14.1278 7.94385L14.2069 19.1371ZM3.80472 18.2669L13.4159 18.346L13.3368 8.69534L3.72561 8.61624L3.80472 18.2669Z" fill="#324878"/>
<path d="M14.2069 19.1371L3.05323 19.0184L2.93457 7.86475L14.1278 7.94385L14.2069 19.1371ZM3.80472 18.2669L13.4159 18.346L13.3368 8.69534L3.72561 8.61624L3.80472 18.2669Z" stroke="#324878"/>
<path d="M10.6471 15.6169L8.5904 14.2326L6.57324 15.5774L6.49414 7.9043L10.568 7.94385L10.6471 15.6169ZM8.5904 13.2834L9.85606 14.114L9.81651 8.65579L7.32473 8.61623L7.36429 14.0744L8.5904 13.2834Z" fill="#324878"/>
<path d="M10.6471 15.6169L8.5904 14.2326L6.57324 15.5774L6.49414 7.9043L10.568 7.94385L10.6471 15.6169ZM8.5904 13.2834L9.85606 14.114L9.81651 8.65579L7.32473 8.61623L7.36429 14.0744L8.5904 13.2834Z" stroke="#324878"/>
</svg>
