<svg width="24" height="24" viewBox="0 0 24 24" fill="none" xmlns="http://www.w3.org/2000/svg">
<path d="M18.8331 17.5158V15.0636L15.5898 11.7412L16.1436 11.1875L19.5846 14.7472L19.6242 17.5158H18.8331Z" fill="#324878"/>
<path d="M18.8331 17.5158V15.0636L15.5898 11.7412L16.1436 11.1875L19.5846 14.7472L19.6242 17.5158H18.8331Z" stroke="#324878"/>
<path d="M16.2985 20.6723C16.3005 20.9157 16.103 21.1137 15.8597 21.1123L3.01034 21.038C2.79284 21.0367 2.61719 20.8601 2.61719 20.6426C2.61719 20.4232 2.79572 20.2458 3.01506 20.2471L15.0683 20.3211C15.3118 20.3226 15.5094 20.1245 15.5074 19.881L15.394 6.66057C15.3931 6.54529 15.4377 6.4343 15.5183 6.35185L18.5357 3.26425C18.6794 3.11723 18.9141 3.11154 19.0647 3.25141C19.2201 3.39574 19.2269 3.6395 19.0797 3.79221L16.3072 6.66872C16.2279 6.75094 16.1841 6.86096 16.185 6.97516L16.2985 20.6723Z" fill="#324878"/>
<path d="M16.2985 20.6723C16.3005 20.9157 16.103 21.1137 15.8597 21.1123L3.01034 21.038C2.79284 21.0367 2.61719 20.8601 2.61719 20.6426C2.61719 20.4232 2.79572 20.2458 3.01506 20.2471L15.0683 20.3211C15.3118 20.3226 15.5094 20.1245 15.5074 19.881L15.394 6.66057C15.3931 6.54529 15.4377 6.4343 15.5183 6.35185L18.5357 3.26425C18.6794 3.11723 18.9141 3.11154 19.0647 3.25141C19.2201 3.39574 19.2269 3.6395 19.0797 3.79221L16.3072 6.66872C16.2279 6.75094 16.1841 6.86096 16.185 6.97516L16.2985 20.6723Z" stroke="#324878"/>
<path d="M19.2706 21.1149C18.1631 21.1149 17.293 20.2052 17.293 19.0977C17.293 18.544 17.4907 18.0694 17.8467 17.6738C18.2027 17.3179 18.6773 17.1201 19.1915 17.1201C20.2989 17.1201 21.1691 18.0298 21.1691 19.1373C21.1691 19.691 20.9713 20.1656 20.6153 20.5611C20.2594 20.9171 19.7847 21.1149 19.2706 21.1149ZM19.231 17.9112C18.9146 17.9112 18.6377 18.0298 18.4004 18.2671C18.1631 18.5044 18.0445 18.8209 18.0445 19.1373C18.0445 19.8097 18.5982 20.3634 19.231 20.3634C19.5474 20.3634 19.8243 20.2447 20.0221 20.0074C20.2594 19.7701 20.378 19.4537 20.378 19.1373C20.4176 18.4649 19.9034 17.9112 19.231 17.9112Z" fill="#324878"/>
<path d="M19.2706 21.1149C18.1631 21.1149 17.293 20.2052 17.293 19.0977C17.293 18.544 17.4907 18.0694 17.8467 17.6738C18.2027 17.3179 18.6773 17.1201 19.1915 17.1201C20.2989 17.1201 21.1691 18.0298 21.1691 19.1373C21.1691 19.691 20.9713 20.1656 20.6153 20.5611C20.2594 20.9171 19.7847 21.1149 19.2706 21.1149ZM19.231 17.9112C18.9146 17.9112 18.6377 18.0298 18.4004 18.2671C18.1631 18.5044 18.0445 18.8209 18.0445 19.1373C18.0445 19.8097 18.5982 20.3634 19.231 20.3634C19.5474 20.3634 19.8243 20.2447 20.0221 20.0074C20.2594 19.7701 20.378 19.4537 20.378 19.1373C20.4176 18.4649 19.9034 17.9112 19.231 17.9112Z" stroke="#324878"/>
<path d="M14.2059 19.1371L3.05225 19.0184L2.93359 7.86475L14.1268 7.94385L14.2059 19.1371ZM3.80374 18.2669L13.4149 18.346L13.3358 8.69534L3.72463 8.61624L3.80374 18.2669Z" fill="#324878"/>
<path d="M14.2059 19.1371L3.05225 19.0184L2.93359 7.86475L14.1268 7.94385L14.2059 19.1371ZM3.80374 18.2669L13.4149 18.346L13.3358 8.69534L3.72463 8.61624L3.80374 18.2669Z" stroke="#324878"/>
<path d="M10.6452 15.6169L8.58845 14.2326L6.57129 15.5774L6.49219 7.9043L10.566 7.94385L10.6452 15.6169ZM8.58845 13.2834L9.85411 14.114L9.81456 8.65579L7.32278 8.61623L7.36233 14.0744L8.58845 13.2834Z" fill="#324878"/>
<path d="M10.6452 15.6169L8.58845 14.2326L6.57129 15.5774L6.49219 7.9043L10.566 7.94385L10.6452 15.6169ZM8.58845 13.2834L9.85411 14.114L9.81456 8.65579L7.32278 8.61623L7.36233 14.0744L8.58845 13.2834Z" stroke="#324878"/>
</svg>
