<svg width="24" height="24" viewBox="0 0 24 24" fill="none" xmlns="http://www.w3.org/2000/svg">
<path fill-rule="evenodd" clip-rule="evenodd" d="M5.52399 3.70026V19.6814C5.52399 20.009 5.79168 20.2807 6.12328 20.2807H17.8534C18.185 20.2807 18.4527 20.013 18.4527 19.6814V3.70026H5.52399ZM17.8534 20.6562H6.12328C5.58392 20.6562 5.14844 20.2167 5.14844 19.6814V3.51248C5.14844 3.40861 5.23234 3.32471 5.33622 3.32471H18.6405C18.7444 3.32471 18.8283 3.40861 18.8283 3.51248V19.6814C18.8283 20.2207 18.3888 20.6562 17.8534 20.6562Z" fill="#324878"/>
<path fill-rule="evenodd" clip-rule="evenodd" d="M11.1655 7.16007H7.28609C7.05037 7.16007 6.85859 6.9683 6.85859 6.73258V6.31308C6.85859 6.2891 6.84261 6.26913 6.81864 6.26513C5.86377 6.14927 5.14062 5.33423 5.14062 4.37137C5.14062 4.26749 5.22453 4.18359 5.3284 4.18359C5.43228 4.18359 5.51618 4.26749 5.51618 4.37137C5.51618 5.14246 6.0955 5.79369 6.85859 5.88958C7.07034 5.91754 7.23415 6.09733 7.23415 6.31308V6.73258C7.23415 6.75655 7.25413 6.78052 7.28209 6.78052H11.1615C11.2654 6.78052 11.3493 6.86442 11.3493 6.9683C11.3573 7.07617 11.2734 7.16007 11.1655 7.16007ZM16.683 7.16007H12.8076C12.7037 7.16007 12.6198 7.07617 12.6198 6.9723C12.6198 6.86842 12.7037 6.78452 12.8076 6.78452H16.683C16.7069 6.78452 16.7309 6.76454 16.7309 6.73658V6.31707C16.7309 6.10133 16.8907 5.92154 17.1065 5.89357C17.8736 5.80168 18.4489 5.14646 18.4489 4.37537C18.4489 4.27149 18.5328 4.18759 18.6367 4.18759C18.7405 4.18759 18.8244 4.27149 18.8244 4.37537C18.8244 5.33823 18.1053 6.15326 17.1464 6.26913C17.1225 6.27312 17.1065 6.2931 17.1065 6.31707V6.73658C17.1105 6.9683 16.9187 7.16007 16.683 7.16007Z" fill="#324878"/>
<path fill-rule="evenodd" clip-rule="evenodd" d="M11.9874 4.59937C11.6398 4.59937 11.3561 4.88303 11.3561 5.23062C11.3561 5.57821 11.6398 5.86187 11.9874 5.86187C12.335 5.86187 12.6186 5.57821 12.6186 5.23062C12.6146 4.87904 12.335 4.59937 11.9874 4.59937ZM11.9874 6.23743C11.432 6.23743 10.9766 5.78596 10.9766 5.22663C10.9766 4.67128 11.428 4.21582 11.9874 4.21582C12.5427 4.21582 12.9982 4.66729 12.9982 5.22663C12.9942 5.78596 12.5427 6.23743 11.9874 6.23743Z" fill="#324878"/>
<path fill-rule="evenodd" clip-rule="evenodd" d="M11.9874 8.65845C11.6398 8.65845 11.3561 8.94211 11.3561 9.2897C11.3561 9.63729 11.6398 9.92096 11.9874 9.92096C12.335 9.92096 12.6186 9.63729 12.6186 9.2897C12.6146 8.94211 12.335 8.65845 11.9874 8.65845ZM11.9874 10.2965C11.432 10.2965 10.9766 9.84505 10.9766 9.28571C10.9766 8.73036 11.428 8.2749 11.9874 8.2749C12.5427 8.2749 12.9982 8.72637 12.9982 9.28571C12.9942 9.84505 12.5427 10.2965 11.9874 10.2965Z" fill="#324878"/>
<path fill-rule="evenodd" clip-rule="evenodd" d="M11.1643 9.47724C11.0605 9.47724 10.9766 9.39334 10.9766 9.28946V5.23026C10.9766 5.12638 11.0605 5.04248 11.1643 5.04248C11.2682 5.04248 11.3521 5.12638 11.3521 5.23026V9.28946C11.3561 9.39334 11.2722 9.47724 11.1643 9.47724Z" fill="#324878"/>
<path fill-rule="evenodd" clip-rule="evenodd" d="M12.8089 9.47724C12.705 9.47724 12.6211 9.39334 12.6211 9.28946V5.23026C12.6211 5.12638 12.705 5.04248 12.8089 5.04248C12.9127 5.04248 12.9966 5.12638 12.9966 5.23026V9.28946C12.9966 9.39334 12.9127 9.47724 12.8089 9.47724Z" fill="#324878"/>
<path fill-rule="evenodd" clip-rule="evenodd" d="M18.6405 18.2388H5.33622C5.23234 18.2388 5.14844 18.1549 5.14844 18.0511C5.14844 17.9472 5.23234 17.8633 5.33622 17.8633H18.6405C18.7444 17.8633 18.8283 17.9472 18.8283 18.0511C18.8283 18.1509 18.7444 18.2388 18.6405 18.2388Z" fill="#324878"/>
<path fill-rule="evenodd" clip-rule="evenodd" d="M18.6405 11.1675H5.33622C5.23234 11.1675 5.14844 11.0836 5.14844 10.9798C5.14844 10.8759 5.23234 10.792 5.33622 10.792H18.6405C18.7444 10.792 18.8283 10.8759 18.8283 10.9798C18.8283 11.0836 18.7444 11.1675 18.6405 11.1675Z" fill="#324878"/>
<path fill-rule="evenodd" clip-rule="evenodd" d="M11.988 15.9376C12.008 15.9376 12.028 15.9416 12.0479 15.9496L13.1427 16.3252L13.1227 15.1705C13.1227 15.1266 13.1347 15.0866 13.1626 15.0547L13.8578 14.1318L12.7511 13.7922C12.7112 13.7802 12.6752 13.7562 12.6512 13.7203L11.988 12.7734L11.3248 13.7203C11.3008 13.7562 11.2649 13.7802 11.2249 13.7922L10.1182 14.1318L10.8134 15.0547C10.8374 15.0866 10.8534 15.1306 10.8534 15.1705L10.8334 16.3252L11.9281 15.9496C11.9441 15.9376 11.964 15.9376 11.988 15.9376ZM13.3344 16.7806C13.3145 16.7806 13.2945 16.7766 13.2745 16.7687L11.988 16.3252L10.7015 16.7687C10.6416 16.7886 10.5777 16.7806 10.5297 16.7447C10.4818 16.7087 10.4498 16.6488 10.4498 16.5889L10.4738 15.2265L9.65478 14.1398C9.61882 14.0918 9.60683 14.0279 9.62681 13.968C9.64679 13.908 9.69074 13.8641 9.75066 13.8441L11.0531 13.4446L11.8362 12.3299C11.8722 12.278 11.9281 12.25 11.992 12.25C12.0519 12.25 12.1119 12.282 12.1478 12.3299L12.9309 13.4446L14.2334 13.8441C14.2933 13.8641 14.3372 13.908 14.3572 13.968C14.3772 14.0279 14.3652 14.0918 14.3293 14.1398L13.5102 15.2265L13.5342 16.5889C13.5342 16.6488 13.5062 16.7087 13.4543 16.7447C13.4143 16.7647 13.3744 16.7806 13.3344 16.7806Z" fill="#324878"/>
<path fill-rule="evenodd" clip-rule="evenodd" d="M17.5789 16.1334H15.805C15.7011 16.1334 15.6172 16.0495 15.6172 15.9456C15.6172 15.8417 15.7011 15.7578 15.805 15.7578H17.5789C17.6827 15.7578 17.7666 15.8417 17.7666 15.9456C17.7666 16.0495 17.6827 16.1334 17.5789 16.1334Z" fill="#324878"/>
<path fill-rule="evenodd" clip-rule="evenodd" d="M17.5755 17.0806H15.2503C15.1464 17.0806 15.0625 16.9967 15.0625 16.8929C15.0625 16.789 15.1464 16.7051 15.2503 16.7051H17.5755C17.6794 16.7051 17.7633 16.789 17.7633 16.8929C17.7633 16.9967 17.6794 17.0806 17.5755 17.0806Z" fill="#324878"/>
</svg>
