<svg width="24" height="24" viewBox="0 0 24 24" fill="none" xmlns="http://www.w3.org/2000/svg">
<path d="M3.87598 17.4916L12.3193 22.3667C12.3252 22.3696 12.331 22.3716 12.3379 22.3745C12.3447 22.3774 12.3516 22.3804 12.3584 22.3833V22.3823C12.4131 22.4058 12.4756 22.4058 12.5303 22.3823C12.5371 22.3794 12.5439 22.3774 12.5508 22.3735V22.3745C12.5566 22.3716 12.5635 22.3696 12.5693 22.3667L21.0127 17.4916C21.0908 17.4467 21.1377 17.3637 21.1377 17.2748V7.52472C21.1377 7.52082 21.1357 7.51789 21.1357 7.51496C21.1348 7.48957 21.1299 7.46417 21.1211 7.44074C21.1016 7.38507 21.0625 7.33819 21.0127 7.30792L12.5693 2.43286C12.4922 2.38892 12.3965 2.38892 12.3193 2.43286L3.87598 7.30792C3.86035 7.31769 3.84668 7.32745 3.83496 7.34015C3.82715 7.34601 3.82031 7.35284 3.81348 7.36066C3.79981 7.37726 3.78711 7.39581 3.77734 7.41535C3.77344 7.42413 3.76953 7.43292 3.7666 7.44269C3.75781 7.46613 3.75293 7.49054 3.75195 7.51593C3.75195 7.51984 3.75 7.52179 3.75 7.52472V17.2748C3.75 17.3647 3.79785 17.4467 3.87598 17.4916ZM20.6389 17.1313L12.6946 21.7173V12.5445L15.0442 11.188V14.8678C15.0442 14.9782 15.1165 15.0748 15.221 15.1071C15.3255 15.1393 15.4397 15.0993 15.5013 15.0084L16.6536 13.3141L17.6409 13.6959L17.6419 13.6969C17.7191 13.7262 17.805 13.7164 17.8734 13.6696C17.9417 13.6227 17.9817 13.5455 17.9817 13.4635V9.96345C17.9817 9.81696 17.9583 9.67242 17.9153 9.53277L20.6399 7.96048L20.6389 17.1313ZM12.4446 2.93861L20.3899 7.52667L17.6886 9.08529C17.5695 8.92513 17.4191 8.79133 17.2463 8.69173L9.86342 4.42893L12.4446 2.93861ZM9.36354 4.71696L16.9974 9.12426C17.2962 9.29712 17.4808 9.61647 17.4808 9.96217V13.098L16.6478 12.7757C16.5394 12.7337 16.4163 12.7718 16.3509 12.8685L15.5442 14.056V10.6662C15.5442 10.5763 15.4974 10.4943 15.4192 10.4494L7.42589 5.83607L9.36354 4.71696ZM6.92504 6.1242L14.8694 10.7103L12.4446 12.1107L4.49821 7.52562L6.92504 6.1242ZM4.25026 7.96017L12.1946 12.5442V21.7171L4.25126 17.13L4.25026 7.96017Z" fill="#324878"/>
</svg>
