<svg width="24" height="24" viewBox="0 0 24 24" fill="none" xmlns="http://www.w3.org/2000/svg">
<path d="M21.7561 18.0096H20.8929C20.9729 17.8686 21.0244 17.7076 21.0244 17.5314V11.1708C21.0244 10.6392 20.5899 10.2048 20.0583 10.2048H16.5027C16.5827 10.0638 16.6341 9.90274 16.6341 9.7265V3.36598C16.6341 2.83434 16.1997 2.3999 15.6681 2.3999H8.33193C7.80029 2.3999 7.36585 2.83434 7.36585 3.36598V9.7265C7.36585 9.9018 7.4173 10.0628 7.49733 10.2048H3.9417C3.41007 10.2048 2.97562 10.6392 2.97562 11.1708V17.5314C2.97562 17.7067 3.02707 17.8677 3.1071 18.0096H2.2439C2.10957 18.0096 2 18.1192 2 18.2535V22.156C2 22.2903 2.10957 22.3999 2.2439 22.3999H5.17075C5.30508 22.3999 5.41465 22.2903 5.41465 22.156V20.4487H10.2927V22.156C10.2927 22.2903 10.4023 22.3999 10.5366 22.3999H13.4635C13.5978 22.3999 13.7074 22.2903 13.7074 22.156V20.4487H18.5854V22.156C18.5854 22.2903 18.695 22.3999 18.8293 22.3999H21.7562C21.8905 22.3999 22.0001 22.2903 22.0001 22.156V18.2535C22.0001 18.1192 21.8904 18.0096 21.7561 18.0096ZM20.5366 11.1708V17.5313C20.5366 17.7943 20.3222 18.0096 20.0583 18.0096H12.7222C12.4583 18.0096 12.2439 17.7952 12.2439 17.5313V11.1708C12.2439 10.9079 12.4583 10.6926 12.7222 10.6926H15.1707V12.8877C15.1707 12.9734 15.2145 13.0516 15.285 13.0954C15.3555 13.1392 15.4461 13.144 15.5213 13.1049L16.3902 12.6733L17.2563 13.1078C17.2906 13.1221 17.3296 13.1316 17.3659 13.1316C17.4097 13.1316 17.4564 13.1192 17.4954 13.0954C17.5659 13.0516 17.6098 12.9734 17.6098 12.8877V10.6925H20.0583C20.3222 10.6925 20.5366 10.9069 20.5366 11.1708ZM17.1219 12.4923L16.4998 12.1798C16.4655 12.1655 16.4264 12.156 16.3902 12.156C16.354 12.156 16.3149 12.1655 16.2806 12.1827L15.6585 12.4923V10.6926H17.1219L17.1219 12.4923ZM12.7317 2.88761V4.68735L12.1095 4.37486C12.0752 4.36057 12.0361 4.35104 11.9999 4.35104C11.9637 4.35104 11.9247 4.36057 11.8904 4.37772L11.2682 4.68736V2.88762L12.7317 2.88761ZM7.85358 9.72643V3.36591C7.85358 3.10295 8.06795 2.88764 8.33185 2.88764H10.7804V5.08277C10.7804 5.16852 10.8242 5.24664 10.8947 5.29047C10.9652 5.33429 11.0557 5.33906 11.131 5.3L11.9999 4.86841L12.866 5.30285C12.9003 5.31714 12.9393 5.32667 12.9755 5.32667C13.0194 5.32667 13.066 5.31428 13.1051 5.29046C13.1756 5.24664 13.2194 5.16851 13.2194 5.08276V2.88763H15.668C15.9309 2.88763 16.1463 3.102 16.1463 3.3659V9.72642C16.1463 9.98937 15.9319 10.2047 15.668 10.2047H8.33185C8.06795 10.2047 7.85358 9.99033 7.85358 9.72643ZM8.33185 10.6925H8.34138V12.4922L7.71923 12.1798C7.68493 12.1655 7.64587 12.1559 7.60966 12.1559C7.57346 12.1559 7.5344 12.1655 7.5001 12.1826L6.87795 12.4922V10.6925L8.33185 10.6925ZM3.46329 17.5313V11.1708C3.46329 10.9078 3.67766 10.6925 3.94156 10.6925H6.39011V12.8877C6.39011 12.9734 6.43394 13.0515 6.50444 13.0954C6.57494 13.1392 6.66545 13.1439 6.74072 13.1049L7.60963 12.6733L8.47568 13.1077C8.50998 13.122 8.54904 13.1316 8.58525 13.1316C8.62907 13.1316 8.67576 13.1192 8.71482 13.0954C8.78532 13.0515 8.82915 12.9734 8.82915 12.8877V10.6925H11.2777C11.5407 10.6925 11.756 10.9069 11.756 11.1708V17.5313C11.756 17.7943 11.5416 18.0096 11.2777 18.0096H3.94157C3.67766 18.0096 3.46329 17.7952 3.46329 17.5313ZM21.5122 21.9121H19.0731V20.2047C19.0731 20.0704 18.9636 19.9608 18.8292 19.9608H13.4633C13.329 19.9608 13.2194 20.0704 13.2194 20.2047V21.9121H10.7804V20.2047C10.7804 20.0704 10.6708 19.9608 10.5365 19.9608H5.17062C5.03628 19.9608 4.92671 20.0704 4.92671 20.2047V21.9121H2.48768V18.4974H21.5122V21.9121Z" fill="#324878"/>
</svg>
