<svg width="151" height="61" viewBox="0 0 151 61" fill="none" xmlns="http://www.w3.org/2000/svg">
<g clip-path="url(#clip0_665_28993)">
<path d="M150.5 0.740234H0.5V60.7402H150.5V0.740234Z" fill="white"/>
<path d="M50.5669 39.4772L54.2731 22.04H30.0031L26.2969 39.4772H50.5669Z" fill="white"/>
<path d="M53.4746 22.6822H30.5207L30.5069 22.7587C30.5069 22.7587 44.0012 25.5295 44.2688 25.5772C47.3693 26.1244 47.2733 26.7226 47.2733 26.7226C49.4459 26.7118 49.7129 26.7997 50.0933 27.1162C51.2354 28.0705 49.3787 30.8821 49.3787 30.8821C49.1131 31.078 29.0387 38.83 29.0387 38.83H50.0387L53.4743 22.6825L53.4746 22.6822ZM57.8753 22.6822L57.0035 26.7865C56.6912 28.2043 57.6473 28.8466 59.24 28.8466C60.8386 28.8466 62.054 28.2043 62.3582 26.7865C63.245 22.6822 62.3489 26.7865 63.2453 22.6825H61.9085C61.9085 22.6825 61.2332 25.84 61.1161 26.3803C60.9146 27.3271 60.4154 27.8926 59.4361 27.8926C58.4132 27.8845 58.2035 27.3181 58.4132 26.3803C58.3895 26.4748 59.2088 22.6825 59.2088 22.6825H57.8762L57.8753 22.6822ZM64.5257 22.6822L63.2411 28.7365H64.4249L65.3597 24.2431H65.3864L66.8819 28.7365H68.5618L69.8444 22.6819H68.6626L67.7086 27.2254H67.6918L66.2561 22.6822H64.5257ZM71.1256 22.6822L69.8444 28.7365H71.1778L72.4618 22.6822H71.1256ZM73.3558 22.6822L73.1444 23.6458H75.0278L73.9465 28.7365H75.2819L76.3619 23.6455H78.2444L78.4474 22.6819H73.3565L73.3558 22.6822ZM79.3436 22.6822L78.0517 28.7365H82.4399L82.6442 27.7729H79.597L79.9439 26.1181H82.6018L82.7944 25.2238H80.1368L80.4728 23.6455H83.5229L83.7239 22.6819H79.3438L79.3436 22.6822ZM84.6973 22.6822L83.416 28.7365H86.1502C87.8396 28.7365 89.4605 27.6226 89.8246 25.4437C90.0848 23.8987 89.4683 22.6816 87.6347 22.6816H84.6946L84.6973 22.6822ZM94.7341 22.6822C93.1651 22.6822 92.3851 23.2393 92.2691 24.1105C92.075 25.561 94.6414 26.4229 94.4482 27.2905C94.3283 27.7984 93.7051 27.7723 93.1988 27.7723H91.5536L91.349 28.7365H93.3932C95.0653 28.7365 95.7914 28.1365 95.9255 27.3082C96.1691 25.8223 93.562 25.0549 93.7654 24.0931C93.8321 23.797 94.1603 23.6455 94.8866 23.6455H96.3139L96.5239 22.6819H94.7351L94.7341 22.6822ZM97.2089 22.6822L96.9989 23.6458H98.8813L97.8013 28.7365H99.1351L100.215 23.6455H102.099L102.302 22.6819H97.2092L97.2089 22.6822ZM103.715 22.6822L100.246 28.7365H101.581L104.24 23.8825L104.772 27.7732H102.862L102.342 28.7365H106.258L105.312 22.6822H103.716H103.715ZM106.785 22.6822L106.575 23.6458H108.457L107.376 28.7365H108.71L109.79 23.6455H111.672L111.876 22.6819H106.785L106.785 22.6822ZM112.766 22.6822L111.473 28.7365H115.863L116.067 27.7729H113.017L113.364 26.1181H116.024L116.217 25.2238H113.558L113.896 23.6455H116.943L117.147 22.6819H112.767L112.766 22.6822ZM120.082 22.6822C118.511 22.6822 117.734 23.2393 117.615 24.1105C117.421 25.561 119.988 26.4229 119.795 27.2905C119.675 27.7984 119.05 27.7723 118.544 27.7723H116.898L116.696 28.7365H118.738C120.411 28.7365 121.138 28.1365 121.274 27.3082C121.517 25.8223 118.909 25.0549 119.11 24.0931C119.178 23.797 119.508 23.6455 120.234 23.6455H121.659L121.872 22.6819H120.083L120.082 22.6822ZM85.8377 23.6458H87.1991C88.3036 23.6458 88.699 24.4654 88.5304 25.4272C88.2949 26.7871 87.4249 27.7732 85.9153 27.7732H84.9614L85.8377 23.6458ZM41.5472 26.4163C40.9385 26.4115 40.5104 26.4202 40.4615 26.4163H29.7304L27.0938 38.8354C27.0938 38.8354 35.1695 34.8721 36.1574 34.3654C38.5478 33.0975 41.0231 31.9966 43.5656 31.0705C44.8234 30.6555 46.103 30.3094 47.3987 30.0337C47.875 29.9485 48.0779 29.8675 48.0719 29.7784C48.0536 29.5237 47.5739 29.5084 46.7627 29.5465C44.2871 29.6629 39.5435 31.5523 38.1776 32.2723L36.6365 27.4951H46.4858C46.8173 26.5651 43.3727 26.4307 41.5469 26.4151L41.5472 26.4163ZM46.769 27.5665C46.6975 27.5665 46.6361 27.6148 46.5529 27.727C46.4673 27.8424 46.3523 27.9327 46.2199 27.9886C45.7428 28.1399 45.2481 28.2289 44.7481 28.2535C44.3909 28.2835 44.2936 28.3195 44.2877 28.4578C44.2844 28.5811 44.341 28.6513 44.8535 28.6513C46.0331 28.6513 48.1562 28.2064 48.7961 28.4113C49.1336 28.5196 48.8624 29.1211 48.5861 29.9113C48.4787 30.217 48.6889 30.1954 48.8116 30.0613C49.152 29.557 49.4001 28.9963 49.5445 28.4053C49.6289 27.6763 49.0019 27.5665 48.1409 27.5665H46.769ZM64.2194 32.6665C62.3456 32.6665 60.7844 33.6457 60.3269 35.7985C59.9669 37.5205 61.0126 38.938 62.8769 38.938C64.7684 38.938 66.2878 38.0026 66.761 35.7985C67.1495 34.0012 66.0767 32.6665 64.2194 32.6665ZM117.662 32.6665C115.804 32.6665 114.016 33.6265 113.559 35.7985C113.096 37.9678 114.471 38.938 116.33 38.938C116.831 38.9321 117.331 38.8876 117.825 38.8051L118.155 37.7638C117.625 37.9031 117.08 37.9746 116.532 37.9765C115.324 37.9765 114.642 37.1665 114.929 35.7985C115.216 34.4305 116.246 33.628 117.452 33.628C117.932 33.6215 118.41 33.6871 118.87 33.8227L118.99 32.8027C118.553 32.7194 118.109 32.6743 117.664 32.6677L117.662 32.6665ZM70.0249 32.7751C68.4532 32.7751 67.6754 33.3328 67.5574 34.2034C67.3633 35.656 69.9296 36.5167 69.7375 37.3864C69.619 37.8928 68.9932 37.8664 68.4868 37.8664H66.8405L66.6362 38.8288H68.6819C70.3535 38.8288 71.0794 38.2288 71.2141 37.4014C71.4593 35.9161 68.8511 35.1472 69.0541 34.1854C69.1217 33.8893 69.451 33.7378 70.1794 33.7378H71.6035L71.8162 32.7742H70.0265L70.0249 32.7751ZM72.4987 32.7751L72.2887 33.7387H74.1718L73.0919 38.8297H74.4257L75.5084 33.7387H77.3897L77.5907 32.7751H72.4987ZM91.9868 32.7751C90.4151 32.7751 89.6374 33.3328 89.5205 34.2034C89.3251 35.656 91.8904 36.5167 91.6997 37.3864C91.5812 37.8928 90.9553 37.8664 90.4489 37.8664H88.8026L88.5995 38.8288H90.6437C92.3147 38.8288 93.0413 38.2288 93.1759 37.4014C93.4211 35.9161 90.8134 35.1472 91.0126 34.1854C91.0807 33.8893 91.4117 33.7378 92.138 33.7378H93.5641L93.7741 32.7742H91.9865L91.9868 32.7751ZM94.9306 32.7751L93.6385 38.8297H98.03L98.2321 37.8673H95.1839L95.5306 36.2113H98.1905L98.3839 35.3158H95.7251L96.0611 33.7387H99.1103L99.3112 32.7751H94.9319H94.9306ZM100.281 32.7751L98.9975 38.8297H100.332L101.412 33.7297H102.612C103.354 33.7297 103.422 34.1425 103.346 34.5232C103.203 35.2405 102.578 35.5273 101.894 35.5273C101.725 35.5339 101.555 35.5282 101.387 35.5102L102.485 38.8294H103.945L102.949 36.2194C103.418 36.165 103.851 35.9426 104.169 35.5935C104.488 35.2444 104.669 34.792 104.679 34.3198C104.757 33.3064 104.284 32.7745 103.103 32.7745H100.283L100.281 32.7751ZM120.066 32.7751L118.776 38.8297H123.166L123.368 37.8673H120.322L120.668 36.2113H123.328L123.521 35.3158H120.862L121.2 33.7387H124.248L124.45 32.7751H120.066ZM55.7357 32.7751L54.4523 38.8297H55.787L56.867 33.7387H57.9551C58.4465 33.7387 58.7822 33.9829 58.64 34.6417C58.5768 34.9378 58.4085 35.201 58.1663 35.3826C57.9241 35.5642 57.6243 35.652 57.3224 35.6296C57.1202 35.6296 56.9024 35.6041 56.7332 35.587L56.8019 36.4666C56.9951 36.4837 57.224 36.5155 57.4358 36.5155C58.6358 36.5155 59.6894 35.8255 59.9351 34.6744C60.095 33.9154 59.9426 32.776 58.6343 32.776H55.7372L55.7357 32.7751ZM79.0141 32.7751L75.547 38.8297H76.8784L79.5419 33.9748L80.0714 37.8673H78.1646L77.6413 38.8297H81.5573L80.6129 32.7763H79.0145L79.0141 32.7751ZM83.5351 32.7751L82.2527 38.8285H86.3483L86.5583 37.8661H83.7983L84.8783 32.7751H83.5351ZM105.386 32.7751L106.298 38.8285H107.875L111.322 32.7751H110.004L107.345 37.6312L106.72 32.7751H105.387H105.386ZM112.126 32.7751L110.843 38.8285H112.177L113.461 32.7751H112.126H112.126ZM64.0088 33.6286C65.2415 33.6286 65.6558 34.5733 65.3945 35.7991C65.1053 37.1671 64.2956 37.9771 63.0887 37.9771C61.8383 37.9771 61.4246 36.9724 61.6859 35.7991C61.9981 34.4311 62.8022 33.6286 64.0088 33.6286Z" fill="#15569C"/>
<path d="M56.2078 30.5317L56.1133 30.9817H124.832L124.925 30.5317H56.2126H56.2078Z" fill="#ED192D"/>
</g>
<defs>
<clipPath id="clip0_665_28993">
<rect width="150" height="60" fill="white" transform="translate(0.5 0.740234)"/>
</clipPath>
</defs>
</svg>
